<?xml version="1.0" encoding="utf-8"?>
<!-- Generator: Adobe Illustrator 19.1.0, SVG Export Plug-In . SVG Version: 6.00 Build 0)  -->
<svg version="1.1" id="Ebene_1" xmlns="http://www.w3.org/2000/svg" xmlns:xlink="http://www.w3.org/1999/xlink" x="0px" y="0px"
	 viewBox="0 0 487.5 551.4" style="enable-background:new 0 0 487.5 551.4;" xml:space="preserve">
<style type="text/css">
	.st0{fill:#E4191A;}
	.st1{fill:#FFFDFD;}
</style>
<g>
	<g>
		<path class="st0" d="M487.5,0c0,0,0,3.3,0,5.6c-0.1,180-0.1,360.1,0,540.1c0,2.4,0,5.6,0,5.6s-3.5,0-5.5,0
			c-158.8-0.1-317.7-0.1-476.5,0c-2.5,0-5.5,0-5.5,0s0-3.7,0-5.6c0.1-90.1,0.1-180.2,0.1-270.3S0.2,95.3,0,5.2C0,3.2,0,0,0,0
			 M158.4,148.9c6.1-0.9,11.8-2.7,17-5.9c21.3-12.9,33-31.9,33.5-56.8c0.4-21-9.7-41.4-39.9-40.6c-27.8,0.7-55.5,0.3-83.3,0
			c-5.4,0-4.7,3.9-5,6.5c-0.4,3.6,2.9,1.6,4.3,1.6c10.1,0,15.1,6,12.6,15.9c-13.1,51.5-27.2,102.7-41,154c-1.6,5.8-2.4,11.8-5.7,17
			c-3.7,5.7-8.1,10.8-15.8,9.8c-4.8-0.6-6,1.6-6.9,5.5c-0.6,2.5-0.3,3.2,2.4,3.2c33.1-0.1,66.2,0.6,99.2-0.4
			c24.4-0.7,43.3-11.9,53.4-35.2c2.6-5.9,4.1-12.2,5.1-18.6c2.7-18.7-1.6-34.9-16.5-47.5C167.7,154.1,163.1,151.5,158.4,148.9z
			 M404.8,124.1c-5.9-13.1-11.5-15.6-25.1-11.4c-11.5,3.6-20.2,11.1-27.9,20c-13.1,15.1-22.2,32.5-28.8,51.3
			c-5.4,15.2-9.1,30.7-8.2,47c0.4,7.8,2.1,15.3,6.4,22c7.1,11.1,18.9,14.4,30.6,8.3c5.8-3,10.8-7,15.2-11.8c3.1-3.3,6-6.7,9.8-10.9
			c0,3.1-0.1,5.3,0,7.6c0.4,10.4,5,16.8,13.4,18.4c6.6,1.3,12.8-0.1,18.7-3.1c12-6.3,20.7-16.1,28.2-27.1c0.5-0.7,1.3-1.5,0.5-2.2
			c-1.6-1.6-3.2-3.6-5.2-4.3c-1.6-0.6-2.3,2-3.5,3.2c-0.8,0.8-1.5,1.7-2.2,2.6c-2.6,3.1-5,6.3-8.5,8.4c-3.2,2-5.3,0.8-5.2-2.9
			c0.1-2.1,0.6-4.2,1.2-6.3c16.5-60.9,33-121.9,49.7-182.8c1-3.8,0.4-4.6-3.4-4.5c-15.2,0.2-30.4,0.4-45.5,0c-5.7-0.1-5.3,4.1-6.1,7
			c-1,3.5,2.8,2.3,4.4,2.8c7,2.4,9.5,5.4,7.9,11.4C415.9,85.7,410.4,104.6,404.8,124.1z M125.9,434.9c3.2-1.5,6.9,2.2,8.3-2.6
			c7.1-25.3,14.1-50.6,21.1-76c0.2-0.8,0.9-1.6,0-2.3c-1.8-1.6-7.3,0.1-8,2.5c-2,6.8-4.8,13.2-9.5,18.5c-5.2,5.8-11.2,10.1-19.7,9.7
			c-3.7-0.2-4.1-1.4-3.2-4.6c6.5-23.1,12.8-46.2,19.2-69.4c2.2-8,2.2-8,10.6-7.8c13.2,0.3,23.5,8.6,26.2,21.1
			c1,4.6,1.6,9.4,0.6,14.1c-0.7,3.4,0.3,4.4,3.8,4.4c2.8,0,2.9-1.6,3.4-3.4c4.1-15.5,8.1-31,12.3-46.4c0.9-3.4,0.6-4.4-3.4-4.4
			c-33.5,0.2-67,0.2-100.5,0c-4.2,0-6.4,1-7.7,5.1c-1,3.1-1,4,2.7,4.3c10.4,0.9,13.9,6.2,11.2,16.4C78.9,367.1,64.4,420,50.3,473
			c-3.1,11.9-8.4,20.6-21.6,22c-0.1,0-0.3,0-0.4,0.1c-2.7,1.4-2.4,4.4-2.9,6.7c-0.3,1.6,1.7,1,2.7,1c23.3,0.1,46.7,0.1,70,0.3
			c4.6,0,3.5-3.9,4.2-6.1c1-3.2-2.2-1.7-3.4-2c-2.6-0.6-5.3-0.9-7.8-2.1c-4.2-2.1-5.7-5-4.4-9.5c7.9-26.9,14.8-54,22-81.1
			c0.3-1.1,0.3-2.2,1.7-2.8c6.6-2.7,16.6,2,18.8,8.8c1.2,3.8,1.2,7.6,0.6,11.5C129,424.7,127.5,429.3,125.9,434.9z M274.9,483.1
			c0.2,3.6,0.2,6.2,0.4,8.9c1.4,16,12.8,22.6,27.2,15.5c12.1-5.9,19.7-16.3,26.6-27.3c1.9-3-1.7-3.7-2.9-5.2c-1.7-2-2.3,0.4-3.1,1.2
			c-3.1,3.2-5.9,6.6-9.8,9c-2.4,1.5-3.9,0.9-3.9-2c0-2.3,0.2-4.6,0.8-6.8c3-11.5,6.1-22.9,9.4-34.3c7.4-25.5,14.8-51,22.4-76.5
			c0.9-3.1,0.3-4-2.9-4c-6.3,0.1-12.6-0.2-18.9-0.3c-3.4,0-7.6-1.1-10,0.5c-2.1,1.4-2.3,5.9-3.2,9c-0.1,0.4-0.2,0.5-0.9,0
			c-0.5-0.9-1.1-2.2-1.8-3.4c-6.6-11.3-18.9-14.6-30.2-8c-3.9,2.2-7.4,4.9-10.5,8.1c-25.1,26.6-41.3,57.4-43.9,94.5
			c-0.9,12.3-0.4,24.7,5.1,36.1c6.1,12.6,18.5,15.8,30.1,7.9c6.2-4.2,11.1-9.9,15.3-16.1C271.6,487.9,273,485.9,274.9,483.1z
			 M441.6,474.3c-3.4,3.8-6.5,7.9-10.7,11.1c-1.1,0.9-2.5,2-3.9,1.3c-1.7-0.8-1.4-2.7-1.2-4.2c0.5-3,1.2-5.9,2-8.8
			c10.2-36.2,20.3-72.3,30.7-108.5c1.1-3.7,0.1-4.2-3.3-4.1c-8.3,0.2-16.6,0.2-24.9,0c-2.7-0.1-3.9,0.8-4.7,3.5
			c-5,16.7-10.3,33.3-15.5,49.9c-5.9,19.2-13.2,37.8-25.6,54c-3,4-6.1,7.9-10.2,11c-1.5,1.1-3.1,2.4-5.1,1.2c-1.9-1.1-1.7-3.2-1.6-5
			c0.2-3.2,1-6.2,1.9-9.2c6-19.7,11.9-39.4,17.8-59.1c4.3-14.4,8.5-28.8,12.9-43.1c0.8-2.6,0.2-3.3-2.4-3.2c-3.1,0.2-6.3,0-9.5,0
			c-11.3,0-22.6-0.1-33.9-0.2c-5,0-4.2,4.4-5.2,7.1c-1.1,2.8,2.2,1.8,3.4,2.2c7.3,2.5,9.6,6.8,7.3,14.3
			c-8.7,27.7-15.8,55.8-23.5,83.8c-2.4,8.6-3.9,17.3-2.9,26.3c1.1,9.2,5.9,14.6,14.2,15.8c6,0.9,11.7-0.7,17-3.4
			c9.7-5,16.8-12.7,23.1-21.3c1.5-2.1,3-4.2,5.2-7.3c-0.5,6.3-1.4,11.2-1,16.3c1,12.9,7.9,18.1,20.5,15.4c2.2-0.5,4.4-1.2,6.5-2.1
			c10.5-4.8,18.2-12.8,24.3-22.4C448.1,478.3,449,480.6,441.6,474.3z M283.9,54.3c0.9,0.1,1.4,0.2,2,0.3
			c11.9,1.9,13.5,4.4,10.3,16.1c-14,51.7-28,103.4-42,155.1c-1.6,6-2.5,12-2.3,18.2c0.6,16.8,13.4,25.2,28.8,18.3
			c13.7-6.1,22.9-17.4,31-29.5c2.2-3.2-1.7-4.5-3.6-5.7c-2.2-1.2-2.3,0.2-3.2,1.1c-2.4,2.7-4.5,5.6-7.1,8.1
			c-2.2,2.1-4.7,5.8-7.7,4.1c-3.2-1.8-1.1-5.7-0.3-8.6c13.3-48.6,26.7-97.2,40.1-145.8c3.6-13.2,7.2-26.4,10.8-40
			c-15.6,0-30.7,0-45.9,0C286.8,45.8,286.8,45.8,283.9,54.3z M192.5,400.9c-0.2-0.4-0.5-0.7-0.4-0.9c3.8-12,6.4-24.3,9.7-36.4
			c0.4-1.4,1.2-2.8-1.4-2.8c-13.2,0-26.3-0.1-39.5-0.1c-3.6,0-2.4,3.3-3.3,5.1c-0.9,1.5,0,2,1.4,2.7c9.4,4.1,10.5,6.6,7.7,16.6
			c-10.4,37.7-20.7,75.5-31.1,113.2c-0.8,3.1-0.7,4.2,3,4.1c8.7-0.3,17.5-0.2,26.2,0c2.6,0.1,3.4-0.8,3.9-3.2
			c1.2-5.6,2.4-11.2,4-16.6c8.5-28.2,22.6-53.9,36.2-79.9c1.7-3.2,2.7-2,4.4,0c5.8,6.6,13.6,7.2,18.8,0.8c7.5-9,10.1-19.7,8.3-31.3
			c-0.5-3.4-2.2-6.5-4.4-9.2c-5.1-6.3-10.9-6.9-17.1-1.8c-1.9,1.5-3.6,3.3-5.1,5.2c-7.8,9.3-13.3,20-18.6,30.8
			C194.7,398.5,194.6,400.5,192.5,400.9z M235.9,112.6c-7.9,0-15.7-0.1-23.6,0c-4.6,0.1-3.7,4.5-4.6,7c-1,2.6,2,1.6,3.2,1.9
			c6.5,1.6,8.6,4.5,7.7,11.1c-0.3,1.8-0.8,3.6-1.2,5.4c-8,29.5-16,59-24,88.5c-2,7.4-2.9,14.9-1.3,22.5c2,9.5,7.9,15,17.3,15.6
			c4.8,0.3,9.4-1.1,13.5-3.4c11-6.2,19-15.6,25.8-25.9c2.3-3.5-1.6-4.5-3.4-5.6c-2-1.3-2.3,0.1-3.1,1c-2.9,3.2-5.7,6.5-9.3,8.9
			c-2.4,1.6-4.1,1-4.1-2.2c0-3.5,0.8-6.8,1.7-10.1c10-36.6,20.1-73.3,30.1-109.9c1.3-4.8,1.3-4.8-3.5-4.8
			C249.9,112.6,242.9,112.6,235.9,112.6z M221.3,336.6c2.4,8.3,4.5,9.4,12.5,6.7c3.7-1.2,6.6-3.4,8.8-6.5c1.1-1.6,4.1-3.4,2.3-5.1
			c-1.9-1.8-2.8,1.7-4.4,2.6c-1.1,0.6-2.1,2.1-3.3,1.2c-1.2-0.8-0.5-2.4-0.2-3.6c1.7-6.1,3.4-12.1,5.1-18.1c4.3-15,8.4-30,12.9-44.9
			c1.1-3.7,0.1-4.4-3.3-4.2c-4.9,0.2-9.7,0.1-14.6,0.1c-1,0-1.9-0.1-2.4,1.2c-0.5,1.3-0.3,2,0.9,2.8c2.1,1.4,2.8,3.6,2.1,6
			c-1,4-2.1,7.9-4,11.6c-6.3-4.7-9.2-4.8-15.6-0.4c-10.9,7.7-16.5,18.7-19.3,31.4c-1.3,5.8-2.5,11.8-0.9,17.8
			c2.3,8.6,9.4,11.5,16.8,6.6C217,340.5,218.9,338.5,221.3,336.6z M226.4,68.2c0,1.1-0.1,2.3,0,3.4c1.3,9,4.2,17.2,13.4,20.9
			c8.3,3.4,16.1,1.8,22.9-3.9c10.1-8.5,13.4-24.1,7.8-36c-5.6-12-18.4-16.2-29.8-9.6C231,48.5,226.7,57.3,226.4,68.2z M288.4,329.3
			c-2.1-0.4-2.8,1.3-3.9,2c-3.8,2.7-7.8,4.1-12.5,3.4c-4.6-0.7-7.6-5-7.9-10.8c-0.3-5.2,4.1-2.8,6.2-3.6c3.3-1.3,6.8-2.1,10-3.8
			c7-3.9,11.8-9.4,13.2-17.5c1.7-9.6-3.7-15.4-13.3-14c-8,1.1-14.6,4.8-19.7,11.1c-7.2,9-10.7,19.6-11.6,30.9
			c-0.8,10.1,6.5,18.4,15.6,18.6C273.1,345.8,284.9,337.8,288.4,329.3z M290.9,343c12.7,1.6,12.7,1.6,17.3-9.8
			c1.1-2.8,2.2-5.6,3.4-8.3c2.8-6.4,5.5-12.8,9.6-18.6c1.2-1.7,1.8-3.2,4.4-1.1c2.9,2.4,5.9,1.4,8-1.8c1.6-2.6,2.5-5.5,2.5-8.5
			c0-3.7-0.8-7.3-4.7-8.9c-3.9-1.5-6.1,1.4-8.2,3.9c-1.7,2.1-3.1,4.5-4.6,6.7c-0.5,0.7-0.6,1.8-2.2,1.7c0.9-3.4,1.7-6.5,2.6-9.7
			c0.5-1.6,0.1-2.4-1.7-2.4c-4.9,0.1-9.7,0-14.6,0c-1,0-2.1-0.1-2.3,1.3c-0.2,1.2,0.4,1.8,1.4,2.3c2.6,1.4,2.4,3.7,1.9,6
			c-0.6,2.6-1.4,5.2-2.1,7.9C298,316.8,294.4,329.9,290.9,343z"/>
		<path class="st1" d="M158.4,148.9c4.7,2.6,9.3,5.2,13.3,8.7c14.9,12.6,19.2,28.8,16.5,47.5c-0.9,6.4-2.5,12.6-5.1,18.6
			c-10.2,23.3-29,34.4-53.4,35.2c-33,1-66.1,0.3-99.2,0.4c-2.7,0-3-0.7-2.4-3.2c0.9-3.9,2.1-6.1,6.9-5.5c7.6,1,12.1-4,15.8-9.8
			c3.3-5.2,4.1-11.2,5.7-17c13.8-51.3,28-102.5,41-154c2.5-9.9-2.5-15.9-12.6-15.9c-1.5,0-4.8,2-4.3-1.6c0.3-2.6-0.4-6.6,5-6.5
			c27.8,0.2,55.6,0.7,83.3,0c30.2-0.8,40.3,19.6,39.9,40.6c-0.5,24.9-12.2,43.9-33.5,56.8C170.2,146.1,164.5,147.9,158.4,148.9z
			 M145.6,185.7c-0.3-2.6-0.5-5.8-1-8.9c-2.3-12.2-11.7-20.3-23.4-20.6c-2.5-0.1-3.8,0.4-4.5,3.1c-7.5,27.9-15,55.7-22.8,83.5
			c-0.9,3.2,0.1,3.7,2.7,3.7c14,0.3,25.4-4.9,34-15.9C140.8,217.7,144.2,202.3,145.6,185.7z M129,140.5c7.9,0.2,12.9-1.4,18.3-7.6
			c13.7-15.7,19.7-34.4,19.5-54.8c-0.1-11.4-8.3-18.9-18.5-19.4c-3-0.1-4.1,0.7-4.9,3.7c-6.4,23.7-12.9,47.4-19.4,71
			C122,140.3,122,140.3,129,140.5z"/>
		<path class="st1" d="M404.8,124.1c5.5-19.4,11-38.4,16.2-57.4c1.7-6.1-0.8-9.1-7.9-11.4c-1.6-0.5-5.3,0.7-4.4-2.8
			c0.8-2.9,0.4-7.1,6.1-7c15.2,0.4,30.4,0.2,45.5,0c3.8-0.1,4.4,0.7,3.4,4.5c-16.7,60.9-33.2,121.8-49.7,182.8
			c-0.6,2.1-1.1,4.2-1.2,6.3c-0.1,3.8,2,4.9,5.2,2.9c3.5-2.1,5.9-5.4,8.5-8.4c0.7-0.9,1.4-1.8,2.2-2.6c1.2-1.1,1.8-3.8,3.5-3.2
			c2,0.7,3.6,2.7,5.2,4.3c0.8,0.8,0,1.6-0.5,2.2c-7.5,11-16.1,20.8-28.2,27.1c-5.9,3-12.1,4.4-18.7,3.1c-8.5-1.7-13-8-13.4-18.4
			c-0.1-2.2,0-4.4,0-7.6c-3.7,4.2-6.7,7.6-9.8,10.9c-4.4,4.7-9.5,8.8-15.2,11.8c-11.7,6.1-23.5,2.8-30.6-8.3c-4.3-6.7-6-14.2-6.4-22
			c-0.9-16.3,2.8-31.8,8.2-47c6.6-18.8,15.8-36.2,28.8-51.3c7.7-8.9,16.4-16.4,27.9-20C393.3,108.5,398.9,111,404.8,124.1z
			 M351.5,219.4c0.2,2,0.1,4.6,0.6,7.1c1.4,7,5.9,8.5,11.4,4c3.3-2.7,5.8-5.9,8-9.5c12.3-19.6,20-41,25-63.4
			c1.6-7.4,2.9-15,1.1-22.5c-1.6-6.6-6-8.1-11.5-4.1c-3.3,2.4-5.7,5.6-8,8.9c-7.5,11.2-12.7,23.6-17.1,36.3
			C356.3,190.2,352.3,204.1,351.5,219.4z"/>
		<path class="st1" d="M125.9,434.9c1.6-5.6,3.1-10.2,3.8-15c0.5-3.9,0.6-7.7-0.6-11.5c-2.2-6.8-12.2-11.5-18.8-8.8
			c-1.3,0.5-1.4,1.7-1.7,2.8c-7.2,27.1-14.1,54.2-22,81.1c-1.3,4.4,0.2,7.4,4.4,9.5c2.5,1.2,5.2,1.5,7.8,2.1c1.2,0.3,4.4-1.2,3.4,2
			c-0.7,2.2,0.4,6.1-4.2,6.1c-23.3-0.1-46.7-0.1-70-0.3c-1,0-3,0.6-2.7-1c0.5-2.3,0.2-5.2,2.9-6.7c0.1-0.1,0.3-0.1,0.4-0.1
			c13.2-1.5,18.4-10.2,21.6-22c14-53,28.6-105.9,42.8-158.9c2.8-10.2-0.8-15.5-11.2-16.4c-3.7-0.3-3.6-1.2-2.7-4.3
			c1.3-4.1,3.5-5.2,7.7-5.1c33.5,0.2,67,0.2,100.5,0c4,0,4.3,1,3.4,4.4c-4.2,15.4-8.2,30.9-12.3,46.4c-0.5,1.7-0.6,3.4-3.4,3.4
			c-3.5,0-4.5-1-3.8-4.4c1-4.7,0.4-9.4-0.6-14.1c-2.8-12.6-13.1-20.8-26.2-21.1c-8.4-0.2-8.4-0.2-10.6,7.8
			c-6.4,23.1-12.7,46.3-19.2,69.4c-0.9,3.2-0.5,4.5,3.2,4.6c8.4,0.4,14.5-3.8,19.7-9.7c4.7-5.3,7.6-11.7,9.5-18.5
			c0.7-2.4,6.2-4.1,8-2.5c0.8,0.8,0.2,1.6,0,2.3c-7,25.3-14,50.7-21.1,76C132.8,437.1,128.6,435.1,125.9,434.9z"/>
		<path class="st1" d="M274.9,483.1c-1.9,2.8-3.3,4.8-4.7,6.9c-4.2,6.2-9.1,11.8-15.3,16.1c-11.6,7.9-24,4.7-30.1-7.9
			c-5.5-11.4-6-23.8-5.1-36.1c2.6-37,18.8-67.8,43.9-94.5c3.1-3.2,6.6-5.9,10.5-8.1c11.4-6.6,23.6-3.3,30.2,8
			c0.7,1.2,1.3,2.5,1.8,3.4c0.6,0.5,0.8,0.4,0.9,0c1-3.1,1.1-7.6,3.2-9c2.4-1.6,6.6-0.5,10-0.5c6.3,0.1,12.6,0.3,18.9,0.3
			c3.2,0,3.8,0.9,2.9,4c-7.5,25.5-15,51-22.4,76.5c-3.3,11.4-6.4,22.8-9.4,34.3c-0.6,2.2-0.8,4.5-0.8,6.8c-0.1,2.9,1.4,3.5,3.9,2
			c3.8-2.3,6.7-5.8,9.8-9c0.8-0.8,1.5-3.2,3.1-1.2c1.3,1.5,4.8,2.2,2.9,5.2c-6.9,11-14.6,21.4-26.6,27.3
			c-14.4,7.1-25.8,0.5-27.2-15.5C275.1,489.3,275.1,486.7,274.9,483.1z M252.7,465.7c0.1,1.3,0,3.3,0.3,5.3c0.8,6.2,4.6,7.7,9.5,3.8
			c4.1-3.3,6.9-7.6,9.6-12c10.9-18.3,18.6-37.9,24-58.5c2-7.6,3.8-15.3,2.7-23.3c-0.9-6.8-5-8.4-10.4-4.1c-4.1,3.3-7,7.5-9.7,12
			c-8.6,14.3-14.7,29.6-19.6,45.5C255.9,444.4,253.2,454.5,252.7,465.7z"/>
		<path class="st1" d="M441.6,474.3c7.4,6.3,6.5,4,1.9,11.2c-6.1,9.6-13.7,17.6-24.3,22.4c-2.1,0.9-4.3,1.6-6.5,2.1
			c-12.6,2.8-19.5-2.5-20.5-15.4c-0.4-5,0.5-10,1-16.3c-2.2,3.1-3.7,5.2-5.2,7.3c-6.3,8.6-13.5,16.4-23.1,21.3
			c-5.3,2.7-10.9,4.3-17,3.4c-8.3-1.2-13.1-6.7-14.2-15.8c-1.1-9,0.5-17.7,2.9-26.3c7.8-27.9,14.8-56.1,23.5-83.8
			c2.4-7.5,0-11.8-7.3-14.3c-1.2-0.4-4.6,0.6-3.4-2.2c1-2.6,0.3-7.1,5.2-7.1c11.3,0.1,22.6,0.1,33.9,0.2c3.2,0,6.3,0.1,9.5,0
			c2.6-0.1,3.2,0.5,2.4,3.2c-4.4,14.3-8.6,28.7-12.9,43.1c-5.9,19.7-11.9,39.4-17.8,59.1c-0.9,3-1.7,6.1-1.9,9.2
			c-0.1,1.8-0.3,3.9,1.6,5c2,1.1,3.6-0.1,5.1-1.2c4.1-3,7.2-7,10.2-11c12.3-16.2,19.6-34.7,25.6-54c5.1-16.6,10.4-33.3,15.5-49.9
			c0.8-2.7,2-3.5,4.7-3.5c8.3,0.2,16.6,0.2,24.9,0c3.4-0.1,4.3,0.4,3.3,4.1c-10.4,36.1-20.5,72.3-30.7,108.5c-0.8,2.9-1.5,5.8-2,8.8
			c-0.3,1.5-0.6,3.4,1.2,4.2c1.4,0.7,2.7-0.4,3.9-1.3C435.1,482.3,438.2,478.1,441.6,474.3z"/>
		<path class="st1" d="M283.9,54.3c2.8-8.5,2.8-8.5,11-8.5c15.2,0,30.3,0,45.9,0c-3.7,13.6-7.2,26.8-10.8,40
			c-13.4,48.6-26.7,97.2-40.1,145.8c-0.8,2.9-2.9,6.9,0.3,8.6c3,1.7,5.5-2,7.7-4.1c2.5-2.5,4.7-5.4,7.1-8.1c0.8-0.9,1-2.4,3.2-1.1
			c1.8,1.1,5.8,2.4,3.6,5.7c-8.2,12.1-17.3,23.3-31,29.5c-15.4,6.9-28.2-1.4-28.8-18.3c-0.2-6.2,0.6-12.3,2.3-18.2
			c14-51.7,28-103.4,42-155.1c3.2-11.7,1.6-14.1-10.3-16.1C285.4,54.5,284.8,54.4,283.9,54.3z"/>
		<path class="st1" d="M192.5,400.9c2.1-0.4,2.2-2.4,2.9-3.7c5.3-10.8,10.8-21.5,18.6-30.8c1.6-1.9,3.3-3.6,5.1-5.2
			c6.2-5.2,12-4.5,17.1,1.8c2.2,2.7,3.9,5.8,4.4,9.2c1.8,11.6-0.8,22.3-8.3,31.3c-5.3,6.4-13.1,5.8-18.8-0.8c-1.7-1.9-2.7-3.2-4.4,0
			c-13.6,25.9-27.7,51.6-36.2,79.9c-1.6,5.5-2.9,11.1-4,16.6c-0.5,2.4-1.4,3.3-3.9,3.2c-8.7-0.2-17.5-0.3-26.2,0
			c-3.7,0.1-3.8-1-3-4.1c10.4-37.7,20.7-75.5,31.1-113.2c2.8-10.1,1.7-12.5-7.7-16.6c-1.5-0.6-2.3-1.1-1.4-2.7
			c1-1.8-0.2-5.1,3.3-5.1c13.2,0,26.3,0.1,39.5,0.1c2.6,0,1.7,1.4,1.4,2.8c-3.3,12.1-5.9,24.4-9.7,36.4
			C192,400.2,192.3,400.5,192.5,400.9z"/>
		<path class="st1" d="M235.9,112.6c7,0,14,0,21,0c4.8,0,4.8,0,3.5,4.8c-10,36.6-20.1,73.3-30.1,109.9c-0.9,3.3-1.7,6.6-1.7,10.1
			c0,3.2,1.7,3.8,4.1,2.2c3.6-2.4,6.4-5.7,9.3-8.9c0.8-0.9,1-2.4,3.1-1c2.1,1.3,5.7,2.2,3.4,5.6c-6.8,10.3-14.8,19.7-25.8,25.9
			c-4.2,2.4-8.7,3.7-13.5,3.4c-9.4-0.6-15.3-6.1-17.3-15.6c-1.6-7.6-0.7-15.1,1.3-22.5c8-29.5,16-59,24-88.5c0.5-1.8,1-3.6,1.2-5.4
			c0.9-6.6-1.2-9.5-7.7-11.1c-1.2-0.3-4.1,0.7-3.2-1.9c0.9-2.6,0-7,4.6-7C220.2,112.5,228,112.6,235.9,112.6z"/>
		<path class="st1" d="M221.3,336.6c-2.3,1.9-4.2,3.9-6.5,5.3c-7.4,4.8-14.5,2-16.8-6.6c-1.6-6.1-0.4-12,0.9-17.8
			c2.8-12.6,8.4-23.7,19.3-31.4c6.3-4.5,9.3-4.3,15.6,0.4c1.9-3.7,3-7.7,4-11.6c0.6-2.5,0-4.6-2.1-6c-1.2-0.8-1.4-1.5-0.9-2.8
			c0.5-1.3,1.4-1.2,2.4-1.2c4.9,0,9.7,0.2,14.6-0.1c3.4-0.2,4.4,0.4,3.3,4.2c-4.5,14.9-8.6,29.9-12.9,44.9c-1.7,6-3.4,12.1-5.1,18.1
			c-0.3,1.2-1,2.7,0.2,3.6c1.3,0.9,2.3-0.6,3.3-1.2c1.5-0.9,2.5-4.4,4.4-2.6c1.8,1.7-1.2,3.5-2.3,5.1c-2.2,3.1-5.1,5.2-8.8,6.5
			C225.8,346,223.6,344.9,221.3,336.6z M212.3,325.3c0.4,2.1-0.6,4.8,1.6,5.7c2.5,1,3.9-1.4,5-3c6.5-9.4,10.8-19.7,11.9-31.2
			c0.2-2,0.6-4.7-2-5.5c-2.2-0.7-3.6,1.4-4.7,3C217.5,303.6,214,314.2,212.3,325.3z"/>
		<path class="st1" d="M226.4,68.2c0.3-10.9,4.6-19.7,14.3-25.2c11.5-6.6,24.3-2.4,29.8,9.6c5.6,11.9,2.3,27.6-7.8,36
			c-6.8,5.7-14.6,7.3-22.9,3.9c-9.2-3.7-12.2-11.9-13.4-20.9C226.2,70.5,226.4,69.3,226.4,68.2z"/>
		<path class="st1" d="M288.4,329.3c-3.5,8.5-15.3,16.5-23.7,16.3c-9-0.2-16.3-8.5-15.6-18.6c0.9-11.3,4.4-21.9,11.6-30.9
			c5-6.3,11.7-10,19.7-11.1c9.7-1.3,15,4.4,13.3,14c-1.5,8.1-6.3,13.6-13.2,17.5c-3.1,1.7-6.7,2.5-10,3.8c-2.1,0.8-6.5-1.5-6.2,3.6
			c0.3,5.9,3.3,10.2,7.9,10.8c4.7,0.7,8.7-0.7,12.5-3.4C285.6,330.6,286.2,328.9,288.4,329.3z M280.5,296.7c0-2.4-0.2-3.5-1.2-3.9
			c-1.6-0.7-2.8,0.4-3.7,1.4c-4.8,5.3-7.9,11.4-9.8,18.3c-0.5,1.9-0.1,2.7,2.1,1.9C274,312.2,280.4,303.2,280.5,296.7z"/>
		<path class="st1" d="M290.9,343c3.5-13.1,7.1-26.1,10.6-39.2c0.7-2.6,1.5-5.2,2.1-7.9c0.5-2.3,0.7-4.6-1.9-6
			c-1-0.5-1.6-1.1-1.4-2.3c0.3-1.4,1.4-1.3,2.3-1.3c4.9,0,9.7,0,14.6,0c1.9,0,2.2,0.8,1.7,2.4c-0.9,3.1-1.7,6.3-2.6,9.7
			c1.6,0.1,1.8-1,2.2-1.7c1.5-2.3,2.9-4.6,4.6-6.7c2.1-2.5,4.3-5.4,8.2-3.9c3.9,1.5,4.7,5.2,4.7,8.9c0,3-0.9,5.9-2.5,8.5
			c-2,3.2-5.1,4.2-8,1.8c-2.5-2.1-3.2-0.6-4.4,1.1c-4,5.8-6.8,12.2-9.6,18.6c-1.2,2.8-2.3,5.5-3.4,8.3
			C303.5,344.6,303.5,344.6,290.9,343z"/>
		<path class="st0" d="M145.6,185.7c-1.4,16.6-4.8,32-15,45c-8.6,11-20.1,16.2-34,15.9c-2.6-0.1-3.6-0.5-2.7-3.7
			c7.8-27.8,15.3-55.6,22.8-83.5c0.7-2.7,2-3.2,4.5-3.1c11.8,0.3,21.1,8.4,23.4,20.6C145.1,179.9,145.3,183.1,145.6,185.7z"/>
		<path class="st0" d="M129,140.5c-7-0.2-7-0.2-5.1-7.2c6.5-23.7,13.1-47.3,19.4-71c0.8-2.9,1.9-3.8,4.9-3.7
			c10.2,0.5,18.3,8,18.5,19.4c0.2,20.5-5.8,39.2-19.5,54.8C141.9,139.1,136.9,140.7,129,140.5z"/>
		<path class="st0" d="M351.5,219.4c0.7-15.3,4.7-29.3,9.5-43.1c4.4-12.7,9.6-25.1,17.1-36.3c2.2-3.3,4.7-6.5,8-8.9
			c5.5-4,9.9-2.5,11.5,4.1c1.8,7.6,0.6,15.1-1.1,22.5c-4.9,22.5-12.7,43.9-25,63.4c-2.2,3.5-4.8,6.8-8,9.5c-5.5,4.5-10,3-11.4-4
			C351.6,224.1,351.7,221.4,351.5,219.4z"/>
		<path class="st0" d="M252.7,465.7c0.5-11.2,3.2-21.3,6.3-31.3c4.9-15.9,11-31.2,19.6-45.5c2.7-4.4,5.6-8.7,9.7-12
			c5.4-4.3,9.5-2.7,10.4,4.1c1.1,8-0.8,15.7-2.7,23.3c-5.4,20.5-13.1,40.1-24,58.5c-2.6,4.4-5.5,8.8-9.6,12
			c-4.9,3.9-8.6,2.4-9.5-3.8C252.7,469,252.8,467,252.7,465.7z"/>
		<path class="st0" d="M212.3,325.3c1.7-11.1,5.2-21.7,11.8-31.1c1.1-1.6,2.5-3.7,4.7-3c2.7,0.8,2.2,3.5,2,5.5
			c-1.1,11.5-5.4,21.8-11.9,31.2c-1.2,1.7-2.6,4.1-5,3C211.7,330.1,212.1,327.3,212.3,325.3z"/>
		<path class="st0" d="M280.5,296.7c-0.1,6.5-6.6,15.5-12.6,17.7c-2.2,0.8-2.7,0-2.1-1.9c1.9-6.8,5.1-13,9.8-18.3
			c0.9-1,2.1-2.1,3.7-1.4C280.3,293.2,280.6,294.3,280.5,296.7z"/>
	</g>
</g>
</svg>
