<svg id="GR" xmlns="http://www.w3.org/2000/svg" viewBox="0 0 373.51 94.22" width="373.51" height="94.22"><defs><style>.cls-1{fill:#1d1d1b;}</style></defs><title>GF_Logoabbinder_trans_2015</title><path class="cls-1" d="M128.49,114.61c0.62-.06,1.57-0.11,1.8-0.11,2.36,0,3.65,1.52,5.05,3.48,0.9,1.24,2.47,3.82,3,4.83s2.7,4.94,3.71,6.51a14.74,14.74,0,0,0,2.47,3.2c1.24-.06,3.37-0.17,4.94-0.17,3.59,0,5.05.17,5.5,0.17s0.45-.17.45-0.56v-1.18a0.37,0.37,0,0,0-.45-0.39,5.9,5.9,0,0,1-4-1.07,78.24,78.24,0,0,1-4.77-6.4c-0.45-.67-3.93-6-4.6-6.85a7.34,7.34,0,0,0-3.37-2.58v-0.22c6.18-1,10.45-3.93,10.45-11a8.6,8.6,0,0,0-3-6.29,15.09,15.09,0,0,0-10.22-3.54c-1.69,0-6.85.17-10,.17-5.5,0-7.3-.17-7.69-0.17a0.33,0.33,0,0,0-.39.39v1.52a0.32,0.32,0,0,0,.39.34H120c1,0,1.8.9,1.8,2.81v14.77c0,5.28,0,10.56-.11,16.18,0,1.52-.9,1.85-2.13,1.85H117.6a0.36,0.36,0,0,0-.34.45V132a0.41,0.41,0,0,0,.45.51c0.56,0,1.91-.17,7.41-0.17,5.84,0,7,.17,7.69.17,0.45,0,.62-0.11.62-0.51v-1.35a0.37,0.37,0,0,0-.45-0.39h-2.81c-0.9,0-1.29-1-1.46-2.13-0.11-.84-0.23-7.13-0.23-10.5v-3h0Zm0.23-18.2a1.93,1.93,0,0,1,.67-1.63,4,4,0,0,1,2-.34,10.74,10.74,0,0,1,7.41,2.42,8.84,8.84,0,0,1,2.47,6.29c0,2.58-1.8,9.66-10.56,9.66a15.34,15.34,0,0,1-2.13-.22l0.11-16.18h0Zm31.18,14.38c0,7.36.22,11.06,1,13.54a11.43,11.43,0,0,0,6.63,7.53,23,23,0,0,0,8.09,1.35,15.16,15.16,0,0,0,10.22-3.48c3-2.7,4.38-6.18,4.72-10.78,0.23-2.25.34-12,.34-12.81s0-8.59.11-9.27a2.23,2.23,0,0,1,2.36-2.19h2c0.28,0,.34-0.17.34-0.51V92.88c0-.28-0.06-0.45-0.56-0.45s-2.25.17-5.73,0.17c-3.71,0-6.29-.17-6.85-0.17a0.37,0.37,0,0,0-.45.45v1.4a0.37,0.37,0,0,0,.45.39h2a2.47,2.47,0,0,1,2.3,2.47,104.17,104.17,0,0,1,.62,10.73V118c0,4.1-1.12,7.36-3.26,9.49a11.85,11.85,0,0,1-7.53,2.7,9.27,9.27,0,0,1-7.64-3.48c-1.35-1.8-1.8-4.38-2-7-0.11-1.8-.17-5.79-0.17-8.59v-7c0-3.26.11-6.63,0.17-7.3a2.47,2.47,0,0,1,2.75-2.19h2.36a0.37,0.37,0,0,0,.45-0.45v-1.4c0-.28-0.11-0.39-0.45-0.39-0.68,0-3.37.17-8.09,0.17-5.39,0-8.09-.17-8.65-0.17s-0.56.11-.56,0.45v1.29c0,0.39.11,0.51,0.45,0.51H158c1.46,0,1.91.9,1.91,2.81v13.31h0Zm45.83-10.67h0.34c0.67,0.79,9.66,12,10.45,12.81s5.05,6.18,9,11c3.48,4.16,6.52,7.64,7,8.2a2.79,2.79,0,0,0,1.91.9c0.67,0,.67-0.79.67-1.57V116.63c0-5.73.56-15.16,0.84-19,0.17-2.08.73-3,1.85-3h1.57c0.22,0,.34-0.22.34-0.56V92.82c0-.17-0.11-0.39-0.56-0.39-0.67,0-2,.17-5.39.17-3.82,0-5.62-.17-6.29-0.17-0.45,0-.45.11-0.45,0.45v1.29c0,0.28,0,.51.34,0.51h1.8a3,3,0,0,1,3,2.13c0.28,1,.51,6.46.62,8.59,0.11,2.81.11,5.62,0.11,10.56v5.84h-0.23c-0.9-1.12-9.66-12-10.45-12.92-1.12-1.57-12.13-15.39-12.69-16a1.66,1.66,0,0,0-1.35-.51c-0.34,0-.84.06-1.57,0.06S205,92.6,204,92.6c-2.47,0-4,0-5-.06s-1.46-.11-1.74-0.11a0.3,0.3,0,0,0-.34.34v1.52a0.37,0.37,0,0,0,.34.39h1.8c2.47,0,4.38,2.58,4.38,6v7.13c0,9-.34,16.85-0.39,17.86-0.28,3.43-1.07,4.66-2.53,4.66h-1.91a0.36,0.36,0,0,0-.34.34V132c0,0.39.11,0.51,0.34,0.51,0.56,0,4.38-.17,5.84-0.17,2.13,0,5.5.17,6.07,0.17s0.45-.11.45-0.45v-1.29c0-.28,0-0.51-0.45-0.51h-1.46c-2,0-2.7-1.35-2.81-4.16-0.11-1.74-.56-9.6-0.56-19.15v-6.85h0ZM249,110.79c0,4.27-.23,17-0.39,18.08a1.6,1.6,0,0,1-1.85,1.4h-3.26c-0.34,0-.45.11-0.45,0.34V132c0,0.39.11,0.51,0.34,0.51,0.79,0,3-.17,8-0.17,2.81,0,8.54.17,10.67,0.17,3.82,0,12.58-.06,18.09-6,3.71-4,5.5-8.31,5.5-14.71S283,100.57,279.3,97.54c-5.17-4.38-11.23-5.11-18.76-5.11-2.81,0-5.62.17-8.42,0.17-3.93,0-6.85-.17-8.48-0.17a0.42,0.42,0,0,0-.51.34v1.52a0.4,0.4,0,0,0,.45.39h3c1.12,0,1.91.22,2,1.57,0.11,0.84.34,8.82,0.34,10.28v4.27h0ZM256,108c0-.9,0-8.2.11-10.56a2.58,2.58,0,0,1,1-2.47,7.36,7.36,0,0,1,3.59-.56,17.85,17.85,0,0,1,12.58,5.28,19.64,19.64,0,0,1,4.49,12.24,21.23,21.23,0,0,1-4,12.81,14.73,14.73,0,0,1-11.68,5.67c-2.13,0-4.27-.45-4.94-1.52a5,5,0,0,1-1-3.15c0-3.48-.11-13-0.11-13.7v-4h0Zm36.84,11.74c-0.22,0-.28.11-0.34,0.45-0.11.67-.9,9.77-1,10.45a0.73,0.73,0,0,0,.67.9,1,1,0,0,0,1-.67,1.62,1.62,0,0,1,.9-1,2.88,2.88,0,0,1,1.35.67c2.25,1.68,4.94,2.7,9.55,2.7,7.41,0,11.91-5.62,11.91-12.47,0-3.76-1-6.12-2.81-8-2.13-2.25-4.83-3.37-8.09-4.38-2.25-.67-5.39-2-6.85-3.48a6.84,6.84,0,0,1-1.57-5.05,6,6,0,0,1,6.29-5.67,7.37,7.37,0,0,1,5.84,2.36,16.13,16.13,0,0,1,3.48,6,0.43,0.43,0,0,0,.56.34l0.9-.28a0.37,0.37,0,0,0,.34-0.39c0-.56-0.9-8.42-0.9-9.32,0-.56-0.11-0.9-0.45-0.9a1,1,0,0,0-.79.34l-0.73.73a1,1,0,0,1-1.18.17,17.67,17.67,0,0,0-7.08-1.35,11.47,11.47,0,0,0-8,2.7,9.53,9.53,0,0,0-3.93,7.86c0,3.43.9,6.23,2.81,8a26.63,26.63,0,0,0,8.2,4.72c6,2.25,8.31,3.93,8.31,9.1,0,4.66-4.27,6.57-7.3,6.57a8.73,8.73,0,0,1-7.41-4,13,13,0,0,1-2.13-6.4c0-.34-0.11-0.45-0.34-0.45l-1.24-.11h0Zm65.43,2.64c-0.17-.17-0.39,0-0.67.39a16.38,16.38,0,0,1-13.42,6.51c-2.7,0-6-.45-9.66-4.38-4.16-4.49-5.17-11.12-5.17-14.6,0-8.09,3.71-16.18,12.69-16.18a13.39,13.39,0,0,1,9.77,4.16,19.9,19.9,0,0,1,4.38,7.3c0.17,0.45.34,0.67,0.62,0.56l1.07-.34c0.22-.06.28-0.22,0.22-0.56-0.22-1.68-1.35-10.67-1.35-11.68,0-.79-0.11-0.9-0.79-0.9s-0.79,0-.9.34l-0.45,1.46c-0.11.45-.34,0.45-1.12,0a24.46,24.46,0,0,0-11.35-2.7,19.41,19.41,0,0,0-14.6,6,21.79,21.79,0,0,0-5.73,15.05c0,4.94,1.91,11.46,6.07,15.16,3.48,3.15,7.53,5.28,14.71,5.28,8,0,13.37-4.61,16.74-9.44a0.44,0.44,0,0,0-.11-0.56l-1-.84h0Zm35.78-9.55c0.79,0,1.24.17,1.24,0.67v1.57c0,1-.11,10-0.22,12.69-0.06,1.52-.11,2.53-1.46,2.53h-3a0.37,0.37,0,0,0-.45.45V132a0.45,0.45,0,0,0,.45.51c1.57,0,3.37-.17,8.65-0.17,4.83,0,6.74.17,7.64,0.17a0.48,0.48,0,0,0,.56-0.56v-1.29a0.37,0.37,0,0,0-.45-0.39h-2.25c-1.69,0-2.25-.79-2.25-2.81,0-3.2-.11-11.18-0.11-13.65v-6.07c0-1.8.11-9.44,0.11-10.22,0-2,.11-2.86,1.8-2.86h2c0.56,0,.67-0.22.67-0.56V92.93c0-.28-0.11-0.51-0.67-0.51-0.9,0-3.14.17-7.41,0.17-4.49,0-7-.17-8-0.17a0.37,0.37,0,0,0-.45.45v1.29c0,0.34.06,0.51,0.45,0.51h2.58c1.24,0,1.46,1,1.52,2.81,0.06,0.62.28,8.48,0.28,10.5v1.68c0,0.62-.22.79-1.12,0.79H375.68c-0.51,0-.67-0.22-0.67-0.79v-2.25c0-1.46.23-8.87,0.28-9.66,0.06-2.19.28-3.09,2.3-3.09h2a0.48,0.48,0,0,0,.56-0.56V92.93a0.46,0.46,0,0,0-.56-0.51c-1,0-3,.17-8.09.17-5.5,0-7.3-.17-8.31-0.17a0.52,0.52,0,0,0-.56.56v1.18a0.46,0.46,0,0,0,.56.51h2.47c1.8,0,2.13.79,2.13,3.59,0,0.84.11,7.81,0.11,9.49v7.19c0,3.59-.11,10-0.11,12.69,0,1.29-.22,2.64-1.57,2.64h-2.92c-0.45,0-.56.11-0.56,0.45V132a0.46,0.46,0,0,0,.56.51c1.12,0,2.81-.17,8.31-0.17,4.6,0,6.52.17,7.53,0.17a0.48,0.48,0,0,0,.56-0.56v-1.29c0-.28-0.11-0.39-0.56-0.39h-2a1.69,1.69,0,0,1-1.91-1.91C375.12,124.5,375,118,375,116v-2.42a0.63,0.63,0,0,1,.79-0.73H394.1Zm40,4.1c0.67,2.08,2.92,9.27,3.37,11.29,0.34,1.52-.11,2.08-1.68,2.08h-1.46a0.37,0.37,0,0,0-.45.45v1.12a0.56,0.56,0,0,0,.56.67c1.24,0,3.15-.17,7.86-0.17,6.18,0,7.3.17,8.31,0.17a0.56,0.56,0,0,0,.56-0.67v-1.18c0-.28-0.11-0.39-0.45-0.39h-1.8a4.24,4.24,0,0,1-3.59-2.58c-0.79-1.52-4.38-12-5.73-16.34-1-3.59-5.39-16.18-6.4-19.66a0.79,0.79,0,1,0-1.52-.45,18.21,18.21,0,0,1-5.56,2.81,0.59,0.59,0,0,0-.56.56,1.28,1.28,0,0,0,.34.67c0.34,0.34,0,1.35-.11,1.91-0.56,1.46-5.11,13.59-5.5,14.72-1.68,4.72-5.73,14.83-6.29,15.84-1,1.74-2,2.53-3.59,2.53H408.7c-0.23,0-.34.11-0.34,0.45v1.07c0,0.39,0,.73.34,0.73,0.79,0,2-.17,6.18-0.17,3.93,0,6.29.17,7.08,0.17a0.45,0.45,0,0,0,.45-0.56v-1.4c0-.17-0.11-0.28-0.56-0.28h-2.36c-1.12,0-2-.62-2-1.35a4.86,4.86,0,0,1,.11-1.18c0.28-1.52,3-9.55,3.48-10.84h13Zm-12.24-2.25c0.39-1.29,5.45-15.11,5.67-15.84a0.82,0.82,0,0,1,.73-0.73c0.22,0,.34.34,0.56,1,0.34,1.12,4.16,13.93,4.72,15.56H421.84Zm33.09-3.88c0,7.36.22,11.06,1,13.54a11.44,11.44,0,0,0,6.63,7.53,23,23,0,0,0,8.09,1.35,15.16,15.16,0,0,0,10.22-3.48c3-2.7,4.38-6.18,4.72-10.78,0.22-2.25.34-12,.34-12.81s0-8.59.11-9.27a2.23,2.23,0,0,1,2.36-2.19h2c0.28,0,.34-0.17.34-0.51V92.88c0-.28-0.06-0.45-0.56-0.45s-2.25.17-5.73,0.17c-3.71,0-6.29-.17-6.85-0.17a0.37,0.37,0,0,0-.45.45v1.4a0.37,0.37,0,0,0,.45.39h2a2.46,2.46,0,0,1,2.3,2.47,103.74,103.74,0,0,1,.62,10.73V118c0,4.1-1.12,7.36-3.26,9.49a11.86,11.86,0,0,1-7.53,2.7,9.27,9.27,0,0,1-7.64-3.48c-1.35-1.8-1.8-4.38-2-7-0.11-1.8-.17-5.79-0.17-8.59v-7c0-3.26.11-6.63,0.17-7.3a2.47,2.47,0,0,1,2.75-2.19h2.36a0.37,0.37,0,0,0,.45-0.45v-1.4c0-.28-0.11-0.39-0.45-0.39-0.67,0-3.37.17-8.09,0.17-5.39,0-8.09-.17-8.65-0.17s-0.56.11-.56,0.45v1.29c0,0.39.11,0.51,0.45,0.51H453c1.46,0,1.91.9,1.91,2.81v13.31h0Z" transform="translate(-117.26 -38.98)"/><path class="cls-1" d="M163.49,66.62c0-1.63.67-2.08,1.69-2.08h1.91a0.37,0.37,0,0,0,.45-0.45v-1.4c0-.28-0.11-0.39-0.56-0.39s-2.47.17-7.19,0.17-7.3-.17-8-0.17c-0.22,0-.34.11-0.34,0.45V64a0.43,0.43,0,0,0,.45.51h2.36c1.46,0,2,.56,2,2.58v4.1c0,2.92-.11,4.49-1.35,5.17-1.91,1-4,1.46-7.64,1.46a12.15,12.15,0,0,1-9-3.82c-3.26-3.26-5.05-9-5.05-15.61a19.63,19.63,0,0,1,4.6-12.69,11.55,11.55,0,0,1,9.55-4.38,12.68,12.68,0,0,1,9.32,3.93A22.31,22.31,0,0,1,161.25,53c0.11,0.34.22,0.51,0.56,0.45l1.35-.22c0.23-.06.23-0.34,0.23-0.79l-0.56-11.23a0.63,0.63,0,0,0-.67-0.79,0.93,0.93,0,0,0-.79.56l-0.67.9c-0.34.45-.68,0.62-1.35,0.11-1.8-1.35-6.07-3-11.46-3-6.74,0-11.91,1.91-16,5.5a19,19,0,0,0-6.4,14.15c0,6.63,1.68,11.46,5.17,15.28,3.82,4.61,10.67,6.52,16.17,6.52a32.51,32.51,0,0,0,16-3.71,1.06,1.06,0,0,0,.9-0.9c0-.45-0.23-1-0.23-1.8V66.62h0ZM183.71,57c0-.67.11-13,0.11-13.59,0-1.07.9-1.52,2.13-1.52h2.13a0.41,0.41,0,0,0,.45-0.45V40.16a0.43,0.43,0,0,0-.45-0.51c-0.79,0-2.58.17-8,.17s-8.43-.17-9.1-0.17a0.32,0.32,0,0,0-.34.39v1.46c0,0.28.11,0.39,0.45,0.39h2.92c1.57,0,2.13.56,2.3,1.91,0.06,0.73.17,10.84,0.17,12.19v3.93c0,3-.11,15.16-0.23,16-0.23,1.52-1.46,1.63-2.58,1.63h-2.25c-0.34,0-.45.11-0.45,0.34v1.52c0,0.28.11,0.39,0.45,0.39,0.56,0,3-.17,8.65-0.17,5.28,0,7.53.17,8.2,0.17a0.45,0.45,0,0,0,.56-0.45v-1.4a0.4,0.4,0,0,0-.45-0.39h-2.36c-1.35,0-2.25-.22-2.25-2,0-.62-0.11-13.54-0.11-14.1V57h0Zm21.51-15.22c2.14,0,9.44.22,10.9,0.51a6.89,6.89,0,0,1,3.82,2.58A35.2,35.2,0,0,1,224,50c0.34,0.45.45,0.56,0.68,0.45l1.07-.45a0.33,0.33,0,0,0,.17-0.45c-0.23-.67-2-8.42-2.25-9.32a0.76,0.76,0,0,0-.34-0.79,17.29,17.29,0,0,1-2.13.22c-3.59,0-18.42.11-19.21,0.11-6.4,0-8.54-.17-9.1-0.17a0.39,0.39,0,0,0-.45.34v1.63a0.4,0.4,0,0,0,.45.28h2.81c1.46,0,2.25.56,2.25,1.57,0,0.62.11,8.59,0.11,11.06v3.93c0,9.66-.11,16.74-0.17,17.86-0.06,1-.51,1.18-1.85,1.18h-2.25a0.3,0.3,0,0,0-.34.34v1.52a0.32,0.32,0,0,0,.34.39c0.79,0,2.92-.17,8-0.17,5.5,0,7.75.17,8.31,0.17a0.37,0.37,0,0,0,.45-0.45v-1.4c0-.28-0.11-0.39-0.45-0.39h-3c-1.35,0-1.8-.22-1.8-1.8v-14a44.44,44.44,0,0,1,6.46.34,4.31,4.31,0,0,1,2.81,2.3,14.19,14.19,0,0,1,.84,2.64,0.44,0.44,0,0,0,.45.45l1.24-.22a0.42,0.42,0,0,0,.34-0.56c-0.11-1.12-.34-3.82-0.34-5.84,0-.79,0-5.39.11-6.4a0.3,0.3,0,0,0-.34-0.34L215.67,54a0.54,0.54,0,0,0-.45.45,10.14,10.14,0,0,1-1,2.86c-1,1.4-1.85,2.08-3,2.19a46.9,46.9,0,0,1-6,.28v-18h0ZM258.75,60c0.79,0,1.24.17,1.24,0.67v1.57c0,1-.11,10-0.23,12.69-0.06,1.52-.11,2.53-1.46,2.53h-3a0.37,0.37,0,0,0-.45.45v1.29a0.45,0.45,0,0,0,.45.51c1.57,0,3.37-.17,8.65-0.17,4.83,0,6.74.17,7.64,0.17a0.48,0.48,0,0,0,.56-0.56V77.91a0.37,0.37,0,0,0-.45-0.39h-2.25c-1.69,0-2.25-.79-2.25-2.81,0-3.2-.11-11.18-0.11-13.65V55c0-1.8.11-9.44,0.11-10.22,0-2,.11-2.86,1.8-2.86h2c0.56,0,.67-0.22.67-0.56V40.16c0-.28-0.11-0.51-0.67-0.51-0.9,0-3.15.17-7.41,0.17-4.49,0-7-.17-8-0.17a0.37,0.37,0,0,0-.45.45V41.4c0,0.34.06,0.51,0.45,0.51h2.58c1.24,0,1.46,1,1.52,2.81,0.06,0.62.28,8.48,0.28,10.5V56.9c0,0.62-.23.79-1.12,0.79H240.32c-0.51,0-.67-0.22-0.67-0.79V54.65c0-1.46.23-8.87,0.28-9.66,0.06-2.19.28-3.09,2.3-3.09h2a0.48,0.48,0,0,0,.56-0.56V40.16a0.46,0.46,0,0,0-.56-0.51c-1,0-3,.17-8.09.17-5.5,0-7.3-.17-8.31-0.17a0.52,0.52,0,0,0-.56.56V41.4a0.46,0.46,0,0,0,.56.51h2.47c1.8,0,2.14.79,2.14,3.59,0,0.84.11,7.81,0.11,9.49v7.19c0,3.59-.11,10-0.11,12.69,0,1.29-.23,2.64-1.57,2.64H228c-0.45,0-.56.11-0.56,0.45v1.29a0.46,0.46,0,0,0,.56.51c1.12,0,2.81-.17,8.31-0.17,4.61,0,6.52.17,7.53,0.17a0.48,0.48,0,0,0,.56-0.56V77.91c0-.28-0.11-0.39-0.56-0.39h-2a1.69,1.69,0,0,1-1.91-1.91c-0.11-3.88-.23-10.39-0.23-12.41V60.78a0.63,0.63,0,0,1,.79-0.73h18.31ZM296.42,39c-4.83,0-10.9,1.12-15.84,7.19a22.33,22.33,0,0,0-5.17,13.93c0,8.09,4.21,14.21,8.2,16.62a25.81,25.81,0,0,0,12.69,3.71c8.42,0,13.26-3.48,16.85-8a19.53,19.53,0,0,0,4.16-12.36,20.89,20.89,0,0,0-7.64-16.62A19.89,19.89,0,0,0,296.42,39h0Zm-0.22,2.47c5.39,0,13.7,7,13.7,19.21,0,4.72-1.8,17.3-13.14,17.3-4.72,0-13.7-5.17-13.7-19.77,0-4.49,1.63-10.28,5.05-13.59,3.82-3.71,7.08-3.15,8.09-3.15h0Zm37,20.39c0.62-.06,1.57-0.11,1.8-0.11,2.36,0,3.65,1.52,5.05,3.48,0.9,1.24,2.47,3.82,3,4.83s2.7,4.94,3.71,6.51a14.78,14.78,0,0,0,2.47,3.2c1.24-.06,3.37-0.17,4.94-0.17,3.59,0,5.05.17,5.5,0.17s0.45-.17.45-0.56V78a0.37,0.37,0,0,0-.45-0.39,5.9,5.9,0,0,1-4-1.07,78.23,78.23,0,0,1-4.77-6.4c-0.45-.67-3.93-6-4.6-6.85a7.33,7.33,0,0,0-3.37-2.58V60.5c6.18-1,10.45-3.93,10.45-11a8.6,8.6,0,0,0-3-6.29,15.09,15.09,0,0,0-10.22-3.54c-1.69,0-6.85.17-10,.17-5.5,0-7.3-.17-7.69-0.17a0.33,0.33,0,0,0-.39.39v1.52a0.32,0.32,0,0,0,.39.34h2.19c1,0,1.8.9,1.8,2.81V59.48c0,5.28,0,10.56-.11,16.18,0,1.52-.9,1.85-2.14,1.85h-1.91a0.36,0.36,0,0,0-.34.45v1.29a0.41,0.41,0,0,0,.45.51c0.56,0,1.91-.17,7.41-0.17,5.84,0,7,.17,7.69.17,0.45,0,.62-0.11.62-0.51V77.91a0.37,0.37,0,0,0-.45-0.39h-2.81c-0.9,0-1.29-1-1.46-2.13-0.11-.84-0.22-7.13-0.22-10.5v-3h0Zm0.22-18.2a1.93,1.93,0,0,1,.68-1.63,4,4,0,0,1,2-.34,10.74,10.74,0,0,1,7.41,2.42A8.84,8.84,0,0,1,346,50.39C346,53,344.17,60,335.4,60a15.37,15.37,0,0,1-2.13-.22l0.11-16.18h0Zm35.16,3.71h0.34c0.68,0.79,9.66,12,10.45,12.81s5.05,6.18,9,11c3.48,4.16,6.52,7.64,7,8.2a2.8,2.8,0,0,0,1.91.9c0.68,0,.68-0.79.68-1.57V63.87c0-5.73.56-15.16,0.84-19,0.17-2.08.73-3,1.85-3h1.57c0.23,0,.34-0.22.34-0.56V40.05c0-.17-0.11-0.39-0.56-0.39-0.67,0-2,.17-5.39.17-3.82,0-5.62-.17-6.29-0.17-0.45,0-.45.11-0.45,0.45V41.4c0,0.28,0,.51.34,0.51h1.8a3,3,0,0,1,3,2.13c0.28,1,.5,6.46.62,8.59,0.11,2.81.11,5.62,0.11,10.56V69h-0.22c-0.9-1.12-9.66-12-10.45-12.92-1.12-1.57-12.13-15.39-12.69-16a1.66,1.66,0,0,0-1.35-.51c-0.34,0-.84.06-1.57,0.06s-1.52.11-2.47,0.11c-2.47,0-4,0-5-.06s-1.46-.11-1.74-0.11a0.3,0.3,0,0,0-.34.34v1.52a0.37,0.37,0,0,0,.34.39h1.8c2.47,0,4.38,2.58,4.38,6V55c0,9-.34,16.85-0.39,17.86-0.28,3.43-1.07,4.66-2.53,4.66h-1.91a0.36,0.36,0,0,0-.34.34v1.4c0,0.39.11,0.51,0.34,0.51,0.56,0,4.38-.17,5.84-0.17,2.13,0,5.5.17,6.07,0.17s0.45-.11.45-0.45V78c0-.28,0-0.51-0.45-0.51h-1.46c-2,0-2.7-1.35-2.81-4.16-0.11-1.74-.56-9.6-0.56-19.15V47.35h0Zm50.16,12.58c1.8,0,4.49.11,6.52,0.34a3.43,3.43,0,0,1,2.81,2,23.77,23.77,0,0,1,.9,2.81c0.11,0.34.23,0.45,0.45,0.39l1.24-.22c0.34-.06.45-0.11,0.45-0.39-0.11-1.24-.34-3.93-0.34-6.18,0-1.46,0-5.17.11-6.07a0.32,0.32,0,0,0-.34-0.45L429,52.07a0.41,0.41,0,0,0-.45.45,9,9,0,0,1-.9,3.15,3.14,3.14,0,0,1-2.58,2,63.51,63.51,0,0,1-6.4.28l0.11-16.23L427.34,42a9.66,9.66,0,0,1,4.27,1.46c1.35,0.79,6,6,6.18,6.29a0.42,0.42,0,0,0,.5.28l1-.45c0.23-.11.28-0.28,0.17-0.62-0.22-.56-2.36-8.2-2.58-8.93a0.39,0.39,0,0,0-.45-0.34c-0.28,0-1.35.06-2.25,0.06-2.47,0-15.39.11-17.86,0.11h-1.57c-4.6.06-6.63-.17-7.86-0.17-0.28,0-.34.11-0.34,0.39v1.46a0.32,0.32,0,0,0,.34.39H409c1.69,0,2.25.45,2.47,2,0.11,0.79.22,7.75,0.22,12.36V75.1c0,2.08-.22,2.42-2.81,2.42H407c-0.45,0-.56.11-0.56,0.45v1.35a0.37,0.37,0,0,0,.45.45c1,0,3-.17,7.19-0.17,18.76,0,23.14.17,23.7,0.17a1.19,1.19,0,0,0,1.24-.84l2.7-8.42a0.41,0.41,0,0,0-.11-0.56l-0.9-.56a0.45,0.45,0,0,0-.62.22c-1.07,1.35-4.21,5.05-5.22,6a9.59,9.59,0,0,1-4.6,1.91c-1.12.11-3.71,0.22-4.72,0.22a17.78,17.78,0,0,1-4.38-.45c-1.24-.34-2.25-1.46-2.25-4.38,0-1-.11-6.52-0.17-9.55l-0.06-3.37h0Zm36.85,1.91c0.62-.06,1.57-0.11,1.8-0.11,2.36,0,3.65,1.52,5.05,3.48,0.9,1.24,2.47,3.82,3,4.83s2.7,4.94,3.71,6.51a14.74,14.74,0,0,0,2.47,3.2c1.24-.06,3.37-0.17,4.94-0.17,3.59,0,5.05.17,5.5,0.17s0.45-.17.45-0.56V78a0.37,0.37,0,0,0-.45-0.39,5.89,5.89,0,0,1-4-1.07,78.22,78.22,0,0,1-4.77-6.4c-0.45-.67-3.93-6-4.61-6.85a7.32,7.32,0,0,0-3.37-2.58V60.5c6.18-1,10.45-3.93,10.45-11a8.6,8.6,0,0,0-3-6.29,15.1,15.1,0,0,0-10.22-3.54c-1.69,0-6.85.17-10,.17-5.5,0-7.3-.17-7.69-0.17a0.33,0.33,0,0,0-.39.39v1.52a0.32,0.32,0,0,0,.39.34H447c1,0,1.8.9,1.8,2.81V59.48c0,5.28,0,10.56-.11,16.18,0,1.52-.9,1.85-2.13,1.85h-1.91a0.36,0.36,0,0,0-.34.45v1.29a0.41,0.41,0,0,0,.45.51c0.56,0,1.91-.17,7.41-0.17,5.84,0,7,.17,7.69.17,0.45,0,.62-0.11.62-0.51V77.91a0.37,0.37,0,0,0-.45-0.39h-2.81c-0.9,0-1.29-1-1.46-2.13-0.11-.84-0.22-7.13-0.22-10.5v-3h0Zm0.22-18.2a1.93,1.93,0,0,1,.67-1.63,4,4,0,0,1,2-.34,10.74,10.74,0,0,1,7.41,2.42,8.84,8.84,0,0,1,2.47,6.29c0,2.58-1.8,9.66-10.56,9.66a15.36,15.36,0,0,1-2.14-.22l0.11-16.18h0Z" transform="translate(-117.26 -38.98)"/></svg>