<svg id="PN" xmlns="http://www.w3.org/2000/svg" viewBox="0 0 438.77 92.98" width="438.77" height="92.98"><defs><style>.cls-1{fill:#1d1d1b;}</style></defs><title>PN_Logoabbinder_trans_2015</title><path class="cls-1" d="M93.29,100h0.33c0.67,0.78,9.54,11.87,10.32,12.65s5,6.1,8.88,10.88c3.44,4.11,6.44,7.55,6.88,8.1a2.76,2.76,0,0,0,1.89.89c0.67,0,.67-0.78.67-1.55V116.3c0-5.66.56-15,.83-18.76,0.17-2.05.72-2.94,1.83-2.94h1.55c0.22,0,.33-0.22.33-0.55V92.77c0-.17-0.11-0.39-0.56-0.39-0.67,0-2,.17-5.33.17-3.77,0-5.55-.17-6.21-0.17-0.44,0-.44.11-0.44,0.44V94.1c0,0.28,0,.5.33,0.5h1.78a3,3,0,0,1,2.94,2.11c0.28,0.94.5,6.38,0.61,8.49,0.11,2.77.11,5.55,0.11,10.43v5.77h-0.22c-0.89-1.11-9.54-11.87-10.32-12.76-1.11-1.55-12-15.2-12.54-15.76a1.64,1.64,0,0,0-1.33-.5c-0.33,0-.83.06-1.55,0.06s-1.5.11-2.44,0.11c-2.44,0-3.94,0-4.94-.06s-1.44-.11-1.72-0.11a0.29,0.29,0,0,0-.33.33v1.5a0.37,0.37,0,0,0,.33.39h1.78c2.44,0,4.33,2.55,4.33,5.88v7c0,8.88-.33,16.65-0.39,17.65-0.28,3.38-1.05,4.61-2.5,4.61H86.3a0.35,0.35,0,0,0-.33.33v1.39c0,0.39.11,0.5,0.33,0.5,0.55,0,4.33-.17,5.77-0.17,2.11,0,5.44.17,6,.17s0.44-.11.44-0.44v-1.28c0-.28,0-0.5-0.44-0.5H96.62c-2,0-2.66-1.33-2.77-4.11-0.11-1.72-.55-9.49-0.55-18.92V100h0Zm58.83,16.59c0.67,2.05,2.89,9.16,3.33,11.15,0.33,1.5-.11,2.05-1.67,2.05h-1.44a0.37,0.37,0,0,0-.44.44v1.11a0.56,0.56,0,0,0,.55.67c1.22,0,3.11-.17,7.77-0.17,6.1,0,7.21.17,8.21,0.17a0.56,0.56,0,0,0,.56-0.67v-1.17c0-.28-0.11-0.39-0.44-0.39h-1.78a4.19,4.19,0,0,1-3.55-2.55c-0.78-1.5-4.33-11.82-5.66-16.15-1-3.55-5.33-16-6.33-19.42a0.78,0.78,0,1,0-1.5-.44A18,18,0,0,1,144.24,94a0.58,0.58,0,0,0-.56.55,1.26,1.26,0,0,0,.33.67c0.33,0.33,0,1.33-.11,1.89-0.55,1.44-5,13.43-5.44,14.54-1.67,4.66-5.66,14.65-6.21,15.65-1,1.72-2,2.5-3.55,2.5H127c-0.22,0-.33.11-0.33,0.44v1.05c0,0.39,0,.72.33,0.72,0.78,0,2-.17,6.1-0.17,3.88,0,6.21.17,7,.17a0.45,0.45,0,0,0,.44-0.55v-1.39c0-.17-0.11-0.28-0.56-0.28h-2.33c-1.11,0-2-.61-2-1.33a4.8,4.8,0,0,1,.11-1.17c0.28-1.5,3-9.43,3.44-10.71h12.87ZM140,114.36c0.39-1.28,5.38-14.93,5.6-15.65a0.81,0.81,0,0,1,.72-0.72c0.22,0,.33.33,0.56,1,0.33,1.11,4.11,13.76,4.66,15.37H140Zm65.15,7.6c-0.17-.17-0.39,0-0.67.39a16.19,16.19,0,0,1-13.26,6.44c-2.66,0-5.88-.44-9.54-4.33-4.11-4.44-5.1-11-5.1-14.43,0-8,3.66-16,12.54-16a13.23,13.23,0,0,1,9.65,4.11,19.66,19.66,0,0,1,4.33,7.21c0.17,0.44.33,0.67,0.61,0.55l1.05-.33c0.22-.06.28-0.22,0.22-0.55-0.22-1.66-1.33-10.54-1.33-11.54,0-.78-0.11-0.89-0.78-0.89s-0.78,0-.89.33l-0.44,1.44c-0.11.44-.33,0.44-1.11,0a24.17,24.17,0,0,0-11.21-2.66,19.18,19.18,0,0,0-14.43,5.88,21.52,21.52,0,0,0-5.66,14.87c0,4.88,1.89,11.32,6,15,3.44,3.11,7.44,5.22,14.54,5.22,7.88,0,13.21-4.55,16.54-9.32a0.43,0.43,0,0,0-.11-0.55l-0.94-.83h0Zm34.24-9.43c0.78,0,1.22.17,1.22,0.67v1.55c0,1-.11,9.88-0.22,12.54-0.06,1.5-.11,2.5-1.44,2.5h-3a0.37,0.37,0,0,0-.44.44v1.28a0.45,0.45,0,0,0,.44.5c1.55,0,3.33-.17,8.55-0.17,4.77,0,6.66.17,7.55,0.17a0.48,0.48,0,0,0,.56-0.55v-1.28a0.37,0.37,0,0,0-.44-0.39h-2.22c-1.66,0-2.22-.78-2.22-2.77,0-3.16-.11-11-0.11-13.48v-6c0-1.78.11-9.32,0.11-10.1,0-1.94.11-2.83,1.78-2.83h2c0.55,0,.67-0.22.67-0.55V92.88c0-.28-0.11-0.5-0.67-0.5-0.89,0-3.11.17-7.32,0.17-4.44,0-6.88-.17-7.88-0.17a0.37,0.37,0,0,0-.44.44V94.1c0,0.33.06,0.5,0.44,0.5h2.55c1.22,0,1.44,1,1.5,2.77,0.06,0.61.28,8.38,0.28,10.38v1.66c0,0.61-.22.78-1.11,0.78H221.21c-0.5,0-.67-0.22-0.67-0.78V107.2c0-1.44.22-8.77,0.28-9.54,0.06-2.16.28-3.05,2.28-3.05h2a0.48,0.48,0,0,0,.56-0.55V92.88a0.46,0.46,0,0,0-.56-0.5c-1,0-3,.17-8,0.17-5.44,0-7.21-.17-8.21-0.17a0.52,0.52,0,0,0-.56.55V94.1a0.46,0.46,0,0,0,.56.5h2.44c1.78,0,2.11.78,2.11,3.55,0,0.83.11,7.71,0.11,9.38v7.1c0,3.55-.11,9.88-0.11,12.54,0,1.28-.22,2.61-1.55,2.61H209c-0.44,0-.56.11-0.56,0.44v1.28a0.46,0.46,0,0,0,.56.5c1.11,0,2.77-.17,8.21-0.17,4.55,0,6.44.17,7.44,0.17a0.48,0.48,0,0,0,.56-0.55v-1.28c0-.28-0.11-0.39-0.56-0.39h-2a1.67,1.67,0,0,1-1.89-1.89c-0.11-3.83-.22-10.27-0.22-12.26v-2.39a0.62,0.62,0,0,1,.78-0.72h18.09Zm28.85,1.78c0.61-.06,1.55-0.11,1.78-0.11,2.33,0,3.61,1.5,5,3.44,0.89,1.22,2.44,3.77,3,4.77s2.66,4.88,3.66,6.44a14.56,14.56,0,0,0,2.44,3.16c1.22-.06,3.33-0.17,4.88-0.17,3.55,0,5,.17,5.44.17s0.44-.17.44-0.55v-1.17a0.37,0.37,0,0,0-.44-0.39,5.82,5.82,0,0,1-3.94-1.05,77.3,77.3,0,0,1-4.72-6.33c-0.44-.67-3.89-5.88-4.55-6.77a7.24,7.24,0,0,0-3.33-2.55V113c6.1-1,10.32-3.88,10.32-10.88a8.5,8.5,0,0,0-3-6.21,14.92,14.92,0,0,0-10.1-3.5c-1.66,0-6.77.17-9.88,0.17-5.44,0-7.21-.17-7.6-0.17a0.33,0.33,0,0,0-.39.39v1.5a0.31,0.31,0,0,0,.39.33h2.16c1,0,1.78.89,1.78,2.77V112c0,5.22,0,10.43-.11,16,0,1.5-.89,1.83-2.11,1.83H257.5a0.36,0.36,0,0,0-.33.44v1.28a0.41,0.41,0,0,0,.44.5c0.56,0,1.89-.17,7.32-0.17,5.77,0,6.88.17,7.6,0.17,0.44,0,.61-0.11.61-0.5v-1.33a0.37,0.37,0,0,0-.44-0.39h-2.77c-0.89,0-1.28-1-1.44-2.11-0.11-.83-0.22-7-0.22-10.38v-3h0Zm0.22-18a1.91,1.91,0,0,1,.67-1.61,3.93,3.93,0,0,1,2-.33,10.61,10.61,0,0,1,7.32,2.39,8.74,8.74,0,0,1,2.44,6.21c0,2.55-1.78,9.54-10.43,9.54a15.17,15.17,0,0,1-2.11-.22l0.11-16h0Zm40.46,13.21c0-.67.11-12.87,0.11-13.43,0-1.05.89-1.5,2.11-1.5h2.11a0.41,0.41,0,0,0,.44-0.44V92.88a0.42,0.42,0,0,0-.44-0.5c-0.78,0-2.55.17-7.88,0.17s-8.32-.17-9-0.17a0.31,0.31,0,0,0-.33.39v1.44c0,0.28.11,0.39,0.44,0.39h2.89c1.55,0,2.11.55,2.27,1.89,0.06,0.72.17,10.71,0.17,12v3.88c0,3-.11,15-0.22,15.76-0.22,1.5-1.44,1.61-2.55,1.61h-2.22c-0.33,0-.44.11-0.44,0.33v1.5c0,0.28.11,0.39,0.44,0.39,0.56,0,3-.17,8.55-0.17,5.22,0,7.44.17,8.1,0.17a0.45,0.45,0,0,0,.55-0.44v-1.39a0.39,0.39,0,0,0-.44-0.39h-2.33c-1.33,0-2.22-.22-2.22-2,0-.61-0.11-13.37-0.11-13.93v-4.33h0ZM352.28,122c-0.17-.17-0.39,0-0.67.39a16.19,16.19,0,0,1-13.26,6.44c-2.66,0-5.88-.44-9.54-4.33-4.11-4.44-5.1-11-5.1-14.43,0-8,3.66-16,12.54-16a13.23,13.23,0,0,1,9.66,4.11,19.66,19.66,0,0,1,4.33,7.21c0.17,0.44.33,0.67,0.61,0.55l1.05-.33c0.22-.06.28-0.22,0.22-0.55-0.22-1.66-1.33-10.54-1.33-11.54,0-.78-0.11-0.89-0.78-0.89s-0.78,0-.89.33l-0.44,1.44c-0.11.44-.33,0.44-1.11,0a24.17,24.17,0,0,0-11.21-2.66,19.18,19.18,0,0,0-14.43,5.88,21.53,21.53,0,0,0-5.66,14.87c0,4.88,1.89,11.32,6,15,3.44,3.11,7.44,5.22,14.54,5.22,7.88,0,13.21-4.55,16.54-9.32a0.43,0.43,0,0,0-.11-0.55l-0.94-.83h0Zm35.35-9.43c0.78,0,1.22.17,1.22,0.67v1.55c0,1-.11,9.88-0.22,12.54-0.06,1.5-.11,2.5-1.44,2.5h-3a0.37,0.37,0,0,0-.44.44v1.28a0.45,0.45,0,0,0,.44.5c1.55,0,3.33-.17,8.55-0.17,4.77,0,6.66.17,7.55,0.17a0.48,0.48,0,0,0,.56-0.55v-1.28a0.37,0.37,0,0,0-.44-0.39h-2.22c-1.67,0-2.22-.78-2.22-2.77,0-3.16-.11-11-0.11-13.48v-6c0-1.78.11-9.32,0.11-10.1,0-1.94.11-2.83,1.78-2.83h2c0.55,0,.67-0.22.67-0.55V92.88c0-.28-0.11-0.5-0.67-0.5-0.89,0-3.11.17-7.32,0.17-4.44,0-6.88-.17-7.88-0.17a0.37,0.37,0,0,0-.44.44V94.1c0,0.33.06,0.5,0.44,0.5h2.55c1.22,0,1.44,1,1.5,2.77,0.06,0.61.28,8.38,0.28,10.38v1.66c0,0.61-.22.78-1.11,0.78H369.43c-0.5,0-.67-0.22-0.67-0.78V107.2c0-1.44.22-8.77,0.28-9.54,0.06-2.16.28-3.05,2.28-3.05h2a0.48,0.48,0,0,0,.55-0.55V92.88a0.46,0.46,0,0,0-.55-0.5c-1,0-3,.17-8,0.17-5.44,0-7.21-.17-8.21-0.17a0.52,0.52,0,0,0-.56.55V94.1a0.46,0.46,0,0,0,.56.5h2.44c1.78,0,2.11.78,2.11,3.55,0,0.83.11,7.71,0.11,9.38v7.1c0,3.55-.11,9.88-0.11,12.54,0,1.28-.22,2.61-1.55,2.61h-2.88c-0.44,0-.56.11-0.56,0.44v1.28a0.46,0.46,0,0,0,.56.5c1.11,0,2.77-.17,8.21-0.17,4.55,0,6.44.17,7.44,0.17a0.48,0.48,0,0,0,.56-0.55v-1.28c0-.28-0.11-0.39-0.56-0.39h-2A1.67,1.67,0,0,1,369,127.9c-0.11-3.83-.22-10.27-0.22-12.26v-2.39a0.62,0.62,0,0,1,.78-0.72h18.09Zm31.61-3.77c0,1.11,0,18.09-.17,19.53a1.66,1.66,0,0,1-1.83,1.5h-3.16a0.37,0.37,0,0,0-.39.44v1.28c0,0.39.11,0.5,0.44,0.5,0.78,0,3.11-.17,8.77-0.17,6,0,7.77.17,8.32,0.17a0.48,0.48,0,0,0,.55-0.55v-1.17a0.41,0.41,0,0,0-.33-0.5h-3.22c-1.33,0-1.89-1.11-1.89-5.33V94.88h1.55c2,0,7,.11,8.55,1,1.55,1.11,3.61,4.66,4.38,6.21,0.17,0.33.28,0.5,0.5,0.44l1.11-.39c0.17-.06.28-0.17,0.22-0.5-0.44-2.66-1.55-9.54-1.67-10.54-0.11-.67-0.22-0.89-0.55-0.89a1.83,1.83,0,0,0-1,.55,10.18,10.18,0,0,1-4,1.44c-2.55.11-4.88,0.33-11,.33h-3c-5.44,0-7.77-.22-10.77-0.33a5,5,0,0,1-3.77-1.44,1.33,1.33,0,0,0-.89-0.55c-0.22,0-.56.22-0.67,1s-2.11,8.1-2.66,10.21a0.43,0.43,0,0,0,.22.55l1.11,0.39c0.28,0.11.44-.11,0.61-0.39,1.05-1.89,3.16-5.55,4.94-6.33,2.33-.78,6.33-0.78,8.1-0.78h1.55v13.87h0Zm38.4,3.66c1.78,0,4.44.11,6.44,0.33a3.39,3.39,0,0,1,2.77,2,23.22,23.22,0,0,1,.89,2.77c0.11,0.33.22,0.44,0.44,0.39l1.22-.22c0.33-.06.44-0.11,0.44-0.39-0.11-1.22-.33-3.88-0.33-6.1,0-1.44,0-5.1.11-6a0.32,0.32,0,0,0-.33-0.44l-1.44-.11a0.41,0.41,0,0,0-.44.44,8.85,8.85,0,0,1-.89,3.11,3.1,3.1,0,0,1-2.55,2,62.77,62.77,0,0,1-6.33.28l0.11-16,8.43,0.22a9.55,9.55,0,0,1,4.22,1.44c1.33,0.78,5.88,5.88,6.1,6.21a0.42,0.42,0,0,0,.5.28l1-.44c0.22-.11.28-0.28,0.17-0.61-0.22-.55-2.33-8.1-2.55-8.82a0.39,0.39,0,0,0-.44-0.33c-0.28,0-1.33.06-2.22,0.06-2.44,0-15.2.11-17.65,0.11h-1.55c-4.55.06-6.55-.17-7.77-0.17-0.28,0-.33.11-0.33,0.39v1.44a0.31,0.31,0,0,0,.33.39h2.11c1.66,0,2.22.44,2.44,1.94,0.11,0.78.22,7.66,0.22,12.21V127.4c0,2.05-.22,2.39-2.78,2.39H446.1c-0.44,0-.56.11-0.56,0.44v1.33a0.37,0.37,0,0,0,.44.44c1,0,3-.17,7.1-0.17,18.53,0,22.86.17,23.42,0.17a1.17,1.17,0,0,0,1.22-.83l2.66-8.32a0.4,0.4,0,0,0-.11-0.55l-0.89-.55a0.45,0.45,0,0,0-.61.22c-1.05,1.33-4.16,5-5.16,5.88a9.47,9.47,0,0,1-4.55,1.89c-1.11.11-3.66,0.22-4.66,0.22a17.57,17.57,0,0,1-4.33-.44c-1.22-.33-2.22-1.44-2.22-4.33,0-1-.11-6.44-0.17-9.43l-0.06-3.33h0ZM489.88,100h0.33c0.67,0.78,9.54,11.87,10.32,12.65s5,6.1,8.88,10.88c3.44,4.11,6.44,7.55,6.88,8.1a2.77,2.77,0,0,0,1.89.89c0.67,0,.67-0.78.67-1.55V116.3c0-5.66.56-15,.83-18.76,0.17-2.05.72-2.94,1.83-2.94h1.55c0.22,0,.33-0.22.33-0.55V92.77c0-.17-0.11-0.39-0.56-0.39-0.67,0-2,.17-5.33.17-3.77,0-5.55-.17-6.21-0.17-0.44,0-.44.11-0.44,0.44V94.1c0,0.28,0,.5.33,0.5H513a3,3,0,0,1,2.94,2.11c0.28,0.94.5,6.38,0.61,8.49,0.11,2.77.11,5.55,0.11,10.43v5.77h-0.22c-0.89-1.11-9.54-11.87-10.32-12.76-1.11-1.55-12-15.2-12.54-15.76a1.64,1.64,0,0,0-1.33-.5c-0.33,0-.83.06-1.55,0.06s-1.5.11-2.44,0.11c-2.44,0-3.94,0-4.94-.06s-1.44-.11-1.72-0.11a0.29,0.29,0,0,0-.33.33v1.5a0.37,0.37,0,0,0,.33.39h1.78c2.44,0,4.33,2.55,4.33,5.88v7c0,8.88-.33,16.65-0.39,17.65-0.28,3.38-1.05,4.61-2.5,4.61h-1.89a0.36,0.36,0,0,0-.33.33v1.39c0,0.39.11,0.5,0.33,0.5,0.56,0,4.33-.17,5.77-0.17,2.11,0,5.44.17,6,.17s0.44-.11.44-0.44v-1.28c0-.28,0-0.5-0.44-0.5h-1.44c-2,0-2.66-1.33-2.78-4.11-0.11-1.72-.56-9.49-0.56-18.92V100h0Z" transform="translate(-84.63 -39.69)"/><path class="cls-1" d="M202.37,59.76c0,6.45-.11,15.13-0.17,15.68-0.17,1.5-.61,1.72-2.5,1.72h-1.78c-0.33,0-.33.11-0.33,0.44V79c0,0.17,0,.39.45,0.39s2.78-.17,7.67-0.17c6,0,7.79.17,8.56,0.17,0.44,0,.44-0.22.44-0.56V77.56c0-.17,0-0.39-0.44-0.39h-3.11c-1,0-1.56-.56-1.72-1.78-0.06-.72-0.06-8.29-0.06-11V62a34.47,34.47,0,0,0,5,.22c9.45,0,14.79-4.34,14.79-11.23a10.53,10.53,0,0,0-4.23-8.45c-3.23-2.22-6.45-2.84-13.12-2.84-1.89,0-5.12.17-6.12,0.17-5.56,0-7.56-.17-8.23-0.17-0.22,0-.33.11-0.33,0.44v1.39a0.31,0.31,0,0,0,.33.39h2.89c1.22,0,1.83.28,1.95,1.22,0.06,0.61.06,6.51,0.06,10.18v6.45h0Zm7-17.8a7.82,7.82,0,0,1,3.23-.39c2.67,0,8.79,1.72,8.79,9.29a10.36,10.36,0,0,1-1.33,5.78c-1.34,1.89-4.23,3.78-6.67,3.78a14.2,14.2,0,0,1-4-.45V42h0Zm35.19,17.8c1.78,0,4.45.11,6.45,0.33a3.4,3.4,0,0,1,2.78,2,23.53,23.53,0,0,1,.89,2.78c0.11,0.33.22,0.44,0.44,0.39l1.22-.22c0.33-.06.45-0.11,0.45-0.39-0.11-1.22-.33-3.89-0.33-6.12,0-1.45,0-5.12.11-6a0.32,0.32,0,0,0-.33-0.44L254.8,52a0.41,0.41,0,0,0-.44.44,8.87,8.87,0,0,1-.89,3.11,3.11,3.11,0,0,1-2.56,2,62.89,62.89,0,0,1-6.34.28l0.11-16.07L253.13,42a9.56,9.56,0,0,1,4.23,1.45c1.33,0.78,5.89,5.89,6.12,6.23a0.42,0.42,0,0,0,.5.28l1-.44c0.22-.11.28-0.28,0.17-0.61-0.22-.56-2.34-8.12-2.56-8.84a0.39,0.39,0,0,0-.45-0.33c-0.28,0-1.33.06-2.22,0.06-2.45,0-15.24.11-17.68,0.11h-1.56c-4.56.06-6.56-.17-7.79-0.17-0.28,0-.33.11-0.33,0.39v1.45a0.31,0.31,0,0,0,.33.39H235c1.67,0,2.23.44,2.45,1.95,0.11,0.78.22,7.67,0.22,12.23V74.78c0,2.06-.22,2.39-2.78,2.39H233c-0.44,0-.56.11-0.56,0.44v1.33a0.37,0.37,0,0,0,.45.44c1,0,3-.17,7.12-0.17,18.57,0,22.91.17,23.47,0.17a1.18,1.18,0,0,0,1.22-.83l2.67-8.34a0.4,0.4,0,0,0-.11-0.56l-0.89-.56a0.45,0.45,0,0,0-.61.22c-1.06,1.33-4.17,5-5.17,5.89A9.49,9.49,0,0,1,256,77.11c-1.11.11-3.67,0.22-4.67,0.22a17.6,17.6,0,0,1-4.34-.44c-1.22-.33-2.23-1.45-2.23-4.34,0-1-.11-6.45-0.17-9.45l-0.06-3.34h0Zm37.21-2.89c0-.67.11-12.9,0.11-13.46,0-1.06.89-1.5,2.11-1.5h2.11a0.41,0.41,0,0,0,.45-0.44V40.19a0.43,0.43,0,0,0-.45-0.5c-0.78,0-2.56.17-7.9,0.17s-8.34-.17-9-0.17a0.31,0.31,0,0,0-.33.39v1.45c0,0.28.11,0.39,0.44,0.39h2.89c1.56,0,2.11.56,2.28,1.89,0.06,0.72.17,10.73,0.17,12.07v3.89c0,3-.11,15-0.22,15.79-0.22,1.5-1.44,1.61-2.56,1.61h-2.23c-0.33,0-.44.11-0.44,0.33V79c0,0.28.11,0.39,0.44,0.39,0.56,0,3-.17,8.56-0.17,5.23,0,7.45.17,8.12,0.17a0.45,0.45,0,0,0,.56-0.44V77.56a0.39,0.39,0,0,0-.45-0.39h-2.34c-1.33,0-2.22-.22-2.22-2,0-.61-0.11-13.4-0.11-14V56.87h0Zm16.68-9.57h0.33c0.67,0.78,9.56,11.9,10.34,12.68s5,6.12,8.9,10.9c3.45,4.12,6.45,7.56,6.9,8.12a2.77,2.77,0,0,0,1.89.89c0.67,0,.67-0.78.67-1.56V63.65c0-5.67.56-15,.83-18.8,0.17-2.06.72-2.95,1.83-2.95h1.56c0.22,0,.33-0.22.33-0.56V40.07c0-.17-0.11-0.39-0.56-0.39-0.67,0-2,.17-5.34.17-3.78,0-5.56-.17-6.23-0.17-0.44,0-.44.11-0.44,0.44v1.28c0,0.28,0,.5.33,0.5h1.78A3,3,0,0,1,324.54,44c0.28,0.95.5,6.4,0.61,8.51,0.11,2.78.11,5.56,0.11,10.45v5.78H325c-0.89-1.11-9.57-11.9-10.35-12.79-1.11-1.56-12-15.24-12.57-15.79a1.64,1.64,0,0,0-1.34-.5c-0.33,0-.83.06-1.56,0.06s-1.5.11-2.45,0.11c-2.45,0-3.95,0-4.95-.06s-1.45-.11-1.72-0.11a0.29,0.29,0,0,0-.33.33v1.5a0.37,0.37,0,0,0,.33.39h1.78c2.45,0,4.34,2.56,4.34,5.89v7.06c0,8.9-.33,16.68-0.39,17.68-0.28,3.39-1.06,4.62-2.5,4.62h-1.89a0.36,0.36,0,0,0-.33.33v1.39c0,0.39.11,0.5,0.33,0.5,0.55,0,4.34-.17,5.78-0.17,2.11,0,5.45.17,6,.17s0.44-.11.44-0.44V77.67c0-.28,0-0.5-0.44-0.5H301.8c-2,0-2.67-1.33-2.78-4.12-0.11-1.72-.56-9.51-0.56-19V47.3h0ZM348.4,59.76c1.78,0,4.45.11,6.45,0.33a3.4,3.4,0,0,1,2.78,2,23.55,23.55,0,0,1,.89,2.78c0.11,0.33.22,0.44,0.45,0.39l1.22-.22c0.33-.06.44-0.11,0.44-0.39-0.11-1.22-.33-3.89-0.33-6.12,0-1.45,0-5.12.11-6a0.32,0.32,0,0,0-.33-0.44L358.63,52a0.41,0.41,0,0,0-.44.44,8.87,8.87,0,0,1-.89,3.11,3.11,3.11,0,0,1-2.56,2,62.88,62.88,0,0,1-6.34.28l0.11-16.07L357,42a9.56,9.56,0,0,1,4.23,1.45c1.34,0.78,5.89,5.89,6.12,6.23a0.42,0.42,0,0,0,.5.28l1-.44c0.22-.11.28-0.28,0.17-0.61-0.22-.56-2.34-8.12-2.56-8.84a0.39,0.39,0,0,0-.45-0.33c-0.28,0-1.33.06-2.22,0.06-2.45,0-15.24.11-17.68,0.11h-1.56c-4.56.06-6.56-.17-7.79-0.17-0.28,0-.33.11-0.33,0.39v1.45a0.31,0.31,0,0,0,.33.39h2.11c1.67,0,2.23.44,2.45,1.95,0.11,0.78.22,7.67,0.22,12.23V74.78c0,2.06-.22,2.39-2.78,2.39h-1.89c-0.44,0-.55.11-0.55,0.44v1.33a0.37,0.37,0,0,0,.44.44c1,0,3-.17,7.12-0.17,18.57,0,22.91.17,23.47,0.17a1.18,1.18,0,0,0,1.22-.83l2.67-8.34a0.4,0.4,0,0,0-.11-0.56l-0.89-.56a0.45,0.45,0,0,0-.61.22c-1.06,1.33-4.17,5-5.17,5.89a9.49,9.49,0,0,1-4.56,1.89c-1.11.11-3.67,0.22-4.67,0.22a17.61,17.61,0,0,1-4.34-.44c-1.22-.33-2.23-1.45-2.23-4.34,0-1-.11-6.45-0.17-9.45l-0.06-3.34h0Zm36.76,1.89c0.61-.06,1.56-0.11,1.78-0.11,2.34,0,3.61,1.5,5,3.45,0.89,1.22,2.45,3.78,3,4.78s2.67,4.89,3.67,6.45a14.59,14.59,0,0,0,2.45,3.17c1.22-.06,3.34-0.17,4.89-0.17,3.56,0,5,.17,5.45.17s0.45-.17.45-0.56V77.67a0.37,0.37,0,0,0-.45-0.39,5.84,5.84,0,0,1-3.95-1.06,77.45,77.45,0,0,1-4.73-6.34c-0.45-.67-3.89-5.89-4.56-6.78a7.25,7.25,0,0,0-3.34-2.56V60.32c6.12-1,10.34-3.89,10.34-10.9a8.52,8.52,0,0,0-3-6.23,15,15,0,0,0-10.12-3.5c-1.67,0-6.78.17-9.9,0.17-5.45,0-7.23-.17-7.62-0.17a0.33,0.33,0,0,0-.39.39v1.5a0.31,0.31,0,0,0,.39.33h2.17c1,0,1.78.89,1.78,2.78V59.32c0,5.23,0,10.46-.11,16,0,1.5-.89,1.84-2.11,1.84h-1.89a0.36,0.36,0,0,0-.33.44v1.28a0.41,0.41,0,0,0,.45.5c0.56,0,1.89-.17,7.34-0.17,5.78,0,6.9.17,7.62,0.17,0.44,0,.61-0.11.61-0.5V77.56a0.37,0.37,0,0,0-.45-0.39h-2.78c-0.89,0-1.28-1-1.45-2.11-0.11-.83-0.22-7.06-0.22-10.4v-3h0Zm0.22-18a1.91,1.91,0,0,1,.67-1.61,3.94,3.94,0,0,1,2-.33,10.64,10.64,0,0,1,7.34,2.39,8.76,8.76,0,0,1,2.45,6.23c0,2.56-1.78,9.57-10.45,9.57a15.17,15.17,0,0,1-2.11-.22l0.11-16h0Z" transform="translate(-84.63 -39.69)"/></svg>