<svg id="WZ" xmlns="http://www.w3.org/2000/svg" viewBox="0 0 570.98 103.66" width="570.98" height="103.66"><defs><style>.cls-1{fill:#1d1d1b;}</style></defs><title>WZ_Logoabbinder_trans_2015</title><path class="cls-1" d="M181.52,132c5.13,0,13.94.22,17.06,0.67a10.28,10.28,0,0,0,1.34.17,0.89,0.89,0,0,0,.78-0.61c0.56-1.45,3.35-8.36,4.13-9.59a0.44,0.44,0,0,0-.11-0.56l-0.89-.45a0.52,0.52,0,0,0-.67.11c-0.78,1-5.91,7-7.81,7.8a12.52,12.52,0,0,1-3.57.33H176.94c8.7-12.1,17.39-24.25,26.2-36.34a0.79,0.79,0,0,0-.67-1.34c-1,0-2.9.11-4.79,0.22-2.12,0-4.57.11-7.36,0.11-4.68,0-12.49.06-15.16-.28a11.1,11.1,0,0,0-1.23-.11,0.68,0.68,0,0,0-.67.61l-3.57,9.92c0,0.33,0,.45.22,0.45l0.78,0.45a0.46,0.46,0,0,0,.67-0.22c1.06-1.62,5.74-7.08,7-7.86a4.73,4.73,0,0,1,2.73-.95H194c-8.53,12-17.17,24-25.76,35.9a2,2,0,0,0-.34,1.06q0,0.5.84,0.5h12.77ZM220,112.52c1.78,0,4.46.11,6.47,0.33a3.41,3.41,0,0,1,2.79,2,23.58,23.58,0,0,1,.89,2.79c0.11,0.33.22,0.45,0.45,0.39l1.23-.22c0.33-.06.45-0.11,0.45-0.39-0.11-1.23-.33-3.9-0.33-6.13,0-1.45,0-5.13.11-6a0.32,0.32,0,0,0-.33-0.45l-1.45-.11a0.41,0.41,0,0,0-.45.45,8.89,8.89,0,0,1-.89,3.12,3.11,3.11,0,0,1-2.57,2,63.05,63.05,0,0,1-6.35.28l0.11-16.11,8.47,0.22a9.59,9.59,0,0,1,4.24,1.45c1.34,0.78,5.91,5.91,6.13,6.24a0.42,0.42,0,0,0,.5.28l1-.45c0.22-.11.28-0.28,0.17-0.61-0.22-.56-2.34-8.14-2.56-8.86a0.39,0.39,0,0,0-.45-0.33c-0.28,0-1.34.06-2.23,0.06-2.45,0-15.28.11-17.73,0.11h-1.56c-4.57.06-6.58-.17-7.8-0.17-0.28,0-.33.11-0.33,0.39v1.45a0.32,0.32,0,0,0,.33.39h2.12c1.67,0,2.23.45,2.45,2,0.11,0.78.22,7.69,0.22,12.26v18.73c0,2.06-.22,2.4-2.79,2.4h-1.9c-0.45,0-.56.11-0.56,0.45v1.34a0.37,0.37,0,0,0,.45.45c1,0,3-.17,7.14-0.17,18.62,0,23,.17,23.53.17a1.18,1.18,0,0,0,1.23-.84L242.9,123a0.41,0.41,0,0,0-.11-0.56l-0.89-.56a0.45,0.45,0,0,0-.61.22c-1.06,1.34-4.18,5-5.19,5.91a9.52,9.52,0,0,1-4.57,1.9c-1.12.11-3.68,0.22-4.68,0.22a17.66,17.66,0,0,1-4.35-.45c-1.23-.33-2.23-1.45-2.23-4.35,0-1-.11-6.47-0.17-9.48L220,112.52h0Zm39-2.9c0-.67.11-12.93,0.11-13.49,0-1.06.89-1.5,2.12-1.5h2.12a0.41,0.41,0,0,0,.45-0.45V92.9a0.43,0.43,0,0,0-.45-0.5c-0.78,0-2.57.17-7.92,0.17s-8.36-.17-9-0.17a0.32,0.32,0,0,0-.34.39v1.45c0,0.28.11,0.39,0.45,0.39h2.9c1.56,0,2.12.56,2.29,1.9,0.06,0.72.17,10.76,0.17,12.1v3.9c0,3-.11,15.05-0.22,15.83-0.22,1.51-1.45,1.62-2.56,1.62h-2.23c-0.33,0-.45.11-0.45,0.33v1.5c0,0.28.11,0.39,0.45,0.39,0.56,0,3-.17,8.59-0.17,5.24,0,7.47.17,8.14,0.17a0.45,0.45,0,0,0,.56-0.45v-1.39a0.4,0.4,0,0,0-.45-0.39h-2.34c-1.34,0-2.23-.22-2.23-2,0-.61-0.11-13.43-0.11-14v-4.35h0Zm24.52-.78c0,1.11,0,18.17-.17,19.62a1.67,1.67,0,0,1-1.84,1.51h-3.18a0.37,0.37,0,0,0-.39.45v1.28c0,0.39.11,0.5,0.45,0.5,0.78,0,3.12-.17,8.81-0.17,6,0,7.81.17,8.36,0.17a0.48,0.48,0,0,0,.56-0.56v-1.17a0.42,0.42,0,0,0-.33-0.5h-3.23c-1.34,0-1.89-1.11-1.89-5.35V94.9h1.56c2,0,7,.11,8.59,1,1.56,1.11,3.62,4.68,4.4,6.24,0.17,0.33.28,0.5,0.5,0.45l1.12-.39c0.17-.06.28-0.17,0.22-0.5-0.45-2.68-1.56-9.59-1.67-10.59-0.11-.67-0.22-0.89-0.56-0.89a1.84,1.84,0,0,0-1,.56,10.22,10.22,0,0,1-4,1.45c-2.57.11-4.91,0.33-11,.33h-3c-5.46,0-7.8-.22-10.81-0.33a5,5,0,0,1-3.79-1.45,1.33,1.33,0,0,0-.89-0.56c-0.22,0-.56.22-0.67,1s-2.12,8.14-2.68,10.26a0.43,0.43,0,0,0,.22.56l1.12,0.39c0.28,0.11.45-.11,0.61-0.39,1.06-1.9,3.18-5.57,5-6.35,2.34-.78,6.35-0.78,8.14-0.78h1.56v13.94h0Zm30.15,1.78c0,7.3.22,11,1,13.43a11.35,11.35,0,0,0,6.58,7.47,22.88,22.88,0,0,0,8,1.34,15,15,0,0,0,10.15-3.46c3-2.68,4.35-6.13,4.68-10.7,0.22-2.23.33-11.93,0.33-12.71s0-8.53.11-9.2a2.21,2.21,0,0,1,2.34-2.17h2c0.28,0,.34-0.17.34-0.5V92.84c0-.28-0.06-0.45-0.56-0.45s-2.23.17-5.69,0.17c-3.68,0-6.24-.17-6.8-0.17a0.37,0.37,0,0,0-.45.45v1.39a0.37,0.37,0,0,0,.45.39h2a2.45,2.45,0,0,1,2.29,2.45,102.93,102.93,0,0,1,.61,10.65v10c0,4.07-1.12,7.3-3.23,9.42a11.76,11.76,0,0,1-7.47,2.68,9.2,9.2,0,0,1-7.58-3.46c-1.34-1.78-1.78-4.35-2-6.91-0.11-1.78-.17-5.74-0.17-8.53V104c0-3.23.11-6.58,0.17-7.25a2.45,2.45,0,0,1,2.73-2.17h2.34a0.37,0.37,0,0,0,.45-0.45V92.79c0-.28-0.11-0.39-0.45-0.39-0.67,0-3.35.17-8,.17-5.35,0-8-.17-8.59-0.17s-0.56.11-.56,0.45v1.28c0,0.39.11,0.5,0.45,0.5h2.57c1.45,0,1.89.89,1.89,2.79v13.21h0ZM360.29,100h0.33c0.67,0.78,9.59,11.93,10.37,12.71s5,6.13,8.92,10.93c3.46,4.12,6.47,7.58,6.91,8.14a2.77,2.77,0,0,0,1.89.89c0.67,0,.67-0.78.67-1.56V116.42c0-5.69.56-15.05,0.84-18.84,0.17-2.06.73-3,1.84-3h1.56c0.22,0,.33-0.22.33-0.56V92.79c0-.17-0.11-0.39-0.56-0.39-0.67,0-2,.17-5.35.17-3.79,0-5.58-.17-6.24-0.17-0.45,0-.45.11-0.45,0.45v1.28c0,0.28,0,.5.33,0.5h1.78a3,3,0,0,1,3,2.12c0.28,0.95.5,6.41,0.61,8.53,0.11,2.79.11,5.57,0.11,10.48v5.8h-0.22c-0.89-1.11-9.59-11.93-10.37-12.82-1.12-1.56-12-15.27-12.6-15.83a1.64,1.64,0,0,0-1.34-.5c-0.33,0-.84.06-1.56,0.06s-1.51.11-2.45,0.11c-2.45,0-4,0-5-.06s-1.45-.11-1.73-0.11a0.3,0.3,0,0,0-.33.33v1.51a0.37,0.37,0,0,0,.33.39h1.78c2.45,0,4.35,2.56,4.35,5.91v7.08c0,8.92-.33,16.72-0.39,17.73-0.28,3.4-1.06,4.63-2.51,4.63h-1.89a0.36,0.36,0,0,0-.33.33v1.39c0,0.39.11,0.5,0.33,0.5,0.56,0,4.35-.17,5.8-0.17,2.12,0,5.46.17,6,.17s0.45-.11.45-0.45v-1.28c0-.28,0-0.5-0.45-0.5h-1.45c-2,0-2.68-1.34-2.79-4.12-0.11-1.73-.56-9.53-0.56-19V100h0Zm75,19.12c0-1.62.67-2.06,1.67-2.06h1.9a0.37,0.37,0,0,0,.45-0.45v-1.39c0-.28-0.11-0.39-0.56-0.39s-2.45.17-7.14,0.17-7.25-.17-7.92-0.17c-0.22,0-.33.11-0.33,0.45v1.28a0.43,0.43,0,0,0,.45.5h2.34c1.45,0,2,.56,2,2.56v4.07c0,2.9-.11,4.46-1.34,5.13-1.89,1-4,1.45-7.58,1.45a12.07,12.07,0,0,1-8.92-3.79c-3.23-3.23-5-8.92-5-15.5a19.48,19.48,0,0,1,4.57-12.6,11.46,11.46,0,0,1,9.48-4.35,12.59,12.59,0,0,1,9.25,3.9,22.12,22.12,0,0,1,4.46,7.69c0.11,0.33.22,0.5,0.56,0.45l1.34-.22c0.22-.06.22-0.33,0.22-0.78L434.66,94a0.63,0.63,0,0,0-.67-0.78,0.93,0.93,0,0,0-.78.56l-0.67.89c-0.33.45-.67,0.61-1.34,0.11-1.78-1.34-6-3-11.37-3-6.69,0-11.82,1.9-15.83,5.46a18.82,18.82,0,0,0-6.36,14c0,6.58,1.67,11.37,5.13,15.16,3.79,4.57,10.59,6.47,16.06,6.47a32.27,32.27,0,0,0,15.83-3.68,1,1,0,0,0,.89-0.89c0-.45-0.22-1-0.22-1.78v-7.36h0Z" transform="translate(-18.53 -29.21)"/><path class="cls-1" d="M35.25,79.49a1.13,1.13,0,0,0,1.11.89,1.64,1.64,0,0,0,1.45-1.06C38,78.71,47.91,51.39,48.41,49.83h0.22L58.73,79.15a1.48,1.48,0,0,0,1.39,1.23,1.92,1.92,0,0,0,1.45-1.45c1.12-2.79,12.49-34,13-35.23a2.75,2.75,0,0,1,2.45-1.84h1.17c0.33,0,.39-0.17.39-0.45V39.91a0.28,0.28,0,0,0-.33-0.28c-0.45,0-2.12.17-5.24,0.17-3.46,0-5.35-.17-5.91-0.17a0.39,0.39,0,0,0-.45.45v1.34c0,0.28.06,0.45,0.39,0.45h1.51a1.63,1.63,0,0,1,1.9,1.56c0,3.07-6.36,21.46-8,26.37H62.24L54.21,44c-0.28-.95.11-2.17,1.23-2.17h2a0.37,0.37,0,0,0,.39-0.45V40.13c0-.33-0.06-0.5-0.39-0.5-0.5,0-2.62.17-7.3,0.17s-6.8-.17-7.25-0.17a0.39,0.39,0,0,0-.45.45v1.39a0.35,0.35,0,0,0,.39.39H44a2.33,2.33,0,0,1,1.9,1,5.37,5.37,0,0,1,1,3c-0.11,2.12-7.53,22.63-8,23.8l-0.11-.06-8.2-25.75a1.34,1.34,0,0,1,1.34-2H33a0.41,0.41,0,0,0,.5-0.45V40c0-.28-0.11-0.39-0.45-0.39-0.56,0-2.9.17-6.91,0.17-5,0-6.69-.17-7.14-0.17a0.37,0.37,0,0,0-.45.39v1.45a0.34,0.34,0,0,0,.33.39h1.56c0.89,0,1.78.45,2.34,2L35.25,79.49h0ZM99.44,39c-4.79,0-10.82,1.11-15.72,7.13a22.16,22.16,0,0,0-5.13,13.82c0,8,4.18,14.1,8.14,16.5a25.61,25.61,0,0,0,12.6,3.68c8.36,0,13.16-3.46,16.73-7.92a19.38,19.38,0,0,0,4.13-12.26,20.73,20.73,0,0,0-7.58-16.5A19.74,19.74,0,0,0,99.44,39h0Zm-0.22,2.45c5.35,0,13.6,6.91,13.6,19.06,0,4.68-1.78,17.17-13,17.17-4.68,0-13.6-5.13-13.6-19.62,0-4.46,1.62-10.2,5-13.49,3.79-3.68,7-3.12,8-3.12h0Zm57.87,26a0.54,0.54,0,0,0-.67.22c-0.78,2.12-4.35,8.81-7.47,9.25-2.23.28-6.24,0.28-9.37,0.28h-3.12c-0.22-2.4-.22-14.44-0.22-15.44V57c0-3.9.22-12.26,0.22-13,0-1.51.22-2.06,1.89-2.06h3a0.45,0.45,0,0,0,.56-0.45V40.13a0.46,0.46,0,0,0-.56-0.5c-0.45,0-2.79.17-8.81,0.17-5.13,0-7.14-.17-7.69-0.17a0.37,0.37,0,0,0-.45.45v1.28a0.48,0.48,0,0,0,.45.5h2.34c1.45,0,1.67.56,1.78,2,0.11,0.95.22,6.86,0.22,10.42v3.12c0,3.34-.22,17.28-0.22,18.28,0,0.72-.34,1.5-2.34,1.5h-2.23c-0.33,0-.33.11-0.33,0.45v1.28c0,0.39,0,.5.45,0.5,0.67,0,2.68-.17,7.69-0.17,5.69,0,21.74.11,23.19,0.17,0.33-1.51,2.57-10.76,2.79-11.09a0.69,0.69,0,0,0-.11-0.56l-1-.33h0Zm16.61-25.7c2.12,0,9.37.22,10.81,0.5a6.84,6.84,0,0,1,3.79,2.56,35.08,35.08,0,0,1,4,5.13c0.33,0.45.45,0.56,0.67,0.45l1.06-.45a0.33,0.33,0,0,0,.17-0.45c-0.22-.67-2-8.36-2.23-9.25a0.76,0.76,0,0,0-.33-0.78,17.16,17.16,0,0,1-2.12.22c-3.57,0-18.29.11-19.07,0.11-6.36,0-8.47-.17-9-0.17A0.39,0.39,0,0,0,161,40v1.62a0.4,0.4,0,0,0,.45.28h2.79c1.45,0,2.23.56,2.23,1.56,0,0.61.11,8.53,0.11,11v3.9c0,9.59-.11,16.61-0.17,17.73-0.06.95-.5,1.17-1.84,1.17h-2.23a0.3,0.3,0,0,0-.33.33V79a0.32,0.32,0,0,0,.33.39c0.78,0,2.9-.17,7.92-0.17,5.46,0,7.69.17,8.25,0.17a0.37,0.37,0,0,0,.45-0.45V77.59c0-.28-0.11-0.39-0.45-0.39h-3c-1.34,0-1.78-.22-1.78-1.78V61.54a44.12,44.12,0,0,1,6.41.33,4.28,4.28,0,0,1,2.79,2.29,14.09,14.09,0,0,1,.84,2.62,0.43,0.43,0,0,0,.45.45L185.4,67a0.41,0.41,0,0,0,.34-0.56c-0.11-1.11-.34-3.79-0.34-5.8,0-.78,0-5.35.11-6.35a0.3,0.3,0,0,0-.33-0.33l-1.12-.11a0.53,0.53,0,0,0-.45.45,10,10,0,0,1-1,2.84c-0.95,1.39-1.84,2.06-3,2.17a46.55,46.55,0,0,1-6,.28V41.75h0Zm35.12,18c1.78,0,4.46.11,6.47,0.33a3.41,3.41,0,0,1,2.79,2,23.59,23.59,0,0,1,.89,2.79c0.11,0.33.22,0.45,0.45,0.39l1.23-.22c0.33-.06.45-0.11,0.45-0.39-0.11-1.23-.33-3.9-0.33-6.13,0-1.45,0-5.13.11-6a0.32,0.32,0,0,0-.33-0.45L219.08,52a0.41,0.41,0,0,0-.45.45,8.86,8.86,0,0,1-.89,3.12,3.11,3.11,0,0,1-2.56,2,63.06,63.06,0,0,1-6.36.28l0.11-16.11,8.47,0.22a9.59,9.59,0,0,1,4.24,1.45c1.34,0.78,5.91,5.91,6.13,6.24a0.42,0.42,0,0,0,.5.28l1-.45c0.22-.11.28-0.28,0.17-0.61-0.22-.56-2.34-8.14-2.57-8.86a0.39,0.39,0,0,0-.45-0.33c-0.28,0-1.34.06-2.23,0.06-2.45,0-15.28.11-17.73,0.11h-1.56c-4.57.06-6.58-.17-7.8-0.17-0.28,0-.33.11-0.33,0.39v1.45a0.32,0.32,0,0,0,.33.39h2.12c1.67,0,2.23.45,2.45,2,0.11,0.78.22,7.69,0.22,12.26V74.81c0,2.06-.22,2.4-2.79,2.4h-1.89c-0.45,0-.56.11-0.56,0.45V79a0.37,0.37,0,0,0,.45.45c1,0,3-.17,7.14-0.17,18.62,0,23,.17,23.53.17A1.18,1.18,0,0,0,229,78.6l2.68-8.36a0.4,0.4,0,0,0-.11-0.56l-0.89-.56a0.45,0.45,0,0,0-.61.22c-1.06,1.34-4.18,5-5.18,5.91a9.52,9.52,0,0,1-4.57,1.9c-1.12.11-3.68,0.22-4.68,0.22a17.64,17.64,0,0,1-4.35-.45C210,76.59,209,75.47,209,72.58c0-1-.11-6.47-0.17-9.48l-0.06-3.34h0Zm32.4-12.49h0.33C242.22,48,251.14,59.2,251.92,60s5,6.13,8.92,10.93c3.46,4.12,6.47,7.58,6.91,8.14a2.78,2.78,0,0,0,1.9.89c0.67,0,.67-0.78.67-1.56V63.66c0-5.69.56-15.05,0.84-18.84,0.17-2.06.72-3,1.84-3h1.56c0.22,0,.34-0.22.34-0.56V40c0-.17-0.11-0.39-0.56-0.39-0.67,0-2,.17-5.35.17-3.79,0-5.58-.17-6.25-0.17-0.45,0-.45.11-0.45,0.45v1.28c0,0.28,0,.5.33,0.5h1.78a3,3,0,0,1,3,2.12c0.28,0.95.5,6.41,0.61,8.53,0.11,2.79.11,5.57,0.11,10.48v5.8h-0.22C267,67.67,258.28,56.86,257.5,56c-1.12-1.56-12-15.27-12.6-15.83a1.64,1.64,0,0,0-1.34-.5c-0.34,0-.84.06-1.56,0.06s-1.51.11-2.45,0.11c-2.45,0-4,0-5-.06s-1.45-.11-1.73-0.11a0.3,0.3,0,0,0-.33.33v1.51a0.37,0.37,0,0,0,.33.39h1.78c2.45,0,4.35,2.56,4.35,5.91v7.08c0,8.92-.33,16.72-0.39,17.73-0.28,3.4-1.06,4.63-2.51,4.63h-1.89a0.36,0.36,0,0,0-.33.33v1.39c0,0.39.11,0.5,0.33,0.5,0.56,0,4.35-.17,5.8-0.17,2.12,0,5.46.17,6,.17s0.45-.11.45-0.45V77.7c0-.28,0-0.5-0.45-0.5h-1.45c-2,0-2.68-1.34-2.79-4.12-0.11-1.73-.56-9.53-0.56-19v-6.8h0ZM284,61.54c0,4.57-.11,11.93-0.22,13.27-0.17,1.73-.56,2.4-2.23,2.4h-2.4a0.35,0.35,0,0,0-.39.39V79a0.4,0.4,0,0,0,.39.45c1.17,0,3.51-.17,7.86-0.17,2.23,0,5.91.17,8.14,0.17,6.24,0,9.81-.61,12.15-2C310,76,311.69,72,311.69,69c0-5.91-3.68-9.25-10-10.93V57.8c5.24-2,7.58-4.63,7.58-9.09,0-3.34-1.12-5.91-4.24-7.58-2-1.11-5.57-1.51-9.81-1.51-3,0-6.35.17-8.14,0.17-4.68.06-7.36-.17-8.14-0.17a0.41,0.41,0,0,0-.45.5v1.28a0.37,0.37,0,0,0,.45.45h1.78c2.12,0,3,.11,3.18,3.34C283.92,46.15,284,53,284,55v6.58h0Zm6.8,1V59.09h1.45a16.44,16.44,0,0,1,6.36,1c3.12,1.23,5.35,4.12,5.35,8.7,0,6.8-4,8.86-8.36,8.86-3.57,0-4.8-2.17-4.8-7.41V62.54h0Zm0-9.48c0-4.68.11-9.48,0.17-10.53a1.11,1.11,0,0,1,.72-0.89,7.91,7.91,0,0,1,1.67-.11,11.61,11.61,0,0,1,6.36,2,6.93,6.93,0,0,1,2.45,5.69,8.07,8.07,0,0,1-2.9,6.58,9.82,9.82,0,0,1-5.91,1.62c-0.89,0-1.67,0-2.57-.06V53.07h0Zm29.27,4.79c0,7.3.22,11,1,13.43a11.35,11.35,0,0,0,6.58,7.47,22.88,22.88,0,0,0,8,1.34,15,15,0,0,0,10.15-3.46c3-2.68,4.35-6.13,4.68-10.7,0.22-2.23.33-11.93,0.33-12.71s0-8.53.11-9.2a2.21,2.21,0,0,1,2.34-2.17h2c0.28,0,.34-0.17.34-0.5V40.08c0-.28-0.06-0.45-0.56-0.45s-2.23.17-5.69,0.17c-3.68,0-6.24-.17-6.8-0.17a0.37,0.37,0,0,0-.45.45v1.39a0.37,0.37,0,0,0,.45.39h2a2.45,2.45,0,0,1,2.29,2.45A103,103,0,0,1,347.54,55V65c0,4.07-1.12,7.3-3.23,9.42a11.76,11.76,0,0,1-7.47,2.68,9.2,9.2,0,0,1-7.58-3.46c-1.34-1.78-1.78-4.35-2-6.91-0.11-1.78-.17-5.74-0.17-8.53V51.28c0-3.23.11-6.58,0.17-7.25A2.45,2.45,0,0,1,330,41.86h2.34a0.37,0.37,0,0,0,.45-0.45V40c0-.28-0.11-0.39-0.45-0.39-0.67,0-3.35.17-8,.17-5.35,0-8-.17-8.59-0.17s-0.56.11-.56,0.45v1.28c0,0.39.11,0.5,0.45,0.5h2.57c1.45,0,1.89.89,1.89,2.79V57.86h0Zm11.82-22.41a3,3,0,0,0,2.9-3.12,2.93,2.93,0,0,0-2.9-3.12,3.15,3.15,0,0,0-3.46,2.9,3.2,3.2,0,0,0,3.46,3.34h0Zm11.82,0a3.09,3.09,0,0,0,3-3.12,3,3,0,0,0-3-3.12,3.15,3.15,0,0,0-3.46,2.9,3.2,3.2,0,0,0,3.46,3.34h0Zm28.55,20.62c0,1.11,0,18.17-.17,19.62a1.67,1.67,0,0,1-1.84,1.5H367.1a0.37,0.37,0,0,0-.39.45v1.28c0,0.39.11,0.5,0.45,0.5,0.78,0,3.12-.17,8.81-0.17,6,0,7.81.17,8.36,0.17a0.48,0.48,0,0,0,.56-0.56V77.7a0.42,0.42,0,0,0-.33-0.5h-3.23c-1.34,0-1.89-1.11-1.89-5.35V42.14H381c2,0,7,.11,8.59,1,1.56,1.11,3.62,4.68,4.4,6.24,0.17,0.33.28,0.5,0.5,0.45l1.12-.39c0.17-.06.28-0.17,0.22-0.5-0.45-2.68-1.56-9.59-1.67-10.59-0.11-.67-0.22-0.89-0.56-0.89a1.84,1.84,0,0,0-1,.56,10.23,10.23,0,0,1-4,1.45c-2.57.11-4.91,0.33-11,.33h-3c-5.46,0-7.8-.22-10.81-0.33A5,5,0,0,1,359.91,38a1.33,1.33,0,0,0-.89-0.56c-0.22,0-.56.22-0.67,1s-2.12,8.14-2.68,10.26a0.43,0.43,0,0,0,.22.56L357,49.67c0.28,0.11.45-.11,0.61-0.39,1.06-1.9,3.18-5.57,5-6.35,2.34-.78,6.36-0.78,8.14-0.78h1.56V56.08h0Zm41.91,0c0,1.11,0,18.17-.17,19.62a1.67,1.67,0,0,1-1.84,1.5H409a0.37,0.37,0,0,0-.39.45v1.28c0,0.39.11,0.5,0.45,0.5,0.78,0,3.12-.17,8.81-0.17,6,0,7.81.17,8.36,0.17a0.48,0.48,0,0,0,.56-0.56V77.7a0.42,0.42,0,0,0-.33-0.5h-3.23c-1.34,0-1.89-1.11-1.89-5.35V42.14h1.56c2,0,7,.11,8.59,1,1.56,1.11,3.62,4.68,4.4,6.24,0.17,0.33.28,0.5,0.5,0.45l1.12-.39c0.17-.06.28-0.17,0.22-0.5-0.45-2.68-1.56-9.59-1.67-10.59-0.11-.67-0.22-0.89-0.56-0.89a1.84,1.84,0,0,0-1,.56,10.22,10.22,0,0,1-4,1.45c-2.57.11-4.91,0.33-11,.33h-3c-5.46,0-7.8-.22-10.81-0.33A5,5,0,0,1,401.82,38a1.33,1.33,0,0,0-.89-0.56c-0.22,0-.56.22-0.67,1s-2.12,8.14-2.68,10.26a0.43,0.43,0,0,0,.22.56l1.12,0.39c0.28,0.11.45-.11,0.61-0.39,1.06-1.9,3.18-5.57,5-6.35,2.34-.78,6.35-0.78,8.14-0.78h1.56V56.08h0Zm38.58,3.68c1.78,0,4.46.11,6.47,0.33a3.41,3.41,0,0,1,2.79,2,23.6,23.6,0,0,1,.89,2.79c0.11,0.33.22,0.45,0.45,0.39l1.23-.22c0.33-.06.45-0.11,0.45-0.39-0.11-1.23-.33-3.9-0.33-6.13,0-1.45,0-5.13.11-6a0.32,0.32,0,0,0-.33-0.45L463,52a0.41,0.41,0,0,0-.45.45,8.89,8.89,0,0,1-.89,3.12,3.11,3.11,0,0,1-2.57,2,63.05,63.05,0,0,1-6.35.28l0.11-16.11,8.47,0.22a9.59,9.59,0,0,1,4.24,1.45c1.34,0.78,5.91,5.91,6.13,6.24a0.42,0.42,0,0,0,.5.28l1-.45c0.22-.11.28-0.28,0.17-0.61-0.22-.56-2.34-8.14-2.57-8.86a0.39,0.39,0,0,0-.45-0.33c-0.28,0-1.34.06-2.23,0.06-2.45,0-15.28.11-17.73,0.11h-1.56c-4.57.06-6.58-.17-7.81-0.17-0.28,0-.33.11-0.33,0.39v1.45a0.32,0.32,0,0,0,.33.39h2.12c1.67,0,2.23.45,2.45,2,0.11,0.78.22,7.69,0.22,12.26V74.81c0,2.06-.22,2.4-2.79,2.4h-1.9c-0.45,0-.56.11-0.56,0.45V79a0.37,0.37,0,0,0,.45.45c1,0,3-.17,7.14-0.17,18.62,0,23,.17,23.53.17A1.18,1.18,0,0,0,473,78.6l2.68-8.36a0.41,0.41,0,0,0-.11-0.56l-0.89-.56a0.45,0.45,0,0,0-.61.22c-1.06,1.34-4.18,5-5.19,5.91a9.52,9.52,0,0,1-4.57,1.9c-1.12.11-3.68,0.22-4.68,0.22a17.66,17.66,0,0,1-4.35-.45C454,76.59,453,75.47,453,72.58c0-1-.11-6.47-0.17-9.48l-0.06-3.34h0Zm58,7.69a0.54,0.54,0,0,0-.67.22c-0.78,2.12-4.35,8.81-7.47,9.25-2.23.28-6.24,0.28-9.37,0.28H490.2C490,74.81,490,62.77,490,61.76V57c0-3.9.22-12.26,0.22-13,0-1.51.22-2.06,1.9-2.06h3a0.45,0.45,0,0,0,.56-0.45V40.13a0.46,0.46,0,0,0-.56-0.5c-0.45,0-2.79.17-8.81,0.17-5.13,0-7.14-.17-7.69-0.17a0.37,0.37,0,0,0-.45.45v1.28a0.48,0.48,0,0,0,.45.5h2.34c1.45,0,1.67.56,1.78,2,0.11,0.95.22,6.86,0.22,10.42v3.12c0,3.34-.22,17.28-0.22,18.28,0,0.72-.33,1.5-2.34,1.5h-2.23c-0.33,0-.33.11-0.33,0.45v1.28c0,0.39,0,.5.45,0.5,0.67,0,2.68-.17,7.69-0.17,5.69,0,21.74.11,23.19,0.17,0.33-1.51,2.57-10.76,2.79-11.09a0.68,0.68,0,0,0-.11-0.56l-1-.33h0Zm15.06-7.69c1.78,0,4.46.11,6.47,0.33a3.41,3.41,0,0,1,2.79,2,23.6,23.6,0,0,1,.89,2.79c0.11,0.33.22,0.45,0.45,0.39l1.23-.22c0.33-.06.45-0.11,0.45-0.39-0.11-1.23-.33-3.9-0.33-6.13,0-1.45,0-5.13.11-6a0.32,0.32,0,0,0-.34-0.45L536.15,52a0.41,0.41,0,0,0-.45.45,8.89,8.89,0,0,1-.89,3.12,3.11,3.11,0,0,1-2.57,2,63,63,0,0,1-6.36.28L526,41.69l8.47,0.22a9.59,9.59,0,0,1,4.24,1.45c1.34,0.78,5.91,5.91,6.13,6.24a0.42,0.42,0,0,0,.5.28l1-.45c0.22-.11.28-0.28,0.17-0.61-0.22-.56-2.34-8.14-2.57-8.86a0.39,0.39,0,0,0-.45-0.33c-0.28,0-1.34.06-2.23,0.06-2.45,0-15.28.11-17.73,0.11H522c-4.57.06-6.58-.17-7.81-0.17-0.28,0-.33.11-0.33,0.39v1.45a0.32,0.32,0,0,0,.33.39h2.12c1.67,0,2.23.45,2.45,2,0.11,0.78.22,7.69,0.22,12.26V74.81c0,2.06-.22,2.4-2.79,2.4h-1.89c-0.45,0-.56.11-0.56,0.45V79a0.37,0.37,0,0,0,.45.45c1,0,3-.17,7.14-0.17,18.62,0,23,.17,23.53.17a1.18,1.18,0,0,0,1.23-.84l2.68-8.36a0.4,0.4,0,0,0-.11-0.56l-0.89-.56a0.45,0.45,0,0,0-.61.22c-1.06,1.34-4.18,5-5.19,5.91a9.52,9.52,0,0,1-4.57,1.9c-1.12.11-3.68,0.22-4.68,0.22a17.66,17.66,0,0,1-4.35-.45c-1.23-.33-2.23-1.45-2.23-4.35,0-1-.11-6.47-0.17-9.48l-0.06-3.34h0Zm36.86,1.9c0.61-.06,1.56-0.11,1.78-0.11,2.34,0,3.63,1.51,5,3.46,0.89,1.23,2.45,3.79,3,4.79s2.68,4.91,3.68,6.47a14.62,14.62,0,0,0,2.45,3.18c1.23-.06,3.35-0.17,4.91-0.17,3.57,0,5,.17,5.46.17s0.45-.17.45-0.56V77.7a0.37,0.37,0,0,0-.45-0.39,5.85,5.85,0,0,1-4-1.06,77.66,77.66,0,0,1-4.74-6.35c-0.45-.67-3.9-5.91-4.57-6.8a7.27,7.27,0,0,0-3.34-2.56V60.31c6.13-1,10.37-3.9,10.37-10.93a8.53,8.53,0,0,0-3-6.24,15,15,0,0,0-10.15-3.51c-1.67,0-6.8.17-9.92,0.17-5.46,0-7.25-.17-7.64-0.17a0.33,0.33,0,0,0-.39.39v1.51a0.32,0.32,0,0,0,.39.33h2.18c1,0,1.78.89,1.78,2.79V59.31c0,5.24,0,10.48-.11,16.05,0,1.51-.89,1.84-2.12,1.84h-1.89a0.36,0.36,0,0,0-.34.45v1.28a0.41,0.41,0,0,0,.45.5c0.56,0,1.89-.17,7.36-0.17,5.8,0,6.91.17,7.64,0.17,0.45,0,.61-0.11.61-0.5V77.59a0.37,0.37,0,0,0-.45-0.39h-2.79c-0.89,0-1.28-1-1.45-2.12-0.11-.84-0.22-7.08-0.22-10.42v-3h0ZM563,43.59a1.91,1.91,0,0,1,.67-1.62,4,4,0,0,1,2-.33A10.67,10.67,0,0,1,573,44a8.77,8.77,0,0,1,2.45,6.24c0,2.56-1.78,9.59-10.48,9.59a15.23,15.23,0,0,1-2.12-.22L563,43.59h0Z" transform="translate(-18.53 -29.21)"/></svg>