<svg id="BZ" xmlns="http://www.w3.org/2000/svg" viewBox="0 0 563.37 95.09" width="563.37" height="95.09"><defs><style>.cls-1{fill:#1d1d1b;}</style></defs><title>BZ_Logoabbinder_trans_2015</title><path class="cls-1" d="M181.52,132c5.13,0,13.94.22,17.06,0.67a10.28,10.28,0,0,0,1.34.17,0.89,0.89,0,0,0,.78-0.61c0.56-1.45,3.35-8.36,4.13-9.59a0.44,0.44,0,0,0-.11-0.56l-0.89-.45a0.52,0.52,0,0,0-.67.11c-0.78,1-5.91,7-7.81,7.8a12.52,12.52,0,0,1-3.57.33H176.94c8.7-12.1,17.39-24.25,26.2-36.34a0.79,0.79,0,0,0-.67-1.34c-1,0-2.9.11-4.79,0.22-2.12,0-4.57.11-7.36,0.11-4.68,0-12.49.06-15.16-.28a11.1,11.1,0,0,0-1.23-.11,0.68,0.68,0,0,0-.67.61l-3.57,9.92c0,0.33,0,.45.22,0.45l0.78,0.45a0.46,0.46,0,0,0,.67-0.22c1.06-1.62,5.74-7.08,7-7.86a4.73,4.73,0,0,1,2.73-.95H194c-8.53,12-17.17,24-25.76,35.9a2,2,0,0,0-.34,1.06q0,0.5.84,0.5h12.77ZM220,112.52c1.78,0,4.46.11,6.47,0.33a3.41,3.41,0,0,1,2.79,2,23.58,23.58,0,0,1,.89,2.79c0.11,0.33.22,0.45,0.45,0.39l1.23-.22c0.33-.06.45-0.11,0.45-0.39-0.11-1.23-.33-3.9-0.33-6.13,0-1.45,0-5.13.11-6a0.32,0.32,0,0,0-.33-0.45l-1.45-.11a0.41,0.41,0,0,0-.45.45,8.89,8.89,0,0,1-.89,3.12,3.11,3.11,0,0,1-2.57,2,63.05,63.05,0,0,1-6.35.28l0.11-16.11,8.47,0.22a9.59,9.59,0,0,1,4.24,1.45c1.34,0.78,5.91,5.91,6.13,6.24a0.42,0.42,0,0,0,.5.28l1-.45c0.22-.11.28-0.28,0.17-0.61-0.22-.56-2.34-8.14-2.56-8.86a0.39,0.39,0,0,0-.45-0.33c-0.28,0-1.34.06-2.23,0.06-2.45,0-15.28.11-17.73,0.11h-1.56c-4.57.06-6.58-.17-7.8-0.17-0.28,0-.33.11-0.33,0.39v1.45a0.32,0.32,0,0,0,.33.39h2.12c1.67,0,2.23.45,2.45,2,0.11,0.78.22,7.69,0.22,12.26v18.73c0,2.06-.22,2.4-2.79,2.4h-1.9c-0.45,0-.56.11-0.56,0.45v1.34a0.37,0.37,0,0,0,.45.45c1,0,3-.17,7.14-0.17,18.62,0,23,.17,23.53.17a1.18,1.18,0,0,0,1.23-.84L242.9,123a0.41,0.41,0,0,0-.11-0.56l-0.89-.56a0.45,0.45,0,0,0-.61.22c-1.06,1.34-4.18,5-5.19,5.91a9.52,9.52,0,0,1-4.57,1.9c-1.12.11-3.68,0.22-4.68,0.22a17.66,17.66,0,0,1-4.35-.45c-1.23-.33-2.23-1.45-2.23-4.35,0-1-.11-6.47-0.17-9.48L220,112.52h0Zm39-2.9c0-.67.11-12.93,0.11-13.49,0-1.06.89-1.5,2.12-1.5h2.12a0.41,0.41,0,0,0,.45-0.45V92.9a0.43,0.43,0,0,0-.45-0.5c-0.78,0-2.57.17-7.92,0.17s-8.36-.17-9-0.17a0.32,0.32,0,0,0-.34.39v1.45c0,0.28.11,0.39,0.45,0.39h2.9c1.56,0,2.12.56,2.29,1.9,0.06,0.72.17,10.76,0.17,12.1v3.9c0,3-.11,15.05-0.22,15.83-0.22,1.51-1.45,1.62-2.56,1.62h-2.23c-0.33,0-.45.11-0.45,0.33v1.5c0,0.28.11,0.39,0.45,0.39,0.56,0,3-.17,8.59-0.17,5.24,0,7.47.17,8.14,0.17a0.45,0.45,0,0,0,.56-0.45v-1.39a0.4,0.4,0,0,0-.45-0.39h-2.34c-1.34,0-2.23-.22-2.23-2,0-.61-0.11-13.43-0.11-14v-4.35h0Zm24.52-.78c0,1.11,0,18.17-.17,19.62a1.67,1.67,0,0,1-1.84,1.51h-3.18a0.37,0.37,0,0,0-.39.45v1.28c0,0.39.11,0.5,0.45,0.5,0.78,0,3.12-.17,8.81-0.17,6,0,7.81.17,8.36,0.17a0.48,0.48,0,0,0,.56-0.56v-1.17a0.42,0.42,0,0,0-.33-0.5h-3.23c-1.34,0-1.89-1.11-1.89-5.35V94.9h1.56c2,0,7,.11,8.59,1,1.56,1.11,3.62,4.68,4.4,6.24,0.17,0.33.28,0.5,0.5,0.45l1.12-.39c0.17-.06.28-0.17,0.22-0.5-0.45-2.68-1.56-9.59-1.67-10.59-0.11-.67-0.22-0.89-0.56-0.89a1.84,1.84,0,0,0-1,.56,10.22,10.22,0,0,1-4,1.45c-2.57.11-4.91,0.33-11,.33h-3c-5.46,0-7.8-.22-10.81-0.33a5,5,0,0,1-3.79-1.45,1.33,1.33,0,0,0-.89-0.56c-0.22,0-.56.22-0.67,1s-2.12,8.14-2.68,10.26a0.43,0.43,0,0,0,.22.56l1.12,0.39c0.28,0.11.45-.11,0.61-0.39,1.06-1.9,3.18-5.57,5-6.35,2.34-.78,6.35-0.78,8.14-0.78h1.56v13.94h0Zm30.15,1.78c0,7.3.22,11,1,13.43a11.35,11.35,0,0,0,6.58,7.47,22.88,22.88,0,0,0,8,1.34,15,15,0,0,0,10.15-3.46c3-2.68,4.35-6.13,4.68-10.7,0.22-2.23.33-11.93,0.33-12.71s0-8.53.11-9.2a2.21,2.21,0,0,1,2.34-2.17h2c0.28,0,.34-0.17.34-0.5V92.84c0-.28-0.06-0.45-0.56-0.45s-2.23.17-5.69,0.17c-3.68,0-6.24-.17-6.8-0.17a0.37,0.37,0,0,0-.45.45v1.39a0.37,0.37,0,0,0,.45.39h2a2.45,2.45,0,0,1,2.29,2.45,102.93,102.93,0,0,1,.61,10.65v10c0,4.07-1.12,7.3-3.23,9.42a11.76,11.76,0,0,1-7.47,2.68,9.2,9.2,0,0,1-7.58-3.46c-1.34-1.78-1.78-4.35-2-6.91-0.11-1.78-.17-5.74-0.17-8.53V104c0-3.23.11-6.58,0.17-7.25a2.45,2.45,0,0,1,2.73-2.17h2.34a0.37,0.37,0,0,0,.45-0.45V92.79c0-.28-0.11-0.39-0.45-0.39-0.67,0-3.35.17-8,.17-5.35,0-8-.17-8.59-0.17s-0.56.11-.56,0.45v1.28c0,0.39.11,0.5,0.45,0.5h2.57c1.45,0,1.89.89,1.89,2.79v13.21h0ZM360.29,100h0.33c0.67,0.78,9.59,11.93,10.37,12.71s5,6.13,8.92,10.93c3.46,4.12,6.47,7.58,6.91,8.14a2.77,2.77,0,0,0,1.89.89c0.67,0,.67-0.78.67-1.56V116.42c0-5.69.56-15.05,0.84-18.84,0.17-2.06.73-3,1.84-3h1.56c0.22,0,.33-0.22.33-0.56V92.79c0-.17-0.11-0.39-0.56-0.39-0.67,0-2,.17-5.35.17-3.79,0-5.58-.17-6.24-0.17-0.45,0-.45.11-0.45,0.45v1.28c0,0.28,0,.5.33,0.5h1.78a3,3,0,0,1,3,2.12c0.28,0.95.5,6.41,0.61,8.53,0.11,2.79.11,5.57,0.11,10.48v5.8h-0.22c-0.89-1.11-9.59-11.93-10.37-12.82-1.12-1.56-12-15.27-12.6-15.83a1.64,1.64,0,0,0-1.34-.5c-0.33,0-.84.06-1.56,0.06s-1.51.11-2.45,0.11c-2.45,0-4,0-5-.06s-1.45-.11-1.73-0.11a0.3,0.3,0,0,0-.33.33v1.51a0.37,0.37,0,0,0,.33.39h1.78c2.45,0,4.35,2.56,4.35,5.91v7.08c0,8.92-.33,16.72-0.39,17.73-0.28,3.4-1.06,4.63-2.51,4.63h-1.89a0.36,0.36,0,0,0-.33.33v1.39c0,0.39.11,0.5,0.33,0.5,0.56,0,4.35-.17,5.8-0.17,2.12,0,5.46.17,6,.17s0.45-.11.45-0.45v-1.28c0-.28,0-0.5-0.45-0.5h-1.45c-2,0-2.68-1.34-2.79-4.12-0.11-1.73-.56-9.53-0.56-19V100h0Zm75,19.12c0-1.62.67-2.06,1.67-2.06h1.9a0.37,0.37,0,0,0,.45-0.45v-1.39c0-.28-0.11-0.39-0.56-0.39s-2.45.17-7.14,0.17-7.25-.17-7.92-0.17c-0.22,0-.33.11-0.33,0.45v1.28a0.43,0.43,0,0,0,.45.5h2.34c1.45,0,2,.56,2,2.56v4.07c0,2.9-.11,4.46-1.34,5.13-1.89,1-4,1.45-7.58,1.45a12.07,12.07,0,0,1-8.92-3.79c-3.23-3.23-5-8.92-5-15.5a19.48,19.48,0,0,1,4.57-12.6,11.46,11.46,0,0,1,9.48-4.35,12.59,12.59,0,0,1,9.25,3.9,22.12,22.12,0,0,1,4.46,7.69c0.11,0.33.22,0.5,0.56,0.45l1.34-.22c0.22-.06.22-0.33,0.22-0.78L434.66,94a0.63,0.63,0,0,0-.67-0.78,0.93,0.93,0,0,0-.78.56l-0.67.89c-0.33.45-.67,0.61-1.34,0.11-1.78-1.34-6-3-11.37-3-6.69,0-11.82,1.9-15.83,5.46a18.82,18.82,0,0,0-6.36,14c0,6.58,1.67,11.37,5.13,15.16,3.79,4.57,10.59,6.47,16.06,6.47a32.27,32.27,0,0,0,15.83-3.68,1,1,0,0,0,.89-0.89c0-.45-0.22-1-0.22-1.78v-7.36h0Z" transform="translate(-22.33 -37.78)"/><path class="cls-1" d="M27.91,61.45c0,4.58-.11,11.95-0.22,13.29-0.17,1.73-.56,2.4-2.23,2.4h-2.4a0.35,0.35,0,0,0-.39.39v1.4a0.4,0.4,0,0,0,.39.45c1.17,0,3.52-.17,7.87-0.17,2.23,0,5.92.17,8.15,0.17,6.25,0,9.83-.61,12.17-2,2.68-1.45,4.35-5.47,4.35-8.49,0-5.92-3.68-9.27-10-10.94V57.71c5.25-2,7.59-4.63,7.59-9.1,0-3.35-1.12-5.92-4.24-7.59-2-1.12-5.58-1.51-9.83-1.51-3,0-6.36.17-8.15,0.17-4.69.06-7.37-.17-8.15-0.17a0.41,0.41,0,0,0-.45.5v1.28a0.37,0.37,0,0,0,.45.45h1.79c2.12,0,3,.11,3.18,3.35,0.06,0.95.17,7.76,0.17,9.77v6.59h0Zm6.81,1V59h1.45a16.46,16.46,0,0,1,6.36,1c3.13,1.23,5.36,4.13,5.36,8.71,0,6.81-4,8.88-8.37,8.88-3.57,0-4.8-2.18-4.8-7.42v-7.7h0Zm0-9.49c0-4.69.11-9.49,0.17-10.55a1.11,1.11,0,0,1,.73-0.89,7.91,7.91,0,0,1,1.67-.11,11.62,11.62,0,0,1,6.36,2,6.94,6.94,0,0,1,2.46,5.69,8.08,8.08,0,0,1-2.9,6.59,9.83,9.83,0,0,1-5.92,1.62c-0.89,0-1.67,0-2.57-.06V53h0Zm35.51,8.6c0.61-.06,1.56-0.11,1.79-0.11,2.34,0,3.63,1.51,5,3.46,0.89,1.23,2.46,3.8,3,4.8s2.68,4.91,3.68,6.48a14.66,14.66,0,0,0,2.46,3.18c1.23-.06,3.35-0.17,4.91-0.17,3.57,0,5,.17,5.47.17S97,79.2,97,78.81V77.64a0.37,0.37,0,0,0-.45-0.39,5.86,5.86,0,0,1-4-1.06,77.86,77.86,0,0,1-4.75-6.36C87.42,69.15,84,63.9,83.29,63a7.28,7.28,0,0,0-3.35-2.57V60.22c6.14-1,10.38-3.91,10.38-10.94a8.55,8.55,0,0,0-3-6.25,15,15,0,0,0-10.16-3.52c-1.67,0-6.81.17-9.94,0.17-5.47,0-7.26-.17-7.65-0.17a0.33,0.33,0,0,0-.39.39v1.51a0.32,0.32,0,0,0,.39.33h2.18c1,0,1.79.89,1.79,2.79V59.21c0,5.25,0,10.5-.11,16.08,0,1.51-.89,1.84-2.12,1.84H59.4a0.36,0.36,0,0,0-.34.45v1.28a0.41,0.41,0,0,0,.45.5c0.56,0,1.9-.17,7.37-0.17,5.81,0,6.92.17,7.65,0.17,0.45,0,.61-0.11.61-0.5V77.52a0.37,0.37,0,0,0-.45-0.39H71.9c-0.89,0-1.28-1-1.45-2.12-0.11-.84-0.22-7.09-0.22-10.44v-3h0Zm0.22-18.09a1.92,1.92,0,0,1,.67-1.62,4,4,0,0,1,2-.33,10.68,10.68,0,0,1,7.37,2.4A8.79,8.79,0,0,1,83,50.17c0,2.57-1.79,9.6-10.5,9.6a15.26,15.26,0,0,1-2.12-.22l0.11-16.08h0Zm51,20.38c0.67,2.07,2.9,9.21,3.35,11.22,0.33,1.51-.11,2.07-1.68,2.07h-1.45a0.37,0.37,0,0,0-.45.45V78.7a0.56,0.56,0,0,0,.56.67c1.23,0,3.13-.17,7.82-0.17,6.14,0,7.26.17,8.26,0.17a0.56,0.56,0,0,0,.56-0.67V77.52c0-.28-0.11-0.39-0.45-0.39h-1.79a4.22,4.22,0,0,1-3.57-2.57c-0.78-1.51-4.35-11.89-5.69-16.25-1-3.57-5.36-16.08-6.36-19.54a0.79,0.79,0,1,0-1.51-.45,18.1,18.1,0,0,1-5.53,2.79,0.58,0.58,0,0,0-.56.56,1.27,1.27,0,0,0,.33.67c0.33,0.33,0,1.34-.11,1.9-0.56,1.45-5.08,13.51-5.47,14.63C106,63.57,102,73.62,101.45,74.62c-1,1.73-2,2.51-3.57,2.51H96.2c-0.22,0-.33.11-0.33,0.45v1.06c0,0.39,0,.73.33,0.73,0.78,0,2-.17,6.14-0.17,3.91,0,6.25.17,7,.17a0.45,0.45,0,0,0,.45-0.56v-1.4c0-.17-0.11-0.28-0.56-0.28h-2.34c-1.12,0-2-.61-2-1.34a4.81,4.81,0,0,1,.11-1.17c0.28-1.51,3-9.49,3.46-10.77h13Zm-12.17-2.23c0.39-1.28,5.42-15,5.64-15.74a0.81,0.81,0,0,1,.73-0.73c0.22,0,.33.34,0.56,1,0.33,1.12,4.13,13.84,4.69,15.46H109.26Zm32.89-3.85c0,7.31.22,11,1,13.45a11.37,11.37,0,0,0,6.59,7.48,22.91,22.91,0,0,0,8,1.34,15.07,15.07,0,0,0,10.16-3.46c3-2.68,4.35-6.14,4.69-10.72,0.22-2.23.33-11.95,0.33-12.73s0-8.54.11-9.21a2.21,2.21,0,0,1,2.34-2.18h2c0.28,0,.33-0.17.33-0.5V40c0-.28-0.06-0.45-0.56-0.45s-2.23.17-5.7,0.17c-3.68,0-6.25-.17-6.81-0.17a0.37,0.37,0,0,0-.45.45v1.4a0.37,0.37,0,0,0,.45.39h2A2.45,2.45,0,0,1,169,44.2a103.54,103.54,0,0,1,.61,10.66v10c0,4.08-1.12,7.31-3.24,9.43A11.78,11.78,0,0,1,158.9,77a9.21,9.21,0,0,1-7.59-3.46c-1.34-1.79-1.79-4.35-2-6.92-0.11-1.79-.17-5.75-0.17-8.54V51.17c0-3.24.11-6.59,0.17-7.26a2.46,2.46,0,0,1,2.74-2.18h2.34a0.37,0.37,0,0,0,.45-0.45V39.9c0-.28-0.11-0.39-0.45-0.39-0.67,0-3.35.17-8,.17-5.36,0-8-.17-8.6-0.17s-0.56.11-.56,0.45v1.28c0,0.39.11,0.5,0.45,0.5h2.57c1.45,0,1.9.89,1.9,2.79V57.76h0Zm45.55-10.61H188c0.67,0.78,9.6,11.95,10.38,12.73s5,6.14,8.93,10.94c3.46,4.13,6.48,7.59,6.92,8.15a2.78,2.78,0,0,0,1.9.89c0.67,0,.67-0.78.67-1.56V63.57c0-5.69.56-15.07,0.84-18.87,0.17-2.07.73-3,1.84-3h1.56c0.22,0,.33-0.22.33-0.56V39.9c0-.17-0.11-0.39-0.56-0.39-0.67,0-2,.17-5.36.17-3.8,0-5.58-.17-6.25-0.17-0.45,0-.45.11-0.45,0.45v1.28c0,0.28,0,.5.33,0.5h1.79a3,3,0,0,1,3,2.12c0.28,0.95.5,6.42,0.61,8.54,0.11,2.79.11,5.58,0.11,10.5V68.7h-0.22c-0.89-1.12-9.6-11.95-10.38-12.84C202.89,54.3,192,40.57,191.39,40a1.65,1.65,0,0,0-1.34-.5c-0.33,0-.84.06-1.56,0.06s-1.51.11-2.46,0.11c-2.46,0-4,0-5-.06s-1.45-.11-1.73-0.11a0.3,0.3,0,0,0-.34.33v1.51a0.37,0.37,0,0,0,.34.39h1.79c2.46,0,4.35,2.57,4.35,5.92v7.09c0,8.93-.33,16.75-0.39,17.75-0.28,3.41-1.06,4.63-2.51,4.63h-1.9a0.36,0.36,0,0,0-.33.34v1.4c0,0.39.11,0.5,0.33,0.5,0.56,0,4.35-.17,5.81-0.17,2.12,0,5.47.17,6,.17s0.45-.11.45-0.45V77.64c0-.28,0-0.5-0.45-0.5h-1.45c-2,0-2.68-1.34-2.79-4.13-0.11-1.73-.56-9.55-0.56-19V47.16h0Zm40,19.48c-0.22,0-.28.11-0.33,0.45-0.11.67-.89,9.71-1,10.38a0.72,0.72,0,0,0,.67.89,1,1,0,0,0,1-.67,1.61,1.61,0,0,1,.89-1,2.87,2.87,0,0,1,1.34.67C232.48,79,235.16,80,239.74,80c7.37,0,11.84-5.58,11.84-12.39,0-3.74-1-6.09-2.79-8-2.12-2.23-4.8-3.35-8-4.35-2.23-.67-5.36-2-6.81-3.46a6.8,6.8,0,0,1-1.56-5,6,6,0,0,1,6.25-5.64,7.33,7.33,0,0,1,5.81,2.34,16,16,0,0,1,3.46,5.92,0.43,0.43,0,0,0,.56.33l0.89-.28a0.37,0.37,0,0,0,.33-0.39c0-.56-0.89-8.37-0.89-9.27,0-.56-0.11-0.89-0.45-0.89a1,1,0,0,0-.78.33l-0.73.73a1,1,0,0,1-1.17.17,17.58,17.58,0,0,0-7-1.34,11.4,11.4,0,0,0-7.93,2.68,9.47,9.47,0,0,0-3.91,7.82c0,3.41.89,6.2,2.79,8A26.46,26.46,0,0,0,237.73,62c5.92,2.23,8.26,3.91,8.26,9,0,4.63-4.24,6.53-7.26,6.53a8.67,8.67,0,0,1-7.37-4,12.92,12.92,0,0,1-2.12-6.36c0-.34-0.11-0.45-0.33-0.45l-1.23-.11h0Zm65.59,2.62c-0.17-.17-0.39,0-0.67.39a16.28,16.28,0,0,1-13.34,6.48c-2.68,0-5.92-.45-9.6-4.35-4.13-4.47-5.14-11.05-5.14-14.51,0-8,3.68-16.08,12.62-16.08a13.31,13.31,0,0,1,9.71,4.13,19.78,19.78,0,0,1,4.35,7.26c0.17,0.45.33,0.67,0.61,0.56l1.06-.33c0.22-.06.28-0.22,0.22-0.56-0.22-1.67-1.34-10.61-1.34-11.61,0-.78-0.11-0.89-0.78-0.89s-0.78,0-.89.34l-0.45,1.45c-0.11.45-.33,0.45-1.12,0a24.32,24.32,0,0,0-11.28-2.68,19.29,19.29,0,0,0-14.51,5.92,21.66,21.66,0,0,0-5.69,15c0,4.91,1.9,11.39,6,15.07,3.46,3.13,7.48,5.25,14.63,5.25,7.93,0,13.29-4.58,16.64-9.38a0.43,0.43,0,0,0-.11-0.56l-0.95-.84h0Zm35.56-9.49c0.78,0,1.23.17,1.23,0.67V62c0,1-.11,9.94-0.22,12.62-0.06,1.51-.11,2.51-1.45,2.51h-3a0.37,0.37,0,0,0-.45.45v1.28a0.45,0.45,0,0,0,.45.5c1.56,0,3.35-.17,8.6-0.17,4.8,0,6.7.17,7.59,0.17a0.48,0.48,0,0,0,.56-0.56V77.52a0.37,0.37,0,0,0-.45-0.39h-2.23c-1.68,0-2.23-.78-2.23-2.79,0-3.18-.11-11.11-0.11-13.57v-6c0-1.79.11-9.38,0.11-10.16,0-2,.11-2.85,1.79-2.85h2c0.56,0,.67-0.22.67-0.56V40c0-.28-0.11-0.5-0.67-0.5-0.89,0-3.13.17-7.37,0.17-4.47,0-6.92-.17-7.93-0.17a0.37,0.37,0,0,0-.45.45v1.28c0,0.34.06,0.5,0.45,0.5h2.57c1.23,0,1.45,1,1.51,2.79,0.06,0.61.28,8.43,0.28,10.44v1.67c0,0.61-.22.78-1.12,0.78H310.53c-0.5,0-.67-0.22-0.67-0.78V54.41c0-1.45.22-8.82,0.28-9.6,0.06-2.18.28-3.07,2.29-3.07h2a0.48,0.48,0,0,0,.56-0.56V40a0.46,0.46,0,0,0-.56-0.5c-1,0-3,.17-8,0.17-5.47,0-7.26-.17-8.26-0.17a0.52,0.52,0,0,0-.56.56v1.17a0.46,0.46,0,0,0,.56.5h2.46c1.79,0,2.12.78,2.12,3.57,0,0.84.11,7.76,0.11,9.43v7.15c0,3.57-.11,9.94-0.11,12.62,0,1.28-.22,2.62-1.56,2.62h-2.9c-0.45,0-.56.11-0.56,0.45v1.28a0.46,0.46,0,0,0,.56.5c1.12,0,2.79-.17,8.26-0.17,4.58,0,6.48.17,7.48,0.17a0.48,0.48,0,0,0,.56-0.56V77.52c0-.28-0.11-0.39-0.56-0.39h-2a1.68,1.68,0,0,1-1.9-1.9c-0.11-3.85-.22-10.33-0.22-12.34V60.5a0.63,0.63,0,0,1,.78-0.73h18.2Zm31.43,19.65a1.13,1.13,0,0,0,1.12.89,1.64,1.64,0,0,0,1.45-1.06c0.22-.61,10.1-28,10.61-29.53h0.22l10.1,29.36a1.49,1.49,0,0,0,1.4,1.23c0.78,0,1.23-.89,1.45-1.45,1.12-2.79,12.5-34.05,13.06-35.28a2.76,2.76,0,0,1,2.46-1.84h1.17c0.34,0,.39-0.17.39-0.45V39.79a0.28,0.28,0,0,0-.33-0.28c-0.45,0-2.12.17-5.25,0.17-3.46,0-5.36-.17-5.92-0.17a0.39,0.39,0,0,0-.45.45v1.34c0,0.28.06,0.45,0.39,0.45h1.51a1.63,1.63,0,0,1,1.9,1.56c0,3.07-6.36,21.49-8,26.41h-0.22l-8-25.79c-0.28-.95.11-2.18,1.23-2.18h2a0.37,0.37,0,0,0,.39-0.45V40c0-.34-0.06-0.5-0.39-0.5-0.5,0-2.62.17-7.31,0.17s-6.81-.17-7.26-0.17a0.39,0.39,0,0,0-.45.45v1.4a0.35,0.35,0,0,0,.39.39H369a2.34,2.34,0,0,1,1.9,1,5.38,5.38,0,0,1,1,3c-0.11,2.12-7.54,22.67-8,23.84l-0.11-.06-8.21-25.79a1.34,1.34,0,0,1,1.34-2H358a0.41,0.41,0,0,0,.5-0.45V39.9c0-.28-0.11-0.39-0.45-0.39-0.56,0-2.9.17-6.92,0.17-5,0-6.7-.17-7.15-0.17a0.37,0.37,0,0,0-.45.39v1.45a0.34,0.34,0,0,0,.33.39h1.56c0.89,0,1.79.45,2.34,2l12.5,35.67h0Zm57.11-19.76c1.79,0,4.47.11,6.48,0.33a3.41,3.41,0,0,1,2.79,2,23.36,23.36,0,0,1,.89,2.79c0.11,0.34.22,0.45,0.45,0.39l1.23-.22c0.33-.06.45-0.11,0.45-0.39-0.11-1.23-.33-3.91-0.33-6.14,0-1.45,0-5.14.11-6A0.32,0.32,0,0,0,429.1,52l-1.45-.11a0.41,0.41,0,0,0-.45.45,8.9,8.9,0,0,1-.89,3.13,3.12,3.12,0,0,1-2.57,2,63.1,63.1,0,0,1-6.36.28l0.11-16.13L426,41.8a9.6,9.6,0,0,1,4.24,1.45c1.34,0.78,5.92,5.92,6.14,6.25a0.42,0.42,0,0,0,.5.28l1-.45c0.22-.11.28-0.28,0.17-0.61-0.22-.56-2.34-8.15-2.57-8.88a0.39,0.39,0,0,0-.45-0.33c-0.28,0-1.34.06-2.23,0.06-2.46,0-15.3.11-17.75,0.11h-1.56c-4.58.06-6.59-.17-7.82-0.17-0.28,0-.33.11-0.33,0.39v1.45a0.32,0.32,0,0,0,.33.39h2.12c1.68,0,2.23.45,2.46,2,0.11,0.78.22,7.7,0.22,12.28V74.73c0,2.07-.22,2.4-2.79,2.4h-1.9c-0.45,0-.56.11-0.56,0.45v1.34a0.37,0.37,0,0,0,.45.45c1,0,3-.17,7.15-0.17,18.65,0,23,.17,23.56.17a1.18,1.18,0,0,0,1.23-.84l2.68-8.37a0.4,0.4,0,0,0-.11-0.56L439.26,69a0.45,0.45,0,0,0-.61.22c-1.06,1.34-4.19,5-5.19,5.92a9.53,9.53,0,0,1-4.58,1.9c-1.12.11-3.69,0.22-4.69,0.22a17.68,17.68,0,0,1-4.35-.45c-1.23-.33-2.23-1.45-2.23-4.35,0-1-.11-6.48-0.17-9.49l-0.06-3.35h0Zm39-2.9c0-.67.11-13,0.11-13.51,0-1.06.89-1.51,2.12-1.51h2.12a0.41,0.41,0,0,0,.45-0.45V40a0.43,0.43,0,0,0-.45-0.5c-0.78,0-2.57.17-7.93,0.17s-8.37-.17-9-0.17a0.32,0.32,0,0,0-.33.39v1.45c0,0.28.11,0.39,0.45,0.39h2.9c1.56,0,2.12.56,2.29,1.9,0.06,0.73.17,10.77,0.17,12.11v3.91c0,3-.11,15.07-0.22,15.85-0.22,1.51-1.45,1.62-2.57,1.62h-2.23c-0.33,0-.45.11-0.45,0.34V79c0,0.28.11,0.39,0.45,0.39,0.56,0,3-.17,8.6-0.17,5.25,0,7.48.17,8.15,0.17a0.45,0.45,0,0,0,.56-0.45v-1.4a0.4,0.4,0,0,0-.45-0.39h-2.34c-1.34,0-2.23-.22-2.23-2,0-.61-0.11-13.45-0.11-14V56.76h0Zm46.78,9.55c0-1.62.67-2.07,1.68-2.07h1.9a0.37,0.37,0,0,0,.45-0.45V62.4c0-.28-0.11-0.39-0.56-0.39s-2.46.17-7.15,0.17S492.24,62,491.57,62c-0.22,0-.33.11-0.33,0.45v1.28a0.43,0.43,0,0,0,.45.5H494c1.45,0,2,.56,2,2.57v4.08c0,2.9-.11,4.47-1.34,5.14-1.9,1-4,1.45-7.59,1.45a12.08,12.08,0,0,1-8.93-3.8c-3.24-3.24-5-8.93-5-15.52a19.51,19.51,0,0,1,4.58-12.62,11.48,11.48,0,0,1,9.49-4.35,12.6,12.6,0,0,1,9.27,3.91,22.13,22.13,0,0,1,4.47,7.7c0.11,0.33.22,0.5,0.56,0.45l1.34-.22c0.22-.06.22-0.33,0.22-0.78l-0.56-11.17a0.63,0.63,0,0,0-.67-0.78,0.93,0.93,0,0,0-.78.56l-0.67.89c-0.34.45-.67,0.61-1.34,0.11-1.79-1.34-6-3-11.39-3-6.7,0-11.84,1.9-15.86,5.47a18.85,18.85,0,0,0-6.36,14.07c0,6.59,1.68,11.39,5.14,15.18,3.8,4.58,10.61,6.48,16.08,6.48a32.32,32.32,0,0,0,15.86-3.68,1.05,1.05,0,0,0,.89-0.89c0-.45-0.22-1-0.22-1.79V66.3h0ZM522,59.66c1.79,0,4.47.11,6.48,0.33a3.42,3.42,0,0,1,2.79,2,23.63,23.63,0,0,1,.89,2.79c0.11,0.34.22,0.45,0.45,0.39l1.23-.22c0.33-.06.45-0.11,0.45-0.39-0.11-1.23-.33-3.91-0.33-6.14,0-1.45,0-5.14.11-6a0.32,0.32,0,0,0-.33-0.45l-1.45-.11a0.41,0.41,0,0,0-.45.45,8.87,8.87,0,0,1-.89,3.13,3.12,3.12,0,0,1-2.57,2,63.14,63.14,0,0,1-6.36.28l0.11-16.13,8.48,0.22a9.6,9.6,0,0,1,4.24,1.45c1.34,0.78,5.92,5.92,6.14,6.25a0.42,0.42,0,0,0,.5.28l1-.45c0.22-.11.28-0.28,0.17-0.61-0.22-.56-2.34-8.15-2.57-8.88a0.39,0.39,0,0,0-.45-0.33c-0.28,0-1.34.06-2.23,0.06-2.46,0-15.3.11-17.75,0.11h-1.56c-4.58.06-6.59-.17-7.82-0.17-0.28,0-.34.11-0.34,0.39v1.45a0.32,0.32,0,0,0,.34.39h2.12c1.67,0,2.23.45,2.46,2,0.11,0.78.22,7.7,0.22,12.28V74.73c0,2.07-.22,2.4-2.79,2.4h-1.9c-0.45,0-.56.11-0.56,0.45v1.34a0.37,0.37,0,0,0,.45.45c1,0,3-.17,7.15-0.17,18.65,0,23,.17,23.56.17a1.18,1.18,0,0,0,1.23-.84l2.68-8.37a0.4,0.4,0,0,0-.11-0.56L543.88,69a0.45,0.45,0,0,0-.61.22c-1.06,1.34-4.19,5-5.19,5.92a9.53,9.53,0,0,1-4.58,1.9c-1.12.11-3.68,0.22-4.69,0.22a17.66,17.66,0,0,1-4.35-.45c-1.23-.33-2.23-1.45-2.23-4.35,0-1-.11-6.48-0.17-9.49L522,59.66h0Zm36.91,1.9c0.61-.06,1.56-0.11,1.79-0.11,2.34,0,3.63,1.51,5,3.46,0.89,1.23,2.46,3.8,3,4.8s2.68,4.91,3.68,6.48a14.65,14.65,0,0,0,2.46,3.18c1.23-.06,3.35-0.17,4.91-0.17,3.57,0,5,.17,5.47.17s0.45-.17.45-0.56V77.64a0.37,0.37,0,0,0-.45-0.39,5.86,5.86,0,0,1-4-1.06,77.77,77.77,0,0,1-4.75-6.36c-0.45-.67-3.91-5.92-4.58-6.81a7.28,7.28,0,0,0-3.35-2.57V60.22c6.14-1,10.38-3.91,10.38-10.94A8.55,8.55,0,0,0,576,43a15,15,0,0,0-10.16-3.52c-1.68,0-6.81.17-9.94,0.17-5.47,0-7.26-.17-7.65-0.17a0.33,0.33,0,0,0-.39.39v1.51a0.32,0.32,0,0,0,.39.33h2.18c1,0,1.79.89,1.79,2.79V59.21c0,5.25,0,10.5-.11,16.08,0,1.51-.89,1.84-2.12,1.84h-1.9a0.36,0.36,0,0,0-.33.45v1.28a0.41,0.41,0,0,0,.45.5c0.56,0,1.9-.17,7.37-0.17,5.81,0,6.92.17,7.65,0.17,0.45,0,.61-0.11.61-0.5V77.52a0.37,0.37,0,0,0-.45-0.39h-2.79c-0.89,0-1.28-1-1.45-2.12-0.11-.84-0.22-7.09-0.22-10.44v-3h0Zm0.22-18.09a1.91,1.91,0,0,1,.67-1.62,4,4,0,0,1,2-.33,10.67,10.67,0,0,1,7.37,2.4,8.79,8.79,0,0,1,2.46,6.25c0,2.57-1.79,9.6-10.5,9.6a15.27,15.27,0,0,1-2.12-.22l0.11-16.08h0Z" transform="translate(-22.33 -37.78)"/></svg>