<svg id="WN" xmlns="http://www.w3.org/2000/svg" viewBox="0 0 438.77 93.72" width="438.77" height="93.72"><defs><style>.cls-1{fill:#1d1d1b;}</style></defs><title>WN_Logoabbinder_trans_2015</title><path class="cls-1" d="M93.29,100h0.33c0.67,0.78,9.54,11.87,10.32,12.65s5,6.1,8.88,10.88c3.44,4.11,6.44,7.55,6.88,8.1a2.76,2.76,0,0,0,1.89.89c0.67,0,.67-0.78.67-1.55V116.3c0-5.66.56-15,.83-18.76,0.17-2.05.72-2.94,1.83-2.94h1.55c0.22,0,.33-0.22.33-0.55V92.77c0-.17-0.11-0.39-0.56-0.39-0.67,0-2,.17-5.33.17-3.77,0-5.55-.17-6.21-0.17-0.44,0-.44.11-0.44,0.44V94.1c0,0.28,0,.5.33,0.5h1.78a3,3,0,0,1,2.94,2.11c0.28,0.94.5,6.38,0.61,8.49,0.11,2.77.11,5.55,0.11,10.43v5.77h-0.22c-0.89-1.11-9.54-11.87-10.32-12.76-1.11-1.55-12-15.2-12.54-15.76a1.64,1.64,0,0,0-1.33-.5c-0.33,0-.83.06-1.55,0.06s-1.5.11-2.44,0.11c-2.44,0-3.94,0-4.94-.06s-1.44-.11-1.72-0.11a0.29,0.29,0,0,0-.33.33v1.5a0.37,0.37,0,0,0,.33.39h1.78c2.44,0,4.33,2.55,4.33,5.88v7c0,8.88-.33,16.65-0.39,17.65-0.28,3.38-1.05,4.61-2.5,4.61H86.3a0.35,0.35,0,0,0-.33.33v1.39c0,0.39.11,0.5,0.33,0.5,0.55,0,4.33-.17,5.77-0.17,2.11,0,5.44.17,6,.17s0.44-.11.44-0.44v-1.28c0-.28,0-0.5-0.44-0.5H96.62c-2,0-2.66-1.33-2.77-4.11-0.11-1.72-.55-9.49-0.55-18.92V100h0Zm58.83,16.59c0.67,2.05,2.89,9.16,3.33,11.15,0.33,1.5-.11,2.05-1.67,2.05h-1.44a0.37,0.37,0,0,0-.44.44v1.11a0.56,0.56,0,0,0,.55.67c1.22,0,3.11-.17,7.77-0.17,6.1,0,7.21.17,8.21,0.17a0.56,0.56,0,0,0,.56-0.67v-1.17c0-.28-0.11-0.39-0.44-0.39h-1.78a4.19,4.19,0,0,1-3.55-2.55c-0.78-1.5-4.33-11.82-5.66-16.15-1-3.55-5.33-16-6.33-19.42a0.78,0.78,0,1,0-1.5-.44A18,18,0,0,1,144.24,94a0.58,0.58,0,0,0-.56.55,1.26,1.26,0,0,0,.33.67c0.33,0.33,0,1.33-.11,1.89-0.55,1.44-5,13.43-5.44,14.54-1.67,4.66-5.66,14.65-6.21,15.65-1,1.72-2,2.5-3.55,2.5H127c-0.22,0-.33.11-0.33,0.44v1.05c0,0.39,0,.72.33,0.72,0.78,0,2-.17,6.1-0.17,3.88,0,6.21.17,7,.17a0.45,0.45,0,0,0,.44-0.55v-1.39c0-.17-0.11-0.28-0.56-0.28h-2.33c-1.11,0-2-.61-2-1.33a4.8,4.8,0,0,1,.11-1.17c0.28-1.5,3-9.43,3.44-10.71h12.87ZM140,114.36c0.39-1.28,5.38-14.93,5.6-15.65a0.81,0.81,0,0,1,.72-0.72c0.22,0,.33.33,0.56,1,0.33,1.11,4.11,13.76,4.66,15.37H140Zm65.15,7.6c-0.17-.17-0.39,0-0.67.39a16.19,16.19,0,0,1-13.26,6.44c-2.66,0-5.88-.44-9.54-4.33-4.11-4.44-5.1-11-5.1-14.43,0-8,3.66-16,12.54-16a13.23,13.23,0,0,1,9.65,4.11,19.66,19.66,0,0,1,4.33,7.21c0.17,0.44.33,0.67,0.61,0.55l1.05-.33c0.22-.06.28-0.22,0.22-0.55-0.22-1.66-1.33-10.54-1.33-11.54,0-.78-0.11-0.89-0.78-0.89s-0.78,0-.89.33l-0.44,1.44c-0.11.44-.33,0.44-1.11,0a24.17,24.17,0,0,0-11.21-2.66,19.18,19.18,0,0,0-14.43,5.88,21.52,21.52,0,0,0-5.66,14.87c0,4.88,1.89,11.32,6,15,3.44,3.11,7.44,5.22,14.54,5.22,7.88,0,13.21-4.55,16.54-9.32a0.43,0.43,0,0,0-.11-0.55l-0.94-.83h0Zm34.24-9.43c0.78,0,1.22.17,1.22,0.67v1.55c0,1-.11,9.88-0.22,12.54-0.06,1.5-.11,2.5-1.44,2.5h-3a0.37,0.37,0,0,0-.44.44v1.28a0.45,0.45,0,0,0,.44.5c1.55,0,3.33-.17,8.55-0.17,4.77,0,6.66.17,7.55,0.17a0.48,0.48,0,0,0,.56-0.55v-1.28a0.37,0.37,0,0,0-.44-0.39h-2.22c-1.66,0-2.22-.78-2.22-2.77,0-3.16-.11-11-0.11-13.48v-6c0-1.78.11-9.32,0.11-10.1,0-1.94.11-2.83,1.78-2.83h2c0.55,0,.67-0.22.67-0.55V92.88c0-.28-0.11-0.5-0.67-0.5-0.89,0-3.11.17-7.32,0.17-4.44,0-6.88-.17-7.88-0.17a0.37,0.37,0,0,0-.44.44V94.1c0,0.33.06,0.5,0.44,0.5h2.55c1.22,0,1.44,1,1.5,2.77,0.06,0.61.28,8.38,0.28,10.38v1.66c0,0.61-.22.78-1.11,0.78H221.21c-0.5,0-.67-0.22-0.67-0.78V107.2c0-1.44.22-8.77,0.28-9.54,0.06-2.16.28-3.05,2.28-3.05h2a0.48,0.48,0,0,0,.56-0.55V92.88a0.46,0.46,0,0,0-.56-0.5c-1,0-3,.17-8,0.17-5.44,0-7.21-.17-8.21-0.17a0.52,0.52,0,0,0-.56.55V94.1a0.46,0.46,0,0,0,.56.5h2.44c1.78,0,2.11.78,2.11,3.55,0,0.83.11,7.71,0.11,9.38v7.1c0,3.55-.11,9.88-0.11,12.54,0,1.28-.22,2.61-1.55,2.61H209c-0.44,0-.56.11-0.56,0.44v1.28a0.46,0.46,0,0,0,.56.5c1.11,0,2.77-.17,8.21-0.17,4.55,0,6.44.17,7.44,0.17a0.48,0.48,0,0,0,.56-0.55v-1.28c0-.28-0.11-0.39-0.56-0.39h-2a1.67,1.67,0,0,1-1.89-1.89c-0.11-3.83-.22-10.27-0.22-12.26v-2.39a0.62,0.62,0,0,1,.78-0.72h18.09Zm28.85,1.78c0.61-.06,1.55-0.11,1.78-0.11,2.33,0,3.61,1.5,5,3.44,0.89,1.22,2.44,3.77,3,4.77s2.66,4.88,3.66,6.44a14.56,14.56,0,0,0,2.44,3.16c1.22-.06,3.33-0.17,4.88-0.17,3.55,0,5,.17,5.44.17s0.44-.17.44-0.55v-1.17a0.37,0.37,0,0,0-.44-0.39,5.82,5.82,0,0,1-3.94-1.05,77.3,77.3,0,0,1-4.72-6.33c-0.44-.67-3.89-5.88-4.55-6.77a7.24,7.24,0,0,0-3.33-2.55V113c6.1-1,10.32-3.88,10.32-10.88a8.5,8.5,0,0,0-3-6.21,14.92,14.92,0,0,0-10.1-3.5c-1.66,0-6.77.17-9.88,0.17-5.44,0-7.21-.17-7.6-0.17a0.33,0.33,0,0,0-.39.39v1.5a0.31,0.31,0,0,0,.39.33h2.16c1,0,1.78.89,1.78,2.77V112c0,5.22,0,10.43-.11,16,0,1.5-.89,1.83-2.11,1.83H257.5a0.36,0.36,0,0,0-.33.44v1.28a0.41,0.41,0,0,0,.44.5c0.56,0,1.89-.17,7.32-0.17,5.77,0,6.88.17,7.6,0.17,0.44,0,.61-0.11.61-0.5v-1.33a0.37,0.37,0,0,0-.44-0.39h-2.77c-0.89,0-1.28-1-1.44-2.11-0.11-.83-0.22-7-0.22-10.38v-3h0Zm0.22-18a1.91,1.91,0,0,1,.67-1.61,3.93,3.93,0,0,1,2-.33,10.61,10.61,0,0,1,7.32,2.39,8.74,8.74,0,0,1,2.44,6.21c0,2.55-1.78,9.54-10.43,9.54a15.17,15.17,0,0,1-2.11-.22l0.11-16h0Zm40.46,13.21c0-.67.11-12.87,0.11-13.43,0-1.05.89-1.5,2.11-1.5h2.11a0.41,0.41,0,0,0,.44-0.44V92.88a0.42,0.42,0,0,0-.44-0.5c-0.78,0-2.55.17-7.88,0.17s-8.32-.17-9-0.17a0.31,0.31,0,0,0-.33.39v1.44c0,0.28.11,0.39,0.44,0.39h2.89c1.55,0,2.11.55,2.27,1.89,0.06,0.72.17,10.71,0.17,12v3.88c0,3-.11,15-0.22,15.76-0.22,1.5-1.44,1.61-2.55,1.61h-2.22c-0.33,0-.44.11-0.44,0.33v1.5c0,0.28.11,0.39,0.44,0.39,0.56,0,3-.17,8.55-0.17,5.22,0,7.44.17,8.1,0.17a0.45,0.45,0,0,0,.55-0.44v-1.39a0.39,0.39,0,0,0-.44-0.39h-2.33c-1.33,0-2.22-.22-2.22-2,0-.61-0.11-13.37-0.11-13.93v-4.33h0ZM352.28,122c-0.17-.17-0.39,0-0.67.39a16.19,16.19,0,0,1-13.26,6.44c-2.66,0-5.88-.44-9.54-4.33-4.11-4.44-5.1-11-5.1-14.43,0-8,3.66-16,12.54-16a13.23,13.23,0,0,1,9.66,4.11,19.66,19.66,0,0,1,4.33,7.21c0.17,0.44.33,0.67,0.61,0.55l1.05-.33c0.22-.06.28-0.22,0.22-0.55-0.22-1.66-1.33-10.54-1.33-11.54,0-.78-0.11-0.89-0.78-0.89s-0.78,0-.89.33l-0.44,1.44c-0.11.44-.33,0.44-1.11,0a24.17,24.17,0,0,0-11.21-2.66,19.18,19.18,0,0,0-14.43,5.88,21.53,21.53,0,0,0-5.66,14.87c0,4.88,1.89,11.32,6,15,3.44,3.11,7.44,5.22,14.54,5.22,7.88,0,13.21-4.55,16.54-9.32a0.43,0.43,0,0,0-.11-0.55l-0.94-.83h0Zm35.35-9.43c0.78,0,1.22.17,1.22,0.67v1.55c0,1-.11,9.88-0.22,12.54-0.06,1.5-.11,2.5-1.44,2.5h-3a0.37,0.37,0,0,0-.44.44v1.28a0.45,0.45,0,0,0,.44.5c1.55,0,3.33-.17,8.55-0.17,4.77,0,6.66.17,7.55,0.17a0.48,0.48,0,0,0,.56-0.55v-1.28a0.37,0.37,0,0,0-.44-0.39h-2.22c-1.67,0-2.22-.78-2.22-2.77,0-3.16-.11-11-0.11-13.48v-6c0-1.78.11-9.32,0.11-10.1,0-1.94.11-2.83,1.78-2.83h2c0.55,0,.67-0.22.67-0.55V92.88c0-.28-0.11-0.5-0.67-0.5-0.89,0-3.11.17-7.32,0.17-4.44,0-6.88-.17-7.88-0.17a0.37,0.37,0,0,0-.44.44V94.1c0,0.33.06,0.5,0.44,0.5h2.55c1.22,0,1.44,1,1.5,2.77,0.06,0.61.28,8.38,0.28,10.38v1.66c0,0.61-.22.78-1.11,0.78H369.43c-0.5,0-.67-0.22-0.67-0.78V107.2c0-1.44.22-8.77,0.28-9.54,0.06-2.16.28-3.05,2.28-3.05h2a0.48,0.48,0,0,0,.55-0.55V92.88a0.46,0.46,0,0,0-.55-0.5c-1,0-3,.17-8,0.17-5.44,0-7.21-.17-8.21-0.17a0.52,0.52,0,0,0-.56.55V94.1a0.46,0.46,0,0,0,.56.5h2.44c1.78,0,2.11.78,2.11,3.55,0,0.83.11,7.71,0.11,9.38v7.1c0,3.55-.11,9.88-0.11,12.54,0,1.28-.22,2.61-1.55,2.61h-2.88c-0.44,0-.56.11-0.56,0.44v1.28a0.46,0.46,0,0,0,.56.5c1.11,0,2.77-.17,8.21-0.17,4.55,0,6.44.17,7.44,0.17a0.48,0.48,0,0,0,.56-0.55v-1.28c0-.28-0.11-0.39-0.56-0.39h-2A1.67,1.67,0,0,1,369,127.9c-0.11-3.83-.22-10.27-0.22-12.26v-2.39a0.62,0.62,0,0,1,.78-0.72h18.09Zm31.61-3.77c0,1.11,0,18.09-.17,19.53a1.66,1.66,0,0,1-1.83,1.5h-3.16a0.37,0.37,0,0,0-.39.44v1.28c0,0.39.11,0.5,0.44,0.5,0.78,0,3.11-.17,8.77-0.17,6,0,7.77.17,8.32,0.17a0.48,0.48,0,0,0,.55-0.55v-1.17a0.41,0.41,0,0,0-.33-0.5h-3.22c-1.33,0-1.89-1.11-1.89-5.33V94.88h1.55c2,0,7,.11,8.55,1,1.55,1.11,3.61,4.66,4.38,6.21,0.17,0.33.28,0.5,0.5,0.44l1.11-.39c0.17-.06.28-0.17,0.22-0.5-0.44-2.66-1.55-9.54-1.67-10.54-0.11-.67-0.22-0.89-0.55-0.89a1.83,1.83,0,0,0-1,.55,10.18,10.18,0,0,1-4,1.44c-2.55.11-4.88,0.33-11,.33h-3c-5.44,0-7.77-.22-10.77-0.33a5,5,0,0,1-3.77-1.44,1.33,1.33,0,0,0-.89-0.55c-0.22,0-.56.22-0.67,1s-2.11,8.1-2.66,10.21a0.43,0.43,0,0,0,.22.55l1.11,0.39c0.28,0.11.44-.11,0.61-0.39,1.05-1.89,3.16-5.55,4.94-6.33,2.33-.78,6.33-0.78,8.1-0.78h1.55v13.87h0Zm38.4,3.66c1.78,0,4.44.11,6.44,0.33a3.39,3.39,0,0,1,2.77,2,23.22,23.22,0,0,1,.89,2.77c0.11,0.33.22,0.44,0.44,0.39l1.22-.22c0.33-.06.44-0.11,0.44-0.39-0.11-1.22-.33-3.88-0.33-6.1,0-1.44,0-5.1.11-6a0.32,0.32,0,0,0-.33-0.44l-1.44-.11a0.41,0.41,0,0,0-.44.44,8.85,8.85,0,0,1-.89,3.11,3.1,3.1,0,0,1-2.55,2,62.77,62.77,0,0,1-6.33.28l0.11-16,8.43,0.22a9.55,9.55,0,0,1,4.22,1.44c1.33,0.78,5.88,5.88,6.1,6.21a0.42,0.42,0,0,0,.5.28l1-.44c0.22-.11.28-0.28,0.17-0.61-0.22-.55-2.33-8.1-2.55-8.82a0.39,0.39,0,0,0-.44-0.33c-0.28,0-1.33.06-2.22,0.06-2.44,0-15.2.11-17.65,0.11h-1.55c-4.55.06-6.55-.17-7.77-0.17-0.28,0-.33.11-0.33,0.39v1.44a0.31,0.31,0,0,0,.33.39h2.11c1.66,0,2.22.44,2.44,1.94,0.11,0.78.22,7.66,0.22,12.21V127.4c0,2.05-.22,2.39-2.78,2.39H446.1c-0.44,0-.56.11-0.56,0.44v1.33a0.37,0.37,0,0,0,.44.44c1,0,3-.17,7.1-0.17,18.53,0,22.86.17,23.42,0.17a1.17,1.17,0,0,0,1.22-.83l2.66-8.32a0.4,0.4,0,0,0-.11-0.55l-0.89-.55a0.45,0.45,0,0,0-.61.22c-1.05,1.33-4.16,5-5.16,5.88a9.47,9.47,0,0,1-4.55,1.89c-1.11.11-3.66,0.22-4.66,0.22a17.57,17.57,0,0,1-4.33-.44c-1.22-.33-2.22-1.44-2.22-4.33,0-1-.11-6.44-0.17-9.43l-0.06-3.33h0ZM489.88,100h0.33c0.67,0.78,9.54,11.87,10.32,12.65s5,6.1,8.88,10.88c3.44,4.11,6.44,7.55,6.88,8.1a2.77,2.77,0,0,0,1.89.89c0.67,0,.67-0.78.67-1.55V116.3c0-5.66.56-15,.83-18.76,0.17-2.05.72-2.94,1.83-2.94h1.55c0.22,0,.33-0.22.33-0.55V92.77c0-.17-0.11-0.39-0.56-0.39-0.67,0-2,.17-5.33.17-3.77,0-5.55-.17-6.21-0.17-0.44,0-.44.11-0.44,0.44V94.1c0,0.28,0,.5.33,0.5H513a3,3,0,0,1,2.94,2.11c0.28,0.94.5,6.38,0.61,8.49,0.11,2.77.11,5.55,0.11,10.43v5.77h-0.22c-0.89-1.11-9.54-11.87-10.32-12.76-1.11-1.55-12-15.2-12.54-15.76a1.64,1.64,0,0,0-1.33-.5c-0.33,0-.83.06-1.55,0.06s-1.5.11-2.44,0.11c-2.44,0-3.94,0-4.94-.06s-1.44-.11-1.72-0.11a0.29,0.29,0,0,0-.33.33v1.5a0.37,0.37,0,0,0,.33.39h1.78c2.44,0,4.33,2.55,4.33,5.88v7c0,8.88-.33,16.65-0.39,17.65-0.28,3.38-1.05,4.61-2.5,4.61h-1.89a0.36,0.36,0,0,0-.33.33v1.39c0,0.39.11,0.5,0.33,0.5,0.56,0,4.33-.17,5.77-0.17,2.11,0,5.44.17,6,.17s0.44-.11.44-0.44v-1.28c0-.28,0-0.5-0.44-0.5h-1.44c-2,0-2.66-1.33-2.78-4.11-0.11-1.72-.56-9.49-0.56-18.92V100h0Z" transform="translate(-84.63 -38.95)"/><path class="cls-1" d="M101.36,79.29a1.12,1.12,0,0,0,1.11.89,1.63,1.63,0,0,0,1.44-1.05c0.22-.61,10-27.8,10.54-29.35h0.22l10,29.19a1.48,1.48,0,0,0,1.39,1.22,1.92,1.92,0,0,0,1.44-1.44c1.11-2.77,12.43-33.85,13-35.07A2.74,2.74,0,0,1,143,41.83h1.17c0.33,0,.39-0.17.39-0.44v-1.5a0.28,0.28,0,0,0-.33-0.28c-0.44,0-2.11.17-5.22,0.17-3.44,0-5.33-.17-5.88-0.17a0.39,0.39,0,0,0-.44.44v1.33c0,0.28.06,0.44,0.39,0.44h1.5a1.62,1.62,0,0,1,1.89,1.55c0,3.05-6.32,21.36-8,26.25h-0.22l-8-25.64c-0.28-.94.11-2.16,1.22-2.16h1.94a0.37,0.37,0,0,0,.39-0.44V40.11c0-.33-0.06-0.5-0.39-0.5-0.5,0-2.61.17-7.27,0.17s-6.77-.17-7.21-0.17a0.38,0.38,0,0,0-.44.44v1.39a0.35,0.35,0,0,0,.39.39H110a2.32,2.32,0,0,1,1.89,1,5.34,5.34,0,0,1,1,2.94c-0.11,2.11-7.49,22.53-7.93,23.69l-0.11-.06L96.7,43.78A1.33,1.33,0,0,1,98,41.83h1.05a0.4,0.4,0,0,0,.5-0.44V40c0-.28-0.11-0.39-0.44-0.39-0.55,0-2.89.17-6.88,0.17-5,0-6.66-.17-7.1-0.17a0.37,0.37,0,0,0-.44.39v1.44a0.34,0.34,0,0,0,.33.39H86.6c0.89,0,1.78.44,2.33,2l12.43,35.46h0Zm63.88-40.34c-4.77,0-10.77,1.11-15.65,7.1a22.06,22.06,0,0,0-5.11,13.76c0,8,4.16,14,8.1,16.42a25.49,25.49,0,0,0,12.54,3.66c8.32,0,13.1-3.44,16.65-7.88a19.3,19.3,0,0,0,4.11-12.21,20.64,20.64,0,0,0-7.55-16.42,19.65,19.65,0,0,0-13.09-4.44h0ZM165,41.39c5.33,0,13.54,6.88,13.54,19,0,4.66-1.78,17.09-13,17.09-4.66,0-13.54-5.11-13.54-19.53,0-4.44,1.61-10.15,5-13.43,3.77-3.66,7-3.11,8-3.11h0Zm57.6,25.91a0.53,0.53,0,0,0-.67.22c-0.78,2.11-4.33,8.77-7.44,9.21C212.29,77,208.3,77,205.19,77h-3.11c-0.22-2.39-.22-14.37-0.22-15.37V56.87c0-3.88.22-12.21,0.22-13,0-1.5.22-2.05,1.89-2.05h3a0.45,0.45,0,0,0,.56-0.44V40.11a0.46,0.46,0,0,0-.56-0.5c-0.44,0-2.77.17-8.77,0.17-5.11,0-7.1-.17-7.66-0.17a0.37,0.37,0,0,0-.44.44v1.28a0.48,0.48,0,0,0,.44.5h2.33c1.44,0,1.67.55,1.78,2,0.11,0.94.22,6.83,0.22,10.38v3.11c0,3.33-.22,17.2-0.22,18.2,0,0.72-.33,1.5-2.33,1.5H190.1c-0.33,0-.33.11-0.33,0.44v1.28c0,0.39,0,.5.44,0.5,0.67,0,2.66-.17,7.66-0.17,5.66,0,21.64.11,23.08,0.17,0.33-1.5,2.55-10.71,2.77-11a0.69,0.69,0,0,0-.11-0.55l-1-.33h0ZM238,41.72c2.11,0,9.32.22,10.77,0.5a6.81,6.81,0,0,1,3.77,2.55,34.92,34.92,0,0,1,4,5.11c0.33,0.44.44,0.55,0.67,0.44l1.05-.44a0.33,0.33,0,0,0,.17-0.44c-0.22-.67-2-8.32-2.22-9.21a0.75,0.75,0,0,0-.33-0.78,17.08,17.08,0,0,1-2.11.22c-3.55,0-18.2.11-19,.11-6.33,0-8.43-.17-9-0.17a0.39,0.39,0,0,0-.44.33v1.61a0.4,0.4,0,0,0,.44.28h2.78c1.44,0,2.22.55,2.22,1.55,0,0.61.11,8.49,0.11,10.93V58.2c0,9.54-.11,16.54-0.17,17.65-0.06.94-.5,1.17-1.83,1.17h-2.22a0.29,0.29,0,0,0-.33.33v1.5a0.31,0.31,0,0,0,.33.39c0.78,0,2.89-.17,7.88-0.17,5.44,0,7.66.17,8.21,0.17a0.37,0.37,0,0,0,.44-0.44V77.4c0-.28-0.11-0.39-0.44-0.39h-3c-1.33,0-1.78-.22-1.78-1.78V61.42a43.92,43.92,0,0,1,6.38.33A4.26,4.26,0,0,1,247.19,64a14,14,0,0,1,.83,2.61,0.43,0.43,0,0,0,.44.44l1.22-.22A0.41,0.41,0,0,0,250,66.3c-0.11-1.11-.33-3.77-0.33-5.77,0-.78,0-5.33.11-6.33a0.29,0.29,0,0,0-.33-0.33l-1.11-.11a0.53,0.53,0,0,0-.44.44,10,10,0,0,1-1,2.83c-0.94,1.39-1.83,2.05-2.94,2.16a46.33,46.33,0,0,1-5.94.28V41.72h0Zm23.75,24.86c-0.22,0-.28.11-0.33,0.44-0.11.67-.89,9.65-1,10.32a0.72,0.72,0,0,0,.67.89,1,1,0,0,0,1-.67,1.61,1.61,0,0,1,.89-1,2.84,2.84,0,0,1,1.33.67c2.22,1.66,4.88,2.66,9.43,2.66,7.32,0,11.76-5.55,11.76-12.32,0-3.72-1-6-2.77-7.93-2.11-2.22-4.77-3.33-8-4.33-2.22-.67-5.33-2-6.77-3.44a6.76,6.76,0,0,1-1.55-5,5.92,5.92,0,0,1,6.21-5.6,7.29,7.29,0,0,1,5.77,2.33,15.94,15.94,0,0,1,3.44,5.88,0.43,0.43,0,0,0,.56.33l0.89-.28a0.37,0.37,0,0,0,.33-0.39c0-.55-0.89-8.32-0.89-9.21,0-.55-0.11-0.89-0.44-0.89a1,1,0,0,0-.78.33l-0.72.72a1,1,0,0,1-1.17.17,17.47,17.47,0,0,0-7-1.33,11.33,11.33,0,0,0-7.88,2.66,9.41,9.41,0,0,0-3.89,7.77c0,3.38.89,6.16,2.78,7.93a26.3,26.3,0,0,0,8.1,4.66c5.88,2.22,8.21,3.88,8.21,9,0,4.61-4.22,6.49-7.21,6.49a8.62,8.62,0,0,1-7.32-4,12.81,12.81,0,0,1-2.11-6.33c0-.33-0.11-0.44-0.33-0.44l-1.22-.11h0Zm32.41-5.16c0,4.55-.11,11.87-0.22,13.21-0.17,1.72-.56,2.39-2.22,2.39h-2.39a0.35,0.35,0,0,0-.39.39v1.39a0.4,0.4,0,0,0,.39.44c1.17,0,3.49-.17,7.82-0.17,2.22,0,5.88.17,8.1,0.17,6.21,0,9.77-.61,12.1-1.94,2.66-1.44,4.33-5.44,4.33-8.43,0-5.88-3.66-9.21-10-10.88V57.7c5.21-1.94,7.55-4.61,7.55-9,0-3.33-1.11-5.88-4.22-7.55-2-1.11-5.55-1.5-9.77-1.5-3,0-6.33.17-8.1,0.17-4.66.06-7.32-.17-8.1-0.17a0.41,0.41,0,0,0-.44.5v1.28a0.37,0.37,0,0,0,.44.44h1.78c2.11,0,3,.11,3.16,3.33,0.06,0.94.17,7.71,0.17,9.71v6.55h0Zm6.77,1V59h1.44a16.36,16.36,0,0,1,6.32,1c3.11,1.22,5.33,4.11,5.33,8.66,0,6.77-4,8.82-8.32,8.82-3.55,0-4.77-2.16-4.77-7.38V62.42h0ZM301,53c0-4.66.11-9.43,0.17-10.49a1.1,1.1,0,0,1,.72-0.89,7.87,7.87,0,0,1,1.67-.11,11.55,11.55,0,0,1,6.32,1.94,6.9,6.9,0,0,1,2.44,5.66,8,8,0,0,1-2.89,6.55,9.77,9.77,0,0,1-5.88,1.61c-0.89,0-1.67,0-2.55-.06V53h0Zm28,4.77c0,7.27.22,10.93,1,13.37a11.3,11.3,0,0,0,6.55,7.44,22.77,22.77,0,0,0,8,1.33,15,15,0,0,0,10.1-3.44c3-2.66,4.33-6.1,4.66-10.65,0.22-2.22.33-11.87,0.33-12.65s0-8.49.11-9.16a2.2,2.2,0,0,1,2.33-2.16h2c0.28,0,.33-0.17.33-0.5V40.06c0-.28-0.06-0.44-0.55-0.44s-2.22.17-5.66,0.17c-3.66,0-6.21-.17-6.77-0.17a0.37,0.37,0,0,0-.44.44v1.39a0.37,0.37,0,0,0,.44.39h2a2.44,2.44,0,0,1,2.28,2.44,102.9,102.9,0,0,1,.61,10.6v10c0,4.05-1.11,7.27-3.22,9.38a11.71,11.71,0,0,1-7.44,2.66,9.16,9.16,0,0,1-7.55-3.44c-1.33-1.78-1.78-4.33-1.94-6.88C336,64.81,336,60.87,336,58.09V51.21c0-3.22.11-6.55,0.17-7.21a2.44,2.44,0,0,1,2.72-2.16h2.33a0.37,0.37,0,0,0,.44-0.44V40c0-.28-0.11-0.39-0.44-0.39-0.67,0-3.33.17-8,.17-5.33,0-8-.17-8.55-0.17s-0.56.11-.56,0.44v1.28c0,0.39.11,0.5,0.44,0.5h2.55c1.44,0,1.89.89,1.89,2.77V57.76h0Zm48.61,3.77c0.61-.06,1.55-0.11,1.78-0.11,2.33,0,3.61,1.5,5,3.44,0.89,1.22,2.44,3.77,3,4.77S390,74.52,391,76.07a14.56,14.56,0,0,0,2.44,3.16c1.22-.06,3.33-0.17,4.88-0.17,3.55,0,5,.17,5.44.17s0.44-.17.44-0.55V77.51a0.37,0.37,0,0,0-.44-0.39,5.82,5.82,0,0,1-3.94-1.05,77.29,77.29,0,0,1-4.72-6.33c-0.44-.67-3.88-5.88-4.55-6.77a7.24,7.24,0,0,0-3.33-2.55V60.2c6.1-1,10.32-3.88,10.32-10.88a8.5,8.5,0,0,0-3-6.21,14.92,14.92,0,0,0-10.1-3.5c-1.67,0-6.77.17-9.88,0.17-5.44,0-7.21-.17-7.6-0.17a0.33,0.33,0,0,0-.39.39v1.5a0.31,0.31,0,0,0,.39.33h2.16c1,0,1.78.89,1.78,2.77V59.2c0,5.22,0,10.43-.11,16,0,1.5-.89,1.83-2.11,1.83h-1.89a0.36,0.36,0,0,0-.33.44v1.28a0.41,0.41,0,0,0,.44.5c0.56,0,1.89-.17,7.32-0.17,5.77,0,6.88.17,7.6,0.17,0.44,0,.61-0.11.61-0.5V77.4A0.37,0.37,0,0,0,382,77h-2.77c-0.89,0-1.28-1-1.44-2.11-0.11-.83-0.22-7-0.22-10.38v-3h0Zm0.22-18a1.91,1.91,0,0,1,.67-1.61,3.93,3.93,0,0,1,2-.33A10.61,10.61,0,0,1,387.8,44a8.74,8.74,0,0,1,2.44,6.21c0,2.55-1.78,9.54-10.43,9.54a15.14,15.14,0,0,1-2.11-.22l0.11-16h0Zm64,22.69c0-1.61.67-2.05,1.66-2.05h1.89a0.37,0.37,0,0,0,.44-0.44V62.36c0-.28-0.11-0.39-0.56-0.39s-2.44.17-7.1,0.17S431,62,430.31,62c-0.22,0-.33.11-0.33,0.44V63.7a0.43,0.43,0,0,0,.44.5h2.33c1.44,0,2,.55,2,2.55V70.8c0,2.89-.11,4.44-1.33,5.11-1.89,1-4,1.44-7.55,1.44A12,12,0,0,1,417,73.57c-3.22-3.22-5-8.88-5-15.43a19.39,19.39,0,0,1,4.55-12.54A11.41,11.41,0,0,1,426,41.28a12.53,12.53,0,0,1,9.21,3.88,22,22,0,0,1,4.44,7.66c0.11,0.33.22,0.5,0.56,0.44l1.33-.22c0.22-.06.22-0.33,0.22-0.78l-0.56-11.1a0.62,0.62,0,0,0-.67-0.78,0.92,0.92,0,0,0-.78.55l-0.67.89c-0.33.44-.67,0.61-1.33,0.11-1.78-1.33-6-3-11.32-3-6.66,0-11.76,1.89-15.76,5.44a18.74,18.74,0,0,0-6.33,14c0,6.55,1.67,11.32,5.1,15.09,3.77,4.55,10.54,6.44,16,6.44a32.12,32.12,0,0,0,15.76-3.66,1,1,0,0,0,.89-0.89c0-.44-0.22-1-0.22-1.78V66.25h0Zm19.25-6.6c1.78,0,4.44.11,6.44,0.33a3.39,3.39,0,0,1,2.77,2,23.49,23.49,0,0,1,.89,2.77c0.11,0.33.22,0.44,0.44,0.39l1.22-.22c0.33-.06.44-0.11,0.44-0.39-0.11-1.22-.33-3.88-0.33-6.1,0-1.44,0-5.1.11-6a0.32,0.32,0,0,0-.33-0.44l-1.44-.11a0.41,0.41,0,0,0-.44.44,8.85,8.85,0,0,1-.89,3.11,3.1,3.1,0,0,1-2.55,2,62.74,62.74,0,0,1-6.32.28l0.11-16,8.43,0.22a9.54,9.54,0,0,1,4.22,1.44c1.33,0.78,5.88,5.88,6.1,6.21a0.42,0.42,0,0,0,.5.28l1-.44c0.22-.11.28-0.28,0.17-0.61-0.22-.55-2.33-8.1-2.55-8.82a0.39,0.39,0,0,0-.44-0.33c-0.28,0-1.33.06-2.22,0.06-2.44,0-15.2.11-17.65,0.11h-1.55c-4.55.06-6.55-.17-7.77-0.17-0.28,0-.33.11-0.33,0.39v1.44a0.31,0.31,0,0,0,.33.39h2.11c1.67,0,2.22.44,2.44,1.94,0.11,0.78.22,7.66,0.22,12.21V74.63c0,2.05-.22,2.39-2.77,2.39h-1.89c-0.44,0-.55.11-0.55,0.44v1.33a0.37,0.37,0,0,0,.44.44c1,0,3-.17,7.1-0.17,18.53,0,22.86.17,23.42,0.17a1.18,1.18,0,0,0,1.22-.83l2.66-8.32a0.4,0.4,0,0,0-.11-0.55L482.86,69a0.45,0.45,0,0,0-.61.22c-1.05,1.33-4.16,5-5.16,5.88A9.47,9.47,0,0,1,472.54,77c-1.11.11-3.66,0.22-4.66,0.22a17.57,17.57,0,0,1-4.33-.44c-1.22-.33-2.22-1.44-2.22-4.33,0-1-.11-6.44-0.17-9.43l-0.06-3.33h0Zm35.57,1.89c0.61-.06,1.55-0.11,1.78-0.11,2.33,0,3.61,1.5,5,3.44,0.89,1.22,2.44,3.77,3,4.77s2.66,4.88,3.66,6.44a14.56,14.56,0,0,0,2.44,3.16c1.22-.06,3.33-0.17,4.88-0.17,3.55,0,5,.17,5.44.17s0.44-.17.44-0.55V77.51a0.37,0.37,0,0,0-.44-0.39,5.83,5.83,0,0,1-3.94-1.05,77.31,77.31,0,0,1-4.72-6.33c-0.44-.67-3.88-5.88-4.55-6.77a7.24,7.24,0,0,0-3.33-2.55V60.2c6.1-1,10.32-3.88,10.32-10.88a8.5,8.5,0,0,0-3-6.21,14.91,14.91,0,0,0-10.1-3.5c-1.67,0-6.77.17-9.88,0.17-5.44,0-7.21-.17-7.6-0.17a0.33,0.33,0,0,0-.39.39v1.5a0.31,0.31,0,0,0,.39.33h2.16c1,0,1.78.89,1.78,2.77V59.2c0,5.22,0,10.43-.11,16,0,1.5-.89,1.83-2.11,1.83h-1.89a0.36,0.36,0,0,0-.33.44v1.28a0.4,0.4,0,0,0,.44.5c0.56,0,1.89-.17,7.32-0.17,5.77,0,6.88.17,7.6,0.17,0.44,0,.61-0.11.61-0.5V77.4a0.37,0.37,0,0,0-.44-0.39h-2.77c-0.89,0-1.28-1-1.44-2.11-0.11-.83-0.22-7-0.22-10.38v-3h0Zm0.22-18a1.91,1.91,0,0,1,.67-1.61,3.93,3.93,0,0,1,2-.33A10.61,10.61,0,0,1,506.89,44a8.74,8.74,0,0,1,2.44,6.21c0,2.55-1.78,9.54-10.43,9.54a15.16,15.16,0,0,1-2.11-.22l0.11-16h0Z" transform="translate(-84.63 -38.95)"/></svg>