<svg id="HN" xmlns="http://www.w3.org/2000/svg" viewBox="0 0 444.57 95.23" width="444.57" height="95.23"><defs><style>.cls-1{fill:#1d1d1b;}</style></defs><title>HN_Logoabbinder_trans_2015</title><path class="cls-1" d="M93.53,100h0.33c0.67,0.78,9.54,11.87,10.32,12.65s5,6.1,8.88,10.88c3.44,4.11,6.44,7.55,6.88,8.1a2.76,2.76,0,0,0,1.89.89c0.67,0,.67-0.78.67-1.55V116.3c0-5.66.56-15,.83-18.76,0.17-2.05.72-2.94,1.83-2.94h1.55c0.22,0,.33-0.22.33-0.55V92.77c0-.17-0.11-0.39-0.56-0.39-0.67,0-2,.17-5.33.17-3.77,0-5.55-.17-6.21-0.17-0.44,0-.44.11-0.44,0.44V94.1c0,0.28,0,.5.33,0.5h1.78a3,3,0,0,1,2.94,2.11c0.28,0.94.5,6.38,0.61,8.49,0.11,2.77.11,5.55,0.11,10.43v5.77h-0.22c-0.89-1.11-9.54-11.87-10.32-12.76-1.11-1.55-12-15.2-12.54-15.76a1.64,1.64,0,0,0-1.33-.5c-0.33,0-.83.06-1.55,0.06s-1.5.11-2.44,0.11c-2.44,0-3.94,0-4.94-.06s-1.44-.11-1.72-0.11a0.29,0.29,0,0,0-.33.33v1.5a0.37,0.37,0,0,0,.33.39H87c2.44,0,4.33,2.55,4.33,5.88v7c0,8.88-.33,16.65-0.39,17.65-0.28,3.38-1.05,4.61-2.5,4.61H86.54a0.35,0.35,0,0,0-.33.33v1.39c0,0.39.11,0.5,0.33,0.5,0.55,0,4.33-.17,5.77-0.17,2.11,0,5.44.17,6,.17s0.44-.11.44-0.44v-1.28c0-.28,0-0.5-0.44-0.5H96.86c-2,0-2.66-1.33-2.77-4.11-0.11-1.72-.55-9.49-0.55-18.92V100h0Zm58.83,16.59c0.67,2.05,2.89,9.16,3.33,11.15,0.33,1.5-.11,2.05-1.67,2.05h-1.44a0.37,0.37,0,0,0-.44.44v1.11a0.56,0.56,0,0,0,.55.67c1.22,0,3.11-.17,7.77-0.17,6.1,0,7.21.17,8.21,0.17a0.56,0.56,0,0,0,.56-0.67v-1.17c0-.28-0.11-0.39-0.44-0.39H167a4.19,4.19,0,0,1-3.55-2.55c-0.78-1.5-4.33-11.82-5.66-16.15-1-3.55-5.33-16-6.33-19.42a0.78,0.78,0,1,0-1.5-.44A18,18,0,0,1,144.48,94a0.58,0.58,0,0,0-.56.55,1.26,1.26,0,0,0,.33.67c0.33,0.33,0,1.33-.11,1.89-0.55,1.44-5,13.43-5.44,14.54-1.67,4.66-5.66,14.65-6.21,15.65-1,1.72-2,2.5-3.55,2.5h-1.67c-0.22,0-.33.11-0.33,0.44v1.05c0,0.39,0,.72.33,0.72,0.78,0,2-.17,6.1-0.17,3.88,0,6.21.17,7,.17a0.45,0.45,0,0,0,.44-0.55v-1.39c0-.17-0.11-0.28-0.56-0.28h-2.33c-1.11,0-2-.61-2-1.33a4.8,4.8,0,0,1,.11-1.17c0.28-1.5,3-9.43,3.44-10.71h12.87Zm-12.1-2.22c0.39-1.28,5.38-14.93,5.6-15.65a0.81,0.81,0,0,1,.72-0.72c0.22,0,.33.33,0.56,1,0.33,1.11,4.11,13.76,4.66,15.37H140.26Zm65.15,7.6c-0.17-.17-0.39,0-0.67.39a16.19,16.19,0,0,1-13.26,6.44c-2.66,0-5.88-.44-9.54-4.33-4.11-4.44-5.1-11-5.1-14.43,0-8,3.66-16,12.54-16A13.23,13.23,0,0,1,199,98.15a19.66,19.66,0,0,1,4.33,7.21c0.17,0.44.33,0.67,0.61,0.55l1.05-.33c0.22-.06.28-0.22,0.22-0.55-0.22-1.66-1.33-10.54-1.33-11.54,0-.78-0.11-0.89-0.78-0.89s-0.78,0-.89.33l-0.44,1.44c-0.11.44-.33,0.44-1.11,0a24.17,24.17,0,0,0-11.21-2.66,19.18,19.18,0,0,0-14.43,5.88,21.52,21.52,0,0,0-5.66,14.87c0,4.88,1.89,11.32,6,15,3.44,3.11,7.44,5.22,14.54,5.22,7.88,0,13.21-4.55,16.54-9.32a0.43,0.43,0,0,0-.11-0.55l-0.94-.83h0Zm34.24-9.43c0.78,0,1.22.17,1.22,0.67v1.55c0,1-.11,9.88-0.22,12.54-0.06,1.5-.11,2.5-1.44,2.5h-3a0.37,0.37,0,0,0-.44.44v1.28a0.45,0.45,0,0,0,.44.5c1.55,0,3.33-.17,8.55-0.17,4.77,0,6.66.17,7.55,0.17a0.48,0.48,0,0,0,.56-0.55v-1.28a0.37,0.37,0,0,0-.44-0.39h-2.22c-1.66,0-2.22-.78-2.22-2.77,0-3.16-.11-11-0.11-13.48v-6c0-1.78.11-9.32,0.11-10.1,0-1.94.11-2.83,1.78-2.83h2c0.55,0,.67-0.22.67-0.55V92.88c0-.28-0.11-0.5-0.67-0.5-0.89,0-3.11.17-7.32,0.17-4.44,0-6.88-.17-7.88-0.17a0.37,0.37,0,0,0-.44.44V94.1c0,0.33.06,0.5,0.44,0.5h2.55c1.22,0,1.44,1,1.5,2.77,0.06,0.61.28,8.38,0.28,10.38v1.66c0,0.61-.22.78-1.11,0.78H221.45c-0.5,0-.67-0.22-0.67-0.78V107.2c0-1.44.22-8.77,0.28-9.54,0.06-2.16.28-3.05,2.28-3.05h2a0.48,0.48,0,0,0,.56-0.55V92.88a0.46,0.46,0,0,0-.56-0.5c-1,0-3,.17-8,0.17-5.44,0-7.21-.17-8.21-0.17a0.52,0.52,0,0,0-.56.55V94.1a0.46,0.46,0,0,0,.56.5h2.44c1.78,0,2.11.78,2.11,3.55,0,0.83.11,7.71,0.11,9.38v7.1c0,3.55-.11,9.88-0.11,12.54,0,1.28-.22,2.61-1.55,2.61h-2.89c-0.44,0-.56.11-0.56,0.44v1.28a0.46,0.46,0,0,0,.56.5c1.11,0,2.77-.17,8.21-0.17,4.55,0,6.44.17,7.44,0.17a0.48,0.48,0,0,0,.56-0.55v-1.28c0-.28-0.11-0.39-0.56-0.39h-2A1.67,1.67,0,0,1,221,127.9c-0.11-3.83-.22-10.27-0.22-12.26v-2.39a0.62,0.62,0,0,1,.78-0.72h18.09Zm28.85,1.78c0.61-.06,1.55-0.11,1.78-0.11,2.33,0,3.61,1.5,5,3.44,0.89,1.22,2.44,3.77,3,4.77s2.66,4.88,3.66,6.44a14.56,14.56,0,0,0,2.44,3.16c1.22-.06,3.33-0.17,4.88-0.17,3.55,0,5,.17,5.44.17s0.44-.17.44-0.55v-1.17a0.37,0.37,0,0,0-.44-0.39,5.82,5.82,0,0,1-3.94-1.05,77.3,77.3,0,0,1-4.72-6.33c-0.44-.67-3.89-5.88-4.55-6.77a7.24,7.24,0,0,0-3.33-2.55V113c6.1-1,10.32-3.88,10.32-10.88a8.5,8.5,0,0,0-3-6.21,14.92,14.92,0,0,0-10.1-3.5c-1.66,0-6.77.17-9.88,0.17-5.44,0-7.21-.17-7.6-0.17a0.33,0.33,0,0,0-.39.39v1.5a0.31,0.31,0,0,0,.39.33h2.16c1,0,1.78.89,1.78,2.77V112c0,5.22,0,10.43-.11,16,0,1.5-.89,1.83-2.11,1.83h-1.89a0.36,0.36,0,0,0-.33.44v1.28a0.41,0.41,0,0,0,.44.5c0.56,0,1.89-.17,7.32-0.17,5.77,0,6.88.17,7.6,0.17,0.44,0,.61-0.11.61-0.5v-1.33a0.37,0.37,0,0,0-.44-0.39h-2.77c-0.89,0-1.28-1-1.44-2.11-0.11-.83-0.22-7-0.22-10.38v-3h0Zm0.22-18a1.91,1.91,0,0,1,.67-1.61,3.93,3.93,0,0,1,2-.33,10.61,10.61,0,0,1,7.32,2.39,8.74,8.74,0,0,1,2.44,6.21c0,2.55-1.78,9.54-10.43,9.54a15.17,15.17,0,0,1-2.11-.22l0.11-16h0Zm40.46,13.21c0-.67.11-12.87,0.11-13.43,0-1.05.89-1.5,2.11-1.5h2.11a0.41,0.41,0,0,0,.44-0.44V92.88a0.42,0.42,0,0,0-.44-0.5c-0.78,0-2.55.17-7.88,0.17s-8.32-.17-9-0.17a0.31,0.31,0,0,0-.33.39v1.44c0,0.28.11,0.39,0.44,0.39h2.89c1.55,0,2.11.55,2.27,1.89,0.06,0.72.17,10.71,0.17,12v3.88c0,3-.11,15-0.22,15.76-0.22,1.5-1.44,1.61-2.55,1.61h-2.22c-0.33,0-.44.11-0.44,0.33v1.5c0,0.28.11,0.39,0.44,0.39,0.56,0,3-.17,8.55-0.17,5.22,0,7.44.17,8.1,0.17a0.45,0.45,0,0,0,.55-0.44v-1.39a0.39,0.39,0,0,0-.44-0.39h-2.33c-1.33,0-2.22-.22-2.22-2,0-.61-0.11-13.37-0.11-13.93v-4.33h0ZM352.52,122c-0.17-.17-0.39,0-0.67.39a16.19,16.19,0,0,1-13.26,6.44c-2.66,0-5.88-.44-9.54-4.33-4.11-4.44-5.1-11-5.1-14.43,0-8,3.66-16,12.54-16a13.23,13.23,0,0,1,9.66,4.11,19.66,19.66,0,0,1,4.33,7.21c0.17,0.44.33,0.67,0.61,0.55l1.05-.33c0.22-.06.28-0.22,0.22-0.55-0.22-1.66-1.33-10.54-1.33-11.54,0-.78-0.11-0.89-0.78-0.89s-0.78,0-.89.33l-0.44,1.44c-0.11.44-.33,0.44-1.11,0a24.17,24.17,0,0,0-11.21-2.66,19.18,19.18,0,0,0-14.43,5.88,21.53,21.53,0,0,0-5.66,14.87c0,4.88,1.89,11.32,6,15,3.44,3.11,7.44,5.22,14.54,5.22,7.88,0,13.21-4.55,16.54-9.32a0.43,0.43,0,0,0-.11-0.55l-0.94-.83h0Zm35.35-9.43c0.78,0,1.22.17,1.22,0.67v1.55c0,1-.11,9.88-0.22,12.54-0.06,1.5-.11,2.5-1.44,2.5h-3a0.37,0.37,0,0,0-.44.44v1.28a0.45,0.45,0,0,0,.44.5c1.55,0,3.33-.17,8.55-0.17,4.77,0,6.66.17,7.55,0.17a0.48,0.48,0,0,0,.56-0.55v-1.28a0.37,0.37,0,0,0-.44-0.39h-2.22c-1.67,0-2.22-.78-2.22-2.77,0-3.16-.11-11-0.11-13.48v-6c0-1.78.11-9.32,0.11-10.1,0-1.94.11-2.83,1.78-2.83h2c0.55,0,.67-0.22.67-0.55V92.88c0-.28-0.11-0.5-0.67-0.5-0.89,0-3.11.17-7.32,0.17-4.44,0-6.88-.17-7.88-0.17a0.37,0.37,0,0,0-.44.44V94.1c0,0.33.06,0.5,0.44,0.5h2.55c1.22,0,1.44,1,1.5,2.77,0.06,0.61.28,8.38,0.28,10.38v1.66c0,0.61-.22.78-1.11,0.78H369.67c-0.5,0-.67-0.22-0.67-0.78V107.2c0-1.44.22-8.77,0.28-9.54,0.06-2.16.28-3.05,2.28-3.05h2a0.48,0.48,0,0,0,.55-0.55V92.88a0.46,0.46,0,0,0-.55-0.5c-1,0-3,.17-8,0.17-5.44,0-7.21-.17-8.21-0.17a0.52,0.52,0,0,0-.56.55V94.1a0.46,0.46,0,0,0,.56.5h2.44c1.78,0,2.11.78,2.11,3.55,0,0.83.11,7.71,0.11,9.38v7.1c0,3.55-.11,9.88-0.11,12.54,0,1.28-.22,2.61-1.55,2.61h-2.88c-0.44,0-.56.11-0.56,0.44v1.28a0.46,0.46,0,0,0,.56.5c1.11,0,2.77-.17,8.21-0.17,4.55,0,6.44.17,7.44,0.17a0.48,0.48,0,0,0,.56-0.55v-1.28c0-.28-0.11-0.39-0.56-0.39h-2a1.67,1.67,0,0,1-1.89-1.89c-0.11-3.83-.22-10.27-0.22-12.26v-2.39a0.62,0.62,0,0,1,.78-0.72h18.09Zm31.61-3.77c0,1.11,0,18.09-.17,19.53a1.66,1.66,0,0,1-1.83,1.5h-3.16a0.37,0.37,0,0,0-.39.44v1.28c0,0.39.11,0.5,0.44,0.5,0.78,0,3.11-.17,8.77-0.17,6,0,7.77.17,8.32,0.17a0.48,0.48,0,0,0,.55-0.55v-1.17a0.41,0.41,0,0,0-.33-0.5h-3.22c-1.33,0-1.89-1.11-1.89-5.33V94.88h1.55c2,0,7,.11,8.55,1,1.55,1.11,3.61,4.66,4.38,6.21,0.17,0.33.28,0.5,0.5,0.44l1.11-.39c0.17-.06.28-0.17,0.22-0.5-0.44-2.66-1.55-9.54-1.67-10.54-0.11-.67-0.22-0.89-0.55-0.89a1.83,1.83,0,0,0-1,.55,10.18,10.18,0,0,1-4,1.44c-2.55.11-4.88,0.33-11,.33h-3c-5.44,0-7.77-.22-10.77-0.33a5,5,0,0,1-3.77-1.44,1.33,1.33,0,0,0-.89-0.55c-0.22,0-.56.22-0.67,1s-2.11,8.1-2.66,10.21a0.43,0.43,0,0,0,.22.55l1.11,0.39c0.28,0.11.44-.11,0.61-0.39,1.05-1.89,3.16-5.55,4.94-6.33,2.33-.78,6.33-0.78,8.1-0.78h1.55v13.87h0Zm38.4,3.66c1.78,0,4.44.11,6.44,0.33a3.39,3.39,0,0,1,2.77,2,23.22,23.22,0,0,1,.89,2.77c0.11,0.33.22,0.44,0.44,0.39l1.22-.22c0.33-.06.44-0.11,0.44-0.39-0.11-1.22-.33-3.88-0.33-6.1,0-1.44,0-5.1.11-6a0.32,0.32,0,0,0-.33-0.44l-1.44-.11a0.41,0.41,0,0,0-.44.44,8.85,8.85,0,0,1-.89,3.11,3.1,3.1,0,0,1-2.55,2,62.77,62.77,0,0,1-6.33.28l0.11-16,8.43,0.22a9.55,9.55,0,0,1,4.22,1.44c1.33,0.78,5.88,5.88,6.1,6.21a0.42,0.42,0,0,0,.5.28l1-.44c0.22-.11.28-0.28,0.17-0.61-0.22-.55-2.33-8.1-2.55-8.82a0.39,0.39,0,0,0-.44-0.33c-0.28,0-1.33.06-2.22,0.06-2.44,0-15.2.11-17.65,0.11H454c-4.55.06-6.55-.17-7.77-0.17-0.28,0-.33.11-0.33,0.39v1.44a0.31,0.31,0,0,0,.33.39h2.11c1.66,0,2.22.44,2.44,1.94,0.11,0.78.22,7.66,0.22,12.21V127.4c0,2.05-.22,2.39-2.78,2.39h-1.89c-0.44,0-.56.11-0.56,0.44v1.33a0.37,0.37,0,0,0,.44.44c1,0,3-.17,7.1-0.17,18.53,0,22.86.17,23.42,0.17a1.17,1.17,0,0,0,1.22-.83l2.66-8.32a0.4,0.4,0,0,0-.11-0.55l-0.89-.55a0.45,0.45,0,0,0-.61.22c-1.05,1.33-4.16,5-5.16,5.88a9.47,9.47,0,0,1-4.55,1.89c-1.11.11-3.66,0.22-4.66,0.22a17.57,17.57,0,0,1-4.33-.44c-1.22-.33-2.22-1.44-2.22-4.33,0-1-.11-6.44-0.17-9.43l-0.06-3.33h0ZM490.13,100h0.33c0.67,0.78,9.54,11.87,10.32,12.65s5,6.1,8.88,10.88c3.44,4.11,6.44,7.55,6.88,8.1a2.77,2.77,0,0,0,1.89.89c0.67,0,.67-0.78.67-1.55V116.3c0-5.66.56-15,.83-18.76,0.17-2.05.72-2.94,1.83-2.94h1.55c0.22,0,.33-0.22.33-0.55V92.77c0-.17-0.11-0.39-0.56-0.39-0.67,0-2,.17-5.33.17-3.77,0-5.55-.17-6.21-0.17-0.44,0-.44.11-0.44,0.44V94.1c0,0.28,0,.5.33,0.5h1.78a3,3,0,0,1,2.94,2.11c0.28,0.94.5,6.38,0.61,8.49,0.11,2.77.11,5.55,0.11,10.43v5.77h-0.22c-0.89-1.11-9.54-11.87-10.32-12.76-1.11-1.55-12-15.2-12.54-15.76a1.64,1.64,0,0,0-1.33-.5c-0.33,0-.83.06-1.55,0.06s-1.5.11-2.44,0.11c-2.44,0-3.94,0-4.94-.06s-1.44-.11-1.72-0.11a0.29,0.29,0,0,0-.33.33v1.5a0.37,0.37,0,0,0,.33.39h1.78c2.44,0,4.33,2.55,4.33,5.88v7c0,8.88-.33,16.65-0.39,17.65-0.28,3.38-1.05,4.61-2.5,4.61h-1.89a0.36,0.36,0,0,0-.33.33v1.39c0,0.39.11,0.5,0.33,0.5,0.56,0,4.33-.17,5.77-0.17,2.11,0,5.44.17,6,.17s0.44-.11.44-0.44v-1.28c0-.28,0-0.5-0.44-0.5h-1.44c-2,0-2.66-1.33-2.78-4.11-0.11-1.72-.56-9.49-0.56-18.92V100h0Z" transform="translate(-81.97 -37.44)"/><path class="cls-1" d="M113.19,59.85c0.78,0,1.23.17,1.23,0.67v1.56c0,1-.11,9.92-0.22,12.6-0.06,1.5-.11,2.51-1.45,2.51h-3a0.37,0.37,0,0,0-.45.45v1.28a0.45,0.45,0,0,0,.45.5c1.56,0,3.34-.17,8.58-0.17,4.79,0,6.69.17,7.58,0.17a0.48,0.48,0,0,0,.56-0.56V77.57a0.37,0.37,0,0,0-.45-0.39h-2.23c-1.67,0-2.23-.78-2.23-2.79,0-3.18-.11-11.09-0.11-13.54v-6c0-1.78.11-9.36,0.11-10.14,0-2,.11-2.84,1.78-2.84h2c0.56,0,.67-0.22.67-0.56V40.12c0-.28-0.11-0.5-0.67-0.5-0.89,0-3.12.17-7.36,0.17-4.46,0-6.91-.17-7.92-0.17a0.37,0.37,0,0,0-.45.45v1.28c0,0.33.06,0.5,0.45,0.5h2.56c1.23,0,1.45,1,1.5,2.79,0.06,0.61.28,8.42,0.28,10.42v1.67c0,0.61-.22.78-1.12,0.78H94.9c-0.5,0-.67-0.22-0.67-0.78V54.5c0-1.45.22-8.81,0.28-9.59,0.06-2.17.28-3.07,2.29-3.07h2a0.48,0.48,0,0,0,.56-0.56V40.12a0.46,0.46,0,0,0-.56-0.5c-1,0-3,.17-8,0.17-5.46,0-7.25-.17-8.25-0.17a0.52,0.52,0,0,0-.56.56v1.17a0.46,0.46,0,0,0,.56.5H85c1.78,0,2.12.78,2.12,3.57,0,0.84.11,7.75,0.11,9.42V62c0,3.57-.11,9.92-0.11,12.6,0,1.28-.22,2.62-1.56,2.62h-2.9c-0.45,0-.56.11-0.56,0.45v1.28a0.46,0.46,0,0,0,.56.5c1.11,0,2.79-.17,8.25-0.17,4.57,0,6.47.17,7.47,0.17a0.48,0.48,0,0,0,.56-0.56V77.57c0-.28-0.11-0.39-0.56-0.39h-2a1.68,1.68,0,0,1-1.9-1.9C94.35,71.44,94.24,65,94.24,63v-2.4A0.63,0.63,0,0,1,95,59.85h18.17Zm29.53-.11c1.78,0,4.46.11,6.47,0.33a3.41,3.41,0,0,1,2.79,2,23.6,23.6,0,0,1,.89,2.79c0.11,0.33.22,0.45,0.45,0.39l1.23-.22c0.33-.06.45-0.11,0.45-0.39-0.11-1.23-.33-3.9-0.33-6.13,0-1.45,0-5.13.11-6a0.32,0.32,0,0,0-.34-0.45L153,51.93a0.41,0.41,0,0,0-.45.45,8.89,8.89,0,0,1-.89,3.12,3.11,3.11,0,0,1-2.56,2,63,63,0,0,1-6.35.28l0.11-16.11,8.47,0.22a9.58,9.58,0,0,1,4.24,1.45c1.34,0.78,5.91,5.91,6.13,6.24a0.42,0.42,0,0,0,.5.28l1-.45c0.22-.11.28-0.28,0.17-0.61-0.22-.56-2.34-8.14-2.56-8.86a0.39,0.39,0,0,0-.45-0.33c-0.28,0-1.34.06-2.23,0.06-2.45,0-15.27.11-17.72,0.11h-1.56c-4.57.06-6.58-.17-7.8-0.17-0.28,0-.33.11-0.33,0.39v1.45a0.32,0.32,0,0,0,.33.39h2.12c1.67,0,2.23.45,2.45,2,0.11,0.78.22,7.69,0.22,12.26V74.79c0,2.06-.22,2.4-2.79,2.4h-1.89c-0.45,0-.56.11-0.56,0.45V79a0.37,0.37,0,0,0,.45.45c1,0,3-.17,7.13-0.17,18.62,0,23,.17,23.52.17a1.18,1.18,0,0,0,1.23-.84l2.68-8.36a0.4,0.4,0,0,0-.11-0.56l-0.89-.56a0.45,0.45,0,0,0-.61.22c-1.06,1.34-4.18,5-5.18,5.91a9.51,9.51,0,0,1-4.57,1.9c-1.12.11-3.68,0.22-4.68,0.22a17.65,17.65,0,0,1-4.35-.45c-1.23-.33-2.23-1.45-2.23-4.35,0-1-.11-6.47-0.17-9.48l-0.06-3.34h0Zm57.75,7.69a0.54,0.54,0,0,0-.67.22c-0.78,2.12-4.35,8.81-7.47,9.25-2.23.28-6.24,0.28-9.36,0.28h-3.12c-0.22-2.4-.22-14.44-0.22-15.44V56.95c0-3.9.22-12.26,0.22-13,0-1.5.22-2.06,1.9-2.06h3a0.45,0.45,0,0,0,.56-0.45V40.12a0.46,0.46,0,0,0-.56-0.5c-0.45,0-2.79.17-8.81,0.17-5.13,0-7.13-.17-7.69-0.17a0.37,0.37,0,0,0-.45.45v1.28a0.48,0.48,0,0,0,.45.5h2.34c1.45,0,1.67.56,1.78,2,0.11,0.95.22,6.86,0.22,10.42V57.4c0,3.34-.22,17.28-0.22,18.28,0,0.72-.33,1.5-2.34,1.5h-2.23c-0.33,0-.33.11-0.33,0.45v1.28c0,0.39,0,.5.45,0.5,0.67,0,2.68-.17,7.69-0.17,5.68,0,21.74.11,23.19,0.17,0.33-1.5,2.56-10.76,2.79-11.09a0.68,0.68,0,0,0-.11-0.56l-1-.33h0Zm42.81-5.24c0,4.46-.11,12.49-0.17,13-0.17,1.62-.61,2-1.62,2H238a0.37,0.37,0,0,0-.45.45v1.28a0.43,0.43,0,0,0,.45.5c0.78,0,2.9-.17,8.36-0.17,4.91,0,7.58.17,8.25,0.17,0.45,0,.45-0.22.45-0.56V77.57a0.31,0.31,0,0,0-.33-0.39h-3c-1,0-1.5-.89-1.56-3,0-.95-0.11-9.09-0.11-12.43v-3.9c0-1.45,0-12.6.06-13.82s0.17-2.17,1.62-2.17h2.45a0.45,0.45,0,0,0,.45-0.56V40.12a0.42,0.42,0,0,0-.33-0.5c-0.67,0-2.56.22-10.7,0.17-1.34,0-2,.11-2.17.67-0.28,1.11-5.3,12.6-6.3,14.94-1.45,3.29-5.41,12.49-5.91,13.49-1.67-4.57-9.48-23.08-11.48-28.31a1.25,1.25,0,0,0-1.34-.95c-0.67,0-2.23.17-4.91,0.17-5.91,0-7.36-.17-7.92-0.17a0.39,0.39,0,0,0-.45.33v1.5a0.4,0.4,0,0,0,.45.39H206c2.45,0,2.73,1.23,2.73,3.23v9.53c0,1-.33,14.71-0.84,18.62-0.28,2-.89,4-2.79,4h-2.56a0.29,0.29,0,0,0-.33.33v1.39c0,0.39,0,.5.45,0.5s2.45-.17,7.25-0.17c4.24,0,5.8.17,6.35,0.17a0.45,0.45,0,0,0,.56-0.45V77.57a0.4,0.4,0,0,0-.45-0.39H214c-1.79,0-2.45-2.12-2.68-4.68-0.33-3.62-.28-13.1-0.28-13.77s0.06-14.71.28-15.5c0.67,0.67,5.8,13.15,6.8,15.72,0.34,0.89,7.58,18.28,7.8,18.62a1.18,1.18,0,0,0,.89,1A1.92,1.92,0,0,0,228,77.35c0.28-.56,6-13.71,6.8-15.49,0.67-1.45,7.69-17.72,8.14-18.5h0.22c0.11,0.22.11,14,.11,15.72v3.12h0Zm17.89,4.51c-0.22,0-.28.11-0.33,0.45-0.11.67-.89,9.7-1,10.37a0.72,0.72,0,0,0,.67.89,1,1,0,0,0,1-.67,1.61,1.61,0,0,1,.89-1,2.86,2.86,0,0,1,1.34.67c2.23,1.67,4.91,2.68,9.48,2.68,7.36,0,11.82-5.57,11.82-12.37,0-3.73-1-6.08-2.79-8-2.12-2.23-4.79-3.34-8-4.35-2.23-.67-5.35-2-6.8-3.46a6.79,6.79,0,0,1-1.56-5,6,6,0,0,1,6.24-5.63,7.32,7.32,0,0,1,5.8,2.34,16,16,0,0,1,3.46,5.91,0.43,0.43,0,0,0,.56.33l0.89-.28a0.37,0.37,0,0,0,.33-0.39c0-.56-0.89-8.36-0.89-9.25,0-.56-0.11-0.89-0.45-0.89a1,1,0,0,0-.78.33l-0.72.72a1,1,0,0,1-1.17.17,17.56,17.56,0,0,0-7-1.34,11.38,11.38,0,0,0-7.92,2.68,9.46,9.46,0,0,0-3.9,7.8c0,3.4.89,6.19,2.79,8a26.42,26.42,0,0,0,8.14,4.68c5.91,2.23,8.25,3.9,8.25,9,0,4.63-4.24,6.52-7.25,6.52a8.66,8.66,0,0,1-7.36-4,12.88,12.88,0,0,1-2.12-6.35c0-.33-0.11-0.45-0.33-0.45l-1.23-.11h0Zm41.47-10.65c0,1.11,0,18.17-.17,19.62a1.67,1.67,0,0,1-1.84,1.5h-3.18a0.37,0.37,0,0,0-.39.45v1.28c0,0.39.11,0.5,0.45,0.5,0.78,0,3.12-.17,8.81-0.17,6,0,7.8.17,8.36,0.17a0.48,0.48,0,0,0,.56-0.56V77.68a0.42,0.42,0,0,0-.33-0.5h-3.23c-1.34,0-1.89-1.11-1.89-5.35V42.12h1.56c2,0,7,.11,8.58,1,1.56,1.11,3.62,4.68,4.4,6.24,0.17,0.33.28,0.5,0.5,0.45l1.12-.39c0.17-.06.28-0.17,0.22-0.5-0.45-2.68-1.56-9.59-1.67-10.59-0.11-.67-0.22-0.89-0.56-0.89a1.84,1.84,0,0,0-1,.56,10.22,10.22,0,0,1-4,1.45c-2.56.11-4.91,0.33-11,.33h-3c-5.46,0-7.8-.22-10.81-0.33A5,5,0,0,1,290.26,38a1.33,1.33,0,0,0-.89-0.56c-0.22,0-.56.22-0.67,1S286.58,46.58,286,48.7a0.43,0.43,0,0,0,.22.56l1.12,0.39c0.28,0.11.45-.11,0.61-0.39,1.06-1.9,3.18-5.57,5-6.35,2.34-.78,6.35-0.78,8.14-0.78h1.56V56.06h0Zm38.29,3.68c1.78,0,4.46.11,6.47,0.33a3.41,3.41,0,0,1,2.79,2,23.57,23.57,0,0,1,.89,2.79c0.11,0.33.22,0.45,0.45,0.39l1.23-.22c0.33-.06.45-0.11,0.45-0.39-0.11-1.23-.33-3.9-0.33-6.13,0-1.45,0-5.13.11-6a0.32,0.32,0,0,0-.33-0.45l-1.45-.11a0.41,0.41,0,0,0-.45.45,8.89,8.89,0,0,1-.89,3.12,3.11,3.11,0,0,1-2.56,2,63,63,0,0,1-6.35.28L341,41.68l8.47,0.22a9.58,9.58,0,0,1,4.24,1.45c1.34,0.78,5.91,5.91,6.13,6.24a0.42,0.42,0,0,0,.5.28l1-.45c0.22-.11.28-0.28,0.17-0.61-0.22-.56-2.34-8.14-2.56-8.86a0.39,0.39,0,0,0-.45-0.33c-0.28,0-1.34.06-2.23,0.06-2.45,0-15.27.11-17.72,0.11H337c-4.57.06-6.58-.17-7.8-0.17-0.28,0-.33.11-0.33,0.39v1.45a0.32,0.32,0,0,0,.33.39h2.12c1.67,0,2.23.45,2.45,2,0.11,0.78.22,7.69,0.22,12.26V74.79c0,2.06-.22,2.4-2.79,2.4h-1.9c-0.45,0-.56.11-0.56,0.45V79a0.37,0.37,0,0,0,.45.45c1,0,3-.17,7.13-0.17,18.62,0,23,.17,23.52.17a1.18,1.18,0,0,0,1.23-.84l2.68-8.36a0.41,0.41,0,0,0-.11-0.56l-0.89-.56a0.45,0.45,0,0,0-.61.22c-1.06,1.34-4.18,5-5.18,5.91a9.51,9.51,0,0,1-4.57,1.9c-1.12.11-3.68,0.22-4.68,0.22a17.65,17.65,0,0,1-4.35-.45c-1.23-.33-2.23-1.45-2.23-4.35,0-1-.11-6.47-0.17-9.48l-0.06-3.34h0Zm30-1.9c0,4.24-.22,16.83-0.39,17.95a1.58,1.58,0,0,1-1.84,1.39h-3.23c-0.33,0-.45.11-0.45,0.33v1.39c0,0.39.11,0.5,0.33,0.5,0.78,0,3-.17,7.92-0.17,2.79,0,8.47.17,10.59,0.17,3.79,0,12.48-.06,17.95-6,3.68-4,5.46-8.25,5.46-14.6S404.69,47.7,401,44.69c-5.13-4.35-11.15-5.07-18.62-5.07-2.79,0-5.57.17-8.36,0.17-3.9,0-6.8-.17-8.42-0.17a0.42,0.42,0,0,0-.5.33v1.5a0.4,0.4,0,0,0,.45.39h3c1.12,0,1.89.22,2,1.56,0.11,0.84.33,8.75,0.33,10.2v4.24h0Zm7-2.79c0-.89,0-8.14.11-10.48a2.57,2.57,0,0,1,1-2.45,7.31,7.31,0,0,1,3.57-.56,17.72,17.72,0,0,1,12.49,5.24A19.5,19.5,0,0,1,399.57,59a21.06,21.06,0,0,1-4,12.71A14.62,14.62,0,0,1,384,77.29c-2.12,0-4.24-.45-4.91-1.5a5,5,0,0,1-1-3.12c0-3.46-.11-12.93-0.11-13.6v-4h0Zm47.27,1c0,1.11,0,18.17-.17,19.62a1.67,1.67,0,0,1-1.84,1.5H420a0.37,0.37,0,0,0-.39.45v1.28c0,0.39.11,0.5,0.45,0.5,0.78,0,3.12-.17,8.81-0.17,6,0,7.8.17,8.36,0.17a0.48,0.48,0,0,0,.56-0.56V77.68a0.42,0.42,0,0,0-.33-0.5h-3.23c-1.34,0-1.89-1.11-1.89-5.35V42.12h1.56c2,0,7,.11,8.58,1,1.56,1.11,3.62,4.68,4.4,6.24,0.17,0.33.28,0.5,0.5,0.45l1.11-.39c0.17-.06.28-0.17,0.22-0.5-0.45-2.68-1.56-9.59-1.67-10.59-0.11-.67-0.22-0.89-0.56-0.89a1.84,1.84,0,0,0-1,.56,10.23,10.23,0,0,1-4,1.45c-2.56.11-4.91,0.33-11,.33h-3c-5.46,0-7.8-.22-10.81-0.33A5,5,0,0,1,412.83,38a1.33,1.33,0,0,0-.89-0.56c-0.22,0-.56.22-0.67,1s-2.12,8.14-2.68,10.26a0.43,0.43,0,0,0,.22.56l1.12,0.39c0.28,0.11.45-.11,0.61-0.39,1.06-1.9,3.18-5.57,5-6.35,2.34-.78,6.35-0.78,8.14-0.78h1.56V56.06h0Zm38.29,3.68c1.78,0,4.46.11,6.47,0.33a3.41,3.41,0,0,1,2.79,2,23.62,23.62,0,0,1,.89,2.79c0.11,0.33.22,0.45,0.45,0.39l1.23-.22c0.33-.06.45-0.11,0.45-0.39-0.11-1.23-.33-3.9-0.33-6.13,0-1.45,0-5.13.11-6A0.32,0.32,0,0,0,475.2,52l-1.45-.11a0.41,0.41,0,0,0-.45.45,8.89,8.89,0,0,1-.89,3.12,3.11,3.11,0,0,1-2.56,2,63,63,0,0,1-6.35.28l0.11-16.11,8.47,0.22a9.58,9.58,0,0,1,4.24,1.45c1.34,0.78,5.91,5.91,6.13,6.24a0.42,0.42,0,0,0,.5.28l1-.45c0.22-.11.28-0.28,0.17-0.61-0.22-.56-2.34-8.14-2.56-8.86a0.39,0.39,0,0,0-.45-0.33c-0.28,0-1.34.06-2.23,0.06-2.45,0-15.27.11-17.72,0.11h-1.56c-4.57.06-6.58-.17-7.8-0.17-0.28,0-.33.11-0.33,0.39v1.45a0.32,0.32,0,0,0,.33.39h2.12c1.67,0,2.23.45,2.45,2,0.11,0.78.22,7.69,0.22,12.26V74.79c0,2.06-.22,2.4-2.79,2.4h-1.9c-0.45,0-.56.11-0.56,0.45V79a0.37,0.37,0,0,0,.45.45c1,0,3-.17,7.13-0.17,18.62,0,23,.17,23.52.17a1.18,1.18,0,0,0,1.23-.84l2.68-8.36a0.41,0.41,0,0,0-.11-0.56l-0.89-.56a0.45,0.45,0,0,0-.61.22c-1.06,1.34-4.18,5-5.18,5.91a9.51,9.51,0,0,1-4.57,1.9c-1.12.11-3.68,0.22-4.68,0.22a17.64,17.64,0,0,1-4.35-.45c-1.23-.33-2.23-1.45-2.23-4.35,0-1-.11-6.47-0.17-9.48l-0.06-3.34h0Zm36.29,1.9c0.61-.06,1.56-0.11,1.78-0.11,2.34,0,3.62,1.5,5,3.46,0.89,1.23,2.45,3.79,3,4.79s2.68,4.9,3.68,6.47a14.62,14.62,0,0,0,2.45,3.18c1.23-.06,3.34-0.17,4.91-0.17,3.57,0,5,.17,5.46.17s0.45-.17.45-0.56V77.68a0.37,0.37,0,0,0-.45-0.39,5.85,5.85,0,0,1-4-1.06,77.65,77.65,0,0,1-4.74-6.35c-0.45-.67-3.9-5.91-4.57-6.8a7.27,7.27,0,0,0-3.34-2.56V60.29c6.13-1,10.37-3.9,10.37-10.92a8.53,8.53,0,0,0-3-6.24,15,15,0,0,0-10.14-3.51c-1.67,0-6.8.17-9.92,0.17-5.46,0-7.25-.17-7.64-0.17a0.33,0.33,0,0,0-.39.39v1.5a0.31,0.31,0,0,0,.39.33h2.17c1,0,1.78.89,1.78,2.79V59.29c0,5.24,0,10.48-.11,16.05,0,1.5-.89,1.84-2.12,1.84H489a0.36,0.36,0,0,0-.34.45v1.28a0.41,0.41,0,0,0,.45.5c0.56,0,1.89-.17,7.36-0.17,5.8,0,6.91.17,7.64,0.17,0.45,0,.61-0.11.61-0.5V77.57a0.37,0.37,0,0,0-.45-0.39h-2.79c-0.89,0-1.28-1-1.45-2.12-0.11-.84-0.22-7.08-0.22-10.42v-3h0ZM500,43.57a1.91,1.91,0,0,1,.67-1.62,4,4,0,0,1,2-.33A10.66,10.66,0,0,1,510,44a8.78,8.78,0,0,1,2.45,6.24c0,2.56-1.78,9.59-10.48,9.59a15.2,15.2,0,0,1-2.12-.22L500,43.57h0Z" transform="translate(-81.97 -37.44)"/></svg>