<?xml version="1.0" encoding="UTF-8" standalone="no"?>
<!-- Created with Inkscape (http://www.inkscape.org/) -->

<svg
   xmlns:dc="http://purl.org/dc/elements/1.1/"
   xmlns:cc="http://creativecommons.org/ns#"
   xmlns:rdf="http://www.w3.org/1999/02/22-rdf-syntax-ns#"
   xmlns:svg="http://www.w3.org/2000/svg"
   xmlns="http://www.w3.org/2000/svg"
   xmlns:sodipodi="http://sodipodi.sourceforge.net/DTD/sodipodi-0.dtd"
   xmlns:inkscape="http://www.inkscape.org/namespaces/inkscape"
   width="1016.09"
   height="520"
   id="svg3271"
   version="1.1"
   inkscape:version="0.48.4 r9939"
   sodipodi:docname="Neues Dokument 3">
  <defs
     id="defs3273">
    <clipPath
       clipPathUnits="userSpaceOnUse"
       id="clipPath168">
      <path
         inkscape:connector-curvature="0"
         d="m 463.465,358.484 78.661,0 0,40.492 -78.661,0 0,-40.492 z"
         id="path170" />
    </clipPath>
  </defs>
  <sodipodi:namedview
     id="base"
     pagecolor="#ffffff"
     bordercolor="#666666"
     borderopacity="1.0"
     inkscape:pageopacity="0.0"
     inkscape:pageshadow="2"
     inkscape:zoom="1.55"
     inkscape:cx="508.04497"
     inkscape:cy="182.58065"
     inkscape:document-units="px"
     inkscape:current-layer="layer1"
     showgrid="false"
     fit-margin-top="0"
     fit-margin-left="0"
     fit-margin-right="0"
     fit-margin-bottom="0"
     inkscape:window-width="1680"
     inkscape:window-height="990"
     inkscape:window-x="-4"
     inkscape:window-y="-4"
     inkscape:window-maximized="1" />
  <metadata
     id="metadata3276">
    <rdf:RDF>
      <cc:Work
         rdf:about="">
        <dc:format>image/svg+xml</dc:format>
        <dc:type
           rdf:resource="http://purl.org/dc/dcmitype/StillImage" />
        <dc:title></dc:title>
      </cc:Work>
    </rdf:RDF>
  </metadata>
  <g
     inkscape:label="Ebene 1"
     inkscape:groupmode="layer"
     id="layer1"
     transform="translate(-223.48658,-134.99298)">
    <g
       id="g144"
       transform="matrix(13.808607,0,0,-13.808607,470.63665,326.59729)"
       style="fill:#e2011b;fill-opacity:1">
      <path
         d="m 0,0 -1.692,0 1.932,-5.446 -1.932,-5.446 1.692,0 1.932,5.446 L 0,0 z"
         style="fill:#e2011b;fill-opacity:1;fill-rule:nonzero;stroke:none"
         id="path146"
         inkscape:connector-curvature="0" />
    </g>
    <g
       id="g148"
       transform="matrix(13.808607,0,0,-13.808607,437.06925,326.59729)"
       style="fill:#e2011b;fill-opacity:1">
      <path
         d="m 0,0 -1.692,0 1.932,-5.446 -1.932,-5.446 1.692,0 1.932,5.446 L 0,0 z"
         style="fill:#e2011b;fill-opacity:1;fill-rule:nonzero;stroke:none"
         id="path150"
         inkscape:connector-curvature="0" />
    </g>
    <g
       id="g152"
       transform="matrix(13.808607,0,0,-13.808607,403.66347,326.59729)"
       style="fill:#e2011b;fill-opacity:1">
      <path
         d="m 0,0 -1.692,0 1.932,-5.446 -1.932,-5.446 1.692,0 1.932,5.446 L 0,0 z"
         style="fill:#e2011b;fill-opacity:1;fill-rule:nonzero;stroke:none"
         id="path154"
         inkscape:connector-curvature="0" />
    </g>
    <g
       id="g156"
       transform="matrix(13.808607,0,0,-13.808607,370.09475,326.59729)"
       style="fill:#e2011b;fill-opacity:1">
      <path
         d="m 0,0 -1.692,0 1.932,-5.446 -1.932,-5.446 1.692,0 1.932,5.446 L 0,0 z"
         style="fill:#e2011b;fill-opacity:1;fill-rule:nonzero;stroke:none"
         id="path158"
         inkscape:connector-curvature="0" />
    </g>
    <g
       id="g160"
       transform="matrix(13.808607,0,0,-13.808607,233.71674,144.99345)"
       style="fill:#e2011b;fill-opacity:1">
      <path
         d="m 0,0 8.896,0 0,-3.092 -4.025,0 0,-1.913 3.11,0 0,-3.091 -3.11,0 0,-3.825 -4.871,0 L 0,0 z"
         style="fill:#e2011b;fill-opacity:1;fill-rule:nonzero;stroke:none"
         id="path162"
         inkscape:connector-curvature="0" />
    </g>
    <g
       id="g164"
       transform="matrix(13.808607,0,0,-13.808607,-6210.9203,5614.7852)">
      <g
         id="g166"
         clip-path="url(#clipPath168)">
        <g
           id="g172"
           transform="translate(481.4085,396.1147)"
           style="fill:#e2011b;fill-opacity:1">
          <path
             d="m 0,0 0,-6.094 c 0,-0.948 0.046,-1.073 0.48,-1.073 0.435,0 0.504,0.125 0.504,1.073 l 0,6.094 4.734,0 0,-6.666 c 0,-1.841 -0.206,-2.753 -0.823,-3.593 -0.869,-1.215 -2.448,-1.894 -4.415,-1.894 -1.943,0 -3.521,0.679 -4.413,1.894 -0.595,0.84 -0.801,1.752 -0.801,3.593 L -4.734,0 0,0 z"
             style="fill:#e2011b;fill-opacity:1;fill-rule:nonzero;stroke:none"
             id="path174"
             inkscape:connector-curvature="0" />
        </g>
        <g
           id="g176"
           transform="translate(488.4196,396.1147)"
           style="fill:#e2011b;fill-opacity:1">
          <path
             d="m 0,0 3.545,0 1.944,-3.217 0,3.217 4.871,0 0,-11.921 -3.316,0 -2.173,3.575 0,-3.575 -4.871,0 L 0,0 z"
             style="fill:#e2011b;fill-opacity:1;fill-rule:nonzero;stroke:none"
             id="path178"
             inkscape:connector-curvature="0" />
        </g>
        <g
           id="g180"
           transform="translate(513.126,396.1147)"
           style="fill:#e2011b;fill-opacity:1">
          <path
             d="m 0,0 9.103,0 0,-3.092 -4.232,0 0,-1.323 2.973,0 0,-3.091 -2.973,0 0,-1.323 4.232,0 0,-3.092 -9.103,0 L 0,0 z"
             style="fill:#e2011b;fill-opacity:1;fill-rule:nonzero;stroke:none"
             id="path182"
             inkscape:connector-curvature="0" />
        </g>
        <g
           id="g184"
           transform="translate(500.1461,396.0793)"
           style="fill:#e2011b;fill-opacity:1">
          <path
             d="m 0,0 4.47,0 0,-4.012 3.007,4.012 4.779,0 -3.828,-4.701 4.008,-7.188 -4.856,0 -2.158,3.979 -0.952,-1.364 0,-2.615 -4.47,0 L 0,0 z"
             style="fill:#e2011b;fill-opacity:1;fill-rule:nonzero;stroke:none"
             id="path186"
             inkscape:connector-curvature="0" />
        </g>
        <g
           id="g188"
           transform="translate(488.2095,380.3854)"
           style="fill:#1b191d;fill-opacity:1">
          <path
             d="m 0,0 -1.241,-7.84 0,-0.083 c 0,-0.042 0,-0.186 0.02,-0.393 l -0.972,0 c 0.062,0.228 0.104,0.393 0.124,0.496 l 1.552,9.847 c 0,0.042 0.021,0.104 0.021,0.145 0,0.083 -0.021,0.186 -0.021,0.311 l 1.634,0 c 0,-0.166 0.021,-0.29 0.062,-0.414 L 4.055,-6.33 6.971,2.11 C 7.013,2.214 7.013,2.317 7.013,2.4 l 0,0.083 1.634,0 0,-0.228 0,-0.145 1.448,-9.95 c 0.021,-0.104 0.062,-0.269 0.125,-0.476 l -1.945,0 c 0.02,0.083 0.041,0.166 0.041,0.228 0,0.061 0,0.123 -0.021,0.207 L 7.157,0.186 4.406,-7.84 C 4.344,-8.006 4.324,-8.13 4.324,-8.233 l 0,-0.083 -1.531,0 c 0.02,0.041 0.02,0.062 0.02,0.083 0,0.083 -0.02,0.186 -0.062,0.31 L 0,0 z"
             style="fill:#1b191d;fill-opacity:1;fill-rule:evenodd;stroke:none"
             id="path190"
             inkscape:connector-curvature="0" />
        </g>
        <g
           id="g192"
           transform="translate(500.0216,382.8679)"
           style="fill:#1b191d;fill-opacity:1">
          <path
             d="m 0,0 5.606,0 0,-0.869 c -0.165,0.041 -0.331,0.083 -0.517,0.083 l -3.207,0 0,-4.116 3.124,0 c 0.227,0 0.435,0.02 0.6,0.061 l 0,-0.889 c -0.145,0.041 -0.331,0.062 -0.579,0.062 l -3.145,0 0,-4.262 3.124,0 c 0.166,0 0.373,0.021 0.6,0.062 l 0,-0.931 -5.606,0 c 0.041,0.145 0.062,0.311 0.062,0.497 l 0,9.785 C 0.062,-0.289 0.041,-0.124 0,0"
             style="fill:#1b191d;fill-opacity:1;fill-rule:evenodd;stroke:none"
             id="path194"
             inkscape:connector-curvature="0" />
        </g>
        <g
           id="g196"
           transform="translate(507.5516,382.8679)"
           style="fill:#1b191d;fill-opacity:1">
          <path
             d="m 0,0 3.331,0 c 1.22,0 2.275,-0.248 3.144,-0.745 0.786,-0.455 1.386,-1.076 1.779,-1.882 0.393,-0.807 0.6,-1.697 0.6,-2.689 0,-1.49 -0.393,-2.731 -1.2,-3.703 -0.993,-1.2 -2.275,-1.78 -3.847,-1.78 l -3.807,0 c 0.041,0.145 0.062,0.332 0.062,0.517 l 0,9.786 C 0.062,-0.31 0.041,-0.145 0,0 m 1.862,-9.888 1.469,0 c 0.972,0 1.737,0.289 2.317,0.869 0.392,0.393 0.683,0.848 0.889,1.386 0.249,0.744 0.393,1.51 0.393,2.337 0,1.697 -0.538,2.917 -1.614,3.703 -0.62,0.476 -1.386,0.703 -2.254,0.703 l -1.2,0 0,-8.998 z"
             style="fill:#1b191d;fill-opacity:1;fill-rule:evenodd;stroke:none"
             id="path198"
             inkscape:connector-curvature="0" />
        </g>
        <g
           id="g200"
           transform="translate(518.2881,382.8679)"
           style="fill:#1b191d;fill-opacity:1">
          <path
             d="M 0,0 1.965,0 C 1.924,-0.124 1.882,-0.289 1.882,-0.517 l 0,-9.765 c 0,-0.227 0.042,-0.392 0.083,-0.517 l -1.965,0 c 0.062,0.145 0.083,0.332 0.083,0.517 l 0,9.786 C 0.083,-0.331 0.062,-0.145 0,0"
             style="fill:#1b191d;fill-opacity:1;fill-rule:evenodd;stroke:none"
             id="path202"
             inkscape:connector-curvature="0" />
        </g>
        <g
           id="g204"
           transform="translate(522.6323,382.8679)"
           style="fill:#1b191d;fill-opacity:1">
          <path
             d="m 0,0 5.606,0 0,-0.869 c -0.165,0.041 -0.331,0.083 -0.517,0.083 l -3.227,0 0,-4.116 3.144,0 c 0.228,0 0.414,0.02 0.6,0.061 l 0,-0.889 c -0.145,0.041 -0.351,0.062 -0.579,0.062 l -3.165,0 0,-4.262 3.144,0 c 0.166,0 0.372,0.021 0.6,0.062 l 0,-0.931 -5.606,0 c 0.042,0.145 0.062,0.311 0.062,0.497 l 0,9.785 C 0.062,-0.289 0.042,-0.124 0,0"
             style="fill:#1b191d;fill-opacity:1;fill-rule:evenodd;stroke:none"
             id="path206"
             inkscape:connector-curvature="0" />
        </g>
        <g
           id="g208"
           transform="translate(531.0105,380.8821)"
           style="fill:#1b191d;fill-opacity:1">
          <path
             d="m 0,0 0,-8.295 c 0,-0.207 0.021,-0.373 0.062,-0.518 l -0.952,0 c 0.042,0.145 0.062,0.331 0.062,0.518 l 0,9.764 c 0,0.206 -0.02,0.372 -0.062,0.517 l 1.718,0 C 0.848,1.882 0.91,1.758 1.014,1.613 l 5.916,-8.254 0,8.11 c 0,0.186 -0.041,0.351 -0.083,0.517 l 0.973,0 C 7.778,1.862 7.757,1.696 7.737,1.469 l 0,-9.806 c 0.02,-0.207 0.041,-0.372 0.083,-0.476 l -1.573,0 C 6.206,-8.73 6.144,-8.606 5.999,-8.42 L 0,0 z"
             style="fill:#1b191d;fill-opacity:1;fill-rule:evenodd;stroke:none"
             id="path210"
             inkscape:connector-curvature="0" />
        </g>
        <g
           id="g212"
           transform="translate(475.2388,370.4559)"
           style="fill:#1b191d;fill-opacity:1">
          <path
             d="m 0,0 0,-1.345 c -0.993,0.683 -1.965,1.014 -2.938,1.014 -1.055,0 -1.903,-0.352 -2.565,-1.076 -0.393,-0.434 -0.682,-0.931 -0.827,-1.469 -0.186,-0.662 -0.269,-1.386 -0.269,-2.172 0,-1.613 0.352,-2.813 1.076,-3.62 0.62,-0.662 1.427,-0.993 2.42,-0.993 0.579,0 1.138,0.145 1.676,0.455 l 0,4.22 c 0,0.187 -0.021,0.352 -0.063,0.517 l 1.883,0 C 0.352,-4.634 0.331,-4.799 0.331,-4.986 l 0,-4.157 c 0,-0.249 0.041,-0.477 0.104,-0.663 -0.973,-0.31 -1.676,-0.517 -2.131,-0.6 -0.435,-0.103 -0.973,-0.144 -1.593,-0.144 -1.138,0 -2.048,0.207 -2.772,0.6 -0.848,0.475 -1.49,1.199 -1.924,2.13 -0.373,0.807 -0.559,1.738 -0.559,2.814 0,1.882 0.579,3.33 1.759,4.344 0.951,0.827 2.192,1.241 3.765,1.241 C -2.069,0.579 -1.055,0.393 0,0"
             style="fill:#1b191d;fill-opacity:1;fill-rule:evenodd;stroke:none"
             id="path214"
             inkscape:connector-curvature="0" />
        </g>
        <g
           id="g216"
           transform="translate(479.5831,365.0772)"
           style="fill:#1b191d;fill-opacity:1">
          <path
             d="m 0,0 0,-4.489 c 0,-0.186 0.021,-0.352 0.062,-0.517 l -1.965,0 c 0.062,0.145 0.082,0.31 0.082,0.517 l 0,9.785 c 0,0.186 -0.02,0.352 -0.082,0.517 l 3.289,0 C 2.151,5.813 2.793,5.648 3.372,5.337 3.806,5.089 4.158,4.758 4.406,4.344 4.654,3.91 4.799,3.434 4.799,2.876 4.799,1.676 4.22,0.848 3.082,0.414 2.772,0.289 2.358,0.186 1.882,0.104 L 5.42,-4.572 c 0.145,-0.207 0.29,-0.351 0.434,-0.434 l -2.358,0 C 3.455,-4.841 3.372,-4.696 3.268,-4.53 L 0,0 z m -0.021,0.621 0.849,0 c 0.475,0 0.91,0.124 1.261,0.372 0.58,0.414 0.869,1.014 0.869,1.82 0,0.724 -0.248,1.304 -0.724,1.738 -0.372,0.31 -0.869,0.476 -1.51,0.476 l -0.745,0 0,-4.406 z"
             style="fill:#1b191d;fill-opacity:1;fill-rule:evenodd;stroke:none"
             id="path218"
             inkscape:connector-curvature="0" />
        </g>
        <g
           id="g220"
           transform="translate(494.8087,370.8904)"
           style="fill:#1b191d;fill-opacity:1">
          <path
             d="m 0,0 c -0.041,-0.145 -0.062,-0.331 -0.062,-0.538 l 0,-6.702 c 0,-0.87 -0.207,-1.593 -0.621,-2.193 -0.413,-0.6 -0.951,-1.014 -1.634,-1.241 -0.641,-0.208 -1.345,-0.311 -2.11,-0.311 -1.096,0 -1.965,0.207 -2.586,0.6 -0.497,0.331 -0.889,0.745 -1.179,1.283 -0.269,0.538 -0.414,1.137 -0.414,1.779 l 0,6.785 c 0,0.207 -0.021,0.372 -0.062,0.538 l 1.945,0 c -0.042,-0.166 -0.083,-0.331 -0.083,-0.517 l 0,-6.847 c 0,-0.642 0.165,-1.18 0.455,-1.635 0.496,-0.724 1.303,-1.096 2.441,-1.096 0.972,0 1.717,0.248 2.255,0.765 0.517,0.517 0.786,1.262 0.786,2.214 l 0,6.578 c 0,0.227 -0.041,0.393 -0.082,0.538 L 0,0 z"
             style="fill:#1b191d;fill-opacity:1;fill-rule:evenodd;stroke:none"
             id="path222"
             inkscape:connector-curvature="0" />
        </g>
        <g
           id="g224"
           transform="translate(498.863,364.7256)"
           style="fill:#1b191d;fill-opacity:1">
          <path
             d="m 0,0 0,-4.137 c 0,-0.145 0.042,-0.332 0.083,-0.517 l -1.965,0 c 0.062,0.165 0.082,0.33 0.082,0.517 l 0,9.764 c 0,0.207 -0.02,0.372 -0.082,0.538 l 3.475,0 C 2.441,6.165 3.144,5.979 3.745,5.648 4.634,5.13 5.089,4.303 5.089,3.165 5.089,1.924 4.531,1.034 3.434,0.476 2.814,0.145 2.048,0 1.158,0 L 0,0 z m 0,0.827 0.973,0 c 0.517,0 0.951,0.083 1.282,0.29 0.289,0.186 0.538,0.455 0.724,0.828 0.186,0.351 0.269,0.765 0.269,1.199 0,0.683 -0.186,1.221 -0.579,1.634 -0.373,0.373 -0.89,0.58 -1.552,0.58 L 0,5.358 0,0.827 z"
             style="fill:#1b191d;fill-opacity:1;fill-rule:evenodd;stroke:none"
             id="path226"
             inkscape:connector-curvature="0" />
        </g>
        <g
           id="g228"
           transform="translate(507.2207,364.7256)"
           style="fill:#1b191d;fill-opacity:1">
          <path
             d="m 0,0 0,-4.137 c 0,-0.145 0.021,-0.332 0.082,-0.517 l -1.964,0 c 0.041,0.165 0.082,0.33 0.082,0.517 l 0,9.764 c 0,0.207 -0.041,0.372 -0.082,0.538 l 3.475,0 C 2.42,6.165 3.144,5.979 3.724,5.648 4.634,5.13 5.068,4.303 5.068,3.165 5.068,1.924 4.53,1.034 3.434,0.476 2.793,0.145 2.027,0 1.138,0 L 0,0 z m 0,0.827 0.972,0 c 0.517,0 0.952,0.083 1.262,0.29 0.31,0.186 0.559,0.455 0.724,0.828 0.186,0.351 0.29,0.765 0.29,1.199 0,0.683 -0.207,1.221 -0.58,1.634 -0.372,0.373 -0.889,0.58 -1.551,0.58 L 0,5.358 0,0.827 z"
             style="fill:#1b191d;fill-opacity:1;fill-rule:evenodd;stroke:none"
             id="path230"
             inkscape:connector-curvature="0" />
        </g>
        <g
           id="g232"
           transform="translate(513.6957,370.8904)"
           style="fill:#1b191d;fill-opacity:1">
          <path
             d="m 0,0 5.606,0 0,-0.89 C 5.44,-0.828 5.275,-0.807 5.089,-0.807 l -3.207,0 0,-4.117 3.124,0 c 0.228,0 0.434,0.021 0.6,0.063 l 0,-0.869 c -0.145,0.02 -0.331,0.041 -0.579,0.041 l -3.145,0 0,-4.262 3.124,0 c 0.165,0 0.372,0.021 0.6,0.083 l 0,-0.951 -5.606,0 c 0.041,0.165 0.062,0.331 0.062,0.517 l 0,9.764 C 0.062,-0.311 0.041,-0.145 0,0"
             style="fill:#1b191d;fill-opacity:1;fill-rule:evenodd;stroke:none"
             id="path234"
             inkscape:connector-curvature="0" />
        </g>
      </g>
    </g>
  </g>
</svg>
