<svg xmlns="http://www.w3.org/2000/svg" xmlns:xlink="http://www.w3.org/1999/xlink" version="1.1" style="" xml:space="preserve" width="296" height="50" viewBox="0 0 296 50">
<rect id="backgroundrect" width="100%" height="100%" x="0" y="0" fill="none" stroke="none"/>
<style type="text/css">
	.st0{fill:url(#SVGID_1_);}
</style>

<g class="currentLayer" style=""><title>Layer 1</title><g id="svg_1" class="">
	<linearGradient id="SVGID_1_" gradientUnits="userSpaceOnUse" x1="25.399599075317383" y1="63.60749816894531" x2="227.9268035888672" y2="63.60749816894531" transform="translate(-22.17500114440918,-17.604999542236328) ">
		<stop offset="3.463670e-04" style="stop-color:#C3CFD3"/>
		<stop offset="0.125" style="stop-color:#60A4B2"/>
		<stop offset="0.25" style="stop-color:#7BB375"/>
		<stop offset="0.375" style="stop-color:#375BA2"/>
		<stop offset="0.5" style="stop-color:#B53E87"/>
		<stop offset="0.625" style="stop-color:#D43820"/>
		<stop offset="0.75" style="stop-color:#F7AE38"/>
		<stop offset="0.875" style="stop-color:#8D9461"/>
	</linearGradient>
	<rect x="3.2249984741210938" y="42.17599868774414" class="st0" width="202.52699279785156" height="7.6539998054504395" id="svg_2"/>
	<g id="svg_3">
		<path id="Shape-15_3_" d="M11.69999885559082,4.5776367230132564e-7 c1.8,0 2.9,1 2.9,2.5 c0,1.4 -1,2.5 -2.4,2.5 c-0.1,0 -0.1,0 -0.2,0 c-2.3,0 -2.9,0.7000000000000001 -2.9,3 v1.8 c0,0.2 0.1,0.30000000000000004 0.30000000000000004,0.30000000000000004 c0,0 0,0 0.1,0 h2.8 c1.2,-0.1 2.2,0.8 2.3,2 c0,0.1 0,0.1 0,0.2 c0,1.2 -0.9,2.1 -2,2.2 c-0.1,0 -0.2,0 -0.30000000000000004,0 h-2.9 c-0.2,0 -0.30000000000000004,0.1 -0.30000000000000004,0.30000000000000004 c0,0 0,0 0,0.1 v17 c0.1,1.5 -1,2.8 -2.5,3 c-0.1,0 -0.2,0 -0.4,0 c-1.5,0.1 -2.8,-1.1 -2.9,-2.6 c0,-0.1 0,-0.30000000000000004 0,-0.4 v-17.1 c0,-0.2 -0.2,-0.30000000000000004 -0.4,-0.30000000000000004 h-0.6000000000000001 c-1.2,0.1 -2.2,-0.7000000000000001 -2.3,-1.9 c0,-0.1 0,-0.2 0,-0.30000000000000004 c0,-1.2 0.9,-2.2 2.1,-2.2 c0.1,0 0.1,0 0.2,0 h0.8 c0.2,0 0.4,-0.1 0.4,-0.30000000000000004 v-1.6 c0,-5.9 2.5,-8.1 8,-8.1 L11.69999885559082,4.5776367230132564e-7 L11.69999885559082,4.5776367230132564e-7 z"/>
		<path id="Shape-16_3_" d="M33.09999885559082,32.20000045776367 L33.09999885559082,32.20000045776367 c-1.5,1.9 -3.9,3 -6.4,2.9 c-5.2,0 -8.3,-3.8 -8.3,-9.1 v-13.1 c-0.2,-1.5 0.9,-2.8 2.4,-3 c0.1,0 0.30000000000000004,0 0.4,0 c1.5,-0.1 2.8,1.1 2.9,2.6 c0,0.1 0,0.30000000000000004 0,0.4 v11.9 c0,3.1 1.4,5.3 4.5,5.3 c3,0 4.6,-2.2 4.6,-5.3 v-11.9 c-0.2,-1.5 0.9,-2.8 2.4,-3 c0.1,0 0.30000000000000004,0 0.4,0 c1.5,-0.1 2.8,1.1 2.9,2.6 c0,0.1 0,0.30000000000000004 0,0.4 v18.9 c0.2,1.5 -0.9,2.8 -2.4,3 c-0.1,0 -0.30000000000000004,0 -0.4,0 C34.59999885559082,34.80000045776367 33.29999885559082,33.70000045776367 33.09999885559082,32.20000045776367 z"/>
		<path id="Shape-17_3_" d="M45.39999885559082,14.500000457763669 c-1.2,0.1 -2.2,-0.7000000000000001 -2.3,-1.9 c0,-0.1 0,-0.2 0,-0.30000000000000004 c0,-1.2 0.9,-2.2 2.1,-2.2 c0.1,0 0.1,0 0.2,0 h0.7000000000000001 c0.2,0 0.4,-0.1 0.4,-0.30000000000000004 v-4.5 c0,-1.6 1.3,-2.8 2.8,-2.8 s2.8,1.3 2.8,2.8 v4.5 c0,0.2 0.1,0.30000000000000004 0.30000000000000004,0.30000000000000004 c0,0 0,0 0.1,0 h2.6 c1.2,-0.1 2.2,0.8 2.3,2 c0,0.1 0,0.1 0,0.2 c0,1.2 -0.9,2.1 -2,2.2 c-0.1,0 -0.2,0 -0.30000000000000004,0 h-2.6 c-0.2,0 -0.30000000000000004,0.1 -0.30000000000000004,0.30000000000000004 c0,0 0,0 0,0.1 v12.2 c0,2 0.5,2.6 2.6,2.8 c1.4,0 2.5,1.1 2.6,2.5 c0,0 0,0 0,0.1 c0,1.4 -1,2.5 -3,2.5 h-0.4 c-5.3,0 -7.3,-2.4 -7.3,-7.7 v-12.4 c0,-0.2 -0.2,-0.30000000000000004 -0.4,-0.30000000000000004 L45.39999885559082,14.500000457763669 L45.39999885559082,14.500000457763669 z"/>
		<path id="Shape-18_3_" d="M76.69999885559082,32.20000045776367 L76.69999885559082,32.20000045776367 c-1.5,1.9 -3.9,3 -6.4,2.9 c-5.2,0 -8.3,-3.8 -8.3,-9.1 v-13.1 c-0.2,-1.5 0.9,-2.8 2.4,-3 c0.1,0 0.30000000000000004,0 0.4,0 c1.5,-0.1 2.8,1.1 2.9,2.6 c0,0.1 0,0.30000000000000004 0,0.4 v11.9 c0,3.1 1.4,5.3 4.5,5.3 c2.9,0 4.6,-2.2 4.6,-5.3 v-11.9 c-0.2,-1.5 0.9,-2.8 2.4,-3 c0.1,0 0.30000000000000004,0 0.4,0 c1.5,-0.1 2.8,1.1 2.9,2.6 c0,0.1 0,0.30000000000000004 0,0.4 v18.9 c0.2,1.5 -0.9,2.8 -2.4,3 c-0.1,0 -0.30000000000000004,0 -0.4,0 C78.19999885559082,34.80000045776367 76.89999885559082,33.70000045776367 76.69999885559082,32.20000045776367 z"/>
		<path id="Shape-19_3_" d="M94.29999885559081,12.90000045776367 L94.29999885559081,12.90000045776367 c1.3,-2.2 3.7,-3.4 6.2,-3.4 c1.1,0 2.1,0.2 3.1,0.6000000000000001 c0.9,0.4 1.5,1.3 1.5,2.3 c0.1,1.5 -1.1,2.8 -2.6,2.9 c-0.1,0 -0.1,0 -0.2,0 c-0.4,0 -0.9,-0.1 -1.3,-0.30000000000000004 c-0.7000000000000001,-0.30000000000000004 -1.5,-0.4 -2.2,-0.4 c-3.1,0 -4.4,2.5 -4.4,6.2 v10.9 c0.2,1.5 -0.9,2.8 -2.4,3 c-0.1,0 -0.30000000000000004,0 -0.4,0 c-1.5,0 -2.8,-1.2 -2.8,-2.7 c0,-0.1 0,-0.2 0,-0.30000000000000004 v-19 c-0.2,-1.5 0.9,-2.8 2.4,-3 c0.1,0 0.30000000000000004,0 0.4,0 c1.5,-0.1 2.8,1.1 2.9,2.6 c0,0.1 0,0.30000000000000004 0,0.4 v0.2 H94.29999885559081 z"/>
		<path id="Shape-20_3_" d="M108.39999885559081,28.300000457763673 c-0.6000000000000001,-1.9 -0.9,-4 -0.9,-6 s0.2,-4.1 0.8,-6 c1.3,-4.3 5.1,-6.7 9.9,-6.7 c5,0 8.6,2.6 10,6.7 c0.6000000000000001,1.9 0.8,3.9 0.8,5.9 c0.1,1 -0.7000000000000001,1.9 -1.7000000000000002,2 c-0.1,0 -0.2,0 -0.30000000000000004,0 h-13.6 c-0.2,0 -0.30000000000000004,0.1 -0.30000000000000004,0.30000000000000004 c0,0 0,0 0,0.1 c0,0.6000000000000001 0.1,1.3 0.4,1.9 c0.7000000000000001,2.3 3,3.9 5.5,3.7 c1.8,0 3.6,-0.6000000000000001 5,-1.7000000000000002 c0.6000000000000001,-0.5 1.3,-0.8 2.1,-0.8 c1.2,-0.1 2.3,0.9 2.4,2.2 c0,0.1 0,0.1 0,0.2 c0,0.9 -0.4,1.7000000000000002 -1.2,2.2 c-2.5,2.1 -5.6,3.1 -8.8,3 C113.39999885559081,35.10000045776367 109.79999885559081,32.60000045776367 108.39999885559081,28.300000457763673 zM122.99999885559083,17.50000045776367 c-0.7000000000000001,-2 -2.6,-3.3 -4.7,-3.1 c-2.1,-0.1 -4,1.2 -4.7,3.1 c-0.2,0.7000000000000001 -0.30000000000000004,1.4 -0.30000000000000004,2.1 c0,0.2 0.1,0.30000000000000004 0.30000000000000004,0.30000000000000004 c0,0 0,0 0.1,0 h9.5 c0.2,0 0.30000000000000004,-0.1 0.30000000000000004,-0.30000000000000004 c0,0 0,0 0,-0.1 C123.39999885559081,18.800000457763673 123.29999885559081,18.10000045776367 122.99999885559083,17.50000045776367 L122.99999885559083,17.50000045776367 z"/>
		<path id="Shape-21_3_" d="M135.69999885559082,34.50000045776367 c-1.3,0.1 -2.5,-0.9 -2.6,-2.2 c0,-0.1 0,-0.2 0,-0.30000000000000004 c0,-1.1 0.6000000000000001,-2.1 1.8,-3.5 l11.2,-13.4 v-0.1 h-9.6 c-1.3,0.1 -2.5,-0.9 -2.6,-2.2 c0,-0.1 0,-0.2 0,-0.30000000000000004 c0,-1.3 1,-2.4 2.3,-2.5 c0.1,0 0.2,0 0.30000000000000004,0 h14.3 c1.3,-0.1 2.5,0.9 2.6,2.2 c0,0.1 0,0.2 0,0.30000000000000004 c0,1.1 -0.5,2.1 -1.8,3.6 l-11,13.3 v0.1 h10.2 c1.4,0 2.5,1.1 2.5,2.5 s-1.1,2.5 -2.5,2.5 L135.69999885559082,34.50000045776367 z"/>
		<path id="Shape-22_3_" d="M158.29999885559081,28.300000457763673 c-0.6000000000000001,-1.9 -0.9,-4 -0.8,-6 c-0.1,-2 0.2,-4.1 0.8,-6 c1.3,-4.3 5.1,-6.7 10,-6.7 s8.6,2.5 10,6.7 c0.6000000000000001,1.9 0.9,4 0.8,6 c0.1,2 -0.2,4.1 -0.8,6 c-1.3,4.3 -5.1,6.7 -10,6.7 S159.69999885559082,32.60000045776367 158.29999885559081,28.300000457763673 zM172.79999885559081,26.800000457763673 c0.4,-1.5 0.6000000000000001,-3 0.5,-4.5 c0.1,-1.5 -0.1,-3.1 -0.5,-4.5 c-0.6000000000000001,-2 -2.5,-3.3 -4.6,-3.2 c-2.1,-0.1 -4,1.2 -4.6,3.2 c-0.4,1.5 -0.6000000000000001,3 -0.5,4.5 c-0.1,1.5 0.1,3.1 0.5,4.5 c0.6000000000000001,2 2.5,3.3 4.6,3.2 C170.3999988555908,30.10000045776367 172.19999885559082,28.800000457763673 172.79999885559081,26.800000457763673 z"/>
		<path id="Shape-23_3_" d="M190.79999885559081,12.40000045776367 c1.5,-1.9 3.9,-3 6.4,-2.9 c5.2,0 8.4,3.8 8.4,9.1 v13.2 c0.2,1.5 -0.9,2.8 -2.4,3 c-0.1,0 -0.30000000000000004,0 -0.4,0 c-1.5,0.1 -2.8,-1.1 -2.9,-2.6 c0,-0.1 0,-0.30000000000000004 0,-0.4 v-11.9 c0,-3.1 -1.5,-5.3 -4.6,-5.3 c-2.9,0 -4.6,2.2 -4.6,5.3 v11.9 c0.2,1.5 -0.9,2.8 -2.4,3 c-0.1,0 -0.30000000000000004,0 -0.4,0 c-1.5,0.1 -2.8,-1.1 -2.9,-2.6 c0,-0.1 0,-0.30000000000000004 0,-0.4 v-19 c-0.2,-1.5 0.9,-2.8 2.4,-3 c0.1,0 0.30000000000000004,0 0.4,0 C189.3999988555908,9.700000457763672 190.69999885559082,10.800000457763673 190.79999885559081,12.40000045776367 L190.79999885559081,12.40000045776367 z"/>
		<path id="Shape-24_3_" d="M212.19999885559082,28.300000457763673 c-0.6000000000000001,-1.9 -0.9,-4 -0.9,-6 s0.2,-4.1 0.8,-6 c1.3,-4.3 5.1,-6.7 9.9,-6.7 c5,0 8.6,2.6 10,6.7 c0.6000000000000001,1.9 0.8,3.9 0.8,5.9 c0.1,1 -0.7000000000000001,1.9 -1.7000000000000002,2 c-0.1,0 -0.2,0 -0.30000000000000004,0 h-13.6 c-0.2,0 -0.30000000000000004,0.1 -0.30000000000000004,0.30000000000000004 c0,0 0,0 0,0.1 c0,0.6000000000000001 0.1,1.3 0.4,1.9 c0.7000000000000001,2.3 3,3.9 5.5,3.7 c1.8,0 3.6,-0.6000000000000001 5,-1.7000000000000002 c0.6000000000000001,-0.5 1.3,-0.8 2.1,-0.8 c1.2,-0.1 2.3,0.9 2.4,2.2 c0,0.1 0,0.1 0,0.2 c0,0.9 -0.4,1.7000000000000002 -1.2,2.2 c-2.5,2.1 -5.6,3.1 -8.8,3 C217.19999885559082,35.10000045776367 213.59999885559083,32.60000045776367 212.19999885559082,28.300000457763673 zM226.8999988555908,17.50000045776367 c-0.7000000000000001,-2 -2.6,-3.3 -4.7,-3.1 c-2.1,-0.1 -4.1,1.1 -4.8,3.1 c-0.2,0.7000000000000001 -0.30000000000000004,1.4 -0.30000000000000004,2.1 c0,0.2 0.1,0.30000000000000004 0.30000000000000004,0.30000000000000004 c0,0 0,0 0.1,0 h9.5 c0.2,0 0.30000000000000004,-0.1 0.30000000000000004,-0.30000000000000004 c0,0 0,0 0,-0.1 C227.19999885559082,18.800000457763673 227.09999885559083,18.10000045776367 226.8999988555908,17.50000045776367 L226.8999988555908,17.50000045776367 z"/>
		<path id="Shape-26_3_" d="M268.29999885559084,2.800000457763673 v29 c0.2,1.5 -0.9,2.8 -2.4,3 c-0.1,0 -0.30000000000000004,0 -0.4,0 c-1.5,0 -2.8,-1.1 -2.8,-2.6 l0,0 c-1.2,1.7000000000000002 -3.1,2.9 -6.5,2.9 c-3.9,0.1 -7.3,-2.5 -8.3,-6.2 c-0.6000000000000001,-2.1 -0.9,-4.4 -0.9,-6.6 c-0.1,-2.2 0.2,-4.4 0.9,-6.6 c1,-3.7 4.4,-6.3 8.3,-6.2 c3.4,0 5.5,1.3 6.5,2.9 l0,0 v-9.6 c0,-1.6 1.3,-2.8 2.8,-2.8 C266.9989988555908,4.5776367230132564e-7 268.29999885559084,1.2000004577636716 268.29999885559084,2.800000457763673 L268.29999885559084,2.800000457763673 L268.29999885559084,2.800000457763673 zM253.19999885559082,17.800000457763673 c-0.4,1.5 -0.6000000000000001,3 -0.5,4.5 c0,1.5 0.1,3 0.5,4.5 c0.5,2 2.4,3.4 4.5,3.2 c2.1,0.1 4,-1.2 4.5,-3.2 c0.4,-1.5 0.6000000000000001,-3 0.5,-4.5 c0,-1.5 -0.1,-3 -0.5,-4.5 c-0.9,-2.5 -3.6,-3.8 -6.1,-2.9 C254.79999885559084,15.400000457763674 253.69999885559082,16.50000045776367 253.19999885559082,17.800000457763673 L253.19999885559082,17.800000457763673 z"/>
		<path id="Shape-27_3_" d="M275.1999988555908,28.300000457763673 c-0.6000000000000001,-1.9 -0.9,-4 -0.9,-6 s0.2,-4.1 0.8,-6 c1.3,-4.3 5.1,-6.7 9.9,-6.7 c5,0 8.6,2.6 10,6.7 c0.6000000000000001,1.9 0.8,3.9 0.8,5.9 c0.1,1 -0.7000000000000001,1.9 -1.7000000000000002,2 c-0.1,0 -0.2,0 -0.30000000000000004,0 h-13.6 c-0.2,0 -0.30000000000000004,0.1 -0.30000000000000004,0.30000000000000004 c0,0 0,0 0,0.1 c0,0.6000000000000001 0.1,1.3 0.4,1.9 c0.7000000000000001,2.3 3,3.9 5.5,3.7 c1.8,0 3.6,-0.6000000000000001 5,-1.7000000000000002 c0.6000000000000001,-0.5 1.3,-0.8 2.1,-0.8 c1.2,-0.1 2.3,0.9 2.4,2.2 c0,0.1 0,0.1 0,0.2 c0,0.9 -0.4,1.7000000000000002 -1.2,2.2 c-2.5,2.1 -5.6,3.1 -8.8,3 C280.0999988555908,35.10000045776367 276.5999988555908,32.60000045776367 275.1999988555908,28.300000457763673 zM289.79999885559084,17.50000045776367 c-0.7000000000000001,-2 -2.6,-3.3 -4.7,-3.1 c-2.1,-0.1 -4.1,1.1 -4.8,3.1 c-0.2,0.7000000000000001 -0.30000000000000004,1.4 -0.30000000000000004,2.1 c0,0.2 0.1,0.30000000000000004 0.30000000000000004,0.30000000000000004 c0,0 0,0 0.1,0 h9.5 c0.2,0 0.30000000000000004,-0.1 0.30000000000000004,-0.30000000000000004 c0,0 0,0 0,-0.1 C290.0999988555908,18.800000457763673 289.9989988555908,18.10000045776367 289.79999885559084,17.50000045776367 L289.79999885559084,17.50000045776367 z"/>
		<path id="Shape-25_2_" d="M240.3999988555908,27.800000457763673 c2,0 3.6,1.6 3.6,3.6 s-1.6,3.6 -3.6,3.6 s-3.6,-1.6 -3.6,-3.6 l0,0 C236.8999988555908,29.400000457763674 238.3999988555908,27.800000457763673 240.3999988555908,27.800000457763673 z"/>
	</g>
	<g id="svg_4">
		<path d="M212.3469988555908,42.93700045776367 c0,-0.42900000000000005 0.265,-0.7150000000000001 0.7040000000000001,-0.7150000000000001 h1.771 c1.596,0 2.585,0.506 2.981,1.727 c0.14300000000000002,0.42900000000000005 0.22000000000000003,0.9460000000000001 0.22000000000000003,2.013 c0,1.067 -0.07700000000000001,1.584 -0.22000000000000003,2.014 c-0.3960000000000001,1.221 -1.3860000000000001,1.727 -2.981,1.727 h-1.771 c-0.43900000000000006,0 -0.7040000000000001,-0.275 -0.7040000000000001,-0.7040000000000001 V42.93700045776367 zM214.02999885559083,48.262000457763676 h0.7480000000000001 c0.7480000000000001,0 1.287,-0.253 1.475,-0.8470000000000001 c0.07600000000000001,-0.253 0.132,-0.6930000000000002 0.132,-1.453 c0,-0.7590000000000001 -0.05600000000000001,-1.199 -0.132,-1.452 c-0.18800000000000003,-0.5940000000000001 -0.7270000000000001,-0.8470000000000001 -1.475,-0.8470000000000001 h-0.7480000000000001 c-0.04400000000000001,0 -0.06600000000000002,0.022000000000000006 -0.06600000000000002,0.06600000000000002 v4.466 C213.96399885559083,48.24000045776367 213.98599885559082,48.262000457763676 214.02999885559083,48.262000457763676 z" id="svg_5"/>
		<path d="M219.8049988555908,43.01400045776367 c0,-0.517 0.3410000000000001,-0.8580000000000001 0.8140000000000001,-0.8580000000000001 c0.462,0 0.803,0.3410000000000001 0.803,0.8580000000000001 v5.897 c0,0.517 -0.3410000000000001,0.8580000000000001 -0.803,0.8580000000000001 c-0.47400000000000003,0 -0.8140000000000001,-0.3410000000000001 -0.8140000000000001,-0.8580000000000001 V43.01400045776367 z" id="svg_6"/>
		<path d="M223.2029988555908,45.96200045776367 c0,-1.1 0.04500000000000001,-1.518 0.21000000000000002,-2.046 c0.38500000000000006,-1.21 1.419,-1.815 2.75,-1.815 c1.21,0 2.046,0.49500000000000005 2.442,1.166 c0.08800000000000002,0.15400000000000003 0.14300000000000002,0.30800000000000005 0.14300000000000002,0.48400000000000004 c0,0.42900000000000005 -0.33000000000000007,0.7260000000000001 -0.7360000000000001,0.7260000000000001 c-0.275,0 -0.49500000000000005,-0.08800000000000002 -0.7160000000000001,-0.3960000000000001 c-0.28600000000000003,-0.3960000000000001 -0.6480000000000001,-0.55 -1.133,-0.55 c-0.6380000000000001,0 -1.034,0.31900000000000006 -1.199,0.8360000000000001 c-0.08800000000000002,0.275 -0.12100000000000001,0.6270000000000001 -0.12100000000000001,1.5950000000000002 c0,0.9680000000000001 0.03300000000000001,1.332 0.12100000000000001,1.606 c0.16500000000000004,0.506 0.5720000000000001,0.8250000000000001 1.221,0.8250000000000001 c0.5720000000000001,0 1.046,-0.29700000000000004 1.199,-0.77 c0.06600000000000002,-0.19800000000000004 0.08900000000000002,-0.451 0.08900000000000002,-0.7370000000000001 c0,-0.04400000000000001 -0.022000000000000006,-0.06600000000000002 -0.06600000000000002,-0.06600000000000002 h-0.506 c-0.41800000000000004,0 -0.6830000000000002,-0.253 -0.6830000000000002,-0.6380000000000001 c0,-0.38500000000000006 0.265,-0.6380000000000001 0.6830000000000002,-0.6380000000000001 h1.54 c0.40700000000000003,0 0.6380000000000001,0.231 0.6380000000000001,0.6380000000000001 v0.07700000000000001 c0,0.6600000000000001 -0.05500000000000001,1.276 -0.18700000000000003,1.6940000000000002 c-0.38500000000000006,1.199 -1.397,1.87 -2.729,1.87 s-2.365,-0.6050000000000001 -2.75,-1.815 C223.24799885559082,47.48100045776367 223.2029988555908,47.06200045776367 223.2029988555908,45.96200045776367 z" id="svg_7"/>
		<path d="M230.8589988555908,43.01400045776367 c0,-0.517 0.3410000000000001,-0.8580000000000001 0.8140000000000001,-0.8580000000000001 c0.462,0 0.803,0.3410000000000001 0.803,0.8580000000000001 v5.897 c0,0.517 -0.3410000000000001,0.8580000000000001 -0.803,0.8580000000000001 c-0.47400000000000003,0 -0.8140000000000001,-0.3410000000000001 -0.8140000000000001,-0.8580000000000001 V43.01400045776367 z" id="svg_8"/>
		<path d="M236.0079988555908,48.91100045776368 v-5.182 c0,-0.04400000000000001 -0.022000000000000006,-0.06600000000000002 -0.06600000000000002,-0.06600000000000002 h-1.2650000000000001 c-0.49500000000000005,0 -0.8140000000000001,-0.29700000000000004 -0.8140000000000001,-0.7150000000000001 c0,-0.42900000000000005 0.31900000000000006,-0.7260000000000001 0.8140000000000001,-0.7260000000000001 h4.279 c0.49500000000000005,0 0.8140000000000001,0.29700000000000004 0.8140000000000001,0.7260000000000001 c0,0.41800000000000004 -0.31900000000000006,0.7150000000000001 -0.8140000000000001,0.7150000000000001 h-1.266 c-0.04400000000000001,0 -0.06500000000000002,0.022000000000000006 -0.06500000000000002,0.06600000000000002 v5.182 c0,0.517 -0.3410000000000001,0.8580000000000001 -0.8140000000000001,0.8580000000000001 C236.34799885559084,49.76900045776367 236.0079988555908,49.42800045776367 236.0079988555908,48.91100045776368 z" id="svg_9"/>
		<path d="M240.0659988555908,48.702000457763674 l2.024,-5.6 c0.20900000000000002,-0.5940000000000001 0.539,-0.9460000000000001 1.111,-0.9460000000000001 s0.913,0.35200000000000004 1.122,0.9460000000000001 l1.991,5.6 c0.03300000000000001,0.08800000000000002 0.05500000000000001,0.19800000000000004 0.05500000000000001,0.30800000000000005 c0,0.462 -0.37400000000000005,0.7590000000000001 -0.781,0.7590000000000001 c-0.35200000000000004,0 -0.6380000000000001,-0.20900000000000002 -0.7590000000000001,-0.5720000000000001 l-0.30800000000000005,-0.914 h-2.6740000000000004 l-0.29700000000000004,0.914 c-0.12100000000000001,0.36300000000000004 -0.40700000000000003,0.5720000000000001 -0.7590000000000001,0.5720000000000001 c-0.40700000000000003,0 -0.781,-0.29700000000000004 -0.781,-0.7590000000000001 C240.01199885559083,48.90000045776367 240.03299885559085,48.79000045776367 240.0659988555908,48.702000457763674 zM244.0709988555908,46.90900045776367 l-0.8580000000000001,-2.6180000000000003 h-0.03300000000000001 l-0.8690000000000001,2.6180000000000003 H244.0709988555908 z" id="svg_10"/>
		<path d="M247.99699885559085,43.01400045776367 c0,-0.517 0.3420000000000001,-0.8580000000000001 0.8140000000000001,-0.8580000000000001 c0.462,0 0.803,0.3410000000000001 0.803,0.8580000000000001 v5.182 c0,0.04400000000000001 0.022000000000000006,0.06600000000000002 0.06600000000000002,0.06600000000000002 h2.662 c0.49500000000000005,0 0.8140000000000001,0.29700000000000004 0.8140000000000001,0.7150000000000001 c0,0.42900000000000005 -0.31900000000000006,0.7260000000000001 -0.8140000000000001,0.7260000000000001 h-3.531 c-0.49500000000000005,0 -0.8140000000000001,-0.33000000000000007 -0.8140000000000001,-0.8140000000000001 V43.01400045776367 z" id="svg_11"/>
		<path d="M259.0419988555908,45.54400045776367 c-0.551,-0.7040000000000001 -0.8140000000000001,-1.1440000000000001 -0.8140000000000001,-1.6720000000000002 c0,-1.034 0.8800000000000001,-1.771 1.991,-1.771 c1.177,0 1.947,0.792 1.947,1.7600000000000002 c0,0.6600000000000001 -0.33000000000000007,1.166 -1.254,1.8810000000000002 l0.9460000000000001,1.199 l0.41800000000000004,-0.47300000000000003 c0.132,-0.15400000000000003 0.31800000000000006,-0.24200000000000002 0.517,-0.24200000000000002 c0.3410000000000001,0 0.6270000000000001,0.275 0.6270000000000001,0.6270000000000001 c0,0.16500000000000004 -0.06500000000000002,0.33000000000000007 -0.18700000000000003,0.47300000000000003 l-0.562,0.6600000000000001 l0.18800000000000003,0.22000000000000003 c0.132,0.16500000000000004 0.20900000000000002,0.20900000000000002 0.36300000000000004,0.231 c0.35200000000000004,0.05500000000000001 0.561,0.275 0.561,0.6380000000000001 c0,0.36300000000000004 -0.24200000000000002,0.6270000000000001 -0.6380000000000001,0.6270000000000001 h-0.07700000000000001 c-0.6160000000000001,0 -0.8800000000000001,-0.132 -1.254,-0.6160000000000001 l-0.06600000000000002,-0.07700000000000001 c-0.6380000000000001,0.5940000000000001 -1.199,0.8140000000000001 -1.937,0.8140000000000001 c-1.3860000000000001,0 -2.167,-0.8360000000000001 -2.167,-2.024 C257.64399885559084,47.00800045776367 258.0079988555908,46.35800045776367 259.0419988555908,45.54400045776367 zM259.91099885559083,48.53700045776367 c0.30800000000000005,0 0.55,-0.07700000000000001 1.034,-0.561 l-1.111,-1.419 c-0.5950000000000001,0.462 -0.771,0.781 -0.771,1.133 C259.0629988555908,48.18500045776368 259.35999885559085,48.53700045776367 259.91099885559083,48.53700045776367 zM260.8019988555908,43.839000457763674 c0,-0.3410000000000001 -0.253,-0.5940000000000001 -0.5720000000000001,-0.5940000000000001 c-0.35200000000000004,0 -0.5830000000000001,0.24200000000000002 -0.5830000000000001,0.5940000000000001 c0,0.19800000000000004 0.04400000000000001,0.31900000000000006 0.48400000000000004,0.902 C260.66999885559085,44.32300045776367 260.8019988555908,44.11400045776367 260.8019988555908,43.839000457763674 z" id="svg_12"/>
		<path d="M269.9979988555908,48.91100045776368 v-5.182 c0,-0.04400000000000001 -0.022000000000000006,-0.06600000000000002 -0.06600000000000002,-0.06600000000000002 h-1.2650000000000001 c-0.49500000000000005,0 -0.8140000000000001,-0.29700000000000004 -0.8140000000000001,-0.7150000000000001 c0,-0.42900000000000005 0.31900000000000006,-0.7260000000000001 0.8140000000000001,-0.7260000000000001 h4.279 c0.49500000000000005,0 0.8140000000000001,0.29700000000000004 0.8140000000000001,0.7260000000000001 c0,0.41800000000000004 -0.31900000000000006,0.7150000000000001 -0.8140000000000001,0.7150000000000001 h-1.266 c-0.04400000000000001,0 -0.06500000000000002,0.022000000000000006 -0.06500000000000002,0.06600000000000002 v5.182 c0,0.517 -0.3410000000000001,0.8580000000000001 -0.8140000000000001,0.8580000000000001 C270.33899885559083,49.76900045776367 269.9979988555908,49.42800045776367 269.9979988555908,48.91100045776368 z" id="svg_13"/>
		<path d="M275.14399885559084,42.93700045776367 c0,-0.42900000000000005 0.265,-0.7150000000000001 0.7040000000000001,-0.7150000000000001 h3.6310000000000002 c0.451,0 0.7480000000000001,0.29700000000000004 0.7480000000000001,0.7040000000000001 c0,0.3960000000000001 -0.29700000000000004,0.6930000000000002 -0.7480000000000001,0.6930000000000002 h-2.6510000000000002 c-0.04400000000000001,0 -0.06600000000000002,0.022000000000000006 -0.06600000000000002,0.06600000000000002 v1.485 c0,0.04400000000000001 0.022000000000000006,0.06600000000000002 0.06600000000000002,0.06600000000000002 h2.123 c0.451,0 0.7370000000000001,0.28600000000000003 0.7370000000000001,0.6930000000000002 c0,0.40700000000000003 -0.28600000000000003,0.6930000000000002 -0.7370000000000001,0.6930000000000002 h-2.123 c-0.04400000000000001,0 -0.06600000000000002,0.022000000000000006 -0.06600000000000002,0.06600000000000002 v1.5510000000000002 c0,0.04400000000000001 0.022000000000000006,0.06600000000000002 0.06600000000000002,0.06600000000000002 h2.6510000000000002 c0.451,0 0.7480000000000001,0.29700000000000004 0.7480000000000001,0.6930000000000002 c0,0.40700000000000003 -0.29700000000000004,0.7040000000000001 -0.7480000000000001,0.7040000000000001 h-3.6310000000000002 c-0.43900000000000006,0 -0.7040000000000001,-0.28600000000000003 -0.7040000000000001,-0.7150000000000001 V42.93700045776367 z" id="svg_14"/>
		<path d="M281.7119988555908,45.96200045776367 c0,-1.1440000000000001 0.05600000000000001,-1.529 0.21000000000000002,-2.024 c0.3960000000000001,-1.221 1.363,-1.8370000000000002 2.673,-1.8370000000000002 c1.122,0 1.947,0.517 2.321,1.188 c0.08800000000000002,0.15400000000000003 0.14400000000000002,0.30800000000000005 0.14400000000000002,0.48400000000000004 c0,0.42900000000000005 -0.33000000000000007,0.7260000000000001 -0.7370000000000001,0.7260000000000001 c-0.275,0 -0.49500000000000005,-0.11000000000000001 -0.7150000000000001,-0.41800000000000004 c-0.275,-0.37500000000000006 -0.54,-0.55 -1.013,-0.55 c-0.6050000000000001,0 -0.9570000000000001,0.31900000000000006 -1.122,0.8250000000000001 c-0.08800000000000002,0.275 -0.12100000000000001,0.539 -0.12100000000000001,1.606 c0,1.067 0.03300000000000001,1.332 0.12100000000000001,1.606 c0.16500000000000004,0.506 0.517,0.8250000000000001 1.122,0.8250000000000001 c0.47300000000000003,0 0.7370000000000001,-0.17600000000000002 1.013,-0.55 c0.22000000000000003,-0.30800000000000005 0.43900000000000006,-0.41800000000000004 0.7150000000000001,-0.41800000000000004 c0.40700000000000003,0 0.7370000000000001,0.29700000000000004 0.7370000000000001,0.7260000000000001 c0,0.17600000000000002 -0.05600000000000001,0.33000000000000007 -0.14400000000000002,0.48400000000000004 c-0.37400000000000005,0.6710000000000002 -1.199,1.188 -2.321,1.188 c-1.31,0 -2.277,-0.6160000000000001 -2.673,-1.8370000000000002 C281.7669988555908,47.492000457763666 281.7119988555908,47.107000457763675 281.7119988555908,45.96200045776367 z" id="svg_15"/>
		<path d="M288.7849988555908,43.01400045776367 c0,-0.528 0.3410000000000001,-0.8580000000000001 0.8140000000000001,-0.8580000000000001 c0.462,0 0.803,0.33000000000000007 0.803,0.8580000000000001 v2.124 c0,0.04400000000000001 0.022000000000000006,0.06600000000000002 0.06600000000000002,0.06600000000000002 h2.442 c0.04400000000000001,0 0.06500000000000002,-0.022000000000000006 0.06500000000000002,-0.06600000000000002 v-2.124 c0,-0.528 0.3420000000000001,-0.8580000000000001 0.804,-0.8580000000000001 c0.47300000000000003,0 0.8140000000000001,0.33000000000000007 0.8140000000000001,0.8580000000000001 v5.897 c0,0.528 -0.3420000000000001,0.8580000000000001 -0.8140000000000001,0.8580000000000001 c-0.462,0 -0.804,-0.33000000000000007 -0.804,-0.8580000000000001 v-2.2 c0,-0.04400000000000001 -0.021000000000000005,-0.06600000000000002 -0.06500000000000002,-0.06600000000000002 h-2.442 c-0.04400000000000001,0 -0.06600000000000002,0.022000000000000006 -0.06600000000000002,0.06600000000000002 v2.2 c0,0.528 -0.35200000000000004,0.8580000000000001 -0.8130000000000001,0.8580000000000001 c-0.47400000000000003,0 -0.804,-0.33000000000000007 -0.804,-0.8580000000000001 V43.01400045776367 z" id="svg_16"/>
	</g>
</g></g></svg>