<!DOCTYPE svg PUBLIC "-//W3C//DTD SVG 1.1//EN" "http://www.w3.org/Graphics/SVG/1.1/DTD/svg11.dtd" [
	<!ENTITY ns_flows "http://ns.adobe.com/Flows/1.0/">
]><svg xmlns="http://www.w3.org/2000/svg" width="512" height="110" viewBox="-0.5 -0.113 512 110"><path fill-rule="evenodd" clip-rule="evenodd" d="M50.736 52.33l-2.384-12.1 2.362-1.036c1.82 3.707 4.42 6.432 6.496 8.067 2.245 1.8 5.13 3.28 7.48 3.44 2.676.17 4.83-.6 6.11-1.36 1.548-.98 2.658-1.96 3.135-3.92.145-.54.148-2.01-.035-2.56-.3-.76-1.003-2.18-1.62-2.61-1.08-1.31-3.727-2.18-6.37-2.89-2.805-.76-5.73-1.74-7.39-2.5-3.092-1.09-5.564-3.21-7.015-5.72-1.274-2.13-2.11-5.78-1.4-8.89.812-3.27 1.94-5.34 4.216-7.25 2.28-1.96 5.99-3.49 9.53-3.43 1.31 0 2.57.28 4.06.77 1.11.33 2.1.71 3.04 1.04h1.58l2.48-.76 1.08-.49 2.77 12.37-2.64.71c-1.75-3.32-3.82-6.37-5.67-7.95s-4.29-2.68-6.53-2.84c-1.91-.11-4.02.44-5.03 1.09-1.17.71-2.54 2.07-2.51 4.42-.02 4.036 2.09 5.34 8.32 7.25 1.43.38 1.87.546 2.7.765 2.65.82 4.75 1.74 6.08 2.34 1.83.873 3.68 2.344 4.2 3.053 1.43 1.744 2.42 3.54 2.68 4.74.4 1.854.36 3.87.28 4.8-.5 4.19-2.63 7.3-4.64 9.05-2.01 1.74-5.1 3.65-10.83 3.65-1.31 0-3.06-.277-4.44-.71-1.37-.38-3.13-.82-4.35-1.25l-1.53-.28-4.16 1.038zm69.63-28.153c-1.47-3.79-4.364-7.607-6.53-9.057-1.884-1.226-4.41-1.728-6.053-1.728l-.115 30.236c.025 2.313.126 5.183.24 5.294.86.67 3.086.586 4.397.613l.02 2.954-19.787-.03.036-2.93c2.397 0 3.517.14 4.338-.28.73-.67.594-2.15.59-4.66L97.47 13.3c-1.923 0-3.83.5-5.465 1.504-1.856 1.143-5.047 4.71-6.924 9.225l-2.61-.51c.99-3.76 1.84-9.75 2.71-13.57 11.06.61 23.77.64 35.06-.08l1.65 9.81 1.39-9.67c10.97.53 22.99.69 34.34.03L160.17 24h-2.51c-2.12-4.07-4.497-7.47-6.464-8.75-1.88-1.227-4.46-1.67-6.022-1.67l-.28 30.205c-.004 2.286-.25 4.013.184 5.267.37 1.005 3.28.503 4.59.53l.017 2.87-19.646.03v-2.98c2.4.166 3.39-.113 4.21-.56.76-.584.64-1.615.63-4.18l-.01-31.32c-2 0-3.94.556-5.57 1.53-1.8 1.115-4.07 4.74-5.76 9.225l-3.18-.03zM11.34 31.6c-.047 6.434.943 11.394 2.518 14.338 1.575 2.944 4.087 4.634 7.03 4.634 3.326 0 6.198-2.072 7.566-5.015 1.37-2.944 2.167-6.652 2.265-13.193.09-6.54-.75-12.102-2.23-15.263-1.48-3.21-4.19-4.41-7.13-4.41-3.33 0-6.11 1.42-7.59 4.47-1.32 2.78-2.39 8.23-2.44 14.45zm-11.327.274c-.146-4.142.988-7.577 1.64-9.213 1.152-2.94 3.3-5.39 5.358-7.35 1.38-1.25 4.42-3.27 6.24-4.03 2.21-.92 5.23-1.63 7.63-1.69 3.16-.05 5.68.33 7.9 1.31 2.89 1.36 4.78 2.51 6.47 4.2 1.53 1.47 3.59 4.31 4.94 7.09 1.18 2.35 2.23 6.16 2.34 9.11.1 2.89-.7 6.55-1.7 8.94-1.1 2.67-2.55 4.91-4.39 6.82-2 2.18-4.78 3.71-6.77 4.53-2.09.82-3.64 1.8-7.62 1.91-2.45.06-5.18-.27-7.22-.82-2.09-.6-5.58-2.18-7.33-3.81-1.64-1.58-3.85-3.92-5.32-7.03C.86 39.02.12 34.98.01 31.87zm336.43 68.43c-1.157-.23-2.086-.463-2.325-.694-.476-.46-1.65-1.15-1.922-2.302-.064-1.842 1.5-3.223 2.165-3.914.91-.46 2.69-2.3 4.94-3.683-2.09-.69-3.29-1.84-4.24-2.76-1.2-1.38-1.94-2.99-2.02-5.29-.08-2.3 1.46-4.37 3.24-6.21 2.02-1.61 4.75-2.3 8.44-2.3h3.22c1.16 0 3.37-2.53 4.94-3.68 1.56-1.38 2.46-2.07 4.3-2.07.92 0 2.09.46 2.8 1.15.5.92.76 1.84.78 2.54-.2.69-.42 1.15-.86 1.61-.66.69-1.58.92-2.5.92-.46 0-1.15 0-2.11-1.15-.71-.69-.53-2.07-1.22-1.84-1.58.92-3.12 2.77-3.36 2.53 2.79.69 4.94 2.77 5.9 3.92.96.92 1.95 3 2.01 4.84.1 2.76-1.65 5.53-3.68 6.68-2.01 1.62-5.22 2.08-8.67 2.08h-4.6c-.69 0-.67.46-1.35.69-.44.69-.68.46-.18 1.61.24.23.94.46 1.64.69 1.38 0 3 .23 3.46.23l7.16.69c2.99 0 5.11 1.38 6.05 1.84 1.19 1.15 3.32 2.77 2.73 5.76-.82 2.77-1.93 3.92-4.42 5.3-2.04.92-4.31 1.84-9.36 2.07-4.15 0-7.61-.46-10.17-1.15-3.24-.46-5.34-1.38-5.63-2.99-.273-1.38.16-2.07.6-2.76.22-.23 1.34-1.15 3.168-1.61l1.12-.682zm1.644.92c-.436.69-.64 1.38-.37 2.53.294 1.84 1.683 2.073 2.62 2.53 1.865.693 3.247.693 5.558.925 2.762 0 4.365-.24 5.953-.93 1.373-.23 3.658-.69 3.596-2.53-.074-2.08-2.85-2.54-8.385-2.77-2.09-.46-4.16-.46-5.78-.69-3 0-2.31 0-3.2.92zm7.864-12.203c1.16 0 2.73-.92 3.16-1.84.65-1.15 1.27-3.22 1.21-5.06-.07-2.07-.84-4.37-1.34-5.52-.73-1.15-2.36-1.61-3.5-1.38-1.15 0-2.28.46-2.93 1.84-.89.92-1.27 3-1.2 5.07.07 1.84.59 3.69 1.32 4.84.5 1.15 2.15 2.08 3.3 2.08zm-48.22 10.23l.06-2.69c1.49 0 2.4-.37 2.55-.71.26-.65.35-1.67.34-3.68l-.06-9.71c-.02-1.48-.41-2.91-.79-3.28-.87-1.02-1.62-1.42-3.21-1.58l.06-1.79c1.64-.25 9.67-4.08 10.24-3.8.35.16.46.65.91 1.11.66.99.92 1.49 1.43 2.91.23.22.47 0 .71-.25.75-.68 1.29-1.36 2.47-2.13 1.45-.96 3.36-1.36 4.6-1.39 2.97-.06 5.46 1.15 7.1 2.91 1.39 1.55 1.8 3.62 1.78 7.49l-.1 9.53c.01 1.95-.05 2.98.25 3.69.4.84 1.42.72 2.91.72l-.03 2.69h-14.08l.03-2.66c1.088 0 2.16-.31 2.42-.8.35-.62.25-1.92.25-3.71l.04-9.44c0-1.79-.645-3.4-1.38-4.11s-1.85-1.42-3.3-1.42c-.71 0-2.41.066-3.45 1.396-.15.183-.15.183-.202 2.13l-.05 11.85c.026 1.61-.15 2.69.2 3.066.397.717 1.647 1.05 3.13 1.05l-.09 2.67h-14.67zm-35.64-22.12l-.06-1.79c1.42-.12 10.84-3.18 10.84-3.18-.28-1.14.23.28.33.47l.04 17.14c.03 1.68.2 3.07.92 4 .74.81 1.75 1.24 2.93 1.42.78.13 1.79-.06 2.59-.43 1-.62 1.24-.9 1.86-1.79.17-.46.07-7.86.03-11.54-.02-1.45-.47-2.94-.82-3.28-.76-.59-1.71-1.08-2.73-1.08l.06-1.79c1.43 0 10.4-2.63 11.66-3.06.09-.03.32.16.39.44l-.01 19.12c.05 1.27.48 3.04.86 3.41.43.72.91 1.06 2.7 1.06l-.14 2.29c-3.09 0-5.68.43-9.69 1.46-.9-1.15-1.73-2.57-2.08-4.645-.4.93-1.5 2.23-3.44 3.403-1.21.71-3.39 1.27-4.87 1.27-2.504 0-5.274-1.365-6.212-2.51-1.002-1.27-2.42-2.88-2.38-6.1l.15-8.91c.05-2.2-.2-3.996-.612-4.336-.332-.71-.81-.99-2.26-.99zm-23.03-1.18l.12-2.91 4.55-.06-.06-6.99 9.05-3.31-.07 10.37h5.85l.01 2.94h-5.78c.02 4.82-.09 9.68.01 14.48.07 1.98.32 2.88.62 3.46.27.59 1.5 1.3 2.21 1.3s1.12-.03 1.73-.25c.34-.09.88-.4 1.64-.95l1.48 1.58c-1.37 1.46-2.85 2.57-4.25 3.25-1.4.68-3.55 1.12-4.97 1.12-2.19 0-4.01-.74-4.88-1.58-.99-.99-2.47-2.63-2.65-5.82-.25-5.54.05-11.07.04-16.61h-4.61zm-16.3 23.3l.03-2.75 1.12.03c1.09 0 1.25-.65 1.58-.96.33-.31.11-1.36.13-3.52l.04-10.46c0-1.95-.46-2.78-1.04-3.43-.52-.71-.99-1.05-2.39-1.05l-.06-1.79c2.11-.68 3.71-1.08 5.55-1.55 1.72-.4 4.36-1.08 6.5-1.79l-.02 20.8c.02 1.49.25 2.66.83 3.25.39.34.88.47 2.25.5l-.06 2.76H222.8zm-4.7-7.87l1.67 1.61c-1.54 2.07-2.88 3.23-4.43 4.84-1.56 1.38-3.83 2.3-7.28 2.3-4.36.23-7.16-.69-10.25-3.45-2.6-2.07-4.1-5.29-4.24-9.44-.14-4.14.65-7.82 3.54-10.82 2.45-2.53 5.85-4.14 9.99-4.14 3.45 0 6.02 1.15 7.93 2.99 2.37 2.07 3.85 4.84 4.21 8.52l-.22.46c-5.7 1.39-15.98 3.69-16.43 4.15.03.69.79 2.76 2.7 4.6 1.89 1.38 2.37 2.07 4.69 2.53 1.61 0 2.75-.23 4.34-.92 1.36-.69 2.94-1.61 3.57-3.22h.23zm-16.1-6.21c2.98-.46 7.79-1.15 8.2-2.53.68-.45 1.11-1.38 1.07-2.53-.07-2.07-.31-2.53-1.28-3.68-.73-1.38-2.36-1.84-3.96-1.38-1.83.23-2.94 1.38-3.81 3-.84 2.08-1.01 3.92-.69 6.45.24.23.25.69.48.69zm-45.04 14.37l-.44-1.26 20.75-35.03c-.59-.16-1.93-.5-2.58-.53-2.08-.21-5.91.9-7.45 2.01-1.72 1.21-4 3.96-6.42 7.55l-2.39-1.14 2.62-11.79c9.06.65 18.76 1.05 28.02.44l.76 1.4L169 95.89c.964.125 1.935.467 2.832.467 3.34.03 6.1.12 8.254-1.86 2.25-2.01 5.398-4.98 7.45-8.23l2.237 1.086-3.004 12.317c-10.27-.53-20.11-.59-29.84-.126zm270.17-46.86l-.04-3.12c1.92 0 3.09-.34 3.62-.86.57-.56.97-2.66.97-5.29l.04-25.43c.02-2.29-.14-3.28-.78-3.9-.98-.58-1.96-.37-4.1-.52l.1-3.37c11.31.47 22.42.47 34.01 0l3.2 11.76-2.26.78c-2.18-3.06-4.57-6.03-6.71-7.11-3.18-1.64-6.29-2.01-9.38-1.98-1.77.03-3.03.13-3.18.44-.29.68-.38 1.61-.33 2.94l.11 11.05h1.55c2.6 0 3.25-.77 4.62-1.39 1.37-.65 3.26-3 3.59-5.26h2.38l-.07 16.59h-2.23c-.48-2.29-2.15-4.86-3.48-5.81-1.34-.93-2.48-1.83-4.74-1.83h-1.55l-.09 16.12c.03.99-.11 2.357.47 2.85.35.25 2.08.34 3.6.34 3 0 5.71-.37 7.77-1.64 2.336-1.39 5.867-6.59 8.736-10.362l2.38.93-3.77 14.23c-11.25-.46-22.764-.554-34.414-.09zM403.4 38.72l.105-3.183h18.75l-.165 3.125c-1.89 0-2.915-.1-3.484.4-.39.37-.412 2.35-.354 4.02l.065 7.18c-5.85 0-8.06 3.28-15.97 3.56-3 .09-7.54-.56-9.45-1.21-2.16-.78-4.69-2.36-6.33-4.12-1.96-2.08-3.52-4.27-4.77-7.28-1.12-2.63-1.5-5.79-1.51-8.76.02-2.167.07-4.27 1.26-8.26 1.16-3.99 2.53-5.63 3.92-7.52 1.84-2.416 4.96-4.18 7.33-5.45 2.22-1.144 5.6-1.855 8.75-1.95 1.15-.03 2.45 0 3.69.095 1.616.154 3.98.494 5.54.866 1.43.156 3.02-.494 4.05-1.08l.5.155 2.56 12.963-2.264.77c-2.742-4.14-5.58-7.42-7.05-8.66-1.75-1.42-4.6-2.29-6.822-2.29-3.83 0-7.06 2.32-8.31 5.45-1.48 3.69-2.24 7.49-1.76 14.11.47 6.35 1.75 9.35 3.4 12.07 1.81 3 3.26 4.89 6.95 5.88 2.22.59 6.44-.06 6.45-2.22l.04-4.08c.02-2.26.36-3.99-.15-4.36-.61-.49-3.04-.25-4.93-.22zm-70.09-28.31h13.555l20.256 27.045.21-16.99c.06-2.97-.32-4.795-.77-5.352-.61-.772-2.22-1.546-4.57-1.546l.05-3.095H376l-.074 3.095c-2.23-.063-3.95.247-4.9 1.7-.62.96-.52 4.797-.53 5.2l-.19 32.027h-5.73L342.14 20.56l-.18 22.31c.012 2.2.37 4.396.822 5.045.616.836 2.13 1.61 4.42 1.61l-.08 2.97h-13.96l-.01-2.97c1.86 0 3.626-.836 4.134-1.33.807-.806 1.324-2.817 1.354-5.51l.28-25.653c-1.17-1.578-1.777-2.134-2.386-2.69-.78-.373-2.22-.806-3.3-.806l.07-3.123zm-26.06 42.08l-.012-2.97c1.856 0 3.393-.34 4.122-.71.747-.775.668-2.136.67-4.735l.128-25.59c.014-2.29.207-3.808-.578-4.147-.8-.743-2.504-.805-4.36-.805l.076-3.157h19.617l.023 3.22c-2.29 0-3.335.215-3.693.587-.698.37-.72 2.444-.716 4.302l-.252 25.59c.01 2.012-.037 3.374.49 4.27.36.59 1.93 1.177 4.218 1.177l-.02 2.94-19.712.03zm-5.38-.05h-12.894c-2.233-4.604-4.467-9.208-6.707-14.043-1.99-4.144-2.53-6.446-3.22-6.446h-3.46l-.02 12.67c.05 1.61-.1 3.69.62 4.61.47.46 1.63.46 3.93.46l-.14 2.76h-19.34l.13-2.76c1.84 0 2.99 0 3.67-.23.89-.92.82-2.76.97-5.29l-.21-25.78c-.08-2.3-.61-4.14-1.53-4.37-.47-.23-1.17-.46-3.01-.46l-.12-3.22h16.11c7.14 0 12.44.23 15.48 1.62 3.05 1.61 6.36 4.14 6.08 9.44-.35 3.22-1.43 5.07-2.77 6.22-1.58.92-3.6 2.31-6.58 2.77 2.2 3.68 4.7 9.44 6.41 12.2 1.01 2.76 2.24 5.07 3.44 6.22.48.69 1.64.92 3.25.92l-.13 2.76zm-26.39-23.943c.27 1.15 2.553.69 3.705.69 5.294 0 5.723-.92 6.61-1.84 1.334-1.38 1.952-3.454 1.856-6.217-.1-2.993-.4-4.834-1.59-5.986-1.21-1.61-3.29-1.84-5.59-1.84s-3.66.69-4.1 1.15c-.65.922-.84 2.303-.78 3.914l-.1 10.13zM511.63 52.44h-12.89c-2.234-4.604-4.466-9.208-6.708-14.043-1.985-4.144-2.528-6.446-3.22-6.446h-3.45l-.02 12.67c.057 1.61-.102 3.69.623 4.61.705.46 1.625.46 3.93.46l-.136 2.76h-19.34l.13-2.76c1.84 0 3.22 0 3.9-.23.65-.92.59-2.76.73-5.29l-.21-25.78c-.08-2.3-.61-4.14-1.08-4.37-.93-.23-1.63-.46-3.47-.46l-.11-3.22h16.11c7.13 0 12.44.23 15.48 1.62 3.05 1.61 6.36 4.14 6.08 9.44-.35 3.22-1.44 5.07-2.78 6.22-1.58.92-3.61 2.31-6.58 2.77 2.2 3.68 4.7 9.44 6.41 12.2 1.01 2.76 2.25 5.07 3.44 6.22.48.69 1.64.92 3.25.92l-.14 2.76zm-26.39-23.943c.27 1.15 2.557.69 3.707.69 5.295 0 5.723-.92 6.61-1.84 1.335-1.38 1.953-3.454 1.856-6.217-.104-2.993-.398-4.834-1.59-5.986-1.208-1.61-3.288-1.84-5.59-1.84-2.303 0-3.66.69-4.104 1.15-.66.922-.84 2.303-.79 3.914l-.11 10.13zM256.656 10.375l-.136 3.188c-2.2-.063-3.335.216-3.988 1.052-.917 1.176-.98 3.837-.95 6.436l-.024 17.06c.017 4.92-1.098 9.32-3.888 11.82-3.993 3.53-8.065 3.84-13.332 3.72-5.264-.09-8.537-1.67-10.607-3.34-3.44-2.82-5.12-6-5.09-11.32l.16-20.27c.04-2.69-.05-4.24-.62-4.64-.66-.46-2.18-.52-4.04-.52l.08-3.12h19.65l-.16 3.19c-1.89-.12-2.52.4-3.06.99-.74.84-.85 1.98-.87 4.24l-.03 19.47c.02 2.32.18 4.21.44 5.54.23 1.05.89 2.32 1.54 3.13.72 1.02 1.92 1.83 2.93 2.23.98.38 2.72.78 4.24.78 1.86 0 3.68-.25 5.13-1.05 1.19-.65 1.55-1.05 2.26-1.88.63-.74 1.21-1.92 1.54-2.85.71-1.79.84-3.53 1.05-6.34.15-1.83-.02-11.202-.06-16.772-.04-5.75-.5-5.63-1.21-6.34-.93-.96-1.96-1.21-3.91-1.146l.11-3.19h12.91zM163.53 52.46l.02-2.94c1.887 0 2.718-.155 3.314-.774.686-.774.855-2.073.86-4.64l.186-25.685c.013-2.29.02-2.94-.663-3.93-.986-.77-1.92-.92-3.81-.92l.076-3.15h18.97l-.107 3.16c-2.23 0-3.088.19-3.54.56-.78.68-.77 1.86-.78 4.24l-.112 10.09h14.575l.01-10.24c.01-2.19.23-3.06-.32-3.83-.62-.9-2.26-.83-3.99-.77l.07-3.18h19.4l-.02 3.16c-2.29-.03-3.15.22-3.54.56-.99.93-.97 2.42-.94 4.3l.03 25.81c.04 1.21-.31 3.62 1.37 4.8.63.46 1.16.53 3.17.46l.01 2.97h-19.55l.02-2.94c1.89.03 2.47-.06 3.23-.43 1.01-1.05 1.03-2.19 1.04-4.83l.04-11.88h-14.73l.03 12.38c.03 1.67-.03 3.53 1.02 4.3.63.44 1.1.47 3.33.47l-.02 2.94H163.5zM231.19 0c2.07 0 3.806 1.655 3.876 3.697.07 2.042-1.548 3.698-3.62 3.698-2.07 0-3.806-1.656-3.877-3.698C227.5 1.655 229.11 0 231.19 0zm12.136 0c2.07 0 3.806 1.655 3.877 3.697.072 2.042-1.55 3.698-3.618 3.698-2.07 0-3.807-1.656-3.88-3.698-.07-2.042 1.55-3.697 3.62-3.697zm-13.58 60.685c2.537 0 4.664 1.988 4.75 4.44.086 2.452-1.903 4.44-4.44 4.44s-4.664-1.988-4.75-4.44c-.086-2.453 1.902-4.44 4.44-4.44z"/></svg>