<svg xmlns="http://www.w3.org/2000/svg" height="92" width="437.333"><path d="M191.293 66.37c3.006 1.273 6.52 1.966 9.695 1.966 6.69 0 12.359-3.354 12.359-9.602 0-10.817-15.534-7.925-15.534-14.635 0-3.008 2.892-5.091 7.994-4.05l3.968 6.942h1.814v-7.463c-2.608-1.157-6.292-1.965-9.184-1.965-5.896 0-11.281 2.602-11.281 9.081 0 11.165 15.307 8.33 15.307 14.635 0 3.76-4.026 5.612-9.355 4.628l-3.968-7h-1.815zm48.926 1.273V57.75h-1.815l-4.423 7.693h-4.024l-5.216.059-.113-.232 3.401-5.033 12.19-20.305-.512-1.677H216.52v8.91h1.815l4.024-6.712h3.061l5.5-.058.112.232-3.401 5.032-12.245 20.247.566 1.736zm26.869-4.975c-2.437.867-5.159 1.33-7.539 1.33-4.989 0-8.39-2.371-8.504-10.817h17.007c1.645-10.182-3.175-15.618-11.224-15.618-6.916 0-14.287 5.436-14.287 15.965 0 10.123 6.52 14.808 14.118 14.808 3.74 0 7.992-1.445 10.94-4.222zm-10.317-22.85c2.778 0 4.365 3.643 3.856 10.875l-9.582.579c.284-8.041 3.006-11.454 5.726-11.454zm26.021-1.793l-.51-.462-11.509 2.255v1.678l4.082 1.272v21.635l-4.082 1.446v1.794h16.1v-1.794l-4.081-1.446zm-8.617-9.661c0 2.719 1.985 4.743 4.649 4.743 2.664 0 4.648-2.024 4.648-4.743 0-2.72-1.984-4.686-4.648-4.686-2.664 0-4.65 1.967-4.65 4.686zm33.617 35.114c-3.912 1.504-8.617 1.62-8.617-3.182V41.38h8.22v-2.545h-8.22v-8.446h-1.814l-6.122 8.446h-4.31v2.545h4.31v17.76c0 6.189 3.628 9.196 8.389 9.196 2.779 0 6.35-1.099 8.675-3.354zm24.263 4.396l.509.462 11.51-2.255v-1.678l-4.082-1.273V38.025l-.51-.462-11.509 2.255v1.678l4.082 1.272v19.205c-2.098 1.388-4.252 2.199-6.236 2.199-2.551 0-4.252-1.504-4.252-5.323V38.025l-.511-.462-11.508 2.255v1.678l4.083 1.272v15.85c0 7.347 4.194 9.718 8.673 9.718 3.741 0 6.803-1.388 9.524-4.338l.227.116zm25.057-29.85l-.51-.461-11.509 2.255v1.678l4.082 1.272v21.635l-4.082 1.446v1.794h15.703v-1.794l-3.684-1.446V43.925c2.096-1.33 4.25-2.14 6.292-2.14 2.495 0 4.195 1.446 4.195 5.264v17.354l-3.684 1.446v1.794h15.702v-1.794l-4.081-1.446V47.281c0-7.348-4.139-9.718-8.673-9.718-3.686 0-6.803 1.388-9.524 4.338l-.227-.116zm41.44 9.603c0 5.206-1.984 7.81-4.763 7.81-2.777 0-4.818-2.604-4.818-7.81 0-5.263 2.041-7.924 4.818-7.924 2.779 0 4.763 2.66 4.763 7.924zm-8.845 21.23h8.277c3.061 0 4.48 1.562 4.48 3.471 0 3.76-3.061 6.421-8.788 6.421-6.576 0-8.9-5.033-6.236-10.24.681.233 1.475.348 2.267.348zm14.853-26.725l4.252-2.083v-1.793h-10.147c-1.53-.462-3.232-.693-4.932-.693-6.52 0-12.812 3.47-12.812 10.064 0 4.166 2.607 7.231 6.463 8.736v.23c-4.139 3.182-5.84 8.678-1.927 11.05v.231c-3.856.81-6.124 3.24-6.124 6.074 0 3.818 3.628 7.115 12.302 7.115 10.941 0 17.801-5.264 17.801-11.164 0-5.438-4.025-8.388-11.735-8.388h-6.804c-2.833 0-3.173-2.314-1.473-4.513 1.19.29 2.95.637 4.31.637 6.518 0 12.867-3.471 12.867-10.008 0-2.256-.85-4.049-2.041-5.321v-.174M150.023 61.858c-1.928 1.388-3.684 2.083-5.556 2.083-3.627 0-6.235-2.72-6.235-11.108 0-8.618 3.23-12.321 7.2-12.321 1.473 0 3.004.29 4.59.925zm0-22.677c-1.984-1.098-4.251-1.618-6.632-1.618-6.632 0-13.662 5.031-13.662 15.791 0 10.007 5.498 14.982 11.054 14.982 3.514 0 6.52-1.62 9.013-4.338l.227.116v3.76l.51.462 11.452-2.255v-1.678l-4.025-1.273V21.133l-.567-.463-11.452 2.257v1.677l4.082 1.273zm36.396 23.487c-2.438.867-5.159 1.33-7.54 1.33-4.988 0-8.391-2.371-8.503-10.817h17.007c1.644-10.182-3.175-15.618-11.226-15.618-6.916 0-14.285 5.436-14.285 15.965 0 10.123 6.52 14.808 14.116 14.808 3.741 0 7.993-1.445 10.941-4.222zM176.1 39.818c2.778 0 4.366 3.643 3.855 10.875l-9.58.579c.283-8.041 3.004-11.454 5.725-11.454M106.599 38.025l-.51-.462-11.509 2.255v1.678l4.083 1.272v21.635L94.58 65.85v1.794h15.703v-1.794l-3.684-1.446V43.925c2.098-1.33 4.252-2.14 6.293-2.14 2.494 0 4.194 1.446 4.194 5.264v17.354l-3.684 1.446v1.794h15.703v-1.794l-4.082-1.446V47.281c0-7.348-4.138-9.718-8.674-9.718-3.684 0-6.802 1.388-9.524 4.338l-.226-.116v-3.76M80.806 52.14v9.776c-1.645 1.273-3.289 1.793-4.762 1.793-2.04 0-3.346-1.388-3.346-4.165 0-4.339 3.402-7.173 8.108-7.404zm12.188 12.205c-3.345.232-4.252-.463-4.252-2.66V49.246c0-8.562-5.102-11.684-10.884-11.684-4.082 0-8.221 1.618-11.338 3.874l.397 1.505c2.777-.984 5.101-1.678 7.539-1.678 3.912 0 6.35 2.314 6.35 8.793-11.112.752-16.385 4.917-16.385 10.818 0 4.743 3.402 7.461 7.71 7.461 3.118 0 6.35-1.62 8.844-4.685l.227.116c.68 3.24 3.402 4.57 5.953 4.57 2.04 0 4.422-.81 5.84-2.488v-1.504M27.8 67.643h33.447V54.337h-1.814l-5.272 10.818H41.52V29.868l5.953-1.504v-1.793H27.8v1.793l4.875 1.446v34.593L27.8 65.85v1.794" fill="#10508c"/><path d="M155.823 3.582h5.166V18.06h2.006V3.582h5.032l.134-1.659h-12.226zm14.186 14.477h1.871V9.333c1.07-.864 2.384-1.455 3.452-1.455 1.27 0 2.205.727 2.205 2.681v7.5h1.871v-7.636c0-2.841-1.581-4.09-3.496-4.09-1.337 0-2.807.59-4.032 1.636V.424l-1.87.363zm13.763-15.044c0 .659.513 1.181 1.204 1.181a1.18 1.18 0 0 0 1.18-1.181c0-.683-.535-1.205-1.18-1.205-.69 0-1.204.522-1.204 1.205zm4.59 0c0 .659.511 1.181 1.18 1.181.667 0 1.202-.522 1.202-1.181a1.19 1.19 0 0 0-1.203-1.205c-.668 0-1.18.522-1.18 1.205zm-5.835 3.68v7.546c0 2.84 1.58 4.09 3.496 4.09 1.336 0 2.806-.59 4.03-1.613l.09 1.34h1.781V6.333l-1.87.364v8.636c-1.07.863-2.383 1.454-3.453 1.454-1.269 0-2.204-.727-2.204-2.659V6.332zM195.22 18.06h1.87v-7.34c1.003-1.682 2.407-2.547 4.343-2.547L201.1 6.31c-1.848.046-3.207 1.183-4.01 2.705l-.066-2.682-1.804.364zm8.219 0h1.87V6.332l-1.87.364zm-.312-15.25c0 .706.533 1.228 1.246 1.228.691 0 1.248-.522 1.248-1.227 0-.728-.557-1.273-1.248-1.273-.713 0-1.246.545-1.246 1.273zm5.478 15.25h1.871V9.333c1.07-.864 2.383-1.455 3.452-1.455 1.27 0 2.205.727 2.205 2.681v7.5h1.871v-7.636c0-2.841-1.581-4.09-3.497-4.09-1.336 0-2.807.59-4.031 1.636l-.067-1.637-1.804.364zm11.982-7.75c0 1.545.801 2.75 2.093 3.432-1.359 1.137-1.58 2.658-.668 3.545-1.49.955-2.093 1.977-2.093 2.978 0 1.544 1.292 3.068 4.721 3.068 4.299 0 6.325-2.046 6.325-3.978 0-2.045-1.358-2.955-4.365-2.955h-2.183c-1.448 0-1.737-1.045-.466-2.227.377.092.778.115 1.201.115 2.673 0 4.61-1.614 4.61-3.978 0-.863-.267-1.636-.734-2.25l1.937-.25V6.605h-4.03a6.406 6.406 0 0 0-1.783-.273c-2.628 0-4.565 1.637-4.565 3.977zm3.72 7.705h2.137c1.827 0 2.628.386 2.628 1.477 0 1.181-1.224 2.522-4.387 2.522-2.116 0-2.873-.932-2.873-1.818 0-.704.445-1.432 1.56-2.272.265.068.579.09.935.09zm-1.894-7.705c0-1.545 1.158-2.59 2.739-2.59 1.604 0 2.763 1.045 2.763 2.59s-1.159 2.591-2.763 2.591c-1.581 0-2.739-1.046-2.739-2.59zm10.668 7.75h1.871V6.332l-1.87.364zm-.312-15.25c0 .706.535 1.228 1.247 1.228.69 0 1.248-.522 1.248-1.227 0-.728-.557-1.273-1.248-1.273-.712 0-1.247.545-1.247 1.273zm4.967 14.727c1.09.478 2.204.796 3.452.796 2.36 0 4.521-1.069 4.521-3.592 0-2.317-2.138-2.908-3.876-3.408-1.314-.386-2.426-.75-2.426-1.91 0-.999.689-1.68 2.093-1.68.89 0 2.048.294 3.34.84l.268-1.523a8.545 8.545 0 0 0-3.497-.727c-2.651 0-3.987 1.41-3.987 3.16 0 2.34 2.027 2.976 3.787 3.454 1.292.386 2.494.75 2.494 1.863 0 1.25-.892 2.113-2.494 2.113-.959 0-2.16-.363-3.408-.886zm9.8-5c0 3.91 2.47 5.796 5.477 5.796 1.18 0 2.495-.296 3.808-.91l-.356-1.5c-1.202.546-2.382.842-3.452.842-2.026 0-3.541-1.16-3.541-4.228 0-3.727 2.405-5.204 5.435-4.5l.066 2.819 1.47-.319.222-3.521c-1.089-.455-2.226-.683-3.273-.683-3.363 0-5.856 2.25-5.856 6.204zm11.557 5.523h1.871V9.333c1.07-.864 2.384-1.455 3.453-1.455 1.268 0 2.204.727 2.204 2.681v7.5h1.871v-7.636c0-2.841-1.581-4.09-3.497-4.09-1.336 0-2.806.59-4.031 1.636V.424l-1.87.363zm11.782-5.5c0 3.909 2.494 5.773 5.524 5.773 1.202 0 2.516-.296 3.829-.91l-.355-1.477c-3.586 1.545-7.082 1.25-7.105-3.34h7.728c.401-3.886-1.203-6.273-4.365-6.273-2.607 0-5.256 2-5.256 6.227zm5.256-4.863c1.581 0 2.628 1.25 2.54 3.5l-5.836.226c.356-2.521 1.826-3.726 3.296-3.726" fill="#231f20"/><path d="M2951.17 26.9h2363.31" fill="none" stroke="#a61217" stroke-width="7.162" transform="matrix(.08214 0 0 -.18452 0 92)"/><path d="M195.404 83.376h3.079v8.413h1.974v-8.413h2.982l.097-1.525h-8.035zm9.084 8.413h6.719l.1-1.526h-4.831v-8.412h-1.988zm7.405 0h7.183l.097-1.526h-4.942l1.345-1.792 3.597-5.095v-1.525h-7.181l-.099 1.525h4.943l-1.359 1.792-3.584 5.095zm8.428-1.008c0 .644.49 1.134 1.134 1.134.644 0 1.148-.49 1.148-1.134 0-.658-.504-1.148-1.148-1.148-.644 0-1.134.49-1.134 1.148zm3.794 1.008h3.948c2.869 0 4.913-2.002 4.913-4.97 0-2.967-2.044-4.968-4.913-4.968h-3.948zm1.988-1.526v-6.887h1.96c1.665 0 2.856 1.344 2.856 3.444 0 2.1-1.191 3.443-2.856 3.443zm8.176 1.526h6.985l.097-1.526h-5.094v-2.828l4.058.126v-1.624l-4.058.127v-2.688h4.857l.097-1.525h-6.942v9.938" fill="#10508c"/><path d="M27.767 11.209h128.608M285.647 11.209h123.27" fill="none" stroke="#231f20" stroke-width=".7558477699999999" stroke-miterlimit="22.926"/><path d="M5.594 26.95H2373.44" fill="none" stroke="#a61217" stroke-width="7.176" transform="matrix(.0825 0 0 -.18417 0 92)"/></svg>