<!DOCTYPE svg PUBLIC "-//W3C//DTD SVG 1.1//EN" "http://www.w3.org/Graphics/SVG/1.1/DTD/svg11.dtd" [
	<!ENTITY ns_flows "http://ns.adobe.com/Flows/1.0/">
]><svg xmlns="http://www.w3.org/2000/svg" width="512" height="89" viewBox="0 0 512 89"><path fill-rule="evenodd" clip-rule="evenodd" fill="#1A171B" d="M389.012 20.642h9.406c0 1.174.103 2.298.26 3.37.763-2.656 2.964-4.138 5.772-4.138 2.813 0 5.627 2.196 6.34 5.11.92-2.915 3.325-5.162 6.138-5.11 2.505.05 3.987 1.02 4.908 2.196 1.432 1.84 1.735 5.267 1.735 8.03v38.394c.11.46.26.714.52.866 1.28 0 1.23 1.487 0 1.487h-9.76c-.92-.056-.92-1.487 0-1.487.41-.152.67-.354.87-.916V28.207c0-1.432-.05-2.2-.25-3.476 0 0-.2-.82-1.27-.97-1.33.31-2.5 1.95-2.45 5.01v39.62c.11.57.31.87.77.97.97 0 1.02 1.49 0 1.49h-9.76c-1.07 0-1.12-1.48-.05-1.48.41-.3.62-.61.62-.97V27.9c0-1.38.05-2.605-.1-3.374-.26-1.175-.72-1.327-1.43-1.534-1.43 0-2.45 1.79-2.45 3.223v42.23c.05.46.26.714.67.916 1.13 0 1.13 1.49 0 1.49h-10.1c-.92 0-.97-1.48 0-1.48.51-.05.87-.35 1.03-.91l-.05-45.5c-.51-.61-.96-.87-1.32-.87-1.28 0-1.28-1.42 0-1.42z"/><path fill="none" stroke="#1A171B" stroke-width=".409" stroke-linecap="round" stroke-linejoin="round" stroke-miterlimit="22.926" d="M389.012 20.642h9.406c0 1.174.103 2.298.26 3.37.763-2.656 2.964-4.138 5.772-4.138 2.813 0 5.627 2.196 6.34 5.11.92-2.915 3.325-5.162 6.138-5.11 2.505.05 3.987 1.02 4.908 2.196 1.432 1.84 1.735 5.267 1.735 8.03v38.394c.11.46.26.714.52.866 1.28 0 1.23 1.487 0 1.487h-9.76c-.92-.056-.92-1.487 0-1.487.41-.152.67-.354.87-.916V28.207c0-1.432-.05-2.2-.25-3.476 0 0-.2-.82-1.27-.97-1.33.31-2.5 1.95-2.45 5.01v39.62c.11.57.31.87.77.97.97 0 1.02 1.49 0 1.49h-9.76c-1.07 0-1.12-1.48-.05-1.48.41-.3.62-.61.62-.97V27.9c0-1.38.05-2.605-.1-3.374-.26-1.175-.72-1.327-1.43-1.534-1.43 0-2.45 1.79-2.45 3.223v42.23c.05.46.26.714.67.916 1.13 0 1.13 1.49 0 1.49h-10.1c-.92 0-.97-1.48 0-1.48.51-.05.87-.35 1.03-.91l-.05-45.5c-.51-.61-.96-.87-1.32-.87-1.28 0-1.28-1.42 0-1.42z"/><path fill-rule="evenodd" clip-rule="evenodd" fill="#1A171B" d="M192.333 20.587h10.377c.31.308 0 3.992 0 5.93.718-4.447 3.016-6.082 4.91-6.694 2.093-.667 3.17.253 4.036 1.022 1.893 1.584 2.303 5.162 2.15 7.77-.1 1.277-.41 3.376-1.33 4.703-.82 1.38-2.404 1.942-3.118 1.942-1.482-.1-2.25-.916-2.964-1.942-.72-1.022-1.023-2.095-1.18-3.32-.405-3.223.157-4.807 1.995-6.7 1.02-1.123.56-1.583-.36-1.583-1.08.664-1.74 1.33-2.71 3.32-.97 2.05-1.33 5.884-1.33 11.708v32.004l.66.668h.66c1.07 0 1.18 1.533 0 1.48h-11.45c-.92.053-.87-1.536 0-1.48h1.12l.61-.72V22.89c.05-.41-.26-.713-.77-.82h-1.33c-.97 0-.92-1.583 0-1.48z"/><path fill="none" stroke="#1A171B" stroke-width=".409" stroke-linecap="round" stroke-linejoin="round" stroke-miterlimit="22.926" d="M192.333 20.587h10.377c.31.308 0 3.992 0 5.93.718-4.447 3.016-6.082 4.91-6.694 2.093-.667 3.17.253 4.036 1.022 1.893 1.584 2.303 5.162 2.15 7.77-.1 1.277-.41 3.376-1.33 4.703-.82 1.38-2.404 1.942-3.118 1.942-1.482-.1-2.25-.916-2.964-1.942-.72-1.022-1.023-2.095-1.18-3.32-.405-3.223.157-4.807 1.995-6.7 1.02-1.123.56-1.583-.36-1.583-1.08.664-1.74 1.33-2.71 3.32-.97 2.05-1.33 5.884-1.33 11.708v32.004l.66.668h.66c1.07 0 1.18 1.533 0 1.48h-11.45c-.92.053-.87-1.536 0-1.48h1.12l.61-.72V22.89c.05-.41-.26-.713-.77-.82h-1.33c-.97 0-.92-1.583 0-1.48z"/><path fill-rule="evenodd" clip-rule="evenodd" fill="#1A171B" d="M81.346 20.587h10.378c.308.308 0 3.992 0 5.93.717-4.447 3.015-6.082 4.908-6.694 2.095-.667 3.172.253 4.038 1.022 1.893 1.584 2.302 5.162 2.15 7.77-.105 1.277-.41 3.376-1.33 4.703-.82 1.38-2.405 1.942-3.118 1.942-1.482-.1-2.25-.916-2.97-1.942-.713-1.022-1.02-2.095-1.172-3.32-.41-3.223.152-4.807 1.994-6.7 1.02-1.123.562-1.583-.356-1.583-1.076.664-1.74 1.33-2.712 3.32-.97 2.05-1.33 5.884-1.33 11.708v32.004l.664.668h.667c1.074 0 1.175 1.533 0 1.48h-11.2c-.97.053-.97-1.536-.05-1.48h.922l.61-.72V22.89c.05-.41-.26-.713-.77-.82h-1.33c-.98 0-.92-1.583 0-1.48z"/><path fill="none" stroke="#1A171B" stroke-width=".409" stroke-linecap="round" stroke-linejoin="round" stroke-miterlimit="22.926" d="M81.346 20.587h10.378c.308.308 0 3.992 0 5.93.717-4.447 3.015-6.082 4.908-6.694 2.095-.667 3.172.253 4.038 1.022 1.893 1.584 2.302 5.162 2.15 7.77-.105 1.277-.41 3.376-1.33 4.703-.82 1.38-2.405 1.942-3.118 1.942-1.482-.1-2.25-.916-2.97-1.942-.713-1.022-1.02-2.095-1.172-3.32-.41-3.223.152-4.807 1.994-6.7 1.02-1.123.562-1.583-.356-1.583-1.076.664-1.74 1.33-2.712 3.32-.97 2.05-1.33 5.884-1.33 11.708v32.004l.664.668h.667c1.074 0 1.175 1.533 0 1.48h-11.2c-.97.053-.97-1.536-.05-1.48h.922l.61-.72V22.89c.05-.41-.26-.713-.77-.82h-1.33c-.98 0-.92-1.583 0-1.48z"/><path fill-rule="evenodd" clip-rule="evenodd" fill="#1A171B" d="M119.12 20.587h9.152c.715-.05.102 2.762 0 4.448 1.382-2.966 3.478-5.213 6.235-5.213 2.1 0 4.042 1.276 4.862 2.247 1.42 1.79 1.98 4.91 1.98 8.13v38.29c.15.66.56.92 1.23.92.77.05.77 1.48 0 1.48H131.8c-.87-.05-.82-1.33 0-1.48.613-.06.97-.36 1.073-.87V27.23c0-2.964-.764-3.732-1.327-3.732-1.998-.1-2.61 1.534-2.762 2.864-.208 1.943-.152 4.296-.152 6.8v35.38c.05.612.355.662.917.87.87.102.87 1.326 0 1.48h-10.48c-1.13.153-1.08-1.583 0-1.48.61-.103 1.02-.462 1.18-.82v-45.5c.05-.254-.11-.614-.57-1.023h-.56c-.87-.2-.87-1.28 0-1.48z"/><path fill="none" stroke="#1A171B" stroke-width=".409" stroke-linecap="round" stroke-linejoin="round" stroke-miterlimit="22.926" d="M119.12 20.587h9.152c.715-.05.102 2.762 0 4.448 1.382-2.966 3.478-5.213 6.235-5.213 2.1 0 4.042 1.276 4.862 2.247 1.42 1.79 1.98 4.91 1.98 8.13v38.29c.15.66.56.92 1.23.92.77.05.77 1.48 0 1.48H131.8c-.87-.05-.82-1.33 0-1.48.613-.06.97-.36 1.073-.87V27.23c0-2.964-.764-3.732-1.327-3.732-1.998-.1-2.61 1.534-2.762 2.864-.208 1.943-.152 4.296-.152 6.8v35.38c.05.612.355.662.917.87.87.102.87 1.326 0 1.48h-10.48c-1.13.153-1.08-1.583 0-1.48.61-.103 1.02-.462 1.18-.82v-45.5c.05-.254-.11-.614-.57-1.023h-.56c-.87-.2-.87-1.28 0-1.48z"/><path fill-rule="evenodd" clip-rule="evenodd" fill="#1A171B" d="M464.417 20.587h9.148c.72-.05.103 2.762 0 4.448 1.382-2.966 3.478-5.213 6.24-5.213 2.093 0 4.037 1.276 4.856 2.247 1.44 1.79 2 4.91 2 8.13v38.29c.15.66.56.92 1.23.92.77.05.77 1.48 0 1.48H477.1c-.866-.05-.816-1.33 0-1.48.616-.06.97-.36 1.072-.87V27.23c0-2.964-.766-3.732-1.327-3.732-1.993-.1-2.61 1.534-2.762 2.864-.2 1.943-.15 4.296-.15 6.8v35.38c.05.612.36.662.92.87.87.102.87 1.326 0 1.48H464.37c-1.123.153-1.073-1.583 0-1.48.616-.103 1.022-.462 1.178-.82v-45.5c.053-.254-.1-.614-.56-1.023h-.563c-.87-.2-.87-1.28 0-1.48z"/><path fill="none" stroke="#1A171B" stroke-width=".409" stroke-linecap="round" stroke-linejoin="round" stroke-miterlimit="22.926" d="M464.417 20.587h9.148c.72-.05.103 2.762 0 4.448 1.382-2.966 3.478-5.213 6.24-5.213 2.093 0 4.037 1.276 4.856 2.247 1.44 1.79 2 4.91 2 8.13v38.29c.15.66.56.92 1.23.92.77.05.77 1.48 0 1.48H477.1c-.866-.05-.816-1.33 0-1.48.616-.06.97-.36 1.072-.87V27.23c0-2.964-.766-3.732-1.327-3.732-1.993-.1-2.61 1.534-2.762 2.864-.2 1.943-.15 4.296-.15 6.8v35.38c.05.612.36.662.92.87.87.102.87 1.326 0 1.48H464.37c-1.123.153-1.073-1.583 0-1.48.616-.103 1.022-.462 1.178-.82v-45.5c.053-.254-.1-.614-.56-1.023h-.563c-.87-.2-.87-1.28 0-1.48z"/><path fill-rule="evenodd" clip-rule="evenodd" fill="#1A171B" d="M78.664 71.066h-7.976c-.714.052-1.28-2.762-1.175-4.446-1.38 2.964-3.526 5.313-6.238 5.21-2.814-.15-4.55-1.38-5.267-2.246-1.33-1.69-1.432-5.114-1.432-8.13V23.517c.055-.612-.51-.97-1.225-1.28-.76-.05-.76-1.482 0-1.482h9.77V64.42c0 2.964.41 3.576 1.18 3.576 1.9 0 1.95-1.376 2.25-3.016.31-1.584.15-4.346.15-6.49V23.315c-.25-.41-.66-.668-1.27-1.078-.87-.1-.87-1.327 0-1.482h9.76v45.707c0 1.072-.05 2.1.31 2.762.36.204.82.41 1.23.41.87.202.82 1.224-.05 1.43z"/><path fill="none" stroke="#1A171B" stroke-width=".409" stroke-linecap="round" stroke-linejoin="round" stroke-miterlimit="22.926" d="M78.664 71.066h-7.976c-.714.052-1.28-2.762-1.175-4.446-1.38 2.964-3.526 5.313-6.238 5.21-2.814-.15-4.55-1.38-5.267-2.246-1.33-1.69-1.432-5.114-1.432-8.13V23.517c.055-.612-.51-.97-1.225-1.28-.76-.05-.76-1.482 0-1.482h9.77V64.42c0 2.964.41 3.576 1.18 3.576 1.9 0 1.95-1.376 2.25-3.016.31-1.584.15-4.346.15-6.49V23.315c-.25-.41-.66-.668-1.27-1.078-.87-.1-.87-1.327 0-1.482h9.76v45.707c0 1.072-.05 2.1.31 2.762.36.204.82.41 1.23.41.87.202.82 1.224-.05 1.43z"/><path fill-rule="evenodd" clip-rule="evenodd" fill="#1A171B" d="M29.856.34h9.306v23.93c1.38-2.964 3.425-4.396 5.723-4.448 2.048 0 3.886.663 5.216 2.606.52.663 1.03 1.534 1.03 3.527v42.792c.21.41.56.565 1.08.668.67.102.72 1.376 0 1.48h-9.77c-.82 0-.82-1.38 0-1.48.51-.103.92-.157 1.08-.668l-.05-42.995c0-1.482-.36-2.25-1.64-2.196-.97 0-2.25 1.736-2.35 3.425V68.4c.11.715.16.767.67 1.024.77.05.82 1.48 0 1.48H30.01c-.764 0-.815-1.48 0-1.48.51-.103.92-.157.92-.922V2.8c-.05-.252-.05-.51-1.072-.97-1.023-.05-.97-1.484 0-1.484z"/><path fill="none" stroke="#1A171B" stroke-width=".409" stroke-linecap="round" stroke-linejoin="round" stroke-miterlimit="22.926" d="M29.856.34h9.306v23.93c1.38-2.964 3.425-4.396 5.723-4.448 2.048 0 3.886.663 5.216 2.606.52.663 1.03 1.534 1.03 3.527v42.792c.21.41.56.565 1.08.668.67.102.72 1.376 0 1.48h-9.77c-.82 0-.82-1.38 0-1.48.51-.103.92-.157 1.08-.668l-.05-42.995c0-1.482-.36-2.25-1.64-2.196-.97 0-2.25 1.736-2.35 3.425V68.4c.11.715.16.767.67 1.024.77.05.82 1.48 0 1.48H30.01c-.764 0-.815-1.48 0-1.48.51-.103.92-.157.92-.922V2.8c-.05-.252-.05-.51-1.072-.97-1.023-.05-.97-1.484 0-1.484z"/><path fill-rule="evenodd" clip-rule="evenodd" fill="#1A171B" d="M20.243 70.897h-11.4c-1.226-.105-1.276-1.48 0-1.48 1.073 0 1.073-.158 1.073-1.332V1.773h-.663c-1.432 0-3.578 4.347-4.91 8.435-.818 2.662-2.2 10.378-2.914 20.71H.2V.292h27.81V30.92h-1.38c-.715-10.333-1.736-17.028-3.118-21.577-.562-1.993-2.353-7.67-3.937-7.67h-.613l.05 66.564c0 1.02.254 1.23 1.225 1.18 1.025 0 1.025 1.43 0 1.48z"/><path fill="none" stroke="#1A171B" stroke-width=".409" stroke-linecap="round" stroke-linejoin="round" stroke-miterlimit="22.926" d="M20.243 70.897h-11.4c-1.226-.105-1.276-1.48 0-1.48 1.073 0 1.073-.158 1.073-1.332V1.773h-.663c-1.432 0-3.578 4.347-4.91 8.435-.818 2.662-2.2 10.378-2.914 20.71H.2V.292h27.81V30.92h-1.38c-.715-10.333-1.736-17.028-3.118-21.577-.562-1.993-2.353-7.67-3.937-7.67h-.613l.05 66.564c0 1.02.254 1.23 1.225 1.18 1.025 0 1.025 1.43 0 1.48z"/><path fill-rule="evenodd" clip-rule="evenodd" fill="#1A171B" d="M224.805 13.867h49.533v33.406c-.653 33.154-48.933 31.15-49.533-.11V13.868zm-2.378-2.268h54.29v37.91c-1.406 33.93-53.778 33.83-54.29-2.01V11.6zm1.08 1.07h52.128v34.75c-.187 34.31-51.14 33.98-52.127.02V12.67zm34.78 55.14l.33-1.36-.216.04.1-.1c-.37-.13-.76-.13-1.19-.22l-.55.64-.16.16.06-.04-.06-.06v-.34l.22-.49.18-.28.21-.92.43-.64-.15-.12.09-.1c-.37-.06-.64.1-1.07.49l-.33.09-.15.21.1-.22.44-1.04v-.73l.22-.46.33-.21 2.39.11.88.06.44-.45v-.1l.15-.27c0-1.12 1.81-3.02.69-4.13h-.12c-.19-.32-3.17.07-4.02 0l-.55-.18-.39-.15c-4.13-2.16 2.83-10.41-5.96-10.79-2.56-.11-5.32-1.26-6.65-3.52l.27-.16c3.89-.45 7.64-.94 10.72-1.86 1.28.32 3.49 2.52 4.78 3.3h.12c2.99 2.99 7.02-1.17 6.83-4.66-1.05-4.62-5.274-4.62-5.274-10.08l-.2-.34c-.453-.995-.49-2.346-.49-3.42.96-1.998 4.81-3.467 4.81-5.68.063.59 0 1.2-.15 1.84-.277.41-.55.84-.98 1.332-.547.112-1.957 1.97-2.114 2.29l-.067.7c.67-1.258 1.38-1.04 2.41-1.96.65-.667 1.18-1.39 1.24-1.96 0-.06-.24 3.9-1.37 3.363-.566.765-1.7 1.395-1.9 1.746-.156.47-.06.53.114.71.765-.81 1.74-1.14 2.666-2.02.68-.88 1.62-2.64.994-3.84-.23-.47.335-2.666.525-2.98.02.26-.54 1.68.1 2.77 3.23 5.516-5.93 5.83-3.21 10.794.86 1.504 2.56 2.84 2.99 3.69h.16c1.07-1.07.72-1.345 1.43-2.28l.093.274.06.15c.744.743-.237 2.114-.7 2.86l.1.55c.53.462 1.622-2.06 1.74-2.156.803.8-.76 2.95-1.347 3.4l.42.544c.57-.49 1.53-1.13 1.53-1.95h.1v.22c.55.646-.35 1.98-.8 2.39l-1.04.7c-.1.61-.55 1.98-.98 2.51v.1c-.65 1.07-1.68 2.143-2.813 2.814-.37.09-4.203.5-3.772.86-.88 1.39.33 4.91 1.49 5.85l.68.47c1.17.79 6.75.136 6.65.08l-.06.15-2.33 1.35v.18l.16.1c.566 0 1.525-.176 2.07-.04-.62.504-1.62.74-2.286 1.23l-.06.274c.41.31 1.78-.3 2.17-.43l.06.06c-1.04 1.04-1.68 1.43-3.09 1.78l-.89-.04-.277.28c0 .64-.09 1.35-.21 2.05l-.102.98c-.17.39-.17.88-.275 1.31-.17.37-.27.756-.422 1.19l-.06.15c-1.05 2.59-2.84 1.69-3.46 2.67l-.43.543-.37.12-.76.06-.76.66c-.14.57-.06-.527-.06-.565zm-20.55-1.63l-.176-.22v-.7c.24-.55.83-.73 1.26-1.1l-.31-.22-.94.05-1.13 1.35v-.1l.16-.27.12-.76-.27-.4v-.27c.16-.32.4-.65.82-.98h.1c.34-.26.67-.26 1.04-.64l-1.56.15h-.17l-.64.17-.27.06.49-.94v-.22c.12-.38.54-.86 1.03-1.29.98-.37 1.98.37 2.76 1.07l.27.11h.22c.49-.49 1.25-1.03 1.86-1.19.86-.55 2.97-1.7 3.36-2.56l-.27-.49c-.37.02-2.89.06-3.03-.49.08-.29 1.27.02 1.47-.77l-.06-.06c-.47-.12-2.45-.16-2.57-.28.23-.14 1.57-.32 1.75-.8l-.05-.068-.21-.15c-.74-.12-2.05-.274-2.45-.66-.04-.087 1.92.17 2.72-.44l-.21-.37c-.9 0-1.85-1-2.32-1.564l.27.17c.55.49 3.03.49 4.62.103 2.15-.51 3.46-3.52 5.87-3.52 1.86-.04 3 1.86 2.29 3.52-2.05 3.68-5.07 3.525-.92 9.005l-.05.15-1.86-.71h-.21l.06.18-.16.093c.65.6 1.2 1.13 1.57 1.85l.21.65-.27-.07c-.37-.48-.973-.64-1.51-1.13h-.113l-.49-.33c-1.42 0 .1 1.23 1.04 2.07l-.43-.06-.173-.12c-.624 0-1.76-1.02-2.25-1.35l-.39-.06h-.1l-.823.665h-.27c-.627.53-1.55.97-2.31 1.51l-.22.18c.074.94.06 1.685-.115 2.39h-.16c-.075-.237-.41-.69-1.405-1.1h-.127l-.27-.27c-.53-.1-.92.66-1.51 1.15h-.11l-.34.27-.318.044-.94-.37-.31.05-.4.54c-.23.94-.1-.45-.1-.54zm-3.36-14.22l.037-.53.274-.77-.49-.71c0-.94-.135-1.27-.55-2.07h-.036l-.275.06.275 1.29-.06.97-.642.72h-.24l-.288.33c0 .41-.338.43-.51.65.236-.83.096-.99-.178-1.22l-.313-.37v-.92l.1-.34.4-.59.06-.46-.23-.04-.86 1.02-.36.22c-.35.05-.69.05-1.12-.11l-1.09.33.55-.72.16-.37c0-1.27.33-1.75 1.72-2.02.25-.25.76-.37.76-.77l-.17-.21c-.37.11-.76.27-1.43.33l-1.1-.33-.82.11.82-.76.44-.883h.12c.98-1.37 2.92.605 3.72.34l.22-.106c1.41-.73 2.25-1.23 3-2.39l.16-.04c.65.27 6.17 1.19 6.27 1.02 0 1.25-.39 2.38-.39 3.61-.45-.803-.49-1.84-1.2-2.54h-.15c-.12 1.13-.06 2.285-.27 3.477l-1.193-2.5-.22.05c-.04.53-.08 2.44-.39 2.88-.41-.66-.47-1.25-1.08-1.86-.51.26-1.7.94-2.01 1.25l.27.888c.33.54.62 1.385.37 2.05l-.767.84-.15-.02c-.39.71-.748.92-1.078 1.14zm8.9-10.53l-.53-.12 1.682-5.83.58.06v.11l.12.21-1.43 4.48c-.2.5.64.23.87.06l1.33-4.6v-.49l-.06-.12c-.53-.43-1.29-1.61-1.88-1.02v.21l-.16.27-.12.7-.22.38-1.41 4.69-.07.49-.21.32c-.65 0-1.35-.1-2.06-.27l.37-1.25.12-.53c.21-.39 1.21-3.3 1.51-3.74h.17l.16.17-1.47 4.422v.16l.11.115.59.06.21-.664 1.25-3.78.063-.045.06-.94c-.34-.315-.89-.8-1.37-1.08l-.49.375c-.74 2.11-1.74 4.34-2.27 6.49-.72 0-2.23-.216-2.23-1.19l.28-.43c0-.297 1.8-4.01 2.21-4.27l.176-.054.1.06-1.624 4.42-.06.33.83.277 1.83-5.08-.09-.49-.175-.16 2.95-3.458c.445-.69 1.27-.708 1.935-1 1.23-.218 2.486-.057 3.8-.218l.254.06c2.54-.79 2.83-.26 4.92-2.295v-.113c1.45-1.06 1.313-3.27 1.646-4.72 0-.53.057-1.82-.06-2.27l.55 1.73.255 1.07c1.26 3.79.42 8.22-.25 12.28-.07.47-1.23 3.34-1.21 3.56l-.26.7c-.47.43-1.44.61-2.07.76l-.15-.15 1.247-5.15.22-.215.034.065h.12l.06.056c.213.71-.826 3.09-.826 4.09l.116.12.49-.06.096-.15 1.04-3.68.06-.214-.06-.37c-.37-.49-1.04-.92-1.59-1.41h-.21l-.16.21c0 .61-.37 1.253-.37 1.84l-1.21 4.93-.23.434-2.13.25 1.49-5.34.212-.213h.11l.102.09-1.04 4.29.27.16.18.06h.223l.15-.22 1.1-4.712c-.22-.49-.94-.98-1.37-1.35l-.28.1c-.627 1.08-1.68 5.74-1.82 6.34l-.15.28-.06.59-.12.114-2.47.253 1.72-5.61.47-.155h.18l.093.22c0 .482-1.55 4.83-1.174 4.694l.583.05 1.46-4.69.04-.61-1.563-1.23H247l-.22.32-2.092 6.98c-.364.21-.97 0-1.46.16zm-9.628-10.78h-.49l-.32 2.11c0 .39-.59.47-.7.61h-.94l-.32.33-.06.37-.37-.71-.1-.22c-.16-.14.2-1.84.58-1.58l1.01-.77v-.16l-.92-.28c-.2.02-.69.53-1.55.39-.43-.28-.86-.77-1.35-.83l-.34.1.91-.75.12-.39.59-.44.92-.05.46-.34v-.22c-.29.15-1.43-.61-1.66-1.19l-.04-.44c.15-.54-.2-.84-.73-1.13h.55c.7-.1 2.15-.17 2.42.86 1.05.86.91.92.91.18l-.05-.19c-.59-.57-.86-1.17-.86-1.95l.27-.55v-.1l-.6-.825-.16-.1.86.49.43.49 1.1.15c1.19 1.41.53.51.98 2.06l-.065.273.33.766c.294.606 3.252 1.92 3.52 2.077l3.43 1.35v.12c-1.35 1.31-2.056 2.6-3.154 3.97-.07 0-4.233-3.25-4.67-3.54zm13.09-2.02l-.77-.1-.63-.18-.67-.59.11-.39.16-.22h.18c.39 0 2.21.22 2.46.33 1.01.46 2.32-.62 2.49-1.47.16-.91-.29-2.55-.34-2.84l-.9-.8c-1.21 0-3.66-.37-4.93.31l-.31-.32c-.22-.51-.08-1.25-.49-1.67 0-.39-.03-.69.27-.83.7-.23 2.44-.18 2.58-.53l2.45.65c0 1.92 1.93 1.46 1.93.55l-.12-.83.49-.16c1.31-.7 2.5-2.01 3.86-3.05.53 0 1.07 0 1.43.43 0 .45.03 1 .03 1.46L255 19.61l-.55.43c-.12.807.06 1.68-.06 2.527.27 5.83-5 6.22-7.69 6.03zm15.92-.92v.15-.16zm-14.36-1.07c-.51-.57-4.15-.3-4.81-.24-1.88.14-3.09.05-3.09-2.33.13-1.14.35-1.82.54-2.47h.1c-.08.72-.02 1.58.17 2.04.75 1.82 1.46.9 4.45 1.5.26.05 2.11.35 2.63.39l.12-.06.31-.43v-.55l-.22-.37c-.52-.38-.86-.64-2.39-.28-.28.06-2.09.21-2.09-.43l2.09-.34c.9-.14 1.82.07 2.5.27l.7.98c.05.34 0 .8 0 1.25l-.16.55-.07.09-.39.34-.38.06h-.06zm-1.25-7.97c-.65-2.1 3.83-2.72 4.99-2.72l1.09.49-1.65 1.56c-1.82 1.31-1.61 1.23-3.25 1.25l-1.19-.59zm-11.49 2.51h-2.31l1.15-2.01-1.17-2.05h2.34l1-1.75 1.02 1.74h2.31l-1.17 2 1.17 2.04h-2.33l-1.02 1.74-1.02-1.75zm-4.96 19.05h-2.31l1.15-2.01-1.17-2.05h2.34l1-1.75 1.03 1.75h2.32l-1.17 2 1.17 2.04h-2.34l-1.01 1.75-1.02-1.75zm29.2-19.72h-2.31l1.15-2.01-1.16-2.05h2.34l1-1.75 1.02 1.75h2.31l-1.17 2 1.17 2.04h-2.33l-1.01 1.75-1.02-1.75zm8.43 11.71h-2.31l1.15-2.01-1.17-2.04h2.34l1-1.75 1.02 1.75h2.31l-1.16 2 1.17 2.04h-2.34l-1.01 1.75-1.02-1.75zm-9.11 8h-2.31l1.16-2-1.16-2.05h2.34l1-1.75 1.02 1.75h2.31l-1.16 2 1.18 2.04h-2.33l-1.01 1.75-1.02-1.75zm8.87 10.6h-2.3l1.16-2-1.17-2.05h2.34l1-1.75 1.02 1.75h2.31l-1.17 2 1.17 2.04h-2.34L269 52.56l-1.02-1.75zM248.54 69h-2.306l1.15-2.005-1.17-2.045h2.34l1-1.745 1.023 1.745h2.31l-1.163 2.006L252.9 69h-2.336l-1.01 1.75-1.02-1.75zm-15.58-11.247h-2.307l1.16-2.002-1.165-2.04h2.34l1-1.74 1.02 1.75h2.316l-1.167 2.01 1.175 2.05h-2.335l-1.01 1.75-1.02-1.74zM61.06.325c2.82 0 5.11 2.29 5.11 5.115 0 2.822-2.29 5.11-5.11 5.11-2.827 0-5.116-2.29-5.116-5.11 0-2.826 2.288-5.115 5.115-5.115z"/><path fill="none" stroke="#1A171B" stroke-width=".409" stroke-linecap="round" stroke-linejoin="round" stroke-miterlimit="22.926" d="M61.06.325c2.82 0 5.11 2.29 5.11 5.115 0 2.822-2.29 5.11-5.11 5.11-2.827 0-5.116-2.29-5.116-5.11 0-2.826 2.288-5.115 5.115-5.115z"/><path fill-rule="evenodd" clip-rule="evenodd" fill="#1A171B" d="M72.96.325c2.827 0 5.116 2.29 5.116 5.115 0 2.822-2.29 5.11-5.115 5.11-2.82 0-5.11-2.29-5.11-5.11 0-2.826 2.29-5.115 5.11-5.115z"/><path fill="none" stroke="#1A171B" stroke-width=".409" stroke-linecap="round" stroke-linejoin="round" stroke-miterlimit="22.926" d="M72.96.325c2.827 0 5.116 2.29 5.116 5.115 0 2.822-2.29 5.11-5.115 5.11-2.82 0-5.11-2.29-5.11-5.11 0-2.826 2.29-5.115 5.11-5.115z"/><path fill-rule="evenodd" clip-rule="evenodd" fill="#1A171B" d="M114.363 20.587v48.21c0 .208.207.41.616.618h.56c1.18 0 1.12 1.584 0 1.48h-10.69c-1.13.053-1.23-1.48 0-1.48h.56l.56-.617v-45.65c.05-.462-.16-.87-.72-1.08h-1.39c-.82 0-.82-1.426 0-1.48h10.48z"/><path fill="none" stroke="#1A171B" stroke-width=".409" stroke-linecap="round" stroke-linejoin="round" stroke-miterlimit="22.926" d="M114.363 20.587v48.21c0 .208.207.41.616.618h.56c1.18 0 1.12 1.584 0 1.48h-10.69c-1.13.053-1.23-1.48 0-1.48h.56l.56-.617v-45.65c.05-.462-.16-.87-.72-1.08h-1.39c-.82 0-.82-1.426 0-1.48h10.48z"/><path fill-rule="evenodd" clip-rule="evenodd" fill="#1A171B" d="M460.51 20.587v48.21c0 .208.208.41.612.618h.566c1.175 0 1.123 1.584 0 1.48H451c-1.123.053-1.228-1.48 0-1.48h.563l.562-.617v-45.65c-.05-.462-.202-.82-.713-1.08h-1.382c-.82 0-.82-1.426 0-1.48h10.48z"/><path fill="none" stroke="#1A171B" stroke-width=".409" stroke-linecap="round" stroke-linejoin="round" stroke-miterlimit="22.926" d="M460.51 20.587v48.21c0 .208.208.41.612.618h.566c1.175 0 1.123 1.584 0 1.48H451c-1.123.053-1.228-1.48 0-1.48h.563l.562-.617v-45.65c-.05-.462-.202-.82-.713-1.08h-1.382c-.82 0-.82-1.426 0-1.48h10.48z"/><path fill-rule="evenodd" clip-rule="evenodd" fill="#1A171B" d="M336.768.34V68.8c0 .207.202.41.612.617h.562c1.18 0 1.123 1.584 0 1.48H327.26c-1.128.053-1.23-1.48 0-1.48h.562l.562-.617V2.9c-.05-.463-.206-.818-.718-1.076h-1.38c-.817 0-.817-1.43 0-1.483h10.482z"/><path fill="none" stroke="#1A171B" stroke-width=".409" stroke-linecap="round" stroke-linejoin="round" stroke-miterlimit="22.926" d="M336.768.34V68.8c0 .207.202.41.612.617h.562c1.18 0 1.123 1.584 0 1.48H327.26c-1.128.053-1.23-1.48 0-1.48h.562l.562-.617V2.9c-.05-.463-.206-.818-.718-1.076h-1.38c-.817 0-.817-1.43 0-1.483h10.482z"/><path fill-rule="evenodd" clip-rule="evenodd" fill="#1A171B" d="M322.73.34V68.8c0 .207.208.41.617.617h.562c1.17 0 1.12 1.584 0 1.48h-10.69c-1.13.053-1.23-1.48 0-1.48h.56l.56-.617V2.9c-.05-.463-.21-.818-.72-1.076h-1.38c-.82 0-.82-1.43 0-1.483h10.48z"/><path fill="none" stroke="#1A171B" stroke-width=".409" stroke-linecap="round" stroke-linejoin="round" stroke-miterlimit="22.926" d="M322.73.34V68.8c0 .207.208.41.617.617h.562c1.17 0 1.12 1.584 0 1.48h-10.69c-1.13.053-1.23-1.48 0-1.48h.56l.56-.617V2.9c-.05-.463-.21-.818-.72-1.076h-1.38c-.82 0-.82-1.43 0-1.483h10.48z"/><path fill-rule="evenodd" clip-rule="evenodd" fill="#1A171B" d="M109.958.325c2.826 0 5.115 2.29 5.115 5.115 0 2.822-2.29 5.11-5.115 5.11-2.822 0-5.11-2.29-5.11-5.11 0-2.826 2.288-5.115 5.11-5.115z"/><path fill="none" stroke="#1A171B" stroke-width=".409" stroke-linecap="round" stroke-linejoin="round" stroke-miterlimit="22.926" d="M109.958.325c2.826 0 5.115 2.29 5.115 5.115 0 2.822-2.29 5.11-5.115 5.11-2.822 0-5.11-2.29-5.11-5.11 0-2.826 2.288-5.115 5.11-5.115z"/><path fill-rule="evenodd" clip-rule="evenodd" fill="#1A171B" d="M456.953.325c2.822 0 5.11 2.29 5.11 5.115 0 2.822-2.288 5.11-5.11 5.11-2.82 0-5.11-2.29-5.11-5.11 0-2.826 2.29-5.115 5.11-5.115z"/><path fill="none" stroke="#1A171B" stroke-width=".409" stroke-linecap="round" stroke-linejoin="round" stroke-miterlimit="22.926" d="M456.953.325c2.822 0 5.11 2.29 5.11 5.115 0 2.822-2.288 5.11-5.11 5.11-2.82 0-5.11-2.29-5.11-5.11 0-2.826 2.29-5.115 5.11-5.115z"/><path fill-rule="evenodd" clip-rule="evenodd" fill="#1A171B" d="M190.782 50.44c0 5.737-.52 7.824-1.3 11.212-.524 2.61-1.306 4.954-3.392 7.04-2.086 1.826-3.91 2.346-6.256 2.346-2.868 0-5.736-2.084-7.042-5.994-1.305-3.654-2.867-10.17-2.867-19.037 0-9.647 1.043-15.64 2.605-19.552 1.825-4.174 5.48-6.26 8.347-6.522 2.087 0 4.17 1.043 5.474 2.61 1.31 1.563 3.13 4.694 3.92 9.386.52 2.34.52 8.08.52 14.6h-12.52v17.99c0 2.61.26 4.69 2.35 4.95 1.57 0 3.13-.78 3.91-1.31 1.31-.78 2.09-2.35 2.87-3.65 1.31-3.13 2.09-8.34 2.09-14.08.52-.53.78-.53 1.3 0zm-12.516-5.216h4.955V26.71c0-1.562 0-3.124-.25-3.648-.26-1.043-1.3-1.563-2.08-1.563s-1.82.52-2.08 1.3c-.52 1.04-.52 2.86-.52 3.91v18.51z"/><path fill="none" stroke="#1A171B" stroke-width=".522" stroke-linecap="round" stroke-linejoin="round" stroke-miterlimit="22.926" d="M190.782 50.44c0 5.737-.52 7.824-1.3 11.212-.524 2.61-1.306 4.954-3.392 7.04-2.086 1.826-3.91 2.346-6.256 2.346-2.868 0-5.736-2.084-7.042-5.994-1.305-3.654-2.867-10.17-2.867-19.037 0-9.647 1.043-15.64 2.605-19.552 1.825-4.174 5.48-6.26 8.347-6.522 2.087 0 4.17 1.043 5.474 2.61 1.31 1.563 3.13 4.694 3.92 9.386.52 2.34.52 8.08.52 14.6h-12.52v17.99c0 2.61.26 4.69 2.35 4.95 1.57 0 3.13-.78 3.91-1.31 1.31-.78 2.09-2.35 2.87-3.65 1.31-3.13 2.09-8.34 2.09-14.08.52-.53.78-.53 1.3 0zm-12.516-5.216h4.955V26.71c0-1.562 0-3.124-.25-3.648-.26-1.043-1.3-1.563-2.08-1.563s-1.82.52-2.08 1.3c-.52 1.04-.52 2.86-.52 3.91v18.51z"/><path fill-rule="evenodd" clip-rule="evenodd" fill="#1A171B" d="M386.397 50.44c-.26 5.737-.52 7.824-1.305 11.212-.52 2.61-1.563 4.954-3.388 7.04-2.087 1.826-3.91 2.346-6.52 2.346-2.606 0-5.476-2.084-6.78-5.994-1.563-3.654-2.864-10.17-2.864-19.037 0-9.647 1.04-15.64 2.606-19.552 1.825-4.174 5.475-6.26 8.342-6.522 1.825 0 4.174 1.043 5.475 2.61 1.305 1.563 3.13 4.694 3.916 9.386.25 2.34.51 8.08.51 14.6h-12.51v17.99c0 2.61.26 4.69 2.34 4.95 1.56 0 3.13-.78 3.91-1.31 1.04-.78 2.08-2.35 2.87-3.65 1.3-3.13 2.08-8.34 2.08-14.08.26-.53.79-.53 1.31 0zm-12.514-5.216h4.955V26.71c0-1.562 0-3.124-.263-3.648-.262-1.043-1.305-1.563-2.087-1.563-.78 0-1.824.52-2.348 1.3-.258 1.04-.258 2.86-.258 3.91v18.51z"/><path fill="none" stroke="#1A171B" stroke-width=".522" stroke-linecap="round" stroke-linejoin="round" stroke-miterlimit="22.926" d="M386.397 50.44c-.26 5.737-.52 7.824-1.305 11.212-.52 2.61-1.563 4.954-3.388 7.04-2.087 1.826-3.91 2.346-6.52 2.346-2.606 0-5.476-2.084-6.78-5.994-1.563-3.654-2.864-10.17-2.864-19.037 0-9.647 1.04-15.64 2.606-19.552 1.825-4.174 5.475-6.26 8.342-6.522 1.825 0 4.174 1.043 5.475 2.61 1.305 1.563 3.13 4.694 3.916 9.386.25 2.34.51 8.08.51 14.6h-12.51v17.99c0 2.61.26 4.69 2.34 4.95 1.56 0 3.13-.78 3.91-1.31 1.04-.78 2.08-2.35 2.87-3.65 1.3-3.13 2.08-8.34 2.08-14.08.26-.53.79-.53 1.31 0zm-12.514-5.216h4.955V26.71c0-1.562 0-3.124-.263-3.648-.262-1.043-1.305-1.563-2.087-1.563-.78 0-1.824.52-2.348 1.3-.258 1.04-.258 2.86-.258 3.91v18.51z"/><path fill-rule="evenodd" clip-rule="evenodd" fill="#1A171B" d="M447.632 50.44c-.263 5.737-.52 7.824-1.302 11.212-.523 2.61-1.567 4.954-3.392 7.04-2.086 1.826-3.91 2.346-6.517 2.346-2.86 0-5.47-2.084-7.04-5.994-1.3-3.654-2.6-10.17-2.6-19.037 0-9.647 1.05-15.64 2.61-19.552 1.57-4.174 5.48-6.26 8.09-6.522 2.09 0 4.17 1.043 5.48 2.61 1.57 1.563 3.39 4.694 4.18 9.386.26 2.34.52 8.08.52 14.6h-12.52v17.99c0 2.61.27 4.69 2.35 4.95 1.3 0 3.13-.78 3.91-1.31 1.05-.78 2.09-2.35 2.61-3.65 1.57-3.13 2.35-8.34 2.35-14.08.26-.53.79-.53 1.31 0zm-12.516-5.216h4.692V26.71c0-1.562.262-3.124-.258-3.648-.262-1.043-1.305-1.563-1.824-1.563-.785 0-1.825.52-2.348 1.3-.263 1.04-.263 2.86-.263 3.91v18.51z"/><path fill="none" stroke="#1A171B" stroke-width=".522" stroke-linecap="round" stroke-linejoin="round" stroke-miterlimit="22.926" d="M447.632 50.44c-.263 5.737-.52 7.824-1.302 11.212-.523 2.61-1.567 4.954-3.392 7.04-2.086 1.826-3.91 2.346-6.517 2.346-2.86 0-5.47-2.084-7.04-5.994-1.3-3.654-2.6-10.17-2.6-19.037 0-9.647 1.05-15.64 2.61-19.552 1.57-4.174 5.48-6.26 8.09-6.522 2.09 0 4.17 1.043 5.48 2.61 1.57 1.563 3.39 4.694 4.18 9.386.26 2.34.52 8.08.52 14.6h-12.52v17.99c0 2.61.27 4.69 2.35 4.95 1.3 0 3.13-.78 3.91-1.31 1.05-.78 2.09-2.35 2.61-3.65 1.57-3.13 2.35-8.34 2.35-14.08.26-.53.79-.53 1.31 0zm-12.516-5.216h4.692V26.71c0-1.562.262-3.124-.258-3.648-.262-1.043-1.305-1.563-1.824-1.563-.785 0-1.825.52-2.348 1.3-.263 1.04-.263 2.86-.263 3.91v18.51z"/><path fill-rule="evenodd" clip-rule="evenodd" fill="#1A171B" d="M511.843 50.44c-.258 5.737-.52 7.824-1.302 11.212-.52 2.61-1.56 4.954-3.39 7.04-2.08 1.826-3.9 2.346-6.51 2.346-2.87 0-5.47-2.084-6.78-5.994-1.56-3.654-2.86-10.17-2.86-19.037 0-9.647 1.05-15.64 2.61-19.552 1.83-4.174 5.48-6.26 8.09-6.522 2.09 0 4.18 1.043 5.48 2.61 1.57 1.563 3.39 4.694 4.18 9.386.26 2.34.52 8.08.52 14.6h-12.52v17.99c0 2.61.27 4.69 2.35 4.95 1.57 0 3.13-.78 3.91-1.31 1.05-.78 2.09-2.35 2.87-3.65 1.31-3.13 2.09-8.34 2.09-14.08.26-.53.78-.53 1.3 0zm-12.516-5.216h4.96V26.71c0-1.562 0-3.124-.263-3.648-.263-1.043-1.567-1.563-2.087-1.563-.78 0-1.825.52-2.348 1.3-.27 1.04-.27 2.86-.27 3.91v18.51z"/><path fill="none" stroke="#1A171B" stroke-width=".522" stroke-linecap="round" stroke-linejoin="round" stroke-miterlimit="22.926" d="M511.843 50.44c-.258 5.737-.52 7.824-1.302 11.212-.52 2.61-1.56 4.954-3.39 7.04-2.08 1.826-3.9 2.346-6.51 2.346-2.87 0-5.47-2.084-6.78-5.994-1.56-3.654-2.86-10.17-2.86-19.037 0-9.647 1.05-15.64 2.61-19.552 1.83-4.174 5.48-6.26 8.09-6.522 2.09 0 4.18 1.043 5.48 2.61 1.57 1.563 3.39 4.694 4.18 9.386.26 2.34.52 8.08.52 14.6h-12.52v17.99c0 2.61.27 4.69 2.35 4.95 1.57 0 3.13-.78 3.91-1.31 1.05-.78 2.09-2.35 2.87-3.65 1.31-3.13 2.09-8.34 2.09-14.08.26-.53.78-.53 1.3 0zm-12.516-5.216h4.96V26.71c0-1.562 0-3.124-.263-3.648-.263-1.043-1.567-1.563-2.087-1.563-.78 0-1.825.52-2.348 1.3-.27 1.04-.27 2.86-.27 3.91v18.51z"/><path fill-rule="evenodd" clip-rule="evenodd" fill="#1A171B" d="M161.017 21.95c1.043-3.39 3.392-4.434 4.954-4.434.53 0 1.83.262 2.87 1.305 1.05 1.05 1.31 2.35 1.31 3.92 0 .52-.52 2.08-.78 2.08-.78 1.05-1.56 1.05-2.08 1.05-.78 0-1.3-1.04-1.3-1.04s-1.04-1.3-.78-2.08c0-.78.26-1.56.52-2.08l.79-1.04-.26-.52h-1.05c-1.3.52-2.61 1.83-2.86 4.44 1.3 1.3 1.83 2.61 2.35 4.96 1.04 3.39 1.83 8.34 1.83 13.3 0 6.78-1.04 12.25-3.39 16.43-1.04 2.08-3.38 3.65-7.04 3.65h-2.6c-4.17 0-6 1.3-6 2.86 0 .78.26 1.3.52 1.57.79.78 2.61.78 3.92.78h5.74c2.09 0 3.65.26 4.7.78.78.26 2.6 1.31 3.13 1.82 1.82 1.57 3.12 4.7 2.87 8.35-.26 3.91-1.83 6.26-3.13 7.57-1.83 2.08-5.74 3.386-9.91 3.386-3.91 0-7.04-1.04-8.34-2.604-1.57-1.31-2.61-3.13-2.87-5.22-.53-2.87 1.56-6 3.65-7.3-1.31-.78-2.61-3.13-2.61-5.22 0-3.13 1.3-5.214 2.6-6 0 0 2.09-1.56 3.65-1.56-3.65-2.865-5.74-9.644-5.74-19.81 0-8.085 1.83-14.865 4.17-17.73 1.56-2.09 3.65-3.91 6.26-3.91 1.57 0 3.66.78 4.96 2.35zm-11.21 52.406c-2.35 1.307-3.393 3.912-3.393 6 0 2.605 1.567 3.91 3.392 4.953 1.825.78 4.172 1.04 6.256 1.04 2.868 0 5.998-.78 7.04-1.57 2.087-1.3 3.392-3.65 3.392-6 0-2.87-2.085-4.44-5.478-4.44h-11.21zm8.34-47.974V22.99c0-1.04-1.042-1.825-1.824-1.825-1.042 0-2.085.524-2.344 1.825v32.852c0 2.088 0 3.13.52 3.655.78.78 2.34 1.043 3.38 0 .26-.263.52-1.567.26-3.654v-29.46z"/><path fill="none" stroke="#1A171B" stroke-width=".522" stroke-linecap="round" stroke-linejoin="round" stroke-miterlimit="22.926" d="M161.017 21.95c1.043-3.39 3.392-4.434 4.954-4.434.53 0 1.83.262 2.87 1.305 1.05 1.05 1.31 2.35 1.31 3.92 0 .52-.52 2.08-.78 2.08-.78 1.05-1.56 1.05-2.08 1.05-.78 0-1.3-1.04-1.3-1.04s-1.04-1.3-.78-2.08c0-.78.26-1.56.52-2.08l.79-1.04-.26-.52h-1.05c-1.3.52-2.61 1.83-2.86 4.44 1.3 1.3 1.83 2.61 2.35 4.96 1.04 3.39 1.83 8.34 1.83 13.3 0 6.78-1.04 12.25-3.39 16.43-1.04 2.08-3.38 3.65-7.04 3.65h-2.6c-4.17 0-6 1.3-6 2.86 0 .78.26 1.3.52 1.57.79.78 2.61.78 3.92.78h5.74c2.09 0 3.65.26 4.7.78.78.26 2.6 1.31 3.13 1.82 1.82 1.57 3.12 4.7 2.87 8.35-.26 3.91-1.83 6.26-3.13 7.57-1.83 2.08-5.74 3.386-9.91 3.386-3.91 0-7.04-1.04-8.34-2.604-1.57-1.31-2.61-3.13-2.87-5.22-.53-2.87 1.56-6 3.65-7.3-1.31-.78-2.61-3.13-2.61-5.22 0-3.13 1.3-5.214 2.6-6 0 0 2.09-1.56 3.65-1.56-3.65-2.865-5.74-9.644-5.74-19.81 0-8.085 1.83-14.865 4.17-17.73 1.56-2.09 3.65-3.91 6.26-3.91 1.57 0 3.66.78 4.96 2.35zm-11.21 52.406c-2.35 1.307-3.393 3.912-3.393 6 0 2.605 1.567 3.91 3.392 4.953 1.825.78 4.172 1.04 6.256 1.04 2.868 0 5.998-.78 7.04-1.57 2.087-1.3 3.392-3.65 3.392-6 0-2.87-2.085-4.44-5.478-4.44h-11.21zm8.34-47.974V22.99c0-1.04-1.042-1.825-1.824-1.825-1.042 0-2.085.524-2.344 1.825v32.852c0 2.088 0 3.13.52 3.655.78.78 2.34 1.043 3.38 0 .26-.263.52-1.567.26-3.654v-29.46z"/><path fill-rule="evenodd" clip-rule="evenodd" fill="#1A171B" d="M356.206 21.95c1.3-3.39 3.65-4.434 4.954-4.434.782 0 2.082.262 2.868 1.305 1.044 1.05 1.305 2.35 1.305 3.92 0 .52-.523 2.08-.785 2.08-.52 1.05-1.306 1.05-2.086 1.05-.782 0-1.302-1.04-1.302-1.04s-.785-1.3-.785-2.08c.262-.78.523-1.56.523-2.08l1.044-1.04-.524-.52h-1.043c-1.044.52-2.345 1.83-2.606 4.44 1.3 1.3 1.56 2.61 2.34 4.96.78 3.39 1.82 8.34 1.82 13.3 0 6.78-1.31 12.25-3.65 16.43-1.05 2.08-3.13 3.65-6.78 3.65h-2.87c-4.18 0-5.74 1.3-6 2.86 0 .78.25 1.3.52 1.57.78.78 2.61.78 4.17.78h5.47c2.09 0 3.65.26 4.95.78.52.26 2.35 1.31 3.13 1.82 1.56 1.57 2.87 4.7 2.6 8.35 0 3.91-1.83 6.26-3.13 7.57-1.82 2.08-5.48 3.386-9.65 3.386s-7.04-1.04-8.61-2.604c-1.57-1.31-2.35-3.13-2.87-5.22-.26-2.87 1.82-6 3.91-7.3-1.57-.78-2.87-3.13-2.87-5.22 0-3.13 1.3-5.214 2.87-6 0 0 2.08-1.56 3.39-1.56-3.39-2.865-5.48-9.644-5.48-19.81 0-8.085 1.82-14.865 4.17-17.73 1.56-2.09 3.39-3.91 6.26-3.91 1.3 0 3.38.78 4.69 2.35zm-10.953 52.406c-2.605 1.307-3.65 3.912-3.65 6 0 2.605 1.825 3.91 3.393 4.953 1.82.78 4.432 1.04 6.52 1.04 2.604 0 5.734-.78 6.778-1.57 2.082-1.3 3.65-3.65 3.65-6 0-2.87-2.088-4.44-5.737-4.44h-10.954zm8.343-47.974V22.99c-.258-1.04-1.044-1.825-2.082-1.825-1.044 0-1.83.524-2.087 1.825v32.852c0 2.088-.263 3.13.257 3.655.786.78 2.61 1.043 3.654 0 0-.263.52-1.567.258-3.654v-29.46z"/><path fill="none" stroke="#1A171B" stroke-width=".522" stroke-linecap="round" stroke-linejoin="round" stroke-miterlimit="22.926" d="M356.206 21.95c1.3-3.39 3.65-4.434 4.954-4.434.782 0 2.082.262 2.868 1.305 1.044 1.05 1.305 2.35 1.305 3.92 0 .52-.523 2.08-.785 2.08-.52 1.05-1.306 1.05-2.086 1.05-.782 0-1.302-1.04-1.302-1.04s-.785-1.3-.785-2.08c.262-.78.523-1.56.523-2.08l1.044-1.04-.524-.52h-1.043c-1.044.52-2.345 1.83-2.606 4.44 1.3 1.3 1.56 2.61 2.34 4.96.78 3.39 1.82 8.34 1.82 13.3 0 6.78-1.31 12.25-3.65 16.43-1.05 2.08-3.13 3.65-6.78 3.65h-2.87c-4.18 0-5.74 1.3-6 2.86 0 .78.25 1.3.52 1.57.78.78 2.61.78 4.17.78h5.47c2.09 0 3.65.26 4.95.78.52.26 2.35 1.31 3.13 1.82 1.56 1.57 2.87 4.7 2.6 8.35 0 3.91-1.83 6.26-3.13 7.57-1.82 2.08-5.48 3.386-9.65 3.386s-7.04-1.04-8.61-2.604c-1.57-1.31-2.35-3.13-2.87-5.22-.26-2.87 1.82-6 3.91-7.3-1.57-.78-2.87-3.13-2.87-5.22 0-3.13 1.3-5.214 2.87-6 0 0 2.08-1.56 3.39-1.56-3.39-2.865-5.48-9.644-5.48-19.81 0-8.085 1.82-14.865 4.17-17.73 1.56-2.09 3.39-3.91 6.26-3.91 1.3 0 3.38.78 4.69 2.35zm-10.953 52.406c-2.605 1.307-3.65 3.912-3.65 6 0 2.605 1.825 3.91 3.393 4.953 1.82.78 4.432 1.04 6.52 1.04 2.604 0 5.734-.78 6.778-1.57 2.082-1.3 3.65-3.65 3.65-6 0-2.87-2.088-4.44-5.737-4.44h-10.954zm8.343-47.974V22.99c-.258-1.04-1.044-1.825-2.082-1.825-1.044 0-1.83.524-2.087 1.825v32.852c0 2.088-.263 3.13.257 3.655.786.78 2.61 1.043 3.654 0 0-.263.52-1.567.258-3.654v-29.46z"/><path fill-rule="evenodd" clip-rule="evenodd" fill="#1A171B" d="M301.77.26l6.78 68.314c.525.78.782 1.042 1.045.78 1.043 0 1.043 1.567 0 1.567h-11.21c-1.044 0-1.044-1.3 0-1.56.52 0 1.042 0 1.3-.52l-1.562-12.51h-8.342c-.26 3.13-.78 6.52-.78 9.91 0 2.87 1.57 3.39 2.87 3.39h.79c1.05-.26 1.05 1.31 0 1.31h-8.6c-1.3 0-1.04-1.56 0-1.56h.78l1.57-.52c.26-.78.78-2.08 1.04-5.21L296.04.27h5.736zm-3.647 54.756l-3.388-34.94-4.954 34.94h8.35z"/><path fill="none" stroke="#1A171B" stroke-width=".522" stroke-linecap="round" stroke-linejoin="round" stroke-miterlimit="22.926" d="M301.77.26l6.78 68.314c.525.78.782 1.042 1.045.78 1.043 0 1.043 1.567 0 1.567h-11.21c-1.044 0-1.044-1.3 0-1.56.52 0 1.042 0 1.3-.52l-1.562-12.51h-8.342c-.26 3.13-.78 6.52-.78 9.91 0 2.87 1.57 3.39 2.87 3.39h.79c1.05-.26 1.05 1.31 0 1.31h-8.6c-1.3 0-1.04-1.56 0-1.56h.78l1.57-.52c.26-.78.78-2.08 1.04-5.21L296.04.27h5.736zm-3.647 54.756l-3.388-34.94-4.954 34.94h8.35z"/></svg>