<svg id="Ebene_1" data-name="Ebene 1" xmlns="http://www.w3.org/2000/svg" viewBox="0 0 656.72 94.22"><defs><style>.cls-1{fill:#e8308a;}.cls-2{fill:#1d1d1b;}</style></defs><title>th24_logo</title><path class="cls-1" d="M574.06,48.53c-10.39,8.31-19.75,16.6-29.53,23.76v12.3h49.57V72H567.74c5.93-4.18,14.21-10,18.4-13.7,5.61-4.91,7.62-8.81,8-15.24,1-15.33-13.56-25.62-30.76-22.15-12.32,2.49-19.55,11.06-18.86,22.7H560.2c0-.34-0.84-9.06,8.82-9,4.72,0,8.54,3.2,8.67,7.2C578,44.14,576.71,46.42,574.06,48.53Z"/><path class="cls-2" d="M368.66,34a26.13,26.13,0,0,1,17,6.91l9.09-11c-6.55-5.82-16.55-9.46-26-9.46-20.1,0-35.11,13.92-35.11,32.38s14.64,32.56,34,32.56a50,50,0,0,0,26.47-8.28V53.76h-14v15a27,27,0,0,1-11.28,3.09c-10.55,0-18.65-8.19-18.65-19C350.19,42.18,358.2,34,368.66,34ZM308.51,60.28L279.13,21H264.85V84.66H280V45.46l29.29,39.2h14.28V21h-15.1V60.28ZM423.8,59.6h30.38V46.87H423.8V33.72h33.65V21H407.61V84.66h50.84V71.92H423.8V59.6ZM515.49,21V60.28L486.12,21H471.84V84.66H487V45.46l29.29,39.2h14.28V21h-15.1ZM52.6,20.9H0V34H19V84.66H35.2V34H52.6V20.9Zm21.17,26H47.4V59.58H73.78V84.66H90V21H73.78V46.85Zm72.71,11.07c0,8.64-5.18,13.92-12.82,13.92s-13.28-5.28-13.28-13.92V21H104.19V57.92c0,16.83,11.46,27.47,29.38,27.47s29-10.64,29-27.47V21h-16.1V57.92Zm73.88-14.74C220.37,29,210.73,21,193.9,21H176.68V33.72H193.9c7,0,11.1,3.36,11.1,10S200.9,54,193.9,54H176.68V66.74h17.67l9.46,17.92h18.37l-13.37-21C216.28,59.92,220.37,52.91,220.37,43.18ZM152.74,0h-13.2V13h13.2V0ZM127.23,0H114V13h13.2V0Zm107,84.66h16.19V21H234.23V84.66Z"/><polygon class="cls-1" points="643.3 94.22 656.72 94.22 656.72 59.47 643.3 59.47 643.3 71.6 624.72 71.6 620.92 71.55 637.64 31.74 626.67 21.61 605.45 71.66 605.45 84.55 643.3 84.55 643.3 94.22"/></svg>