<svg id="Ebene_1" data-name="Ebene 1" xmlns="http://www.w3.org/2000/svg" viewBox="0 0 583.3 146.08"><defs><style>.cls-1{fill:#005091;fill-rule:evenodd;}.cls-2{fill:#eb690b;}.cls-3{fill:#fff;}</style></defs><title>news38_LOGO</title><polyline class="cls-1" points="0 113.39 0 0 317.48 0 317.48 113.39 225.45 113.39 158.74 146.08 158.14 113.39"/><rect class="cls-2" x="317.48" width="127.56" height="113.39"/><path class="cls-3" d="M173.47,239.09h16v6.53a38.38,38.38,0,0,1,9.86-6.38,23.82,23.82,0,0,1,9-1.79,21.89,21.89,0,0,1,16.09,6.62Q230,249.7,230,260.71v42.13H214.19V274.93q0-11.41-1-15.16a10.38,10.38,0,0,0-3.57-5.71,10,10,0,0,0-6.28-2,11.78,11.78,0,0,0-8.33,3.25,17.34,17.34,0,0,0-4.82,9q-0.7,3-.7,12.93v25.58h-16V239.09Z" transform="translate(-155.75 -214.73)"/><path class="cls-3" d="M309.35,275.6H258a17.1,17.1,0,0,0,5.95,10.81q4.83,4,12.33,4a21.33,21.33,0,0,0,15.41-6.27l13.48,6.33a31.81,31.81,0,0,1-12.07,10.58,37.75,37.75,0,0,1-16.7,3.43q-15,0-24.43-9.46t-9.43-23.7q0-14.59,9.4-24.23t23.58-9.64q15.06,0,24.49,9.64t9.43,25.46Zm-16-12.6a16.05,16.05,0,0,0-6.25-8.67A18.12,18.12,0,0,0,276.27,251a19.15,19.15,0,0,0-11.74,3.75q-3.17,2.34-5.87,8.26h34.69Z" transform="translate(-155.75 -214.73)"/><path class="cls-3" d="M315.24,239.09H330.9l12.82,36.27,13.79-36.27h9.58L380.63,275l12.83-35.86h15.76L386,302.84H375.83l-13.59-36.33-14,36.33h-10Z" transform="translate(-155.75 -214.73)"/><path class="cls-3" d="M457.3,248l-9.9,9.9q-6-6-11-6a6.9,6.9,0,0,0-4.22,1.14,3.43,3.43,0,0,0-1.52,2.84,3.49,3.49,0,0,0,1,2.37,18,18,0,0,0,4.78,3l5.86,2.93q9.26,4.57,12.71,9.32a19.41,19.41,0,0,1-2.78,25.31q-6.24,5.68-16.73,5.68-13.95,0-22.27-10.9l9.84-10.72a22.73,22.73,0,0,0,6.59,5.3,14.59,14.59,0,0,0,6.71,2,8,8,0,0,0,5.1-1.52,4.41,4.41,0,0,0,1.93-3.52q0-3.69-7-7.21l-5.39-2.7q-15.47-7.79-15.47-19.51a16.93,16.93,0,0,1,5.83-12.92q5.83-5.36,14.91-5.36A25.87,25.87,0,0,1,457.3,248Z" transform="translate(-155.75 -214.73)"/><path class="cls-3" d="M502.29,254.56H490.86a18.61,18.61,0,0,1,19.29-17A18.12,18.12,0,0,1,523,242.45a15.38,15.38,0,0,1,5.2,11.6,13.51,13.51,0,0,1-2.27,7.6,16.25,16.25,0,0,1-6.61,5.56,16.85,16.85,0,0,1,8.9,5.93,16,16,0,0,1,3.21,10,18.83,18.83,0,0,1-6.2,14.25q-6.2,5.84-15.8,5.84-9.09,0-14.83-5.5t-6.29-15h11.77q0.76,4.84,3.38,7.2A10.33,10.33,0,0,0,517,289.6a9,9,0,0,0-1-13.72q-3.7-2.93-10.66-3v-10.2a19.2,19.2,0,0,0,6.39-1.34,7.92,7.92,0,0,0,3.27-2.74,6.52,6.52,0,0,0,1.17-3.7,5.56,5.56,0,0,0-1.79-4.23,6.54,6.54,0,0,0-4.67-1.68,7.57,7.57,0,0,0-4.63,1.55A7.76,7.76,0,0,0,502.29,254.56Z" transform="translate(-155.75 -214.73)"/><path class="cls-3" d="M578.94,267.74A19,19,0,0,1,587.81,284a19.38,19.38,0,0,1-2.7,10,17.51,17.51,0,0,1-7.24,6.91,25.49,25.49,0,0,1-11.6,2.32q-7.56,0-12-2.23a17.06,17.06,0,0,1-7.14-6.76A19.71,19.71,0,0,1,544.44,284a19,19,0,0,1,2.15-9,21.74,21.74,0,0,1,6.44-7.25,20.5,20.5,0,0,1-4.23-6,16.49,16.49,0,0,1-1.42-6.77,17.23,17.23,0,0,1,2.36-8.89,16.24,16.24,0,0,1,6.61-6.24,20.82,20.82,0,0,1,9.81-2.23,20,20,0,0,1,9.64,2.25,16.56,16.56,0,0,1,6.56,6.39,17.43,17.43,0,0,1,2.4,8.89,15.35,15.35,0,0,1-1.25,6.22A24.28,24.28,0,0,1,578.94,267.74Zm-12.7,6.35a10.46,10.46,0,0,0-7.22,2.61,8.07,8.07,0,0,0-2.93,6.22,8.46,8.46,0,0,0,2.76,6.39,10.14,10.14,0,0,0,7.26,2.61,10.38,10.38,0,0,0,7.24-2.44,8.12,8.12,0,0,0,2.7-6.31,8.5,8.5,0,0,0-2.8-6.48A9.89,9.89,0,0,0,566.23,274.1ZM565.77,249a6.47,6.47,0,0,0-4.82,1.93,6.75,6.75,0,0,0-1.89,4.93,6.91,6.91,0,0,0,2,5,7.07,7.07,0,0,0,9.88,0,7.11,7.11,0,0,0,1.93-5.17,6.49,6.49,0,0,0-2-4.89A7.09,7.09,0,0,0,565.77,249Z" transform="translate(-155.75 -214.73)"/><path class="cls-2" d="M619.21,288.93a7.43,7.43,0,0,1,5.42,2.22,7.31,7.31,0,0,1,2.25,5.4,7.67,7.67,0,0,1-15.33,0,7.3,7.3,0,0,1,2.25-5.4A7.43,7.43,0,0,1,619.21,288.93Z" transform="translate(-155.75 -214.73)"/><path class="cls-2" d="M670.19,239.52h11.46v63.32H670.19V298a22.5,22.5,0,0,1-6.73,4.6,18.85,18.85,0,0,1-7.32,1.41,20.33,20.33,0,0,1-15.31-6.87,24,24,0,0,1-6.46-17.07q0-10.58,6.25-17.34A19.91,19.91,0,0,1,655.8,256a19.3,19.3,0,0,1,7.72,1.55,21.07,21.07,0,0,1,6.67,4.66V239.52Zm-12.05,27a11.58,11.58,0,0,0-8.83,3.76,13.55,13.55,0,0,0-3.52,9.64,13.68,13.68,0,0,0,3.58,9.74,11.59,11.59,0,0,0,8.81,3.82,11.81,11.81,0,0,0,9-3.76,13.74,13.74,0,0,0,3.56-9.85,13.35,13.35,0,0,0-3.56-9.66A12,12,0,0,0,658.14,266.56Z" transform="translate(-155.75 -214.73)"/><path class="cls-2" d="M739,283.32H702.18a12.25,12.25,0,0,0,4.26,7.75,13.37,13.37,0,0,0,8.84,2.88,15.28,15.28,0,0,0,11-4.49L736,294a22.79,22.79,0,0,1-8.65,7.58,27,27,0,0,1-12,2.46q-10.75,0-17.51-6.78a23.08,23.08,0,0,1-6.76-17q0-10.46,6.74-17.36a22.64,22.64,0,0,1,16.9-6.91q10.79,0,17.55,6.91t6.76,18.25Zm-11.46-9a11.5,11.5,0,0,0-4.48-6.21,13,13,0,0,0-7.76-2.39,13.73,13.73,0,0,0-8.41,2.69,15,15,0,0,0-4.21,5.92h24.86Z" transform="translate(-155.75 -214.73)"/></svg>