<?xml version="1.0" encoding="utf-8"?>
<!-- Generator: Adobe Illustrator 15.1.0, SVG Export Plug-In . SVG Version: 6.00 Build 0)  -->
<!DOCTYPE svg PUBLIC "-//W3C//DTD SVG 1.1//EN" "http://www.w3.org/Graphics/SVG/1.1/DTD/svg11.dtd">
<svg version="1.1" id="Layer_1" xmlns="http://www.w3.org/2000/svg" xmlns:xlink="http://www.w3.org/1999/xlink" x="0px" y="0px"
	 width="100px" height="35.926px" viewBox="0 0 100 35.926" enable-background="new 0 0 100 35.926" xml:space="preserve">
<g>
	<path fill="#D5031E" d="M0.005,0.002c4.33,0,8.659-0.002,12.989,0c-0.002,2.678,0.015,5.356-0.007,8.035
		C12.384,8.09,11.784,8.15,11.185,8.2c0.507,4.567,1.224,9.119,1.332,13.716c0.502-1.969,0.709-4,1.236-5.964
		c1.412-5.309,2.766-10.633,4.15-15.949c2.204-0.002,4.407,0.002,6.613,0c0.902,3.433,1.751,6.883,2.673,10.311
		c0.962,3.85,2.014,7.683,2.603,11.612c0.308-4.584,0.795-9.151,1.342-13.71c-0.572-0.065-1.142-0.13-1.711-0.19
		c0.002-2.673-0.002-5.349,0-8.022c4.31,0,8.619,0,12.929,0c0.002,2.658-0.005,5.314,0.005,7.972
		c-0.725,0.107-1.447,0.205-2.171,0.29c-1.432,9.216-2.843,18.438-4.279,27.654c-3.58-0.005-7.16,0-10.74-0.003
		c-1.01-3.872-1.989-7.754-2.978-11.632c-0.478-1.836-0.69-3.723-1.007-5.592c-0.325,2.294-0.77,4.567-1.35,6.809
		c-0.854,3.471-1.716,6.939-2.553,10.418c-3.601,0.003-7.203-0.015-10.805,0.008C5.014,26.709,3.635,17.481,2.181,8.265
		C1.451,8.177,0.727,8.077,0,7.975C0.01,5.317,0,2.661,0.005,0.002L0.005,0.002z"/>
	<path fill="#D5031E" d="M70.932,28.154C68.831,18.768,66.723,9.384,64.616,0c-4.842,0.008-9.684,0-14.525,0.002
		c-2.099,9.384-4.207,18.766-6.306,28.148c-1.001,0.091-2.006,0.11-3.005,0.225c0.02,2.514,0.002,5.027,0.01,7.54
		c3.8,0.003,7.597,0,11.397,0c0.436-2.478,0.853-4.959,1.3-7.435c2.586,0.008,5.171-0.002,7.755,0.008
		c0.419,2.476,0.866,4.946,1.284,7.422c3.807,0.013,7.617,0,11.427,0.005c0.007-2.513-0.002-5.028,0.005-7.542
		C72.951,28.274,71.938,28.231,70.932,28.154z M54.896,21.281c0.679-4.46,1.601-8.879,2.138-13.358
		c0.051-0.455,0.155-0.904,0.341-1.324c0.137,0.305,0.222,0.622,0.262,0.952c0.542,4.606,1.474,9.153,2.196,13.733
		C58.186,21.293,56.539,21.301,54.896,21.281z"/>
	<path fill="#D5031E" d="M76.266,9.306c0-3.1-0.003-6.201,0-9.304c7.85,0,15.697-0.002,23.544,0.002
		C99.79,2.736,99.857,5.471,99.78,8.2c-4.107,6.72-8.302,13.394-12.442,20.097c1.56-0.003,3.118,0.005,4.68-0.005
		c0.192-0.58,0.385-1.162,0.577-1.744c2.469,0,4.937-0.003,7.405,0.002c-0.003,3.12,0.002,6.243-0.003,9.364
		c-7.742,0.005-15.486,0.005-23.229,0c-0.007-2.454,0.003-4.907-0.007-7.36c-0.078-0.719,0.475-1.259,0.797-1.844
		c3.895-6.36,7.79-12.719,11.677-19.082c-1.446-0.01-2.891-0.002-4.337-0.005c-0.185,0.562-0.377,1.122-0.569,1.681
		C81.64,9.316,78.951,9.306,76.266,9.306L76.266,9.306z"/>
</g>
</svg>
