<?xml version="1.0" encoding="UTF-8" standalone="no"?>
<svg
   xmlns:dc="http://purl.org/dc/elements/1.1/"
   xmlns:cc="http://creativecommons.org/ns#"
   xmlns:rdf="http://www.w3.org/1999/02/22-rdf-syntax-ns#"
   xmlns:svg="http://www.w3.org/2000/svg"
   xmlns="http://www.w3.org/2000/svg"
   height="35.925999"
   width="100"
   xml:space="preserve"
   viewBox="0 0 99.999997 35.926"
   y="0px"
   x="0px"
   id="Ebene_1_Kopie"
   version="1.1"><metadata
     id="metadata15"><rdf:RDF><cc:Work
         rdf:about=""><dc:format>image/svg+xml</dc:format><dc:type
           rdf:resource="http://purl.org/dc/dcmitype/StillImage" /><dc:title></dc:title></cc:Work></rdf:RDF></metadata><defs
     id="defs13" /><style
     id="style3"
     type="text/css">
	.st0{fill:#008464;}
	.st1{fill:#FFFFFF;}
</style><g
     transform="matrix(0.17509192,0,0,0.17509192,-23.696436,-33.865714)"
     id="g5"><path
       style="fill:#008464"
       id="path7"
       d="m 135.9,201 0,166.5 c 0,0 0,26.8 34.7,26.8 l 500.7,0 c 0,0 34.7,0 34.7,-26.8 l 0,-166.5 -570.1,0 z"
       class="st0" /><path
       style="fill:#ffffff"
       id="path9"
       d="M 568,346.7 604.8,304 c 0.9,-1.2 1.8,-1.6 2.9,-1.6 l 38.6,0 3.1,-21.4 -24,0.2 29.2,-33.6 3.4,-18.7 -123.4,0 -5.4,33.3 20,0 1.6,-7.7 c 0.7,-4.2 1.3,-6.8 4.7,-7 l 53,0 -22.9,27.7 c -3.4,3.7 -6.3,5.6 -12.3,5.6 l -46.5,0 -3.6,21.4 37,0 c 3.3,-0.4 1.2,2 0.9,2.4 l -35,41.9 -10.5,0 c -4,0 -7,-2.6 -7.9,-5.4 l -10.5,-35.7 c -1.8,-7 -6.7,-9.6 -9.7,-10.7 -4.7,-1.4 -11,-1.6 -11.2,-3 -0.2,-1.6 0.9,-1.2 11,-1.9 5.6,-0.5 8.3,-2.6 8.5,-2.8 0.2,0 3.4,-1.6 4.9,-6.3 l 1.3,-6.3 4.9,-27 0.7,-5.8 c 0.2,-5.8 -2,-8.2 -2,-8.2 -1.8,-4 -8.5,-4.7 -8.5,-4.7 l -197.3,0 -3.4,18.7 18,0 c 5.8,0.2 7.9,1.4 7,7 l -13,78.6 -56.1,-104.2 -81.6,0 -12.1,18.7 50.1,0 c 3.4,-0.2 7.6,2.6 7,7 l -12.3,86.7 c -0.7,2.8 -3.8,5.4 -8.1,5.4 l -12.8,0 -3.1,20.3 61,0 2.9,-20.3 -14.1,0 c -4,-0.7 -5.2,-2.1 -4.7,-5.4 l 10.1,-72.5 52.5,98.1 36.1,0 16.4,-104.7 c 0.7,-3.3 1.1,-5.6 2,-7.7 1.3,-2.6 4.7,-7.2 11.2,-7 l 24.1,0 c 4.3,0 9.6,2.6 9,6.5 l -15.7,87.2 c -1.1,4.7 -5.4,5.4 -8.3,5.4 l -14.6,0 -2.7,20.3 81.2,0 2.9,-20.3 -16.8,0 c -4.3,-0.5 -7.2,-1.4 -6.5,-5.4 l 6.5,-38.7 41.5,0 c 3.8,0 7.6,2.1 9.2,4.4 1.6,2.1 2.2,5.1 2.2,4.9 l 6.3,21.2 5.2,16.3 c 2.2,4.9 4.9,8.6 8.3,12.1 4,3 8.3,4.9 13.7,5.4 l 172.3,0 12.8,-20.3 -115.4,0 z m -94.9,-85.4 -1.1,7.5 -1.8,6.5 c -1.8,3 -3.4,5.6 -8.8,5.8 l -46.7,0 2,-15.4 1.8,-11.2 c 0.7,-5.4 2,-7 4.9,-7 l 43.5,0 c 4.5,0 7.2,3.7 7.2,7 l -1,6.8 z"
       class="st1" /></g></svg>