<?xml version="1.0" encoding="UTF-8" standalone="no"?>
<svg
   xmlns:dc="http://purl.org/dc/elements/1.1/"
   xmlns:cc="http://creativecommons.org/ns#"
   xmlns:rdf="http://www.w3.org/1999/02/22-rdf-syntax-ns#"
   xmlns:svg="http://www.w3.org/2000/svg"
   xmlns="http://www.w3.org/2000/svg"
   version="1.1"
   id="Ebene_2"
   x="0px"
   y="0px"
   viewBox="0 0 99.633263 19.557949"
   xml:space="preserve"
   width="99.633263"
   height="19.557949"><metadata
     id="metadata118"><rdf:RDF><cc:Work
         rdf:about=""><dc:format>image/svg+xml</dc:format><dc:type
           rdf:resource="http://purl.org/dc/dcmitype/StillImage" /><dc:title></dc:title></cc:Work></rdf:RDF></metadata><defs
     id="defs116" /><style
     type="text/css"
     id="style3">
	.st0{fill:#B7B5B4;}
	.st1{fill:#FFFFFF;}
	.st2{fill:#0076A6;}
</style><g
     id="g5"
     transform="matrix(0.11887992,0,0,0.11887992,-10.841848,-24.599686)"><g
       id="WP"><g
         id="g8"><path
           class="st0"
           d="m 257.2,337 -14.7,0 -7.7,-37.5 c -0.7,-3.2 -1.6,-8.1 -1.9,-10.5 -0.1,2.3 -1.2,7.3 -1.9,10.5 l -7.8,37.4 -14.5,0 -17.2,-76.5 14.9,0 8.4,38.4 c 0.2,1.8 1.8,7.7 1.9,12 0.3,-4.1 1.7,-9.9 2.1,-12 l 7.6,-38.4 12.8,0 8.1,38.8 c 0.2,1.7 1.7,7.7 2,11.6 0.2,-3.9 1.5,-9.9 1.9,-11.7 l 7.6,-38.7 14.9,0 -16.5,76.6 z"
           id="path10"
           style="fill:#b7b5b4" /><path
           class="st0"
           d="m 279.4,337 0,-76.5 45.2,0 -3.3,12.1 -26.8,0 0,17.5 24.1,0 0,12 -24.1,0 0,22.8 27.8,0 3.6,12.1 -46.5,0 z"
           id="path12"
           style="fill:#b7b5b4" /><path
           class="st0"
           d="m 355.5,337.5 c -17.4,0 -25.4,-6.8 -26.5,-20.3 -0.1,-1.4 -0.1,-2.9 0,-4.4 l 17.4,-2.6 c -0.2,2.3 -0.3,4.4 0,6.2 0.8,5.8 3.7,9.7 10.1,9.7 6.5,0 9.3,-3.5 9.3,-9.8 0,-7.2 -1.5,-10 -10.3,-13.8 -2.7,-0.7 -5.1,-1.8 -7.8,-2.7 -12.3,-3.8 -17.5,-9.3 -17.5,-20.2 0,-12.6 7.8,-19.9 24.6,-19.9 15.8,0 22.3,8.5 23.8,19.2 0.1,0.6 0.2,1.3 0.3,2 l -15.9,2.5 c -0.1,-0.8 -0.3,-5.1 -0.5,-5.8 -1.1,-3.8 -3.4,-6.7 -8.4,-6.7 -5.7,0 -8.3,3 -8.3,7.9 0,5.2 2,7.8 10.4,10.5 2,0.6 4.9,1.7 6.8,2.4 13.2,4.8 19.1,10.2 19.1,22.4 0,15.3 -7,23.4 -26.6,23.4 z"
           id="path14"
           style="fill:#b7b5b4" /><path
           class="st0"
           d="m 417.6,272.6 0,64.5 -15.4,0 0,-64.5 -17.2,0 0,-12.1 49.7,0 0,12.1 -17.1,0 z"
           id="path16"
           style="fill:#b7b5b4" /><path
           class="st0"
           d="m 483.6,272.6 -27.2,0 0,17.4 24.3,0 0,12.2 -24.3,0 0,34.8 -15.4,0 0,-76.5 46.2,0 -3.6,12.1 z"
           id="path18"
           style="fill:#b7b5b4" /></g><g
         id="g20"><path
           class="st0"
           d="m 524,337 -3.6,-14.7 -19.1,0 -3.5,14.7 -15.4,0 19.9,-76.5 16.7,0 20.2,76.5 -15.2,0 z m -11.2,-45.6 c -0.5,-2 -2,-9.2 -2.1,-12.2 -0.2,3 -1.5,10.1 -2,12.2 l -4.5,19.8 13.2,0 -4.6,-19.8 z"
           id="path22"
           style="fill:#b7b5b4" /><path
           class="st0"
           d="m 544.8,337 0,-76.5 15.4,0 0,64.2 25.4,0 3.5,12.3 -44.3,0 z"
           id="path24"
           style="fill:#b7b5b4" /><path
           class="st0"
           d="m 595,337 0,-76.5 45.2,0 -3.3,12.1 -26.8,0 0,17.5 24.1,0 0,12 -24.1,0 0,22.8 27.8,0 3.6,12.1 -46.5,0 z"
           id="path26"
           style="fill:#b7b5b4" /><path
           class="st0"
           d="m 683.3,337 -17.9,-41 c -0.2,-1.1 -3,-7 -3.2,-7.9 0,0.8 0.1,6.4 0.1,7.3 l 0,41.6 -14.8,0 0,-76.5 15.8,0 17.3,37.3 c 0.2,0.6 3.4,8.3 3.5,9.2 l 0,-46.5 14.7,0 0,76.5 -15.5,0 z"
           id="path28"
           style="fill:#b7b5b4" /><path
           class="st0"
           d="m 739.2,306.1 c 0,0 -13.9,0 -14.6,0 l 0,30.9 -15.4,0 0,-76.5 c 0.9,0 28.7,0 28.7,0 13.2,0 21.7,4.8 21.7,22.7 0,17.6 -8.1,22.9 -20.4,22.9 z m -3.6,-33.6 c -0.2,0 -10.5,0 -11,0 l 0,21.8 c 0.3,0 10.4,0 10.6,0 6.1,0 8.6,-2.7 8.6,-10.6 0.1,-7.6 -2,-11.2 -8.2,-11.2 z"
           id="path30"
           style="fill:#b7b5b4" /></g><g
         id="g32"><path
           class="st0"
           d="m 791,337.8 c -16.9,0 -26.7,-9.3 -26.7,-39.3 0,-30.3 10.1,-38.6 26.8,-38.6 16.6,0 26.8,7.9 26.8,38.6 0,30.4 -10.2,39.3 -26.9,39.3 z m 0.1,-65.7 c -7.2,0 -11.3,4.6 -11.3,26.5 0,22 3.8,27 11.3,27 7.5,0 11.3,-5.1 11.3,-27 0,-22.3 -4.4,-26.5 -11.3,-26.5 z"
           id="path34"
           style="fill:#b7b5b4" /><path
           class="st0"
           d="m 850.2,337.5 c -17.4,0 -25.4,-6.8 -26.5,-20.3 -0.1,-1.4 -0.1,-2.9 0,-4.4 l 17.4,-2.6 c -0.2,2.3 -0.3,4.4 0,6.2 0.8,5.8 3.7,9.7 10.1,9.7 6.5,0 9.3,-3.5 9.3,-9.8 0,-7.2 -1.5,-10 -10.3,-13.8 -2.7,-0.7 -5.1,-1.8 -7.8,-2.7 -12.3,-3.8 -17.5,-9.3 -17.5,-20.2 0,-12.6 7.8,-19.9 24.6,-19.9 15.8,0 22.3,8.5 23.8,19.2 0.1,0.6 0.2,1.3 0.3,2 l -15.9,2.5 c -0.1,-0.8 -0.3,-5.1 -0.5,-5.8 -1.1,-3.8 -3.4,-6.7 -8.4,-6.7 -5.7,0 -8.3,3 -8.3,7.9 0,5.2 2,7.8 10.4,10.5 2,0.6 4.9,1.7 6.8,2.4 13.2,4.8 19.1,10.2 19.1,22.4 -0.1,15.3 -7,23.4 -26.6,23.4 z"
           id="path36"
           style="fill:#b7b5b4" /><path
           class="st0"
           d="m 912.3,272.6 0,64.5 -15.4,0 0,-64.5 -17.3,0 0,-12.1 49.7,0 0,12.1 -17,0 z"
           id="path38"
           style="fill:#b7b5b4" /></g><g
         id="g40"><path
           class="st1"
           d="m 254.9,335.5 -14.7,0 -7.7,-37.5 c -0.7,-3.2 -1.6,-8.1 -1.9,-10.5 -0.1,2.3 -1.2,7.3 -1.9,10.5 l -7.8,37.4 -14.5,0 -17.3,-76.4 14.9,0 8.4,38.4 c 0.2,1.8 1.8,7.7 1.9,12 0.3,-4.1 1.7,-9.9 2.1,-12 l 7.6,-38.4 12.8,0 8.1,38.8 c 0.2,1.7 1.7,7.7 2,11.6 0.2,-3.9 1.5,-9.9 1.9,-11.7 l 7.6,-38.7 14.9,0 -16.4,76.5 z"
           id="path42"
           style="fill:#ffffff" /><path
           class="st1"
           d="m 277.2,335.5 0,-76.5 45.2,0 -3.3,12.1 -26.8,0 0,17.5 24.1,0 0,12 -24.1,0 0,22.8 27.8,0 3.6,12.1 -46.5,0 z"
           id="path44"
           style="fill:#ffffff" /><path
           class="st1"
           d="m 353.3,335.9 c -17.4,0 -25.4,-6.8 -26.5,-20.3 -0.1,-1.4 -0.1,-2.9 0,-4.4 l 17.4,-2.6 c -0.2,2.3 -0.3,4.4 0,6.2 0.8,5.8 3.7,9.7 10.1,9.7 6.5,0 9.3,-3.5 9.3,-9.8 0,-7.2 -1.5,-10 -10.3,-13.8 -2.7,-0.7 -5.1,-1.8 -7.8,-2.7 -12.3,-3.8 -17.5,-9.3 -17.5,-20.2 0,-12.6 7.8,-19.9 24.6,-19.9 15.8,0 22.3,8.5 23.8,19.2 0.1,0.6 0.2,1.3 0.3,2 l -15.9,2.5 c -0.1,-0.8 -0.3,-5.1 -0.5,-5.8 -1.1,-3.8 -3.4,-6.7 -8.4,-6.7 -5.7,0 -8.3,3 -8.3,7.9 0,5.2 2,7.8 10.4,10.5 2,0.6 4.9,1.7 6.8,2.4 13.2,4.8 19.1,10.2 19.1,22.4 -0.1,15.3 -7.1,23.4 -26.6,23.4 z"
           id="path46"
           style="fill:#ffffff" /><path
           class="st1"
           d="m 415.4,271.1 0,64.5 -15.4,0 0,-64.5 -17.3,0 0,-12.1 49.7,0 0,12.1 -17,0 z"
           id="path48"
           style="fill:#ffffff" /><path
           class="st1"
           d="m 481.3,271.1 -27.2,0 0,17.4 24.3,0 0,12.2 -24.3,0 0,34.8 -15.4,0 0,-76.5 46.2,0 -3.6,12.1 z"
           id="path50"
           style="fill:#ffffff" /></g><g
         id="g52"><path
           class="st1"
           d="m 521.7,335.5 -3.6,-14.7 -19.1,0 -3.5,14.7 -15.4,0 19.9,-76.5 16.7,0 20.2,76.5 -15.2,0 z m -11.2,-45.6 c -0.5,-2 -2,-9.2 -2.1,-12.2 -0.2,3 -1.5,10.1 -2,12.2 l -4.5,19.8 13.2,0 -4.6,-19.8 z"
           id="path54"
           style="fill:#ffffff" /><path
           class="st1"
           d="m 542.5,335.5 0,-76.5 15.4,0 0,64.2 25.4,0 3.5,12.3 -44.3,0 z"
           id="path56"
           style="fill:#ffffff" /><path
           class="st1"
           d="m 592.7,335.5 0,-76.5 45.2,0 -3.3,12.1 -26.8,0 0,17.5 24.1,0 0,12 -24.1,0 0,22.8 27.8,0 3.6,12.1 -46.5,0 z"
           id="path58"
           style="fill:#ffffff" /><path
           class="st1"
           d="m 681,335.5 -17.9,-41 c -0.2,-1.1 -3,-7 -3.2,-7.9 0,0.8 0.1,6.4 0.1,7.3 l 0,41.7 -14.8,0 0,-76.6 15.8,0 17.3,37.3 c 0.2,0.6 3.4,8.3 3.5,9.2 l 0,-46.5 14.7,0 0,76.5 -15.5,0 z"
           id="path60"
           style="fill:#ffffff" /><path
           class="st1"
           d="m 736.9,304.6 c 0,0 -13.9,0 -14.6,0 l 0,30.9 -15.4,0 0,-76.5 c 0.9,0 28.7,0 28.7,0 13.2,0 21.7,4.8 21.7,22.7 0,17.5 -8.1,22.9 -20.4,22.9 z M 733.4,271 c -0.2,0 -10.5,0 -11,0 l 0,21.8 c 0.3,0 10.4,0 10.6,0 6.1,0 8.6,-2.7 8.6,-10.6 0,-7.6 -2.1,-11.2 -8.2,-11.2 z"
           id="path62"
           style="fill:#ffffff" /></g><g
         id="g64"><path
           class="st1"
           d="m 788.7,336.2 c -16.9,0 -26.7,-9.3 -26.7,-39.3 0,-30.3 10.1,-38.6 26.8,-38.6 16.6,0 26.8,7.9 26.8,38.6 0,30.4 -10.2,39.3 -26.9,39.3 z m 0.1,-65.6 c -7.2,0 -11.3,4.6 -11.3,26.5 0,22 3.8,27 11.3,27 7.5,0 11.3,-5.1 11.3,-27 0,-22.3 -4.4,-26.5 -11.3,-26.5 z"
           id="path66"
           style="fill:#ffffff" /><path
           class="st1"
           d="m 847.9,335.9 c -17.4,0 -25.4,-6.8 -26.5,-20.3 -0.1,-1.4 -0.1,-2.9 0,-4.4 l 17.4,-2.6 c -0.2,2.3 -0.3,4.4 0,6.2 0.8,5.8 3.7,9.7 10.1,9.7 6.5,0 9.3,-3.5 9.3,-9.8 0,-7.2 -1.5,-10 -10.3,-13.8 -2.7,-0.7 -5.1,-1.8 -7.8,-2.7 -12.3,-3.8 -17.5,-9.3 -17.5,-20.2 0,-12.6 7.8,-19.9 24.6,-19.9 15.8,0 22.3,8.5 23.8,19.2 0.1,0.6 0.2,1.3 0.3,2 l -15.9,2.5 c -0.1,-0.8 -0.3,-5.1 -0.5,-5.8 -1.1,-3.8 -3.4,-6.7 -8.4,-6.7 -5.7,0 -8.3,3 -8.3,7.9 0,5.2 2,7.8 10.4,10.5 2,0.6 4.9,1.7 6.8,2.4 13.2,4.8 19.1,10.2 19.1,22.4 -0.1,15.3 -7,23.4 -26.6,23.4 z"
           id="path68"
           style="fill:#ffffff" /><path
           class="st1"
           d="m 910,271.1 0,64.5 -15.4,0 0,-64.5 -17.3,0 0,-12.1 49.7,0 0,12.1 -17,0 z"
           id="path70"
           style="fill:#ffffff" /></g><g
         id="g72"><path
           class="st2"
           d="m 254.2,334.7 -14.7,0 -7.7,-37.5 c -0.7,-3.2 -1.6,-8.1 -1.9,-10.5 -0.1,2.3 -1.2,7.3 -1.9,10.5 l -7.8,37.4 -14.5,0 -17.2,-76.5 14.9,0 8.4,38.4 c 0.2,1.8 1.8,7.7 1.9,12 0.3,-4.1 1.7,-9.9 2.1,-12 l 7.6,-38.4 12.8,0 8.1,38.8 c 0.2,1.7 1.7,7.7 2,11.6 0.2,-3.9 1.5,-9.9 1.9,-11.7 l 7.6,-38.7 14.9,0 -16.5,76.6 z"
           id="path74"
           style="fill:#0076a6" /><path
           class="st2"
           d="m 276.5,334.7 0,-76.5 45.2,0 -3.3,12.1 -26.8,0 0,17.5 24.1,0 0,12 -24.1,0 0,22.8 27.8,0 3.6,12.1 -46.5,0 z"
           id="path76"
           style="fill:#0076a6" /><path
           class="st2"
           d="m 352.6,335.2 c -17.4,0 -25.4,-6.8 -26.5,-20.3 -0.1,-1.4 -0.1,-2.9 0,-4.4 l 17.4,-2.6 c -0.2,2.3 -0.3,4.4 0,6.2 0.8,5.8 3.7,9.7 10.1,9.7 6.5,0 9.3,-3.5 9.3,-9.8 0,-7.2 -1.5,-10 -10.3,-13.8 -2.7,-0.7 -5.1,-1.8 -7.8,-2.7 -12.3,-3.8 -17.5,-9.3 -17.5,-20.2 0,-12.6 7.8,-19.9 24.6,-19.9 15.8,0 22.3,8.5 23.8,19.2 0.1,0.6 0.2,1.3 0.3,2 l -15.9,2.5 c -0.1,-0.8 -0.3,-5.1 -0.5,-5.8 -1.1,-3.8 -3.4,-6.7 -8.4,-6.7 -5.7,0 -8.3,3 -8.3,7.9 0,5.2 2,7.8 10.4,10.5 2,0.6 4.9,1.7 6.8,2.4 13.2,4.8 19.1,10.2 19.1,22.4 -0.1,15.2 -7,23.4 -26.6,23.4 z"
           id="path78"
           style="fill:#0076a6" /><path
           class="st2"
           d="m 414.7,270.3 0,64.5 -15.4,0 0,-64.5 -17.3,0 0,-12.1 49.7,0 0,12.1 -17,0 z"
           id="path80"
           style="fill:#0076a6" /><path
           class="st2"
           d="m 480.7,270.3 -27.2,0 0,17.4 24.3,0 0,12.2 -24.3,0 0,34.8 -15.5,0 0,-76.5 46.2,0 -3.5,12.1 z"
           id="path82"
           style="fill:#0076a6" /></g><g
         id="g84"><path
           class="st2"
           d="m 521.1,334.7 -3.6,-14.7 -19.1,0 -3.5,14.7 -15.4,0 19.9,-76.5 16.7,0 20.2,76.5 -15.2,0 z m -11.3,-45.6 c -0.5,-2 -2,-9.2 -2.1,-12.2 -0.2,3 -1.5,10.1 -2,12.2 l -4.5,19.8 13.2,0 -4.6,-19.8 z"
           id="path86"
           style="fill:#0076a6" /><path
           class="st2"
           d="m 541.8,334.7 0,-76.5 15.4,0 0,64.2 25.4,0 3.5,12.3 -44.3,0 z"
           id="path88"
           style="fill:#0076a6" /><path
           class="st2"
           d="m 592,334.7 0,-76.5 45.2,0 -3.3,12.1 -26.8,0 0,17.5 24.1,0 0,12 -24.1,0 0,22.8 27.8,0 3.6,12.1 -46.5,0 z"
           id="path90"
           style="fill:#0076a6" /><path
           class="st2"
           d="m 680.3,334.7 -17.9,-41 c -0.2,-1.1 -3,-7 -3.2,-7.9 0,0.8 0.1,6.4 0.1,7.3 l 0,41.7 -14.8,0 0,-76.5 15.8,0 17.3,37.3 c 0.2,0.6 3.4,8.3 3.5,9.2 l 0,-46.5 14.7,0 0,76.5 -15.5,0 z"
           id="path92"
           style="fill:#0076a6" /><path
           class="st2"
           d="m 736.3,303.8 c 0,0 -13.9,0 -14.6,0 l 0,30.9 -15.4,0 0,-76.5 c 0.9,0 28.7,0 28.7,0 13.2,0 21.7,4.8 21.7,22.7 -0.1,17.5 -8.1,22.9 -20.4,22.9 z m -3.6,-33.6 c -0.2,0 -10.5,0 -11,0 l 0,21.8 c 0.3,0 10.4,0 10.6,0 6.1,0 8.6,-2.7 8.6,-10.6 0,-7.6 -2,-11.2 -8.2,-11.2 z"
           id="path94"
           style="fill:#0076a6" /></g><g
         id="g96"><path
           class="st2"
           d="m 788,335.5 c -16.9,0 -26.7,-9.3 -26.7,-39.3 0,-30.3 10.1,-38.6 26.8,-38.6 16.6,0 26.8,7.9 26.8,38.6 0.1,30.3 -10.2,39.3 -26.9,39.3 z m 0.1,-65.7 c -7.2,0 -11.3,4.6 -11.3,26.5 0,22 3.8,27 11.3,27 7.5,0 11.3,-5.1 11.3,-27 0.1,-22.3 -4.3,-26.5 -11.3,-26.5 z"
           id="path98"
           style="fill:#0076a6" /><path
           class="st2"
           d="m 847.2,335.2 c -17.4,0 -25.4,-6.8 -26.5,-20.3 -0.1,-1.4 -0.1,-2.9 0,-4.4 l 17.4,-2.6 c -0.2,2.3 -0.3,4.4 0,6.2 0.8,5.8 3.7,9.7 10.1,9.7 6.5,0 9.3,-3.5 9.3,-9.8 0,-7.2 -1.5,-10 -10.3,-13.8 -2.7,-0.7 -5.1,-1.8 -7.8,-2.7 -12.3,-3.8 -17.5,-9.3 -17.5,-20.2 0,-12.6 7.8,-19.9 24.6,-19.9 15.8,0 22.3,8.5 23.8,19.2 0.1,0.6 0.2,1.3 0.3,2 l -15.9,2.5 c -0.1,-0.8 -0.3,-5.1 -0.5,-5.8 -1.1,-3.8 -3.4,-6.7 -8.4,-6.7 -5.7,0 -8.3,3 -8.3,7.9 0,5.2 2,7.8 10.4,10.5 2,0.6 4.9,1.7 6.8,2.4 13.2,4.8 19.1,10.2 19.1,22.4 0,15.2 -7,23.4 -26.6,23.4 z"
           id="path100"
           style="fill:#0076a6" /><path
           class="st2"
           d="m 909.3,270.3 0,64.5 -15.4,0 0,-64.5 -17.3,0 0,-12.1 49.7,0 0,12.1 -17,0 z"
           id="path102"
           style="fill:#0076a6" /></g></g><g
       id="g104"><rect
         x="91.199997"
         y="258.20001"
         class="st1"
         width="82.5"
         height="76.5"
         id="rect106"
         style="fill:#ffffff" /><path
         class="st2"
         d="m 91.2,323 0,11.7 82.5,0 0,-29.7 -82.5,18 z m 0,-64.8 0,29.7 82.5,-18 0,-11.7 -82.5,0 z"
         id="path108"
         style="fill:#0076a6" /><polygon
         class="st2"
         points="123.6,285.8 128.7,298 128.9,284.7 137.6,282.8 136,308.5 122,311.4 117.3,300.4 117,312.4 102.9,315.4 92.3,292.3 104.4,289.8 109.6,302 109.9,288.7 "
         id="polygon110"
         style="fill:#0076a6" /><path
         class="st2"
         d="m 137.9,282.7 24.5,-5.6 c 2.2,-0.5 8.2,1.5 9.3,8 1.2,5.4 -1.8,9.7 -4.7,10.5 l -14.1,3.6 1.1,5.2 -11.2,2.4 -4.9,-24.1 z m 13.5,9.7 10.4,-2.6 c 1.3,-0.5 1.7,-1.7 1.3,-3 -0.3,-1 -1.2,-1.7 -2.7,-1.7 l -10.1,2.4 1.1,4.9 z"
         id="path112"
         style="fill:#0076a6" /></g></g></svg>