<?xml version="1.0" encoding="UTF-8" standalone="no"?>
<svg
   xmlns:dc="http://purl.org/dc/elements/1.1/"
   xmlns:cc="http://creativecommons.org/ns#"
   xmlns:rdf="http://www.w3.org/1999/02/22-rdf-syntax-ns#"
   xmlns:svg="http://www.w3.org/2000/svg"
   xmlns="http://www.w3.org/2000/svg"
   version="1.1"
   x="0px"
   y="0px"
   viewBox="0 0 99.999997 17.926001"
   xml:space="preserve"
   id="svg2"
   width="100"
   height="17.926001"><metadata
     id="metadata63"><rdf:RDF><cc:Work
         rdf:about=""><dc:format>image/svg+xml</dc:format><dc:type
           rdf:resource="http://purl.org/dc/dcmitype/StillImage" /><dc:title></dc:title></cc:Work></rdf:RDF></metadata><defs
     id="defs61" /><style
     type="text/css"
     id="style4">
	.st0{fill:#1A171B;}
	.st1{fill:#C8071D;}
</style><g
     id="Ebene_1"
     transform="matrix(0.14807804,0,0,0.14807804,-12.231474,-40.453062)" /><g
     id="Ebene_2"
     transform="matrix(0.14807804,0,0,0.14807804,-12.333451,-35.112428)"><g
       id="WR"><g
         id="g9"><path
           class="st0"
           d="m 185.7,257.6 c -0.7,-2.2 -1.1,-2.3 -2.6,-2.3 l 0,-1.5 c 1.6,0.1 3.2,0.3 4.7,0.3 1.7,0 3.3,-0.2 5,-0.3 l 0,1.5 -0.3,0 c -0.8,0 -1.3,-0.1 -1.3,0.6 0,0.2 0.1,0.6 0.3,1.2 l 4.1,14.8 3.6,-11.3 -1,-3.9 c -0.3,-1.3 -0.7,-1.4 -2.8,-1.5 l 0,-1.5 c 1.8,0.1 3.7,0.3 5.5,0.3 1.7,0 3.5,-0.2 5.2,-0.3 l 0,1.5 -0.7,0 c -1.1,0 -1.6,0 -1.6,0.7 0,0.3 0.1,0.8 0.2,1.1 l 3.6,14.8 4.6,-14.2 c 0.2,-0.7 0.3,-1.2 0.3,-1.5 0,-0.7 -0.7,-1 -1.8,-1 l -0.8,0 0,-1.5 c 1.3,0.1 2.5,0.3 3.8,0.3 1.1,0 2.3,-0.2 3.4,-0.3 l 0,1.5 c -1.5,0.1 -2,0.2 -2.8,2.7 l -6.7,20 -3.7,0 -3.8,-13.8 -4.6,13.8 -3.6,0 -6.2,-20.2 z"
           id="path11"
           style="fill:#1a171b" /><path
           class="st0"
           d="m 217.6,276.5 1.5,0 c 1.4,0 1.6,-0.3 1.6,-1.7 l 0,-17.3 c 0,-1.9 -0.2,-2.2 -1.8,-2.2 l -1,0 0,-1.5 c 3.6,0.1 6,0.3 9.6,0.3 3.1,0 5.3,-0.2 8.4,-0.3 0,2 0.1,4 0.4,6.1 l -1.7,0 c -0.3,-3.9 -2.4,-4.1 -5.3,-4.1 l -1.3,0 c -1.1,0 -1.7,0 -1.7,0.9 l 0,8.3 1.8,0 c 3.6,0 4.2,-1 4.2,-3.3 l 1.4,0 c -0.1,1.7 -0.2,2.9 -0.2,4.5 0,1.2 0.1,2.4 0.1,3.7 l -1.5,0 c 0,-3.2 -0.9,-3.3 -2.9,-3.3 l -2.9,0 0,7.3 c 0,1.7 0.2,2 1.9,2 1.5,0 4.4,0 5.8,-0.8 1.4,-0.9 1.9,-2.3 2.4,-3.6 l 1.5,0 c -0.6,2.4 -0.9,4.1 -1.2,6.5 -3.1,-0.2 -6.2,-0.3 -9.3,-0.3 -3.3,0 -6.5,0.1 -9.8,0.3 l 0,-1.5 z"
           id="path13"
           style="fill:#1a171b" /><path
           class="st0"
           d="m 243.9,269.7 c 0,3.5 1.4,6.3 5.1,6.3 1.7,0 4.4,-0.7 4.4,-3.3 0,-2.1 -1.6,-3.1 -3.7,-4 l -2.5,-1.1 c -4.3,-1.9 -5.7,-3.9 -5.7,-6.9 0,-6.8 6.5,-7.3 7.7,-7.3 3.2,0 6.9,0.8 7.7,0.9 -0.3,2.3 -0.3,3.1 -0.3,5.3 l 0,1 -2.2,0 c 0,-4 -1.8,-5.2 -4.5,-5.2 -2.8,0 -3.8,1.6 -3.8,3.2 0,1.8 1,2.3 4.4,3.7 l 2.4,1 c 2.2,0.9 5.3,2.2 5.3,6.8 0,5.5 -4.5,8 -8.8,8 -2.5,0 -5.8,-0.7 -8.2,-2 0.1,-1.4 0.2,-2.4 0.2,-3.8 0,-0.9 0,-1.8 -0.1,-2.7 l 2.6,0 z"
           id="path15"
           style="fill:#1a171b" /><path
           class="st0"
           d="m 271.8,274.3 c 0,2 0.1,2.2 1.9,2.2 l 1.2,0 0,1.5 c -2.1,-0.2 -4.1,-0.3 -6.1,-0.3 -2,0 -4,0.1 -6,0.3 l 0,-1.5 1.6,0 c 1.6,0 1.8,-0.2 1.8,-2.1 l 0,-18.5 -0.5,0 c -2.4,0 -5,0.5 -5.4,3.9 l -1.5,0 c 0.1,-1.4 0.1,-2.4 0.1,-3.9 0,-0.7 0,-1.4 0,-2.2 3.4,0.1 6.7,0.3 10.1,0.3 3.3,0 6.7,-0.2 10,-0.3 l 0,1.3 c 0,1.8 0.1,3 0.3,4.8 l -1.5,0 c -0.3,-3.8 -3.2,-4 -5.1,-4 l -0.7,0 0,18.5 z"
           id="path17"
           style="fill:#1a171b" /><path
           class="st0"
           d="m 279.7,276.5 1.4,0 c 1.5,0 1.6,-0.4 1.6,-2.3 l 0,-16.7 c 0,-1.8 -0.2,-2.2 -1.7,-2.2 l -1.1,0 0,-1.5 c 3,0.1 6,0.3 9,0.3 3.1,0 6.1,-0.2 9.1,-0.3 0.1,2.2 0.2,3.7 0.3,5.9 l -1.6,0 c -0.3,-2.4 -1.1,-4 -5.1,-4 l -1.3,0 c -1.7,0 -1.8,0.3 -1.8,2.1 l 0,7.2 3.3,0 c 1.5,0 3,-0.4 3,-3.2 l 1.4,0 c -0.1,1.5 -0.2,2.9 -0.2,4.4 0,1.3 0.1,2.6 0.2,3.9 l -1.5,0 c 0,-3.1 -0.8,-3.5 -2.8,-3.5 l -3.3,0 0,7.2 c 0,2.1 0,2.6 1.6,2.6 l 2,0 0,1.5 c -2.2,-0.2 -4.4,-0.3 -6.6,-0.3 -1.9,0 -3.9,0.2 -5.8,0.3 l 0,-1.4 z"
           id="path19"
           style="fill:#1a171b" /><path
           class="st0"
           d="m 301.9,273.9 c -0.3,0.8 -0.5,1.2 -0.5,1.6 0,0.8 0.9,1 2.9,1 l 0,1.5 c -1.4,-0.2 -2.8,-0.3 -4.1,-0.3 -1.3,0 -3.7,0.3 -3.7,0.3 l 0,-1.5 c 1.5,-0.2 2.2,-0.4 3.3,-2.9 l 8.8,-19.9 2.6,0 7.5,20.1 c 0.8,2.2 1,2.7 3,2.7 l 0,1.5 c -2,-0.2 -3.5,-0.3 -5.6,-0.3 -2.3,0 -4.1,0.1 -6.2,0.3 l 0,-1.5 c 1.9,0 3.1,-0.1 3.1,-1.1 0,-0.2 0,-0.4 -0.4,-1.5 l -1.4,-3.9 -7.7,0 -1.6,3.9 z m 3.1,-21.8 c -1.4,0 -2.4,-1.3 -2.4,-2.6 0,-1.4 1.2,-2.4 2.5,-2.4 1.3,0 2.4,1.1 2.4,2.5 0,1.4 -1.1,2.5 -2.5,2.5 z m 5.6,16.3 -2.9,-8.3 -3.4,8.3 6.3,0 z m 4.1,-16.3 c -1.4,0 -2.5,-1.1 -2.5,-2.5 0,-1.4 1,-2.5 2.4,-2.5 1.3,0 2.5,1.1 2.5,2.4 0,1.3 -1,2.6 -2.4,2.6 z"
           id="path21"
           style="fill:#1a171b" /><path
           class="st0"
           d="m 332,273.7 c 0,1.9 0,2.3 1.6,2.3 1.6,0 7.5,0 8.4,-5.1 l 1.7,0 c -0.8,3.2 -0.9,3.9 -1.4,7 -4,-0.2 -6.6,-0.3 -9.8,-0.3 -3,0 -6.6,0.2 -9.2,0.3 l 0,-1.5 1.1,0 c 1.9,0 1.9,-0.1 1.9,-2.6 l 0,-16.8 c 0,-1.8 -0.3,-1.8 -2.9,-1.8 l 0,-1.5 c 2,0.2 4,0.3 6,0.3 2,0 4,-0.1 6,-0.3 l 0,1.5 -1.5,0 c -1.9,0 -1.9,0.2 -1.9,2.6 l 0,15.9 z"
           id="path23"
           style="fill:#1a171b" /><path
           class="st0"
           d="m 344.2,276.5 1.2,0 c 1.6,0 1.6,-0.5 1.6,-2.2 l 0,-17 c 0,-1.9 -0.3,-2 -1.8,-2 l -1,0 0,-1.5 c 2.1,0.1 3.5,0.3 5.6,0.3 2.2,0 3.8,-0.2 5.9,-0.3 l 0,1.5 -0.9,0 c -1.7,0 -1.9,0.1 -1.9,2 l 0,16.8 c 0,2 0,2.4 1.8,2.4 l 1.1,0 0,1.5 c -2,-0.2 -4,-0.3 -6,-0.3 -1.9,0 -3.7,0.1 -5.6,0.3 l 0,-1.5 z"
           id="path25"
           style="fill:#1a171b" /><path
           class="st0"
           d="m 362.1,269.7 c 0,3.5 1.4,6.3 5.1,6.3 1.7,0 4.4,-0.7 4.4,-3.3 0,-2.1 -1.6,-3.1 -3.7,-4 l -2.5,-1.1 c -4.3,-1.9 -5.7,-3.9 -5.7,-6.9 0,-6.8 6.5,-7.3 7.7,-7.3 3.2,0 6.9,0.8 7.7,0.9 -0.3,2.3 -0.3,3.1 -0.3,5.3 l 0,1 -2.2,0 c 0,-4 -1.8,-5.2 -4.5,-5.2 -2.8,0 -3.8,1.6 -3.8,3.2 0,1.8 1,2.3 4.4,3.7 l 2.4,1 c 2.2,0.9 5.3,2.2 5.3,6.8 0,5.5 -4.5,8 -8.8,8 -2.5,0 -5.8,-0.7 -8.2,-2 0.1,-1.4 0.2,-2.4 0.2,-3.8 0,-0.9 0,-1.8 -0.1,-2.7 l 2.6,0 z"
           id="path27"
           style="fill:#1a171b" /><path
           class="st0"
           d="m 399.3,262 c -0.1,-2.3 -0.7,-6.6 -5.8,-6.6 -6,0 -7.3,5.8 -7.3,9.8 0,7.4 3.9,10.5 7.5,10.5 2.6,0 5.2,-1.5 6.9,-4.4 l 1.9,1.1 c -1.3,2 -4.1,5.8 -10.6,5.8 -7.5,0 -11.8,-5.4 -11.8,-12.3 0,-7.3 5.2,-12.4 12.6,-12.4 3.4,0 7,1 8.9,1.2 -0.1,1.2 -0.2,2.4 -0.2,3.6 0,1.2 0.1,2.7 0.1,3.7 l -2.2,0 z"
           id="path29"
           style="fill:#1a171b" /><path
           class="st0"
           d="m 413.7,274.5 c 0,1.9 0.4,2 1.6,2 l 1.4,0 0,1.5 c -2,-0.2 -4.1,-0.3 -6,-0.3 -1.9,0 -3.8,0.1 -5.7,0.3 l 0,-1.5 1.4,0 c 1.7,0 1.7,-0.6 1.7,-2.6 l 0,-15.9 c 0,-2.2 0,-2.7 -1.8,-2.7 l -1.1,0 0,-1.5 c 1.8,0.1 3.5,0.3 5.3,0.3 2.1,0 4.1,-0.2 6.1,-0.3 l 0,1.5 -1,0 c -1.4,0 -1.7,0.1 -1.7,1.5 l 0,7.4 10.1,0 0,-6.7 c 0,-1.6 0,-2.2 -1.6,-2.2 l -1.4,0 0,-1.5 c 2,0.1 3.9,0.3 5.9,0.3 2.2,0 3.9,-0.2 5.6,-0.3 l 0,1.5 -1,0 c -1.3,0 -1.7,0.1 -1.7,1.5 l 0,17.3 c 0,2.1 0.1,2.4 2,2.4 l 1.1,0 0,1.5 c -1.9,-0.2 -3.8,-0.3 -5.7,-0.3 -2,0 -4,0.1 -6,0.3 l 0,-1.5 1.1,0 c 1.6,0 1.9,-0.1 1.9,-2.2 l 0,-8.1 -10.1,0 0,8.3 z"
           id="path31"
           style="fill:#1a171b" /><path
           class="st0"
           d="m 434.6,276.5 1.5,0 c 1.4,0 1.6,-0.3 1.6,-1.7 l 0,-17.3 c 0,-1.9 -0.2,-2.2 -1.8,-2.2 l -1,0 0,-1.5 c 3.6,0.1 6,0.3 9.6,0.3 3.1,0 5.3,-0.2 8.4,-0.3 0,2 0.1,4 0.4,6.1 l -1.7,0 c -0.3,-3.9 -2.4,-4.1 -5.3,-4.1 l -1.3,0 c -1.1,0 -1.7,0 -1.7,0.9 l 0,8.3 1.8,0 c 3.6,0 4.2,-1 4.2,-3.3 l 1.4,0 c -0.1,1.7 -0.2,2.9 -0.2,4.5 0,1.2 0.1,2.4 0.1,3.7 l -1.5,0 c 0,-3.2 -0.9,-3.3 -2.9,-3.3 l -2.9,0 0,7.3 c 0,1.7 0.2,2 1.9,2 1.5,0 4.4,0 5.8,-0.8 1.4,-0.9 1.9,-2.3 2.4,-3.6 l 1.5,0 c -0.6,2.4 -0.9,4.1 -1.2,6.5 -3.1,-0.2 -6.2,-0.3 -9.3,-0.3 -3.3,0 -6.5,0.1 -9.8,0.3 l 0,-1.5 z"
           id="path33"
           style="fill:#1a171b" /></g><g
         id="g35"><g
           id="g37"><path
             class="st0"
             d="m 207.1,337.7 c 0,5.1 0.4,5.6 4.7,5.6 l 1.8,0 0,3.9 c -4.8,-0.4 -9.6,-0.8 -14.4,-0.8 -4.9,0 -9.7,0.3 -14.5,0.8 l 0,-3.9 3,0 c 4.1,0 4.5,-0.4 4.5,-5.3 l 0,-43.5 c 0,-5.1 -0.4,-5.7 -4.7,-5.7 l -2.9,0 0,-3.8 c 4.6,0.3 9.3,0.8 13.9,0.8 4.1,0 15.9,-0.5 18.2,-0.5 13.3,0 20.1,5.7 20.1,14 0,13.8 -12.4,17.2 -14.6,17.8 4.4,1.7 8.5,5.3 13.3,14.7 l 1.2,2.3 c 1.6,3.1 4.5,10.3 9.3,10.4 l 0,3.5 -9.6,-0.6 c -8.8,-0.5 -10.3,-1 -15.3,-13.9 l -3,-7.9 c -2.2,-5.7 -2.5,-6.4 -7.5,-6.4 l -3.6,0 0,18.5 z m 5.4,-23.1 c 8.6,0 10.8,-6.8 10.8,-12.3 0,-11.4 -7.1,-12.3 -11.8,-12.3 -1.7,0 -2.9,0.1 -4.5,0.3 l 0,24.3 5.5,0 z"
             id="path39"
             style="fill:#1a171b" /><path
             class="st0"
             d="m 240.4,285.1 c 4.6,0.3 9.6,0.8 13.9,0.8 5,0 10.1,-0.4 15.1,-0.8 l 0,3.8 -3.4,0 c -3.8,0 -4.1,1 -4.1,6.6 l 0,31.8 c 0,10 7.5,12.7 14.6,12.7 13.5,0 15.5,-9 15.5,-19.2 l 0,-23.2 c 0,-7.9 0,-8.7 -4.1,-8.7 l -3.4,0 0,-3.8 c 3.4,0.3 6.7,0.8 10,0.8 2.9,0 5.9,-0.4 8.7,-0.8 l 0,3.8 -1.7,0 c -4.2,0 -4.2,2.9 -4.2,10.2 l 0,21.3 c 0,10.5 -2,27.6 -26,27.6 -9.5,0 -24.2,-3 -24.2,-21.7 l 0,-31.7 c 0,-5 -0.3,-5.7 -4.4,-5.7 l -2.3,0 0,-3.8 z"
             id="path41"
             style="fill:#1a171b" /><path
             class="st0"
             d="m 321,297.7 0,39.5 c 0,5.2 0.4,6.1 4.7,6.1 l 3.4,0 0,3.9 c -3.8,-0.4 -7.6,-0.8 -11.3,-0.8 -3.4,0 -6.9,0.3 -10.3,0.8 l 0,-3.9 3.4,0 c 3.9,0 4.7,-0.9 4.7,-6.1 l 0,-45.3 c -1.3,-2 -2.6,-2.7 -7.2,-3.1 l 0,-3.8 c 3.4,0.3 6.7,0.8 10.1,0.8 3.9,0 7.6,-0.4 11.4,-0.8 l 31.1,39.4 0,-29 c 0,-5.3 -0.6,-6.6 -4.7,-6.6 l -3.7,0 0,-3.8 c 3.4,0.3 6.9,0.8 10.3,0.8 3.2,0 6.6,-0.4 9.8,-0.8 l 0,3.8 -1.9,0 c -4.3,0 -4.6,1.2 -4.6,6.6 l 0,52 -6.2,0 -39,-49.7 z"
             id="path43"
             style="fill:#1a171b" /><path
             class="st0"
             d="m 378.1,343.3 3.7,0 c 3.7,0 4.1,-0.3 4.1,-5.9 l 0,-42.7 c 0,-5.1 -0.5,-5.8 -4.1,-5.8 l -3.4,0 0,-3.8 c 4.9,0.3 9.7,0.8 14.7,0.8 3.8,0 14.9,-0.6 19.8,-0.6 18.1,0 33.1,8.4 33.1,29.6 0,14.5 -7.9,31.8 -39.3,31.8 -4.7,0 -10.4,-0.3 -14,-0.3 -4.9,0 -9.7,0.3 -14.5,0.8 l 0,-3.9 z m 22.6,-5.8 c 0,3.9 2.4,4.7 7.3,4.7 19.5,0 21.8,-18.8 21.8,-26.8 0,-12.5 -5.4,-21.2 -12.5,-24.2 -3.4,-1.5 -8.6,-1.5 -9.9,-1.5 -6.1,0 -6.7,0.2 -6.7,3.3 l 0,44.5 z"
             id="path45"
             style="fill:#1a171b" /><path
             class="st0"
             d="m 459.7,325.9 c 0,8.9 3.5,16.3 13.2,16.3 4.5,0 11.3,-1.7 11.3,-8.6 0,-5.5 -4.1,-7.9 -9.5,-10.2 l -6.3,-2.7 c -11.2,-4.9 -14.6,-9.9 -14.6,-17.7 0,-17.5 16.6,-18.7 19.9,-18.7 8.2,0 17.7,2 19.8,2.3 -0.7,5.8 -0.8,8 -0.8,13.7 l 0,2.6 -5.5,0 c 0,-10.3 -4.7,-13.5 -11.6,-13.5 -7.3,0 -9.8,4.1 -9.8,8.1 0,4.6 2.5,5.8 11.3,9.6 l 6.2,2.7 c 5.6,2.4 13.5,5.7 13.5,17.5 0,14.2 -11.5,20.6 -22.7,20.6 -6.6,0 -15,-1.8 -21.1,-5.2 0.3,-3.6 0.4,-6.2 0.4,-9.8 0,-2.3 0,-4.7 -0.2,-7 l 6.5,0 z"
             id="path47"
             style="fill:#1a171b" /><path
             class="st0"
             d="m 550.3,306.1 c -0.2,-5.8 -1.7,-16.9 -14.9,-16.9 -15.5,0 -18.8,14.8 -18.8,25.3 0,18.9 10,26.9 19.4,26.9 6.8,0 13.4,-3.9 17.7,-11.4 l 4.8,2.9 c -3.4,5.1 -10.7,15 -27.3,15 -19.2,0 -30.3,-14 -30.3,-31.6 0,-18.8 13.4,-32 32.5,-32 8.7,0 18.1,2.6 22.9,3.2 -0.3,3.1 -0.5,6.2 -0.5,9.2 0,3.2 0.2,7 0.3,9.4 l -5.8,0 z"
             id="path49"
             style="fill:#1a171b" /><path
             class="st0"
             d="m 582.2,338.2 c 0,4.8 1,5.1 4,5.1 l 3.7,0 0,3.9 c -5.2,-0.4 -10.4,-0.8 -15.5,-0.8 -5,0 -9.8,0.3 -14.7,0.8 l 0,-3.9 3.5,0 c 4.3,0 4.3,-1.5 4.3,-6.6 l 0,-41 c 0,-5.6 -0.1,-6.9 -4.6,-6.9 l -2.9,0 0,-3.8 c 4.5,0.3 9.1,0.8 13.6,0.8 5.3,0 10.5,-0.4 15.7,-0.8 l 0,3.8 -2.7,0 c -3.7,0 -4.5,0.3 -4.5,3.8 l 0,19 26,0 0,-17.1 c 0,-4.1 0,-5.7 -4,-5.7 l -3.5,0 0,-3.8 c 5,0.3 10.1,0.8 15.1,0.8 5.5,0 9.9,-0.5 14.3,-0.8 l 0,3.8 -2.7,0 c -3.4,0 -4.5,0.3 -4.5,3.8 l 0,44.6 c 0,5.4 0.3,6.1 5,6.1 l 2.8,0 0,3.9 c -4.9,-0.4 -9.8,-0.8 -14.7,-0.8 -5.2,0 -10.3,0.3 -15.5,0.8 l 0,-3.9 2.9,0 c 4.1,0 4.9,-0.3 4.9,-5.7 l 0,-20.9 -26,0 0,21.5 z"
             id="path51"
             style="fill:#1a171b" /><path
             class="st0"
             d="m 646.6,336.7 c -0.8,2 -1.3,3.2 -1.3,4.1 0,2.1 2.4,2.5 7.4,2.5 l 0,3.9 c -3.6,-0.4 -7.1,-0.8 -10.6,-0.8 -3.4,0 -9.4,0.8 -9.5,0.8 l 0,-3.9 c 3.8,-0.5 5.5,-0.9 8.4,-7.5 l 22.6,-51.1 6.6,0 19.4,51.7 c 2.1,5.6 2.5,6.9 7.8,6.9 l 0,3.9 c -5,-0.4 -9.1,-0.8 -14.5,-0.8 -5.9,0 -10.5,0.3 -16,0.8 l 0,-3.9 c 4.9,0 8.1,-0.3 8.1,-2.7 0,-0.5 0,-1.1 -1,-3.8 l -3.7,-9.9 -19.7,0 -4,9.8 z m 22.3,-14.3 -7.5,-21.3 -8.7,21.3 16.2,0 z"
             id="path53"
             style="fill:#1a171b" /><path
             class="st0"
             d="m 693.6,285.1 c 4.6,0.3 9.6,0.8 13.9,0.8 5,0 10.1,-0.4 15.1,-0.8 l 0,3.8 -3.4,0 c -3.8,0 -4.1,1 -4.1,6.6 l 0,31.8 c 0,10 7.5,12.7 14.6,12.7 13.5,0 15.5,-9 15.5,-19.2 l 0,-23.2 c 0,-7.9 0,-8.7 -4.1,-8.7 l -3.4,0 0,-3.8 c 3.4,0.3 6.7,0.8 10,0.8 2.9,0 5.9,-0.4 8.7,-0.8 l 0,3.8 -1.7,0 c -4.2,0 -4.2,2.9 -4.2,10.2 l 0,21.3 c 0,10.5 -2,27.6 -26,27.6 -9.5,0 -24.2,-3 -24.2,-21.7 l 0,-31.7 c 0,-5 -0.3,-5.7 -4.4,-5.7 l -2.3,0 0,-3.8 z"
             id="path55"
             style="fill:#1a171b" /></g><path
           class="st1"
           d="m 85.5,254.3 86.3,0 0,93.9 -86.3,0 0,-93.9 z m 3.2,48.6 8.2,40.6 11.3,0 5,-31.1 5.3,31.1 11.1,0 8.1,-40.6 -8.7,0 -5.1,29 -4.9,-28.9 -11.4,0 -4.8,29 -4.8,-29 -9.3,0 z m 51,0 0,40.8 9.4,-0.1 0.1,-16.5 2.2,0 c 0,0 2.8,0.3 3.6,3.4 l 3.7,13.1 10.3,0 -5.2,-15.9 c 0,0 -1.1,-4.2 -4.9,-4.4 5.7,-1 8.3,-6 8.3,-10.1 -0.1,-6.6 -5.7,-10.4 -10.9,-10.4 l -16.6,0 z m 9.2,6.9 4.4,0 c 1.4,0 4.3,1.3 4.4,5 0,3.9 -3.3,5.4 -4.6,5.4 l -4.2,0 0,-10.4 z"
           id="path57"
           style="fill:#c8071d" /></g></g></g></svg>