<?xml version="1.0" encoding="UTF-8" standalone="no"?>
<svg
   xmlns:dc="http://purl.org/dc/elements/1.1/"
   xmlns:cc="http://creativecommons.org/ns#"
   xmlns:rdf="http://www.w3.org/1999/02/22-rdf-syntax-ns#"
   xmlns:svg="http://www.w3.org/2000/svg"
   xmlns="http://www.w3.org/2000/svg"
   height="142"
   width="719.90002"
   xml:space="preserve"
   viewBox="0 0 719.9 142"
   y="0px"
   x="0px"
   id="Ebene_1"
   version="1.1"><metadata
     id="metadata42"><rdf:RDF><cc:Work
         rdf:about=""><dc:format>image/svg+xml</dc:format><dc:type
           rdf:resource="http://purl.org/dc/dcmitype/StillImage" /><dc:title></dc:title></cc:Work></rdf:RDF></metadata><defs
     id="defs40" /><style
     id="style3"
     type="text/css">
	.st0{fill:#009977;}
	.st1{fill:#FFFFFF;}
</style><g
     transform="translate(0,23.499997)"
     id="g5"><g
       id="Logo-IKZ_1_"><polygon
         style="fill:#009977"
         id="polygon8"
         points="94,99.4 157.6,99.4 157.6,81.6 171.2,99.4 362.6,99.4 391.9,64.5 375.6,41.3 393.5,20.5 393.5,19.3 379.8,0 253.1,0 244.6,9.4 238.6,0 156.6,0 145.7,12.6 136.8,0 75.5,0 75.4,22.6 58.8,0 0,0 0,81.7 13.4,99.4 81.5,99.4 81.4,81.6 "
         class="st0" /><polygon
         style="fill:#ffffff"
         id="polygon10"
         points="4,77.4 56.6,77.4 56.6,3.8 3.9,3.8 "
         class="st1" /><polygon
         style="fill:#ffffff"
         id="polygon12"
         points="79.7,77.4 132.4,77.4 132.4,41.9 157.5,77.4 222.7,77.4 197,41.1 229.3,3.8 158.5,3.8 132.4,33.7 132.4,3.8 79.7,3.8 "
         class="st1" /><polygon
         style="fill:#ffffff"
         id="polygon14"
         points="340.3,77.4 370,43.1 335.7,43.1 370,3.8 255.1,3.8 224.2,39.4 263,39.4 230.2,77.4 "
         class="st1" /></g><g
       id="g16"><path
         style="fill:#009977"
         id="path18"
         d="m 392.9,72.1 21.7,0 0,10.5 -21.7,0 0,-10.5 z"
         class="st0" /><path
         style="fill:#009977"
         id="path20"
         d="m 419.7,79 c 0,-12.8 7.1,-21.5 19.3,-21.5 11.4,0 19.1,6.7 19.1,20.8 0,15.2 -7.9,22.1 -19.3,22.1 -11.8,0 -19.1,-8.1 -19.1,-21.4 z m 24.9,-0.6 c 0,-10 -1.9,-12.6 -5.7,-12.6 -3.7,0 -5.7,2.7 -5.7,12.8 0,10 1.7,13.2 5.8,13.2 3.8,0.1 5.6,-3.4 5.6,-13.4 z"
         class="st0" /><path
         style="fill:#009977"
         id="path22"
         d="M 463.3,59.1 474,57.6 c 0.4,1 0.8,2.6 0.8,4.8 2.8,-2.6 6.1,-4.9 11.8,-4.9 8.2,0 11.4,4.5 11.4,11.2 l 0,30.8 -12.6,0 0,-26.9 c 0,-4.3 -1.4,-5.3 -4,-5.3 -2.1,0 -4.1,1 -5.6,2.5 l 0,29.6 -12.6,0 0,-40.3 z"
         class="st0" /><path
         style="fill:#009977"
         id="path24"
         d="m 504.6,88.4 0,-44.5 11.8,-2.1 c 0.6,2.2 0.9,5.4 0.9,9.5 l 0,35 c 0,4.4 0.6,4.9 2.1,4.9 0.5,0 0.7,-0.1 1.1,-0.2 l 1,8.1 c -1.6,0.6 -3.3,1.1 -6.4,1.1 -9.2,0.2 -10.5,-4.6 -10.5,-11.8 z"
         class="st0" /><path
         style="fill:#009977"
         id="path26"
         d="m 525.5,47.5 c 0,-3.6 2.7,-6.4 6.5,-6.4 3.8,0 6.6,2.9 6.6,6.4 0,3.5 -2.7,6.4 -6.6,6.4 -3.7,0 -6.5,-2.8 -6.5,-6.4 z m 0.1,11.4 12.6,-1.1 0,41.6 -12.6,0 0,-40.5 z"
         class="st0" /><path
         style="fill:#009977"
         id="path28"
         d="M 545.3,59.1 556,57.6 c 0.4,1 0.8,2.6 0.8,4.8 2.8,-2.6 6.1,-4.9 11.8,-4.9 8.2,0 11.4,4.5 11.4,11.2 l 0,30.8 -12.6,0 0,-26.9 c 0,-4.3 -1.4,-5.3 -4,-5.3 -2.1,0 -4.1,1 -5.6,2.5 l 0,29.6 -12.6,0 0,-40.3 z"
         class="st0" /><path
         style="fill:#009977"
         id="path30"
         d="m 584.8,79.1 c 0,-13.9 7.4,-21.6 18.6,-21.6 12.4,0 17.2,6.9 17.2,21.1 l 0,3.5 -22.9,0 c 0.2,5.7 2.1,9 8.7,9 3.9,0 6.3,-1.5 9.1,-3.5 l 4.9,7.9 c -4.5,3.3 -9.4,4.9 -15.8,4.9 -13.4,0 -19.8,-8.2 -19.8,-21.3 z m 23.6,-4.2 c 0.2,-7 -1.4,-9.1 -5.2,-9.1 -3.7,0 -5.4,2.5 -5.5,9.1 l 10.7,0 z"
         class="st0" /><path
         style="fill:#009977"
         id="path32"
         d="m 624.3,93.4 c 0,-4.1 3.1,-7.2 7.2,-7.2 4,0 7,3.1 7,7.2 0,4.1 -3.2,7 -7.2,7 -4,0.1 -7,-2.8 -7,-7 z"
         class="st0" /><path
         style="fill:#009977"
         id="path34"
         d="m 642.4,78.3 c 0,-9.9 3.9,-20.8 15.7,-20.8 3,0 6.1,1 8.3,2.6 l 0,-18.2 12.6,1.2 0,56.3 -11,0 c -0.2,-0.6 -0.4,-2 -0.5,-3.3 -2.1,2.5 -5.6,4.2 -9.5,4.2 -9.6,0.1 -15.6,-6.5 -15.6,-22 z m 24,9.9 0,-19.6 c -1.1,-1.4 -2.6,-2.3 -4.8,-2.3 -4.2,0 -6,2.9 -6,12.6 0,9 1.4,11.9 5.3,11.9 2.5,0 4.1,-1 5.5,-2.6 z"
         class="st0" /><path
         style="fill:#009977"
         id="path36"
         d="m 684,79.1 c 0,-13.9 7.4,-21.6 18.6,-21.6 12.4,0 17.2,6.9 17.2,21.1 l 0,3.5 -22.8,0 c 0.2,5.7 2.1,9 8.7,9 3.9,0 6.3,-1.5 9.1,-3.5 l 4.9,7.9 c -4.5,3.3 -9.4,4.9 -15.8,4.9 -13.5,0 -19.9,-8.2 -19.9,-21.3 z m 23.6,-4.2 c 0.2,-7 -1.4,-9.1 -5.2,-9.1 -3.7,0 -5.4,2.5 -5.5,9.1 l 10.7,0 z"
         class="st0" /></g></g></svg>