<svg id="Ebene_1" data-name="Ebene 1" xmlns="http://www.w3.org/2000/svg" viewBox="0 0 600 75.18"><defs><style>.cls-1{fill:#4b4a4b;}.cls-2{fill:#e52520;}</style></defs><title>logo-head</title><path class="cls-1" d="M0,1.13H32.61Q50,1.13,59,9.91T68,38q0,18.46-9,27.23T32.61,74H0V1.13ZM29.89,57.75a21.78,21.78,0,0,0,9.17-1.64,11.05,11.05,0,0,0,5.38-5.89Q46.31,46,46.31,38t-1.7-12.51a11.07,11.07,0,0,0-5.26-6.28,21,21,0,0,0-9.45-1.81H21.29V57.75h8.61Z"/><path class="cls-1" d="M72.58,1.13h55.25v16.3h-34V29.32h29.78V45.86H93.86V57.75h34V74H72.58V1.13Z"/><path class="cls-1" d="M131.79,1.13h37.93q12.91,0,19.47,7t6.57,18.91a23.15,23.15,0,0,1-3.62,12.85,24.15,24.15,0,0,1-9.85,8.66A10.78,10.78,0,0,1,184.44,51a26.64,26.64,0,0,1,2,4L194.86,74H172.67L165,56.5a6.46,6.46,0,0,0-2.21-2.89,6.72,6.72,0,0,0-3.68-.85h-6V74H131.79V1.13Zm32.5,35.33q4.64,0,7.19-2.43t2.55-7q0-9.62-9.06-9.62H153.08v19h11.21Z"/><path class="cls-2" d="M296.65,1.13h49.28v16.3H312V29.32h29.78V45.86H312V57.75h34V74H290.67V29.47Z"/><path class="cls-2" d="M361.44,74a44.44,44.44,0,0,1-11.1-3.34V53.1A61.42,61.42,0,0,0,361.78,57a50.39,50.39,0,0,0,11.55,1.47q6.11,0,8.78-1.08a4.14,4.14,0,0,0,2.66-4.24,4.53,4.53,0,0,0-1.3-3.34,10.92,10.92,0,0,0-3.79-2.27q-2.49-1-7.93-2.66A26.36,26.36,0,0,1,369,44a47.32,47.32,0,0,1-11.72-5.21A16.71,16.71,0,0,1,351.19,32a23.75,23.75,0,0,1-1.87-10q0-10.75,7.7-16.36T379.66,0a82.11,82.11,0,0,1,12.17,1,67.87,67.87,0,0,1,10.59,2.32V20.95a52.28,52.28,0,0,0-19.36-4,33.34,33.34,0,0,0-9,.91,3.81,3.81,0,0,0-3,4,3.92,3.92,0,0,0,1.25,3.06,10.66,10.66,0,0,0,3.79,2q2.55,0.85,8.66,2.43,8.72,2.38,13.42,5.72a18.17,18.17,0,0,1,6.51,7.64A26.83,26.83,0,0,1,406.5,53.1a19.15,19.15,0,0,1-7.87,16.13q-7.87,5.94-23.15,5.94A78.89,78.89,0,0,1,361.44,74Z"/><path class="cls-2" d="M427.56,17H407.07V1.13h62.27V17H448.85V74H427.56V17Z"/><path class="cls-2" d="M473.87,1.13h55.25v16.3h-34V29.32h29.78V45.86H495.16V57.75h34V74H473.87V1.13Z"/><path class="cls-2" d="M533.09,1.13H551.2l27.51,38.61V1.13H600V74H581.77l-27.4-38.5V74H533.09V1.13Z"/><path class="cls-2" d="M196.13,0.49h21l8.34,39,8.12-27.89V0.49h17.6l11.2,39.09,8.8-39.09h21l-17,73.61H255.8L244.71,36l-12,38.06H213.28Z"/></svg>