<?xml version="1.0" encoding="utf-8"?>
<!-- Generator: Adobe Illustrator 23.0.6, SVG Export Plug-In . SVG Version: 6.00 Build 0)  -->
<svg version="1.1" id="Ebene_1" xmlns="http://www.w3.org/2000/svg" xmlns:xlink="http://www.w3.org/1999/xlink" x="0px" y="0px"
	 viewBox="0 0 276 74.2" style="enable-background:new 0 0 276 74.2;" xml:space="preserve">
<style type="text/css">
	.st0{fill:#303030;}
	.st1{fill:#E52520;}
</style>
<title>logo-head</title>
<g>
	<path class="st0" d="M40,0c3.3,0,6.3,0.5,9,1.6c2.7,1.1,5,2.5,6.9,4.4c1.9,1.9,3.4,4,4.4,6.5c1,2.5,1.5,5.1,1.5,8
		c0,4.4-0.9,8.1-2.8,11.3c-1.8,3.2-4.8,5.6-9,7.3v0.2c2,0.6,3.7,1.4,5,2.5c1.3,1.1,2.4,2.5,3.2,4.1c0.8,1.6,1.4,3.3,1.8,5.1
		c0.4,1.9,0.6,3.7,0.8,5.6c0.1,1.2,0.1,2.6,0.2,4.2c0.1,1.6,0.2,3.2,0.4,4.9c0.2,1.7,0.4,3.2,0.8,4.7c0.4,1.5,1,2.8,1.7,3.8H47.6
		c-0.9-2.4-1.5-5.2-1.7-8.4c-0.2-3.3-0.5-6.4-0.9-9.4c-0.6-3.9-1.7-6.7-3.5-8.5c-1.8-1.8-4.7-2.7-8.8-2.7H16.3v29H0V0H40z
		 M34.2,33.6c3.7,0,6.6-0.8,8.4-2.5c1.9-1.7,2.8-4.4,2.8-8.1c0-3.6-0.9-6.2-2.8-7.8c-1.9-1.6-4.7-2.4-8.4-2.4H16.3v20.9H34.2z"/>
	<path class="st0" d="M127.7,74.2l-12.6-50.5h-0.2l-12.4,50.5H86L66.3,0h16.3l11.7,50.5h0.2L107.5,0h15.3l12.7,51.2h0.2L147.8,0h16
		l-20,74.2H127.7z"/>
	<path class="st0" d="M204.8,0c4.6,0,8.6,0.7,11.9,2c3.3,1.4,5.9,3.1,8,5.4c2,2.2,3.5,4.7,4.5,7.6c0.9,2.8,1.4,5.8,1.4,8.8
		c0,3-0.5,5.9-1.4,8.8c-0.9,2.9-2.4,5.4-4.5,7.6c-2,2.2-4.7,4-8,5.4c-3.3,1.4-7.2,2-11.9,2h-17.2v26.6h-16.3V0H204.8z M200.3,34.9
		c1.9,0,3.7-0.1,5.4-0.4c1.7-0.3,3.3-0.8,4.6-1.6c1.3-0.8,2.4-1.9,3.2-3.4c0.8-1.5,1.2-3.4,1.2-5.7c0-2.4-0.4-4.3-1.2-5.7
		c-0.8-1.5-1.9-2.6-3.2-3.4c-1.3-0.8-2.8-1.3-4.6-1.6c-1.7-0.3-3.5-0.4-5.4-0.4h-12.7v22.2H200.3z"/>
	<path class="st1" d="M259.2,1.5h5.9v49.2H276v5.5h-10.9v18.1h-6V56.1h-33.6v-6.3L259.2,1.5z M259.1,11h-0.2l-27.4,39.6h27.7V11z"/>
</g>
</svg>
